<svg width="262" height="414" viewBox="0 0 262 414" fill="none" xmlns="http://www.w3.org/2000/svg">
<path d="M257.951 354.469L261.876 202.58L159.108 157.62V0.55127L0.421875 52.9075V208.868L101.136 258.607V315.597L1.71215 352.488L9.99901 357.268L109.387 413.513V405.135V321.522L156.582 305.457L257.969 364.846V354.469H257.951ZM101.136 400.374L20.3576 353.742L18.2677 352.543L101.136 324.339V400.392V400.374ZM105.734 251.72L8.67239 201.489V59.5043L150.857 11.0916V163.999L244.739 203.016L105.716 251.72H105.734ZM157.454 296.443L147.096 299.969L109.387 312.799V260.733L253.226 208.74L249.718 349.544L157.454 296.425V296.443Z" fill="black"/>
<rect x="1.16731" y="46.9171" width="16.2147" height="16.2147" fill="white" stroke="black" stroke-width="1.49087"/>
<rect x="1.16731" y="234.076" width="16.2147" height="16.2147" fill="white" stroke="black" stroke-width="1.49087"/>
<rect x="208.788" y="46.9171" width="16.2147" height="16.2147" fill="white" stroke="black" stroke-width="1.49087"/>
<rect x="97.6297" y="364.858" width="16.2147" height="16.2147" fill="white" stroke="black" stroke-width="1.49087"/>
<line x1="17.5371" y1="54.278" x2="208.043" y2="54.278" stroke="black" stroke-width="1.49087"/>
<line x1="17.8959" y1="241.475" x2="168.061" y2="192.406" stroke="black" stroke-width="1.49087"/>
<line x1="7.75038" y1="250.598" x2="97.4869" y2="374.019" stroke="black" stroke-width="1.49087"/>
<rect x="166.147" y="184.951" width="16.2147" height="16.2147" fill="white" stroke="black" stroke-width="1.49087"/>
</svg>
