<svg width="241" height="241"  fill="none" xmlns="http://www.w3.org/2000/svg">
<circle cx="120.361" cy="118.739" r="109.097" fill="#15D076"/>
<path d="M200.959 118.733C200.959 133.94 196.756 148.162 189.424 160.301C185.517 166.771 180.735 172.662 175.227 177.776C170.913 181.794 166.144 185.343 161.03 188.338C156.556 190.963 151.799 193.169 146.833 194.894C142.273 196.484 137.528 197.667 132.636 198.419C128.63 199.035 124.539 199.343 120.361 199.343C75.8473 199.33 39.7632 163.246 39.7632 118.733C39.7632 113.446 40.2685 108.282 41.242 103.279C42.3512 97.585 44.0519 92.1009 46.2825 86.9126C48.7965 81.0711 51.9884 75.5747 55.7472 70.5465C60.3809 64.3353 65.902 58.8143 72.1009 54.1805C85.5585 44.0996 102.27 38.1349 120.361 38.1349C120.768 38.1349 121.187 38.1349 121.593 38.1349C121.741 38.1349 121.901 38.1349 122.049 38.1349C122.074 38.1349 122.111 38.1349 122.136 38.1349C122.579 38.1349 123.023 38.1595 123.467 38.1719C123.984 38.1842 124.502 38.2212 125.019 38.2458C125.426 38.2704 125.833 38.2951 126.239 38.3197C126.387 38.3197 126.535 38.3444 126.683 38.3567C127.09 38.3814 127.496 38.4183 127.891 38.4553C128.47 38.5046 129.037 38.5662 129.604 38.6278C130.048 38.6771 130.479 38.7264 130.91 38.7881C131.477 38.862 132.044 38.9483 132.611 39.0345C132.611 39.0345 132.734 39.0469 132.796 39.0592C133.067 39.0961 133.338 39.1454 133.609 39.1947C134.804 39.3919 135.975 39.6137 137.146 39.8602C137.442 39.9218 137.738 39.9835 138.046 40.0574C138.637 40.193 139.241 40.3285 139.833 40.4764C140.128 40.5504 140.424 40.6243 140.72 40.6982C142.507 41.1665 144.269 41.6841 146.007 42.2757C146.278 42.362 146.537 42.4605 146.808 42.5468C147.424 42.7563 148.053 42.9905 148.669 43.2123C148.94 43.3109 149.211 43.4218 149.494 43.5204C149.963 43.7053 150.431 43.8901 150.899 44.0873C151.331 44.2598 151.762 44.4447 152.181 44.6295C152.674 44.839 153.155 45.0486 153.635 45.2704C154.091 45.4799 154.535 45.6894 154.979 45.8989C155.003 45.9112 155.04 45.9235 155.077 45.9482C155.558 46.17 156.038 46.4042 156.507 46.6506C156.876 46.8355 157.246 47.0204 157.604 47.2175C157.949 47.4024 158.294 47.5873 158.639 47.7721C159.107 48.0186 159.563 48.2774 160.031 48.5362C160.13 48.5855 160.216 48.6471 160.315 48.6964C160.537 48.8196 160.758 48.9429 160.98 49.0784C160.993 49.0784 161.005 49.0908 161.03 49.1031C161.079 49.1277 161.128 49.1647 161.177 49.1894C161.658 49.4728 162.126 49.7563 162.595 50.052C162.829 50.1876 163.063 50.3355 163.285 50.4834C163.359 50.5327 163.433 50.5819 163.519 50.6312C163.876 50.8531 164.234 51.0872 164.579 51.3214C164.677 51.383 164.788 51.4569 164.887 51.5186C165.269 51.7774 165.651 52.0362 166.033 52.295C166.378 52.5291 166.723 52.7633 167.056 53.0097C167.228 53.133 167.413 53.2562 167.586 53.3918C167.919 53.6383 168.251 53.8847 168.584 54.1312C168.892 54.3654 169.213 54.5995 169.521 54.846C169.73 55.0062 169.94 55.1664 170.149 55.3389C170.235 55.4006 170.309 55.4745 170.396 55.5361C170.642 55.7333 170.889 55.9305 171.135 56.1277C171.431 56.3618 171.714 56.596 171.998 56.8301C172.491 57.2491 172.984 57.6681 173.477 58.0995C173.6 58.1981 173.711 58.309 173.834 58.4076C174.031 58.5801 174.216 58.7526 174.401 58.9252C174.672 59.1717 174.931 59.4181 175.202 59.6646C175.227 59.6769 175.239 59.7016 175.264 59.7262C175.683 60.1083 176.089 60.5026 176.496 60.897C176.533 60.934 176.57 60.9709 176.607 61.0079C176.964 61.353 177.322 61.698 177.667 62.0554C177.765 62.154 177.876 62.2649 177.963 62.3635C178.271 62.6716 178.566 62.9797 178.85 63.2878C179.392 63.867 179.934 64.4462 180.452 65.0255C180.785 65.3952 181.117 65.7649 181.426 66.1469C181.524 66.2578 181.623 66.3688 181.709 66.4797C181.955 66.7631 182.19 67.0466 182.424 67.33C182.621 67.5642 182.818 67.8107 183.015 68.0571C183.114 68.1804 183.212 68.2913 183.299 68.4145C183.545 68.7226 183.792 69.0307 184.026 69.3388C184.322 69.7208 184.617 70.1152 184.913 70.5096C186.503 72.6416 187.994 74.8476 189.374 77.1398C191.26 80.2577 192.936 83.5112 194.378 86.8756C196.608 92.0763 198.321 97.548 199.418 103.242C200.392 108.245 200.897 113.409 200.897 118.696L200.959 118.733Z" stroke="white" stroke-width="4" stroke-miterlimit="10"/>
<path d="M200.957 118.733C200.957 133.94 196.755 148.162 189.422 160.301C185.516 166.771 180.734 172.662 175.225 177.776C170.912 181.794 166.143 185.343 161.028 188.338C156.555 190.963 151.798 193.169 146.831 194.894C142.271 196.484 137.527 197.667 132.634 198.419C105.288 194.241 82.4516 176.297 71.4341 151.896C66.8743 141.778 64.3232 130.564 64.3232 118.757C64.3232 116.897 64.3849 115.048 64.5204 113.224C64.7423 109.86 65.1859 106.557 65.8144 103.316C66.9236 97.6221 68.6243 92.138 70.8549 86.9497C70.9535 86.7032 71.0644 86.469 71.1753 86.2226C73.6401 80.6399 76.721 75.4022 80.3196 70.5713C82.3283 67.897 84.485 65.346 86.8019 62.9305C89.8459 59.7633 93.1487 56.8302 96.6733 54.2053C107.025 46.4536 119.3 41.142 132.647 39.0963C132.647 39.0963 132.77 39.1086 132.831 39.1209C133.102 39.1579 133.374 39.2072 133.645 39.2565C134.84 39.4536 136.011 39.6755 137.182 39.9219C137.477 39.9836 137.773 40.0452 138.081 40.1191C138.673 40.2547 139.277 40.3903 139.868 40.5381C140.164 40.6121 140.46 40.686 140.756 40.76C142.543 41.2283 144.305 41.7459 146.043 42.3374C146.314 42.4237 146.572 42.5223 146.844 42.6085C147.46 42.818 148.088 43.0522 148.704 43.274C148.976 43.3726 149.247 43.4835 149.53 43.5821C149.998 43.767 150.467 43.9518 150.935 44.149C151.366 44.3216 151.798 44.5064 152.217 44.6913C152.71 44.9008 153.19 45.1103 153.671 45.3321C154.127 45.5416 154.571 45.7511 155.014 45.9606C155.039 45.9729 155.076 45.9853 155.113 46.0099C155.593 46.2317 156.074 46.4659 156.542 46.7124C156.912 46.8972 157.282 47.0821 157.639 47.2793C157.984 47.4641 158.329 47.649 158.674 47.8338C159.143 48.0803 159.599 48.3391 160.067 48.5979C160.166 48.6472 160.252 48.7088 160.35 48.7581C160.572 48.8814 160.794 49.0046 161.016 49.1402C161.028 49.1402 161.041 49.1525 161.065 49.1648C161.115 49.1895 161.164 49.2264 161.213 49.2511C161.694 49.5345 162.162 49.818 162.63 50.1138C162.865 50.2493 163.099 50.3972 163.321 50.5451C163.394 50.5944 163.468 50.6437 163.555 50.693C163.912 50.9148 164.269 51.149 164.615 51.3831C164.713 51.4447 164.824 51.5187 164.923 51.5803C165.305 51.8391 165.687 52.0979 166.069 52.3567C166.414 52.5908 166.759 52.825 167.092 53.0715C167.264 53.1947 167.449 53.3179 167.622 53.4535C167.954 53.7 168.287 53.9465 168.62 54.1929C168.928 54.4271 169.248 54.6612 169.556 54.9077C169.766 55.0679 169.975 55.2281 170.185 55.4007C170.271 55.4623 170.345 55.5362 170.431 55.5979C170.678 55.795 170.924 55.9922 171.171 56.1894C171.467 56.4235 171.75 56.6577 172.033 56.8919C172.526 57.3109 173.019 57.7299 173.512 58.1612C173.636 58.2598 173.746 58.3707 173.87 58.4693C174.067 58.6418 174.252 58.8144 174.437 58.9869C174.708 59.2334 174.967 59.4799 175.238 59.7263C175.262 59.7387 175.275 59.7633 175.299 59.7879C175.718 60.17 176.125 60.5644 176.532 60.9587C176.569 60.9957 176.606 61.0327 176.643 61.0696C177 61.4147 177.357 61.7598 177.702 62.1172C177.801 62.2157 177.912 62.3267 177.998 62.4252C178.306 62.7333 178.602 63.0414 178.885 63.3495C179.428 63.9288 179.97 64.508 180.488 65.0872C180.82 65.4569 181.153 65.8266 181.461 66.2087C181.56 66.3196 181.658 66.4305 181.745 66.5414C181.991 66.8249 182.225 67.1083 182.459 67.3917C182.657 67.6259 182.854 67.8724 183.051 68.1189C183.15 68.2421 183.248 68.353 183.334 68.4762C183.581 68.7843 183.827 69.0924 184.061 69.4005C184.357 69.7826 184.653 70.1769 184.949 70.5713C186.539 72.7033 188.03 74.9093 189.41 77.2015C191.296 80.3194 192.972 83.5729 194.414 86.9373C196.644 92.138 198.357 97.6098 199.454 103.303C200.428 108.307 200.933 113.471 200.933 118.757L200.957 118.733Z" stroke="white" stroke-width="4" stroke-miterlimit="10"/>
<path d="M200.959 118.733C200.959 133.94 196.757 148.162 189.424 160.301C185.518 166.771 180.736 172.662 175.227 177.776C170.914 181.794 166.145 185.343 161.03 188.338C156.557 190.963 151.8 193.168 146.833 194.894C131.774 189.669 118.76 180.093 109.258 167.683C101.26 157.232 95.7633 144.76 93.6683 131.167C93.0398 127.125 92.707 122.972 92.707 118.745C92.707 113.458 93.2123 108.294 94.1859 103.291C94.4693 101.824 94.7898 100.37 95.1595 98.9405C96.207 94.7997 97.5749 90.7822 99.2387 86.9248C101.753 81.0833 104.945 75.5869 108.703 70.5588C108.974 70.2014 109.233 69.8563 109.504 69.4989C113.978 63.719 119.203 58.5677 125.057 54.1927C131.613 49.2755 138.946 45.3442 146.833 42.6083C147.449 42.8178 148.078 43.052 148.694 43.2738C148.965 43.3724 149.236 43.4833 149.52 43.5819C149.988 43.7668 150.456 43.9516 150.925 44.1488C151.356 44.3213 151.787 44.5062 152.206 44.6911C152.699 44.9006 153.18 45.1101 153.661 45.3319C154.117 45.5414 154.56 45.7509 155.004 45.9604C155.029 45.9727 155.066 45.9851 155.103 46.0097C155.583 46.2315 156.064 46.4657 156.532 46.7122C156.902 46.897 157.272 47.0819 157.629 47.2791C157.974 47.4639 158.319 47.6488 158.664 47.8336C159.132 48.0801 159.588 48.3389 160.057 48.5977C160.155 48.647 160.242 48.7086 160.34 48.7579C160.562 48.8812 160.784 49.0044 161.006 49.14C161.018 49.14 161.03 49.1523 161.055 49.1646C161.104 49.1893 161.154 49.2262 161.203 49.2509C161.683 49.5343 162.152 49.8178 162.62 50.1135C162.854 50.2491 163.088 50.397 163.31 50.5449C163.384 50.5942 163.458 50.6435 163.544 50.6928C163.902 50.9146 164.259 51.1487 164.604 51.3829C164.703 51.4445 164.814 51.5185 164.912 51.5801C165.294 51.8389 165.676 52.0977 166.058 52.3565C166.403 52.5906 166.749 52.8248 167.081 53.0713C167.254 53.1945 167.439 53.3177 167.611 53.4533C167.944 53.6998 168.277 53.9463 168.609 54.1927C168.918 54.4269 169.238 54.661 169.546 54.9075C169.756 55.0677 169.965 55.2279 170.175 55.4005C170.261 55.4621 170.335 55.536 170.421 55.5976C170.668 55.7948 170.914 55.992 171.16 56.1892C171.456 56.4233 171.74 56.6575 172.023 56.8916C172.516 57.3107 173.009 57.7297 173.502 58.161C173.625 58.2596 173.736 58.3705 173.859 58.4691C174.057 58.6416 174.241 58.8142 174.426 58.9867C174.697 59.2332 174.956 59.4796 175.227 59.7261C175.252 59.7385 175.264 59.7631 175.289 59.7877C175.708 60.1698 176.115 60.5641 176.521 60.9585C176.558 60.9955 176.595 61.0325 176.632 61.0694C176.99 61.4145 177.347 61.7596 177.692 62.1169C177.791 62.2155 177.902 62.3264 177.988 62.425C178.296 62.7331 178.592 63.0412 178.875 63.3493C179.417 63.9285 179.96 64.5078 180.477 65.087C180.81 65.4567 181.143 65.8264 181.451 66.2085C181.549 66.3194 181.648 66.4303 181.734 66.5412C181.981 66.8246 182.215 67.1081 182.449 67.3915C182.646 67.6257 182.843 67.8722 183.041 68.1186C183.139 68.2419 183.238 68.3528 183.324 68.476C183.571 68.7841 183.817 69.0922 184.051 69.4003C184.347 69.7824 184.643 70.1767 184.939 70.5711C186.528 72.7031 188.019 74.9091 189.4 77.2013C191.285 80.3192 192.961 83.5727 194.403 86.9371C196.634 92.1378 198.347 97.6096 199.444 103.303C200.417 108.307 200.923 113.47 200.923 118.757L200.959 118.733Z" stroke="white" stroke-width="4" stroke-miterlimit="10"/>
<path d="M200.958 118.733C200.958 133.94 196.755 148.162 189.423 160.301C185.516 166.771 180.734 172.662 175.226 177.776C170.912 181.794 166.143 185.343 161.029 188.338C151.613 182.829 143.418 175.447 136.936 166.722C130.194 157.639 125.327 147.102 122.886 135.653C121.716 130.194 121.112 124.537 121.112 118.733C121.112 113.446 121.617 108.282 122.591 103.279C122.615 103.155 122.64 103.032 122.665 102.909C123.774 97.3385 125.45 91.9899 127.631 86.9125C130.145 81.071 133.337 75.5746 137.096 70.5465C137.737 69.6962 138.39 68.8581 139.055 68.0324C143.258 62.8441 148.101 58.1857 153.45 54.1805C155.877 52.3689 158.404 50.6805 161.029 49.1523C161.078 49.177 161.127 49.214 161.177 49.2386C161.657 49.5221 162.125 49.8055 162.594 50.1013C162.828 50.2368 163.062 50.3847 163.284 50.5326C163.358 50.5819 163.432 50.6312 163.518 50.6805C163.875 50.9023 164.233 51.1365 164.578 51.3706C164.677 51.4323 164.787 51.5062 164.886 51.5678C165.268 51.8266 165.65 52.0854 166.032 52.3442C166.377 52.5784 166.722 52.8125 167.055 53.059C167.228 53.1822 167.412 53.3055 167.585 53.441C167.918 53.6875 168.25 53.934 168.583 54.1805C168.891 54.4146 169.212 54.6488 169.52 54.8952C169.729 55.0555 169.939 55.2157 170.148 55.3882C170.235 55.4498 170.309 55.5238 170.395 55.5854C170.641 55.7826 170.888 55.9797 171.134 56.1769C171.43 56.4111 171.713 56.6452 171.997 56.8794C172.49 57.2984 172.983 57.7174 173.476 58.1487C173.599 58.2473 173.71 58.3582 173.833 58.4568C174.03 58.6294 174.215 58.8019 174.4 58.9744C174.671 59.2209 174.93 59.4674 175.201 59.7139C175.226 59.7262 175.238 59.7508 175.263 59.7755C175.682 60.1575 176.088 60.5519 176.495 60.9462C176.532 60.9832 176.569 61.0202 176.606 61.0572C176.963 61.4022 177.321 61.7473 177.666 62.1047C177.764 62.2033 177.875 62.3142 177.962 62.4128C178.27 62.7209 178.565 63.029 178.849 63.3371C179.391 63.9163 179.933 64.4955 180.451 65.0747C180.784 65.4444 181.116 65.8142 181.425 66.1962C181.523 66.3071 181.622 66.418 181.708 66.5289C181.955 66.8124 182.189 67.0958 182.423 67.3793C182.62 67.6134 182.817 67.8599 183.014 68.1064C183.113 68.2296 183.212 68.3405 183.298 68.4638C183.544 68.7719 183.791 69.08 184.025 69.3881C184.321 69.7701 184.616 70.1645 184.912 70.5588C186.502 72.6908 187.993 74.8968 189.373 77.189C191.259 80.307 192.935 83.5605 194.377 86.9249C196.608 92.1255 198.321 97.5973 199.417 103.291C200.391 108.294 200.896 113.458 200.896 118.745L200.958 118.733Z" stroke="white" stroke-width="4" stroke-miterlimit="10"/>
<path d="M200.96 118.733C200.96 133.94 196.757 148.162 189.425 160.301C185.518 166.771 180.736 172.662 175.228 177.776C169.115 172.095 163.89 165.477 159.774 158.157C154.967 149.604 151.677 140.078 150.272 129.96C149.767 126.299 149.496 122.553 149.496 118.745C149.496 113.458 150.001 108.294 150.974 103.291C151.443 100.888 152.01 98.5216 152.687 96.2047C153.599 93.0252 154.721 89.9319 156.015 86.9249C158.529 81.0834 161.721 75.5869 165.48 70.5588C168.4 66.6522 171.654 63.029 175.215 59.7139C175.24 59.7262 175.252 59.7508 175.277 59.7755C175.696 60.1575 176.103 60.5519 176.509 60.9462C176.546 60.9832 176.583 61.0202 176.62 61.0572C176.978 61.4022 177.335 61.7473 177.68 62.1047C177.779 62.2033 177.89 62.3142 177.976 62.4128C178.284 62.7209 178.58 63.029 178.863 63.3371C179.406 63.9163 179.948 64.4955 180.465 65.0747C180.798 65.4444 181.131 65.8142 181.439 66.1962C181.538 66.3071 181.636 66.418 181.722 66.5289C181.969 66.8124 182.203 67.0958 182.437 67.3793C182.634 67.6134 182.832 67.8599 183.029 68.1064C183.127 68.2296 183.226 68.3405 183.312 68.4638C183.559 68.7719 183.805 69.08 184.039 69.3881C184.335 69.7701 184.631 70.1645 184.927 70.5588C186.516 72.6909 188.008 74.8968 189.388 77.189C191.273 80.307 192.949 83.5605 194.391 86.9249C196.622 92.1255 198.335 97.5973 199.432 103.291C200.405 108.294 200.911 113.458 200.911 118.745L200.96 118.733Z" stroke="white" stroke-width="4" stroke-miterlimit="10"/>
<path d="M200.958 118.733C200.958 133.94 196.756 148.162 189.423 160.301C185.812 154.311 182.953 147.817 180.994 140.928C178.973 133.879 177.9 126.435 177.9 118.733C177.9 116.182 178.024 113.655 178.245 111.166C178.492 108.491 178.874 105.866 179.379 103.278C180.488 97.5849 182.189 92.1008 184.42 86.9125C185.862 83.5481 187.538 80.2822 189.423 77.1766C191.309 80.2946 192.985 83.5481 194.427 86.9125C196.657 92.1131 198.37 97.5849 199.467 103.278C200.441 108.282 200.946 113.446 200.946 118.733H200.958Z" stroke="white" stroke-width="4" stroke-miterlimit="10"/>
<path d="M168.609 54.1682C159.946 60.6505 149.926 65.4322 139.057 68.0202C133.055 69.4497 126.795 70.2015 120.362 70.2015C116.677 70.2015 113.054 69.955 109.504 69.4744C101.506 68.4022 93.8654 66.1469 86.7792 62.8934C81.5663 60.5026 76.6367 57.5696 72.1016 54.1682C85.5592 44.0996 102.27 38.1349 120.362 38.1349C120.768 38.1349 121.187 38.1349 121.594 38.1349C121.742 38.1349 121.902 38.1349 122.05 38.1349C122.075 38.1349 122.112 38.1349 122.136 38.1349C122.58 38.1349 123.024 38.1595 123.467 38.1719C123.985 38.1842 124.502 38.2212 125.02 38.2458C125.427 38.2704 125.833 38.2951 126.24 38.3197C126.388 38.3197 126.536 38.3444 126.684 38.3567C127.09 38.3814 127.497 38.4183 127.892 38.4553C128.471 38.5046 129.038 38.5662 129.605 38.6278C130.048 38.6771 130.48 38.7264 130.911 38.7881C131.478 38.862 132.045 38.9483 132.612 39.0345C132.612 39.0345 132.735 39.0469 132.796 39.0592C133.068 39.0961 133.339 39.1454 133.61 39.1947C134.805 39.3919 135.976 39.6137 137.147 39.8602C137.442 39.9218 137.738 39.9835 138.046 40.0574C138.638 40.193 139.242 40.3285 139.833 40.4764C140.129 40.5504 140.425 40.6243 140.721 40.6982C142.508 41.1665 144.27 41.6841 146.008 42.2757C146.279 42.362 146.537 42.4605 146.809 42.5468C147.425 42.7563 148.053 42.9905 148.669 43.2123C148.941 43.3109 149.212 43.4218 149.495 43.5204C149.963 43.7053 150.432 43.8901 150.9 44.0873C151.331 44.2598 151.763 44.4447 152.182 44.6295C152.675 44.839 153.155 45.0486 153.636 45.2704C154.092 45.4799 154.536 45.6894 154.979 45.8989C155.004 45.9112 155.041 45.9235 155.078 45.9482C155.558 46.17 156.039 46.4042 156.507 46.6506C156.877 46.8355 157.247 47.0204 157.604 47.2175C157.949 47.4024 158.294 47.5873 158.639 47.7721C159.108 48.0186 159.564 48.2774 160.032 48.5362C160.131 48.5855 160.217 48.6471 160.315 48.6964C160.537 48.8196 160.759 48.9429 160.981 49.0784C160.993 49.0784 161.006 49.0908 161.03 49.1031C161.08 49.1277 161.129 49.1647 161.178 49.1894C161.659 49.4728 162.127 49.7563 162.595 50.052C162.83 50.1876 163.064 50.3355 163.286 50.4834C163.359 50.5327 163.433 50.5819 163.52 50.6312C163.877 50.8531 164.234 51.0872 164.58 51.3214C164.678 51.383 164.789 51.4569 164.888 51.5186C165.27 51.7774 165.652 52.0362 166.034 52.295C166.379 52.5291 166.724 52.7633 167.057 53.0097C167.229 53.133 167.414 53.2562 167.587 53.3918C167.919 53.6383 168.252 53.8847 168.585 54.1312L168.609 54.1682Z" stroke="white" stroke-width="4" stroke-miterlimit="10"/>
<path d="M184.965 70.5342C176.659 81.6503 165.555 90.5481 152.701 96.1924C143.471 100.247 133.328 102.613 122.668 102.909C121.904 102.934 121.127 102.946 120.363 102.946C111.564 102.946 103.098 101.541 95.1612 98.9283C86.399 96.0445 78.3022 91.7065 71.1544 86.1855C65.3376 81.6996 60.1492 76.425 55.7373 70.5342C60.3711 64.323 65.8921 58.8019 72.091 54.1682C85.561 44.0996 102.272 38.1349 120.363 38.1349C120.77 38.1349 121.189 38.1349 121.596 38.1349C121.744 38.1349 121.904 38.1349 122.052 38.1349C122.076 38.1349 122.113 38.1349 122.138 38.1349C122.582 38.1349 123.025 38.1595 123.469 38.1719C123.987 38.1842 124.504 38.2212 125.022 38.2458C125.429 38.2704 125.835 38.2951 126.242 38.3197C126.39 38.3197 126.538 38.3444 126.686 38.3567C127.092 38.3814 127.499 38.4183 127.893 38.4553C128.472 38.5046 129.039 38.5662 129.606 38.6278C130.05 38.6771 130.481 38.7264 130.913 38.7881C131.48 38.862 132.046 38.9483 132.613 39.0345C132.613 39.0345 132.737 39.0469 132.798 39.0592C133.069 39.0961 133.34 39.1454 133.612 39.1947C134.807 39.3919 135.978 39.6137 137.148 39.8602C137.444 39.9218 137.74 39.9835 138.048 40.0574C138.64 40.193 139.244 40.3285 139.835 40.4764C140.131 40.5504 140.427 40.6243 140.722 40.6982C142.509 41.1665 144.272 41.6841 146.009 42.2757C146.28 42.362 146.539 42.4605 146.81 42.5468C147.427 42.7563 148.055 42.9905 148.671 43.2123C148.942 43.3109 149.213 43.4218 149.497 43.5204C149.965 43.7053 150.434 43.8901 150.902 44.0873C151.333 44.2598 151.765 44.4447 152.184 44.6295C152.676 44.839 153.157 45.0486 153.638 45.2704C154.094 45.4799 154.537 45.6894 154.981 45.8989C155.006 45.9112 155.043 45.9235 155.08 45.9482C155.56 46.17 156.041 46.4042 156.509 46.6506C156.879 46.8355 157.249 47.0204 157.606 47.2175C157.951 47.4024 158.296 47.5873 158.641 47.7721C159.11 48.0186 159.565 48.2774 160.034 48.5362C160.132 48.5855 160.219 48.6471 160.317 48.6964C160.539 48.8196 160.761 48.9429 160.983 49.0784C160.995 49.0784 161.007 49.0908 161.032 49.1031C161.081 49.1277 161.131 49.1647 161.18 49.1894C161.661 49.4728 162.129 49.7563 162.597 50.052C162.831 50.1876 163.065 50.3355 163.287 50.4834C163.361 50.5327 163.435 50.5819 163.521 50.6312C163.879 50.8531 164.236 51.0872 164.581 51.3214C164.68 51.383 164.791 51.4569 164.889 51.5186C165.271 51.7774 165.653 52.0362 166.035 52.295C166.381 52.5291 166.726 52.7633 167.058 53.0097C167.231 53.133 167.416 53.2562 167.588 53.3918C167.921 53.6383 168.254 53.8847 168.587 54.1312C168.895 54.3654 169.215 54.5995 169.523 54.846C169.733 55.0062 169.942 55.1664 170.152 55.3389C170.238 55.4006 170.312 55.4745 170.398 55.5361C170.645 55.7333 170.891 55.9305 171.138 56.1277C171.433 56.3618 171.717 56.596 172 56.8301C172.493 57.2491 172.986 57.6681 173.479 58.0995C173.602 58.1981 173.713 58.309 173.836 58.4076C174.034 58.5801 174.219 58.7526 174.403 58.9252C174.674 59.1717 174.933 59.4181 175.204 59.6646C175.229 59.6769 175.241 59.7016 175.266 59.7262C175.685 60.1083 176.092 60.5026 176.498 60.897C176.535 60.934 176.572 60.9709 176.609 61.0079C176.967 61.353 177.324 61.698 177.669 62.0554C177.768 62.154 177.879 62.2649 177.965 62.3635C178.273 62.6716 178.569 62.9797 178.852 63.2878C179.395 63.867 179.937 64.4462 180.454 65.0255C180.787 65.3952 181.12 65.7649 181.428 66.1469C181.527 66.2578 181.625 66.3688 181.711 66.4797C181.958 66.7631 182.192 67.0466 182.426 67.33C182.623 67.5642 182.821 67.8107 183.018 68.0571C183.116 68.1804 183.215 68.2913 183.301 68.4145C183.548 68.7226 183.794 69.0307 184.028 69.3388C184.324 69.7208 184.62 70.1152 184.916 70.5096L184.965 70.5342Z" stroke="white" stroke-width="4" stroke-miterlimit="10"/>
<path d="M194.429 86.9126C190.535 95.9829 185.014 104.191 178.248 111.166C170.423 119.25 160.909 125.696 150.273 129.947C141.757 133.361 132.539 135.345 122.89 135.641C122.052 135.666 121.201 135.678 120.363 135.678C111.009 135.678 102.025 134.088 93.6698 131.143C82.6523 127.285 72.7439 121.099 64.5116 113.175C56.8092 105.78 50.5734 96.8579 46.2847 86.9002C48.7987 81.0588 51.9906 75.5623 55.7494 70.5342C60.3831 64.323 65.9042 58.8019 72.1031 54.1682C85.5607 44.0996 102.272 38.1349 120.363 38.1349C120.77 38.1349 121.189 38.1349 121.596 38.1349C121.743 38.1349 121.904 38.1349 122.052 38.1349C122.076 38.1349 122.113 38.1349 122.138 38.1349C122.581 38.1349 123.025 38.1595 123.469 38.1719C123.986 38.1842 124.504 38.2212 125.022 38.2458C125.428 38.2704 125.835 38.2951 126.242 38.3197C126.389 38.3197 126.537 38.3444 126.685 38.3567C127.092 38.3814 127.499 38.4183 127.893 38.4553C128.472 38.5046 129.039 38.5662 129.606 38.6278C130.05 38.6771 130.481 38.7264 130.912 38.7881C131.479 38.862 132.046 38.9483 132.613 39.0345C132.613 39.0345 132.736 39.0469 132.798 39.0592C133.069 39.0961 133.34 39.1454 133.611 39.1947C134.807 39.3919 135.977 39.6137 137.148 39.8602C137.444 39.9218 137.74 39.9835 138.048 40.0574C138.639 40.193 139.243 40.3285 139.835 40.4764C140.131 40.5504 140.426 40.6243 140.722 40.6982C142.509 41.1665 144.271 41.6841 146.009 42.2757C146.28 42.362 146.539 42.4605 146.81 42.5468C147.426 42.7563 148.055 42.9905 148.671 43.2123C148.942 43.3109 149.213 43.4218 149.497 43.5204C149.965 43.7053 150.433 43.8901 150.902 44.0873C151.333 44.2598 151.764 44.4447 152.183 44.6295C152.676 44.839 153.157 45.0486 153.637 45.2704C154.093 45.4799 154.537 45.6894 154.981 45.8989C155.005 45.9112 155.042 45.9235 155.079 45.9482C155.56 46.17 156.041 46.4042 156.509 46.6506C156.879 46.8355 157.248 47.0204 157.606 47.2175C157.951 47.4024 158.296 47.5873 158.641 47.7721C159.109 48.0186 159.565 48.2774 160.034 48.5362C160.132 48.5855 160.218 48.6471 160.317 48.6964C160.539 48.8196 160.761 48.9429 160.982 49.0784C160.995 49.0784 161.007 49.0908 161.032 49.1031C161.081 49.1277 161.13 49.1647 161.18 49.1894C161.66 49.4728 162.129 49.7563 162.597 50.052C162.831 50.1876 163.065 50.3355 163.287 50.4834C163.361 50.5327 163.435 50.5819 163.521 50.6312C163.879 50.8531 164.236 51.0872 164.581 51.3214C164.68 51.383 164.791 51.4569 164.889 51.5186C165.271 51.7774 165.653 52.0362 166.035 52.295C166.38 52.5291 166.725 52.7633 167.058 53.0097C167.231 53.133 167.416 53.2562 167.588 53.3918C167.921 53.6383 168.254 53.8847 168.586 54.1312C168.894 54.3654 169.215 54.5995 169.523 54.846C169.732 55.0062 169.942 55.1664 170.151 55.3389C170.238 55.4006 170.312 55.4745 170.398 55.5361C170.644 55.7333 170.891 55.9305 171.137 56.1277C171.433 56.3618 171.717 56.596 172 56.8301C172.493 57.2491 172.986 57.6681 173.479 58.0995C173.602 58.1981 173.713 58.309 173.836 58.4076C174.033 58.5801 174.218 58.7526 174.403 58.9252C174.674 59.1717 174.933 59.4181 175.204 59.6646C175.229 59.6769 175.241 59.7016 175.266 59.7262C175.685 60.1083 176.091 60.5026 176.498 60.897C176.535 60.934 176.572 60.9709 176.609 61.0079C176.966 61.353 177.324 61.698 177.669 62.0554C177.768 62.154 177.878 62.2649 177.965 62.3635C178.273 62.6716 178.569 62.9797 178.852 63.2878C179.394 63.867 179.937 64.4462 180.454 65.0255C180.787 65.3952 181.12 65.7649 181.428 66.1469C181.526 66.2578 181.625 66.3688 181.711 66.4797C181.958 66.7631 182.192 67.0466 182.426 67.33C182.623 67.5642 182.82 67.8106 183.017 68.0571C183.116 68.1804 183.215 68.2913 183.301 68.4145C183.547 68.7226 183.794 69.0307 184.028 69.3388C184.324 69.7208 184.62 70.1152 184.915 70.5096C186.505 72.6416 187.996 74.8476 189.377 77.1398C191.262 80.2577 192.938 83.5112 194.38 86.8756L194.429 86.9126Z" stroke="white" stroke-width="4" stroke-miterlimit="10"/>
<path d="M199.483 103.279C196.722 117.525 190.203 130.428 180.997 140.928C174.97 147.805 167.798 153.634 159.787 158.144C152.763 162.088 145.085 165.021 136.951 166.722C131.603 167.843 126.057 168.435 120.376 168.435C116.617 168.435 112.908 168.176 109.272 167.683C95.1737 165.736 82.2213 160.141 71.438 151.884C56.0825 140.127 45.0773 122.984 41.2446 103.279C42.3538 97.585 44.0545 92.1009 46.2851 86.9126C48.7991 81.0711 51.991 75.5747 55.7498 70.5465C60.3835 64.3353 65.9046 58.8143 72.1035 54.1805C85.5611 44.0996 102.272 38.1349 120.364 38.1349C120.77 38.1349 121.189 38.1349 121.596 38.1349C121.744 38.1349 121.904 38.1349 122.052 38.1349C122.077 38.1349 122.114 38.1349 122.138 38.1349C122.582 38.1349 123.026 38.1595 123.469 38.1719C123.987 38.1842 124.504 38.2212 125.022 38.2458C125.429 38.2704 125.835 38.2951 126.242 38.3197C126.39 38.3197 126.538 38.3444 126.686 38.3567C127.092 38.3814 127.499 38.4183 127.893 38.4553C128.473 38.5046 129.04 38.5662 129.606 38.6278C130.05 38.6771 130.481 38.7264 130.913 38.7881C131.48 38.862 132.047 38.9483 132.613 39.0345C132.613 39.0345 132.737 39.0469 132.798 39.0592C133.069 39.0961 133.341 39.1454 133.612 39.1947C134.807 39.3919 135.978 39.6137 137.149 39.8602C137.444 39.9218 137.74 39.9835 138.048 40.0574C138.64 40.193 139.244 40.3285 139.835 40.4764C140.131 40.5504 140.427 40.6243 140.723 40.6982C142.509 41.1665 144.272 41.6841 146.009 42.2757C146.281 42.362 146.539 42.4605 146.811 42.5468C147.427 42.7563 148.055 42.9905 148.671 43.2123C148.943 43.3109 149.214 43.4218 149.497 43.5204C149.965 43.7053 150.434 43.8901 150.902 44.0873C151.333 44.2598 151.765 44.4447 152.184 44.6295C152.677 44.839 153.157 45.0486 153.638 45.2704C154.094 45.4799 154.538 45.6894 154.981 45.8989C155.006 45.9112 155.043 45.9235 155.08 45.9482C155.56 46.17 156.041 46.4042 156.509 46.6506C156.879 46.8355 157.249 47.0204 157.606 47.2175C157.951 47.4024 158.296 47.5873 158.641 47.7721C159.11 48.0186 159.566 48.2774 160.034 48.5362C160.133 48.5855 160.219 48.6471 160.317 48.6964C160.539 48.8196 160.761 48.9429 160.983 49.0784C160.995 49.0784 161.008 49.0908 161.032 49.1031C161.081 49.1277 161.131 49.1647 161.18 49.1894C161.661 49.4728 162.129 49.7563 162.597 50.052C162.831 50.1876 163.066 50.3355 163.287 50.4834C163.361 50.5327 163.435 50.5819 163.522 50.6312C163.879 50.8531 164.236 51.0872 164.581 51.3214C164.68 51.383 164.791 51.4569 164.89 51.5186C165.272 51.7774 165.654 52.0362 166.036 52.295C166.381 52.5291 166.726 52.7633 167.059 53.0097C167.231 53.133 167.416 53.2562 167.588 53.3918C167.921 53.6383 168.254 53.8847 168.587 54.1312C168.895 54.3654 169.215 54.5995 169.523 54.846C169.733 55.0062 169.942 55.1664 170.152 55.3389C170.238 55.4006 170.312 55.4745 170.398 55.5361C170.645 55.7333 170.891 55.9305 171.138 56.1277C171.433 56.3618 171.717 56.596 172 56.8301C172.493 57.2491 172.986 57.6681 173.479 58.0995C173.602 58.1981 173.713 58.309 173.837 58.4076C174.034 58.5801 174.219 58.7526 174.404 58.9252C174.675 59.1717 174.933 59.4181 175.205 59.6646C175.229 59.6769 175.242 59.7016 175.266 59.7262C175.685 60.1083 176.092 60.5026 176.499 60.897C176.536 60.934 176.573 60.9709 176.61 61.0079C176.967 61.353 177.324 61.698 177.669 62.0554C177.768 62.154 177.879 62.2649 177.965 62.3635C178.273 62.6716 178.569 62.9797 178.852 63.2878C179.395 63.867 179.937 64.4462 180.455 65.0255C180.787 65.3952 181.12 65.7649 181.428 66.1469C181.527 66.2578 181.625 66.3688 181.712 66.4797C181.958 66.7631 182.192 67.0466 182.426 67.33C182.624 67.5642 182.821 67.8107 183.018 68.0571C183.116 68.1804 183.215 68.2913 183.301 68.4145C183.548 68.7226 183.794 69.0307 184.028 69.3388C184.324 69.7208 184.62 70.1152 184.916 70.5096C186.506 72.6416 187.997 74.8476 189.377 77.1398C191.263 80.2577 192.939 83.5112 194.38 86.8756C196.611 92.0763 198.324 97.548 199.421 103.242L199.483 103.279Z" stroke="white" stroke-width="4" stroke-miterlimit="10"/>
</svg>
