<svg width="241" height="241" viewBox="0 0 241 241" fill="none" xmlns="http://www.w3.org/2000/svg">
<circle cx="119.981" cy="118.058" r="109.097" fill="white"/>
<path d="M200.578 118.052C200.578 133.259 196.375 147.481 189.043 159.62C185.136 166.09 180.355 171.981 174.846 177.095C170.532 181.113 165.763 184.662 160.649 187.657C156.175 190.282 151.418 192.488 146.452 194.213C141.892 195.803 137.147 196.986 132.255 197.738C128.249 198.354 124.158 198.662 119.98 198.662C75.4665 198.65 39.3823 162.565 39.3823 118.052C39.3823 112.765 39.8876 107.601 40.8612 102.598C41.9703 96.904 43.671 91.4199 45.9016 86.2316C48.4157 80.3901 51.6076 74.8937 55.3663 69.8656C60.0001 63.6544 65.5211 58.1333 71.72 53.4995C85.1776 43.4186 101.889 37.4539 119.98 37.4539C120.387 37.4539 120.806 37.4539 121.213 37.4539C121.36 37.4539 121.521 37.4539 121.668 37.4539C121.693 37.4539 121.73 37.4539 121.755 37.4539C122.198 37.4539 122.642 37.4786 123.086 37.4909C123.603 37.5032 124.121 37.5402 124.639 37.5648C125.045 37.5895 125.452 37.6141 125.859 37.6388C126.006 37.6388 126.154 37.6634 126.302 37.6757C126.709 37.7004 127.116 37.7374 127.51 37.7743C128.089 37.8236 128.656 37.8853 129.223 37.9469C129.667 37.9962 130.098 38.0455 130.529 38.1071C131.096 38.181 131.663 38.2673 132.23 38.3536C132.23 38.3536 132.353 38.3659 132.415 38.3782C132.686 38.4152 132.957 38.4645 133.228 38.5138C134.424 38.7109 135.594 38.9328 136.765 39.1793C137.061 39.2409 137.357 39.3025 137.665 39.3764C138.256 39.512 138.86 39.6476 139.452 39.7954C139.748 39.8694 140.043 39.9433 140.339 40.0173C142.126 40.4856 143.888 41.0032 145.626 41.5947C145.897 41.681 146.156 41.7796 146.427 41.8658C147.043 42.0754 147.672 42.3095 148.288 42.5313C148.559 42.6299 148.83 42.7408 149.114 42.8394C149.582 43.0243 150.05 43.2091 150.519 43.4063C150.95 43.5789 151.381 43.7637 151.8 43.9486C152.293 44.1581 152.774 44.3676 153.254 44.5894C153.71 44.7989 154.154 45.0084 154.598 45.2179C154.622 45.2303 154.659 45.2426 154.696 45.2672C155.177 45.4891 155.658 45.7232 156.126 45.9697C156.496 46.1545 156.865 46.3394 157.223 46.5366C157.568 46.7214 157.913 46.9063 158.258 47.0911C158.726 47.3376 159.182 47.5964 159.65 47.8552C159.749 47.9045 159.835 47.9661 159.934 48.0154C160.156 48.1387 160.378 48.2619 160.599 48.3975C160.612 48.3975 160.624 48.4098 160.649 48.4221C160.698 48.4468 160.747 48.4837 160.797 48.5084C161.277 48.7918 161.746 49.0753 162.214 49.3711C162.448 49.5066 162.682 49.6545 162.904 49.8024C162.978 49.8517 163.052 49.901 163.138 49.9503C163.496 50.1721 163.853 50.4063 164.198 50.6404C164.297 50.702 164.407 50.776 164.506 50.8376C164.888 51.0964 165.27 51.3552 165.652 51.614C165.997 51.8481 166.342 52.0823 166.675 52.3288C166.848 52.452 167.032 52.5752 167.205 52.7108C167.538 52.9573 167.87 53.2038 168.203 53.4502C168.511 53.6844 168.832 53.9185 169.14 54.165C169.349 54.3252 169.559 54.4854 169.768 54.658C169.855 54.7196 169.929 54.7935 170.015 54.8552C170.261 55.0523 170.508 55.2495 170.754 55.4467C171.05 55.6809 171.333 55.915 171.617 56.1492C172.11 56.5682 172.603 56.9872 173.096 57.4185C173.219 57.5171 173.33 57.628 173.453 57.7266C173.65 57.8991 173.835 58.0717 174.02 58.2442C174.291 58.4907 174.55 58.7372 174.821 58.9836C174.846 58.996 174.858 59.0206 174.883 59.0453C175.302 59.4273 175.708 59.8217 176.115 60.216C176.152 60.253 176.189 60.29 176.226 60.3269C176.583 60.672 176.941 61.0171 177.286 61.3745C177.384 61.473 177.495 61.584 177.582 61.6826C177.89 61.9906 178.186 62.2987 178.469 62.6068C179.011 63.1861 179.553 63.7653 180.071 64.3445C180.404 64.7142 180.737 65.0839 181.045 65.466C181.143 65.5769 181.242 65.6878 181.328 65.7987C181.575 66.0822 181.809 66.3656 182.043 66.6491C182.24 66.8832 182.437 67.1297 182.634 67.3762C182.733 67.4994 182.832 67.6103 182.918 67.7335C183.164 68.0416 183.411 68.3497 183.645 68.6578C183.941 69.0399 184.237 69.4342 184.532 69.8286C186.122 71.9606 187.613 74.1666 188.994 76.4588C190.879 79.5767 192.555 82.8302 193.997 86.1946C196.228 91.3953 197.941 96.8671 199.037 102.561C200.011 107.564 200.516 112.728 200.516 118.015L200.578 118.052Z" stroke="black" stroke-width="2.60335" stroke-miterlimit="10"/>
<path d="M200.577 118.052C200.577 133.259 196.374 147.481 189.042 159.62C185.135 166.09 180.353 171.981 174.844 177.095C170.531 181.113 165.762 184.662 160.647 187.657C156.174 190.282 151.417 192.488 146.45 194.213C141.891 195.803 137.146 196.986 132.253 197.738C104.907 193.56 82.0707 175.616 71.0532 151.215C66.4934 141.097 63.9424 129.883 63.9424 118.076C63.9424 116.216 64.004 114.367 64.1396 112.543C64.3614 109.179 64.805 105.876 65.4336 102.635C66.5427 96.9411 68.2434 91.457 70.474 86.2687C70.5726 86.0222 70.6835 85.7881 70.7944 85.5416C73.2592 79.9589 76.3401 74.7213 79.9387 69.8903C81.9475 67.2161 84.1042 64.665 86.421 62.2496C89.465 59.0823 92.7678 56.1493 96.2924 53.5243C106.644 45.7726 118.919 40.461 132.266 38.4153C132.266 38.4153 132.389 38.4276 132.451 38.4399C132.722 38.4769 132.993 38.5262 133.264 38.5755C134.459 38.7727 135.63 38.9945 136.801 39.241C137.097 39.3026 137.392 39.3642 137.7 39.4382C138.292 39.5737 138.896 39.7093 139.487 39.8572C139.783 39.9311 140.079 40.0051 140.375 40.079C142.162 40.5473 143.924 41.0649 145.662 41.6564C145.933 41.7427 146.192 41.8413 146.463 41.9276C147.079 42.1371 147.707 42.3712 148.324 42.5931C148.595 42.6916 148.866 42.8026 149.149 42.9012C149.618 43.086 150.086 43.2709 150.554 43.4681C150.986 43.6406 151.417 43.8254 151.836 44.0103C152.329 44.2198 152.809 44.4293 153.29 44.6511C153.746 44.8606 154.19 45.0701 154.633 45.2797C154.658 45.292 154.695 45.3043 154.732 45.3289C155.213 45.5508 155.693 45.7849 156.162 46.0314C156.531 46.2163 156.901 46.4011 157.258 46.5983C157.603 46.7832 157.948 46.968 158.294 47.1529C158.762 47.3994 159.218 47.6582 159.686 47.917C159.785 47.9662 159.871 48.0279 159.97 48.0772C160.191 48.2004 160.413 48.3236 160.635 48.4592C160.647 48.4592 160.66 48.4715 160.684 48.4838C160.734 48.5085 160.783 48.5455 160.832 48.5701C161.313 48.8536 161.781 49.137 162.25 49.4328C162.484 49.5683 162.718 49.7162 162.94 49.8641C163.014 49.9134 163.088 49.9627 163.174 50.012C163.531 50.2338 163.889 50.468 164.234 50.7021C164.332 50.7638 164.443 50.8377 164.542 50.8993C164.924 51.1581 165.306 51.4169 165.688 51.6757C166.033 51.9099 166.378 52.144 166.711 52.3905C166.883 52.5137 167.068 52.637 167.241 52.7725C167.573 53.019 167.906 53.2655 168.239 53.512C168.547 53.7461 168.867 53.9803 169.175 54.2267C169.385 54.387 169.595 54.5472 169.804 54.7197C169.89 54.7813 169.964 54.8553 170.05 54.9169C170.297 55.1141 170.543 55.3112 170.79 55.5084C171.086 55.7426 171.369 55.9767 171.653 56.2109C172.146 56.6299 172.638 57.0489 173.131 57.4802C173.255 57.5788 173.366 57.6897 173.489 57.7883C173.686 57.9609 173.871 58.1334 174.056 58.3059C174.327 58.5524 174.586 58.7989 174.857 59.0454C174.881 59.0577 174.894 59.0823 174.918 59.107C175.337 59.489 175.744 59.8834 176.151 60.2777C176.188 60.3147 176.225 60.3517 176.262 60.3887C176.619 60.7337 176.976 61.0788 177.322 61.4362C177.42 61.5348 177.531 61.6457 177.617 61.7443C177.925 62.0524 178.221 62.3605 178.505 62.6686C179.047 63.2478 179.589 63.827 180.107 64.4062C180.439 64.7759 180.772 65.1457 181.08 65.5277C181.179 65.6386 181.277 65.7495 181.364 65.8604C181.61 66.1439 181.844 66.4273 182.079 66.7108C182.276 66.9449 182.473 67.1914 182.67 67.4379C182.769 67.5611 182.867 67.672 182.954 67.7953C183.2 68.1034 183.446 68.4115 183.681 68.7196C183.976 69.1016 184.272 69.496 184.568 69.8903C186.158 72.0223 187.649 74.2283 189.029 76.5205C190.915 79.6385 192.591 82.892 194.033 86.2564C196.263 91.457 197.976 96.9288 199.073 102.622C200.047 107.626 200.552 112.79 200.552 118.076L200.577 118.052Z" stroke="black" stroke-width="2.60335" stroke-miterlimit="10"/>
<path d="M200.579 118.052C200.579 133.259 196.376 147.481 189.044 159.62C185.137 166.09 180.355 171.981 174.846 177.095C170.533 181.113 165.764 184.662 160.649 187.657C156.176 190.282 151.419 192.487 146.452 194.213C131.393 188.988 118.379 179.412 108.877 167.002C100.879 156.551 95.3825 144.08 93.2874 130.486C92.6589 126.444 92.3262 122.291 92.3262 118.064C92.3262 112.777 92.8314 107.613 93.805 102.61C94.0885 101.143 94.4089 99.6891 94.7786 98.2596C95.8261 94.1188 97.1941 90.1012 98.8578 86.2438C101.372 80.4023 104.564 74.9059 108.322 69.8778C108.594 69.5204 108.852 69.1753 109.124 68.8179C113.597 63.0381 118.822 57.8867 124.676 53.5118C131.232 48.5946 138.565 44.6633 146.452 41.9274C147.069 42.1369 147.697 42.371 148.313 42.5929C148.584 42.6914 148.856 42.8024 149.139 42.901C149.607 43.0858 150.076 43.2707 150.544 43.4678C150.975 43.6404 151.407 43.8252 151.826 44.0101C152.319 44.2196 152.799 44.4291 153.28 44.6509C153.736 44.8604 154.179 45.0699 154.623 45.2794C154.648 45.2918 154.685 45.3041 154.722 45.3287C155.202 45.5506 155.683 45.7847 156.151 46.0312C156.521 46.2161 156.891 46.4009 157.248 46.5981C157.593 46.783 157.938 46.9678 158.283 47.1527C158.752 47.3991 159.208 47.6579 159.676 47.9167C159.774 47.966 159.861 48.0277 159.959 48.077C160.181 48.2002 160.403 48.3234 160.625 48.459C160.637 48.459 160.649 48.4713 160.674 48.4836C160.723 48.5083 160.773 48.5453 160.822 48.5699C161.303 48.8534 161.771 49.1368 162.239 49.4326C162.473 49.5681 162.708 49.716 162.929 49.8639C163.003 49.9132 163.077 49.9625 163.164 50.0118C163.521 50.2336 163.878 50.4678 164.223 50.7019C164.322 50.7635 164.433 50.8375 164.531 50.8991C164.913 51.1579 165.296 51.4167 165.678 51.6755C166.023 51.9097 166.368 52.1438 166.7 52.3903C166.873 52.5135 167.058 52.6368 167.23 52.7723C167.563 53.0188 167.896 53.2653 168.229 53.5118C168.537 53.7459 168.857 53.9801 169.165 54.2265C169.375 54.3868 169.584 54.547 169.794 54.7195C169.88 54.7811 169.954 54.8551 170.04 54.9167C170.287 55.1139 170.533 55.311 170.78 55.5082C171.075 55.7424 171.359 55.9765 171.642 56.2107C172.135 56.6297 172.628 57.0487 173.121 57.48C173.244 57.5786 173.355 57.6895 173.479 57.7881C173.676 57.9607 173.861 58.1332 174.045 58.3057C174.317 58.5522 174.575 58.7987 174.846 59.0452C174.871 59.0575 174.883 59.0821 174.908 59.1068C175.327 59.4888 175.734 59.8832 176.14 60.2775C176.177 60.3145 176.214 60.3515 176.251 60.3885C176.609 60.7335 176.966 61.0786 177.311 61.436C177.41 61.5346 177.521 61.6455 177.607 61.7441C177.915 62.0522 178.211 62.3603 178.494 62.6684C179.037 63.2476 179.579 63.8268 180.096 64.406C180.429 64.7757 180.762 65.1455 181.07 65.5275C181.169 65.6384 181.267 65.7493 181.353 65.8602C181.6 66.1437 181.834 66.4271 182.068 66.7106C182.265 66.9447 182.463 67.1912 182.66 67.4377C182.758 67.5609 182.857 67.6718 182.943 67.7951C183.19 68.1032 183.436 68.4113 183.67 68.7194C183.966 69.1014 184.262 69.4958 184.558 69.8901C186.147 72.0221 187.639 74.2281 189.019 76.5203C190.904 79.6383 192.58 82.8917 194.022 86.2562C196.253 91.4568 197.966 96.9286 199.063 102.622C200.036 107.626 200.542 112.789 200.542 118.076L200.579 118.052Z" stroke="black" stroke-width="2.60335" stroke-miterlimit="10"/>
<path d="M200.577 118.052C200.577 133.259 196.375 147.481 189.042 159.62C185.135 166.09 180.354 171.981 174.845 177.095C170.532 181.113 165.762 184.662 160.648 187.657C151.232 182.148 143.037 174.766 136.555 166.041C129.814 156.958 124.946 146.421 122.506 134.972C121.335 129.513 120.731 123.856 120.731 118.052C120.731 112.765 121.236 107.601 122.21 102.598C122.234 102.474 122.259 102.351 122.284 102.228C123.393 96.6575 125.069 91.3089 127.25 86.2315C129.764 80.39 132.956 74.8936 136.715 69.8655C137.356 69.0151 138.009 68.1771 138.674 67.3514C142.877 62.1631 147.72 57.5047 153.069 53.4994C155.496 51.6878 158.023 49.9995 160.648 48.4713C160.697 48.496 160.746 48.5329 160.796 48.5576C161.276 48.841 161.745 49.1245 162.213 49.4202C162.447 49.5558 162.681 49.7037 162.903 49.8516C162.977 49.9009 163.051 49.9502 163.137 49.9995C163.495 50.2213 163.852 50.4554 164.197 50.6896C164.296 50.7512 164.407 50.8252 164.505 50.8868C164.887 51.1456 165.269 51.4044 165.651 51.6632C165.996 51.8973 166.341 52.1315 166.674 52.378C166.847 52.5012 167.032 52.6244 167.204 52.76C167.537 53.0065 167.87 53.253 168.202 53.4994C168.51 53.7336 168.831 53.9677 169.139 54.2142C169.348 54.3744 169.558 54.5346 169.767 54.7072C169.854 54.7688 169.928 54.8427 170.014 54.9043C170.26 55.1015 170.507 55.2987 170.753 55.4959C171.049 55.73 171.333 55.9642 171.616 56.1983C172.109 56.6174 172.602 57.0364 173.095 57.4677C173.218 57.5663 173.329 57.6772 173.452 57.7758C173.649 57.9483 173.834 58.1209 174.019 58.2934C174.29 58.5399 174.549 58.7864 174.82 59.0328C174.845 59.0452 174.857 59.0698 174.882 59.0944C175.301 59.4765 175.708 59.8708 176.114 60.2652C176.151 60.3022 176.188 60.3392 176.225 60.3761C176.583 60.7212 176.94 61.0663 177.285 61.4237C177.384 61.5222 177.494 61.6332 177.581 61.7317C177.889 62.0398 178.185 62.3479 178.468 62.656C179.01 63.2353 179.553 63.8145 180.07 64.3937C180.403 64.7634 180.736 65.1331 181.044 65.5152C181.142 65.6261 181.241 65.737 181.327 65.8479C181.574 66.1314 181.808 66.4148 182.042 66.6982C182.239 66.9324 182.436 67.1789 182.634 67.4253C182.732 67.5486 182.831 67.6595 182.917 67.7827C183.163 68.0908 183.41 68.3989 183.644 68.707C183.94 69.0891 184.236 69.4834 184.531 69.8778C186.121 72.0098 187.612 74.2158 188.993 76.508C190.878 79.6259 192.554 82.8794 193.996 86.2438C196.227 91.4445 197.94 96.9163 199.037 102.61C200.01 107.613 200.515 112.777 200.515 118.064L200.577 118.052Z" stroke="black" stroke-width="2.60335" stroke-miterlimit="10"/>
<path d="M200.579 118.052C200.579 133.259 196.377 147.481 189.044 159.62C185.137 166.09 180.356 171.981 174.847 177.095C168.734 171.414 163.509 164.796 159.393 157.476C154.587 148.923 151.296 139.397 149.891 129.279C149.386 125.619 149.115 121.872 149.115 118.064C149.115 112.777 149.62 107.613 150.594 102.61C151.062 100.207 151.629 97.8406 152.307 95.5237C153.219 92.3442 154.34 89.2509 155.634 86.2439C158.148 80.4024 161.34 74.906 165.099 69.8779C168.019 65.9712 171.273 62.348 174.835 59.0329C174.859 59.0452 174.872 59.0699 174.896 59.0945C175.315 59.4766 175.722 59.8709 176.129 60.2653C176.166 60.3023 176.203 60.3392 176.239 60.3762C176.597 60.7213 176.954 61.0663 177.299 61.4237C177.398 61.5223 177.509 61.6332 177.595 61.7318C177.903 62.0399 178.199 62.348 178.482 62.6561C179.025 63.2353 179.567 63.8145 180.085 64.3938C180.417 64.7635 180.75 65.1332 181.058 65.5152C181.157 65.6261 181.255 65.7371 181.342 65.848C181.588 66.1314 181.822 66.4149 182.056 66.6983C182.253 66.9325 182.451 67.1789 182.648 67.4254C182.746 67.5487 182.845 67.6596 182.931 67.7828C183.178 68.0909 183.424 68.399 183.658 68.7071C183.954 69.0891 184.25 69.4835 184.546 69.8779C186.136 72.0099 187.627 74.2158 189.007 76.5081C190.893 79.626 192.569 82.8795 194.01 86.2439C196.241 91.4445 197.954 96.9163 199.051 102.61C200.024 107.613 200.53 112.777 200.53 118.064L200.579 118.052Z" stroke="black" stroke-width="2.60335" stroke-miterlimit="10"/>
<path d="M200.577 118.052C200.577 133.259 196.375 147.481 189.042 159.62C185.431 153.631 182.572 147.136 180.613 140.247C178.592 133.198 177.52 125.754 177.52 118.052C177.52 115.501 177.643 112.974 177.865 110.485C178.111 107.811 178.493 105.186 178.998 102.598C180.108 96.904 181.808 91.4199 184.039 86.2315C185.481 82.8671 187.157 79.6013 189.042 76.4957C190.928 79.6137 192.604 82.8671 194.046 86.2315C196.276 91.4322 197.989 96.904 199.086 102.598C200.06 107.601 200.565 112.765 200.565 118.052H200.577Z" stroke="black" stroke-width="2.60335" stroke-miterlimit="10"/>
<path d="M168.229 53.4872C159.565 59.9695 149.546 64.7512 138.676 67.3392C132.674 68.7687 126.414 69.5205 119.981 69.5205C116.296 69.5205 112.673 69.274 109.124 68.7934C101.125 67.7212 93.4846 65.466 86.3984 62.2125C81.1854 59.8217 76.2559 56.8886 71.7207 53.4872C85.1783 43.4186 101.889 37.4539 119.981 37.4539C120.387 37.4539 120.806 37.4539 121.213 37.4539C121.361 37.4539 121.521 37.4539 121.669 37.4539C121.694 37.4539 121.731 37.4539 121.755 37.4539C122.199 37.4539 122.643 37.4786 123.086 37.4909C123.604 37.5032 124.122 37.5402 124.639 37.5648C125.046 37.5895 125.453 37.6141 125.859 37.6388C126.007 37.6388 126.155 37.6634 126.303 37.6757C126.71 37.7004 127.116 37.7374 127.511 37.7743C128.09 37.8236 128.657 37.8853 129.224 37.9469C129.667 37.9962 130.099 38.0455 130.53 38.1071C131.097 38.181 131.664 38.2673 132.231 38.3536C132.231 38.3536 132.354 38.3659 132.416 38.3782C132.687 38.4152 132.958 38.4645 133.229 38.5138C134.424 38.7109 135.595 38.9328 136.766 39.1793C137.062 39.2409 137.357 39.3025 137.665 39.3764C138.257 39.512 138.861 39.6476 139.452 39.7954C139.748 39.8694 140.044 39.9433 140.34 40.0173C142.127 40.4856 143.889 41.0032 145.627 41.5947C145.898 41.681 146.157 41.7796 146.428 41.8658C147.044 42.0754 147.672 42.3095 148.289 42.5313C148.56 42.6299 148.831 42.7408 149.114 42.8394C149.583 43.0243 150.051 43.2091 150.519 43.4063C150.951 43.5789 151.382 43.7637 151.801 43.9486C152.294 44.1581 152.774 44.3676 153.255 44.5894C153.711 44.7989 154.155 45.0084 154.598 45.2179C154.623 45.2303 154.66 45.2426 154.697 45.2672C155.178 45.4891 155.658 45.7232 156.127 45.9697C156.496 46.1545 156.866 46.3394 157.223 46.5366C157.568 46.7214 157.914 46.9063 158.259 47.0911C158.727 47.3376 159.183 47.5964 159.651 47.8552C159.75 47.9045 159.836 47.9661 159.935 48.0154C160.156 48.1387 160.378 48.2619 160.6 48.3975C160.612 48.3975 160.625 48.4098 160.649 48.4221C160.699 48.4468 160.748 48.4837 160.797 48.5084C161.278 48.7918 161.746 49.0753 162.215 49.3711C162.449 49.5066 162.683 49.6545 162.905 49.8024C162.979 49.8517 163.053 49.901 163.139 49.9503C163.496 50.1721 163.854 50.4063 164.199 50.6404C164.297 50.702 164.408 50.776 164.507 50.8376C164.889 51.0964 165.271 51.3552 165.653 51.614C165.998 51.8481 166.343 52.0823 166.676 52.3288C166.848 52.452 167.033 52.5752 167.206 52.7108C167.538 52.9573 167.871 53.2038 168.204 53.4502L168.229 53.4872Z" stroke="black" stroke-width="2.60335" stroke-miterlimit="10"/>
<path d="M184.584 69.8532C176.278 80.9693 165.174 89.8671 152.32 95.5114C143.09 99.566 132.947 101.932 122.287 102.228C121.523 102.253 120.747 102.265 119.983 102.265C111.183 102.265 102.717 100.86 94.7803 98.2473C86.0181 95.3636 77.9214 91.0256 70.7735 85.5045C64.9567 81.0186 59.7684 75.744 55.3564 69.8532C59.9902 63.642 65.5113 58.121 71.7102 53.4872C85.1801 43.4186 101.891 37.4539 119.983 37.4539C120.389 37.4539 120.808 37.4539 121.215 37.4539C121.363 37.4539 121.523 37.4539 121.671 37.4539C121.696 37.4539 121.733 37.4539 121.757 37.4539C122.201 37.4539 122.645 37.4786 123.088 37.4909C123.606 37.5032 124.123 37.5402 124.641 37.5648C125.048 37.5895 125.454 37.6141 125.861 37.6388C126.009 37.6388 126.157 37.6634 126.305 37.6757C126.711 37.7004 127.118 37.7374 127.512 37.7743C128.092 37.8236 128.659 37.8853 129.225 37.9469C129.669 37.9962 130.1 38.0455 130.532 38.1071C131.099 38.181 131.666 38.2673 132.232 38.3536C132.232 38.3536 132.356 38.3659 132.417 38.3782C132.688 38.4152 132.96 38.4645 133.231 38.5138C134.426 38.7109 135.597 38.9328 136.768 39.1793C137.063 39.2409 137.359 39.3025 137.667 39.3764C138.259 39.512 138.863 39.6476 139.454 39.7954C139.75 39.8694 140.046 39.9433 140.342 40.0173C142.128 40.4856 143.891 41.0032 145.628 41.5947C145.9 41.681 146.158 41.7796 146.429 41.8658C147.046 42.0754 147.674 42.3095 148.29 42.5313C148.562 42.6299 148.833 42.7408 149.116 42.8394C149.584 43.0243 150.053 43.2091 150.521 43.4063C150.952 43.5789 151.384 43.7637 151.803 43.9486C152.296 44.1581 152.776 44.3676 153.257 44.5894C153.713 44.7989 154.157 45.0084 154.6 45.2179C154.625 45.2303 154.662 45.2426 154.699 45.2672C155.179 45.4891 155.66 45.7232 156.128 45.9697C156.498 46.1545 156.868 46.3394 157.225 46.5366C157.57 46.7214 157.915 46.9063 158.26 47.0911C158.729 47.3376 159.185 47.5964 159.653 47.8552C159.752 47.9045 159.838 47.9661 159.936 48.0154C160.158 48.1387 160.38 48.2619 160.602 48.3975C160.614 48.3975 160.627 48.4098 160.651 48.4221C160.7 48.4468 160.75 48.4837 160.799 48.5084C161.28 48.7918 161.748 49.0753 162.216 49.3711C162.45 49.5066 162.685 49.6545 162.906 49.8024C162.98 49.8517 163.054 49.901 163.141 49.9503C163.498 50.1721 163.855 50.4063 164.2 50.6404C164.299 50.702 164.41 50.776 164.509 50.8376C164.891 51.0964 165.273 51.3552 165.655 51.614C166 51.8481 166.345 52.0823 166.678 52.3288C166.85 52.452 167.035 52.5752 167.207 52.7108C167.54 52.9573 167.873 53.2038 168.206 53.4502C168.514 53.6844 168.834 53.9185 169.142 54.165C169.352 54.3252 169.561 54.4854 169.771 54.658C169.857 54.7196 169.931 54.7935 170.017 54.8552C170.264 55.0523 170.51 55.2495 170.757 55.4467C171.052 55.6809 171.336 55.915 171.619 56.1492C172.112 56.5682 172.605 56.9872 173.098 57.4185C173.221 57.5171 173.332 57.628 173.456 57.7266C173.653 57.8991 173.838 58.0717 174.023 58.2442C174.294 58.4907 174.552 58.7372 174.824 58.9836C174.848 58.996 174.861 59.0206 174.885 59.0453C175.304 59.4273 175.711 59.8217 176.118 60.216C176.155 60.253 176.192 60.29 176.228 60.3269C176.586 60.672 176.943 61.0171 177.288 61.3745C177.387 61.473 177.498 61.584 177.584 61.6826C177.892 61.9906 178.188 62.2987 178.471 62.6068C179.014 63.1861 179.556 63.7653 180.074 64.3445C180.406 64.7142 180.739 65.0839 181.047 65.466C181.146 65.5769 181.244 65.6878 181.331 65.7987C181.577 66.0822 181.811 66.3656 182.045 66.6491C182.243 66.8832 182.44 67.1297 182.637 67.3762C182.735 67.4994 182.834 67.6103 182.92 67.7335C183.167 68.0416 183.413 68.3497 183.647 68.6578C183.943 69.0399 184.239 69.4342 184.535 69.8286L184.584 69.8532Z" stroke="black" stroke-width="2.60335" stroke-miterlimit="10"/>
<path d="M194.048 86.2316C190.154 95.3019 184.633 103.51 177.867 110.485C170.042 118.569 160.528 125.015 149.892 129.266C141.376 132.68 132.158 134.664 122.509 134.96C121.671 134.985 120.82 134.997 119.982 134.997C110.629 134.997 101.644 133.407 93.2889 130.462C82.2714 126.604 72.3631 120.418 64.1307 112.494C56.4284 105.099 50.1925 96.1769 45.9038 86.2193C48.4179 80.3778 51.6097 74.8814 55.3685 69.8532C60.0023 63.642 65.5233 58.121 71.7222 53.4872C85.1798 43.4186 101.891 37.4539 119.982 37.4539C120.389 37.4539 120.808 37.4539 121.215 37.4539C121.363 37.4539 121.523 37.4539 121.671 37.4539C121.695 37.4539 121.732 37.4539 121.757 37.4539C122.201 37.4539 122.644 37.4786 123.088 37.4909C123.605 37.5032 124.123 37.5402 124.641 37.5648C125.047 37.5895 125.454 37.6141 125.861 37.6388C126.009 37.6388 126.157 37.6634 126.304 37.6757C126.711 37.7004 127.118 37.7374 127.512 37.7743C128.091 37.8236 128.658 37.8853 129.225 37.9469C129.669 37.9962 130.1 38.0455 130.531 38.1071C131.098 38.181 131.665 38.2673 132.232 38.3536C132.232 38.3536 132.355 38.3659 132.417 38.3782C132.688 38.4152 132.959 38.4645 133.23 38.5138C134.426 38.7109 135.597 38.9328 136.767 39.1793C137.063 39.2409 137.359 39.3025 137.667 39.3764C138.259 39.512 138.862 39.6476 139.454 39.7954C139.75 39.8694 140.045 39.9433 140.341 40.0173C142.128 40.4856 143.891 41.0032 145.628 41.5947C145.899 41.681 146.158 41.7796 146.429 41.8658C147.045 42.0754 147.674 42.3095 148.29 42.5313C148.561 42.6299 148.832 42.7408 149.116 42.8394C149.584 43.0243 150.052 43.2091 150.521 43.4063C150.952 43.5789 151.383 43.7637 151.802 43.9486C152.295 44.1581 152.776 44.3676 153.257 44.5894C153.713 44.7989 154.156 45.0084 154.6 45.2179C154.625 45.2302 154.662 45.2426 154.698 45.2672C155.179 45.489 155.66 45.7232 156.128 45.9697C156.498 46.1545 156.867 46.3394 157.225 46.5366C157.57 46.7214 157.915 46.9063 158.26 47.0911C158.728 47.3376 159.184 47.5964 159.653 47.8552C159.751 47.9045 159.838 47.9661 159.936 48.0154C160.158 48.1387 160.38 48.2619 160.602 48.3975C160.614 48.3975 160.626 48.4098 160.651 48.4221C160.7 48.4468 160.749 48.4837 160.799 48.5084C161.279 48.7918 161.748 49.0753 162.216 49.3711C162.45 49.5066 162.684 49.6545 162.906 49.8024C162.98 49.8517 163.054 49.901 163.14 49.9503C163.498 50.1721 163.855 50.4063 164.2 50.6404C164.299 50.702 164.41 50.776 164.508 50.8376C164.89 51.0964 165.272 51.3552 165.654 51.614C165.999 51.8481 166.345 52.0823 166.677 52.3288C166.85 52.452 167.035 52.5752 167.207 52.7108C167.54 52.9573 167.873 53.2038 168.205 53.4502C168.513 53.6844 168.834 53.9185 169.142 54.165C169.352 54.3252 169.561 54.4854 169.771 54.658C169.857 54.7196 169.931 54.7935 170.017 54.8552C170.263 55.0523 170.51 55.2495 170.756 55.4467C171.052 55.6808 171.336 55.915 171.619 56.1492C172.112 56.5682 172.605 56.9872 173.098 57.4185C173.221 57.5171 173.332 57.628 173.455 57.7266C173.653 57.8991 173.837 58.0717 174.022 58.2442C174.293 58.4907 174.552 58.7372 174.823 58.9836C174.848 58.996 174.86 59.0206 174.885 59.0453C175.304 59.4273 175.711 59.8217 176.117 60.216C176.154 60.253 176.191 60.29 176.228 60.3269C176.586 60.672 176.943 61.0171 177.288 61.3745C177.387 61.473 177.498 61.584 177.584 61.6825C177.892 61.9906 178.188 62.2987 178.471 62.6068C179.013 63.1861 179.556 63.7653 180.073 64.3445C180.406 64.7142 180.739 65.0839 181.047 65.466C181.145 65.5769 181.244 65.6878 181.33 65.7987C181.577 66.0822 181.811 66.3656 182.045 66.6491C182.242 66.8832 182.439 67.1297 182.637 67.3762C182.735 67.4994 182.834 67.6103 182.92 67.7335C183.167 68.0416 183.413 68.3497 183.647 68.6578C183.943 69.0399 184.239 69.4342 184.534 69.8286C186.124 71.9606 187.615 74.1666 188.996 76.4588C190.881 79.5767 192.557 82.8302 193.999 86.1946L194.048 86.2316Z" stroke="black" stroke-width="2.60335" stroke-miterlimit="10"/>
<path d="M199.102 102.598C196.341 116.844 189.822 129.747 180.616 140.247C174.59 147.124 167.417 152.953 159.407 157.463C152.382 161.407 144.704 164.34 136.571 166.041C131.222 167.162 125.676 167.754 119.995 167.754C116.236 167.754 112.527 167.495 108.891 167.002C94.7928 165.055 81.8405 159.46 71.0571 151.203C55.7017 139.446 44.6965 122.303 40.8638 102.598C41.9729 96.904 43.6736 91.4199 45.9042 86.2316C48.4183 80.3901 51.6101 74.8937 55.3689 69.8656C60.0027 63.6544 65.5237 58.1333 71.7226 53.4995C85.1802 43.4186 101.891 37.4539 119.983 37.4539C120.389 37.4539 120.808 37.4539 121.215 37.4539C121.363 37.4539 121.523 37.4539 121.671 37.4539C121.696 37.4539 121.733 37.4539 121.757 37.4539C122.201 37.4539 122.645 37.4786 123.088 37.4909C123.606 37.5032 124.124 37.5402 124.641 37.5648C125.048 37.5895 125.454 37.6141 125.861 37.6388C126.009 37.6388 126.157 37.6634 126.305 37.6757C126.712 37.7004 127.118 37.7374 127.513 37.7743C128.092 37.8236 128.659 37.8853 129.226 37.9469C129.669 37.9962 130.101 38.0455 130.532 38.1071C131.099 38.181 131.666 38.2673 132.233 38.3536C132.233 38.3536 132.356 38.3659 132.417 38.3782C132.689 38.4152 132.96 38.4645 133.231 38.5138C134.426 38.7109 135.597 38.9328 136.768 39.1793C137.064 39.2409 137.359 39.3025 137.667 39.3764C138.259 39.512 138.863 39.6476 139.454 39.7954C139.75 39.8694 140.046 39.9433 140.342 40.0173C142.129 40.4856 143.891 41.0032 145.629 41.5947C145.9 41.681 146.159 41.7796 146.43 41.8658C147.046 42.0754 147.674 42.3095 148.291 42.5313C148.562 42.6299 148.833 42.7408 149.116 42.8394C149.585 43.0243 150.053 43.2091 150.521 43.4063C150.952 43.5789 151.384 43.7637 151.803 43.9486C152.296 44.1581 152.776 44.3676 153.257 44.5894C153.713 44.7989 154.157 45.0084 154.6 45.2179C154.625 45.2303 154.662 45.2426 154.699 45.2672C155.18 45.4891 155.66 45.7232 156.128 45.9697C156.498 46.1545 156.868 46.3394 157.225 46.5366C157.57 46.7214 157.915 46.9063 158.261 47.0911C158.729 47.3376 159.185 47.5964 159.653 47.8552C159.752 47.9045 159.838 47.9661 159.937 48.0154C160.158 48.1387 160.38 48.2619 160.602 48.3975C160.614 48.3975 160.627 48.4098 160.651 48.4221C160.701 48.4468 160.75 48.4837 160.799 48.5084C161.28 48.7918 161.748 49.0753 162.216 49.3711C162.451 49.5066 162.685 49.6545 162.907 49.8024C162.981 49.8517 163.054 49.901 163.141 49.9503C163.498 50.1721 163.856 50.4063 164.201 50.6404C164.299 50.702 164.41 50.776 164.509 50.8376C164.891 51.0964 165.273 51.3552 165.655 51.614C166 51.8481 166.345 52.0823 166.678 52.3288C166.85 52.452 167.035 52.5752 167.208 52.7108C167.54 52.9573 167.873 53.2038 168.206 53.4502C168.514 53.6844 168.834 53.9185 169.142 54.165C169.352 54.3252 169.561 54.4854 169.771 54.658C169.857 54.7196 169.931 54.7935 170.017 54.8552C170.264 55.0523 170.51 55.2495 170.757 55.4467C171.053 55.6809 171.336 55.915 171.62 56.1492C172.112 56.5682 172.605 56.9872 173.098 57.4185C173.222 57.5171 173.333 57.628 173.456 57.7266C173.653 57.8991 173.838 58.0717 174.023 58.2442C174.294 58.4907 174.553 58.7372 174.824 58.9836C174.848 58.996 174.861 59.0206 174.885 59.0453C175.304 59.4273 175.711 59.8217 176.118 60.216C176.155 60.253 176.192 60.29 176.229 60.3269C176.586 60.672 176.943 61.0171 177.288 61.3745C177.387 61.473 177.498 61.584 177.584 61.6826C177.892 61.9906 178.188 62.2987 178.472 62.6068C179.014 63.1861 179.556 63.7653 180.074 64.3445C180.406 64.7142 180.739 65.0839 181.047 65.466C181.146 65.5769 181.244 65.6878 181.331 65.7987C181.577 66.0822 181.811 66.3656 182.045 66.6491C182.243 66.8832 182.44 67.1297 182.637 67.3762C182.736 67.4994 182.834 67.6103 182.92 67.7335C183.167 68.0416 183.413 68.3497 183.648 68.6578C183.943 69.0399 184.239 69.4342 184.535 69.8286C186.125 71.9606 187.616 74.1666 188.996 76.4588C190.882 79.5767 192.558 82.8302 194 86.1946C196.23 91.3953 197.943 96.8671 199.04 102.561L199.102 102.598Z" stroke="black" stroke-width="2.60335" stroke-miterlimit="10"/>
</svg>
