<svg width="79" height="40" viewBox="0 0 79 40" fill="none" xmlns="http://www.w3.org/2000/svg">
<g filter="url(#filter0_d_1806_12039)">
<path d="M39.4487 7.85369V12.6893V13.3028H72.3637V10.4423C72.3637 8.37184 70.7624 7.76275 69.9617 7.71702C65.0277 7.69431 54.1209 7.64891 54.1209 7.64891C51.6135 7.76308 51.7655 5.42684 49.5115 5.06171C47.1453 5.06171 43.6037 4.99316 41.7859 4.99316C39.9681 4.99316 39.4704 6.90018 39.4487 7.85369Z" fill="#D4FD7D"/>
<path d="M39.4487 7.85369V12.6893V13.3028H72.3637V10.4423C72.3637 8.37184 70.7624 7.76275 69.9617 7.71702C65.0277 7.69431 54.1209 7.64891 54.1209 7.64891C51.6135 7.76308 51.7655 5.42684 49.5115 5.06171C47.1453 5.06171 43.6037 4.99316 41.7859 4.99316C39.9681 4.99316 39.4704 6.90018 39.4487 7.85369Z" stroke="black"/>
</g>
<g filter="url(#filter1_d_1806_12039)">
<rect x="39.3945" y="11.043" width="33.0743" height="22.3877" rx="2.5" fill="#D4FD7D" stroke="black"/>
</g>
<path d="M28.3176 20.0288C28.3176 22.6051 27.6057 25.0143 26.3635 27.0708C25.7017 28.1668 24.8917 29.1648 23.9584 30.0312C23.2277 30.7118 22.4198 31.313 21.5534 31.8204C20.7955 32.265 19.9896 32.6387 19.1483 32.931C18.3758 33.2004 17.572 33.4008 16.7432 33.5281C16.0647 33.6325 15.3716 33.6847 14.6638 33.6847C7.12291 33.6826 1.01001 27.5697 1.01001 20.0288C1.01001 19.1332 1.09561 18.2584 1.26054 17.4108C1.44843 16.4463 1.73654 15.5172 2.11442 14.6383C2.54032 13.6487 3.08105 12.7175 3.71781 11.8658C4.5028 10.8135 5.4381 9.87823 6.48824 9.09324C8.76805 7.38547 11.599 6.375 14.6638 6.375C14.7327 6.375 14.8037 6.375 14.8726 6.375C14.8976 6.375 14.9248 6.375 14.9498 6.375C14.954 6.375 14.9603 6.375 14.9645 6.375C15.0396 6.375 15.1148 6.37918 15.1899 6.38126C15.2776 6.38335 15.3653 6.38961 15.453 6.39379C15.5219 6.39797 15.5908 6.40214 15.6597 6.40632C15.6847 6.40632 15.7098 6.41049 15.7348 6.41258C15.8037 6.41675 15.8726 6.42302 15.9394 6.42928C16.0376 6.43763 16.1336 6.44807 16.2296 6.45851C16.3048 6.46686 16.3779 6.47521 16.4509 6.48565C16.547 6.49818 16.643 6.51279 16.739 6.5274C16.739 6.5274 16.7599 6.52949 16.7703 6.53158C16.8163 6.53784 16.8622 6.54619 16.9081 6.55455C17.1106 6.58795 17.309 6.62553 17.5073 6.66728C17.5574 6.67772 17.6075 6.68816 17.6597 6.70069C17.7599 6.72365 17.8622 6.74662 17.9624 6.77167C18.0126 6.7842 18.0627 6.79672 18.1128 6.80925C18.4155 6.88858 18.714 6.97627 19.0084 7.07648C19.0543 7.09109 19.0982 7.1078 19.1441 7.12241C19.2485 7.1579 19.355 7.19757 19.4594 7.23515C19.5053 7.25185 19.5512 7.27064 19.5992 7.28734C19.6786 7.31866 19.7579 7.34997 19.8372 7.38338C19.9103 7.41261 19.9834 7.44392 20.0544 7.47524C20.1379 7.51073 20.2193 7.54622 20.3007 7.5838C20.378 7.61929 20.4531 7.65478 20.5283 7.69028C20.5325 7.69236 20.5387 7.69445 20.545 7.69863C20.6264 7.73621 20.7078 7.77587 20.7872 7.81763C20.8498 7.84894 20.9124 7.88026 20.973 7.91366C21.0314 7.94498 21.0899 7.9763 21.1483 8.00761C21.2277 8.04937 21.3049 8.09321 21.3842 8.13705C21.401 8.1454 21.4156 8.15584 21.4323 8.16419C21.4698 8.18507 21.5074 8.20595 21.545 8.22891C21.5471 8.22891 21.5492 8.231 21.5534 8.23309C21.5617 8.23726 21.5701 8.24353 21.5784 8.2477C21.6598 8.29572 21.7392 8.34374 21.8185 8.39384C21.8582 8.41681 21.8978 8.44186 21.9354 8.46691C21.9479 8.47527 21.9605 8.48362 21.9751 8.49197C22.0356 8.52955 22.0962 8.56921 22.1546 8.60888C22.1713 8.61932 22.1901 8.63185 22.2068 8.64228C22.2715 8.68613 22.3363 8.72997 22.401 8.77381C22.4594 8.81348 22.5179 8.85315 22.5743 8.8949C22.6035 8.91578 22.6348 8.93666 22.664 8.95962C22.7204 9.00138 22.7768 9.04313 22.8331 9.08488C22.8853 9.12455 22.9396 9.16422 22.9918 9.20597C23.0273 9.23311 23.0628 9.26025 23.0983 9.28948C23.1129 9.29992 23.1254 9.31245 23.14 9.32289C23.1818 9.35629 23.2235 9.38969 23.2653 9.4231C23.3154 9.46277 23.3634 9.50243 23.4114 9.5421C23.495 9.61308 23.5785 9.68407 23.662 9.75714C23.6829 9.77384 23.7016 9.79263 23.7225 9.80933C23.7559 9.83856 23.7872 9.86779 23.8186 9.89702C23.8645 9.93877 23.9083 9.98052 23.9543 10.0223C23.9584 10.0244 23.9605 10.0285 23.9647 10.0327C24.0357 10.0974 24.1046 10.1642 24.1735 10.2311C24.1797 10.2373 24.186 10.2436 24.1923 10.2498C24.2528 10.3083 24.3133 10.3668 24.3718 10.4273C24.3885 10.444 24.4073 10.4628 24.4219 10.4795C24.4741 10.5317 24.5242 10.5839 24.5722 10.6361C24.6641 10.7342 24.7559 10.8323 24.8436 10.9304C24.9 10.9931 24.9564 11.0557 25.0086 11.1204C25.0253 11.1392 25.042 11.158 25.0566 11.1768C25.0983 11.2248 25.138 11.2728 25.1777 11.3209C25.2111 11.3605 25.2445 11.4023 25.2779 11.444C25.2946 11.4649 25.3113 11.4837 25.3259 11.5046C25.3677 11.5568 25.4094 11.609 25.4491 11.6612C25.4992 11.7259 25.5493 11.7927 25.5994 11.8595C25.8687 12.2207 26.1213 12.5944 26.3552 12.9827C26.6746 13.5109 26.9585 14.0621 27.2028 14.632C27.5807 15.513 27.8709 16.44 28.0567 17.4045C28.2216 18.2521 28.3072 19.1269 28.3072 20.0225L28.3176 20.0288Z" stroke="black" stroke-width="0.908016" stroke-miterlimit="10"/>
<path d="M28.3177 20.0286C28.3177 22.6048 27.6057 25.0141 26.3635 27.0705C25.7017 28.1666 24.8917 29.1645 23.9585 30.0309C23.2277 30.7115 22.4198 31.3128 21.5534 31.8201C20.7955 32.2648 19.9897 32.6385 19.1483 32.9308C18.3758 33.2001 17.5721 33.4005 16.7432 33.5279C12.1105 32.8201 8.24196 29.7804 6.37552 25.6467C5.60306 23.9326 5.1709 22.0328 5.1709 20.0327C5.1709 19.7175 5.18134 19.4043 5.2043 19.0953C5.24188 18.5254 5.31704 17.9659 5.42351 17.4168C5.61141 16.4523 5.89952 15.5232 6.2774 14.6443C6.2941 14.6025 6.31289 14.5629 6.33168 14.5211C6.74923 13.5754 7.27116 12.6881 7.88078 11.8697C8.22108 11.4166 8.58644 10.9845 8.97893 10.5753C9.4946 10.0387 10.0541 9.54185 10.6512 9.09717C12.4049 7.78398 14.4843 6.88416 16.7453 6.5376C16.7453 6.5376 16.7662 6.53969 16.7766 6.54177C16.8226 6.54804 16.8685 6.55639 16.9144 6.56474C17.1169 6.59814 17.3153 6.63572 17.5136 6.67748C17.5637 6.68791 17.6138 6.69835 17.666 6.71088C17.7662 6.73385 17.8685 6.75681 17.9687 6.78186C18.0188 6.79439 18.0689 6.80692 18.1191 6.81944C18.4218 6.89878 18.7203 6.98646 19.0147 7.08667C19.0606 7.10129 19.1045 7.11799 19.1504 7.1326C19.2548 7.16809 19.3613 7.20776 19.4656 7.24534C19.5116 7.26204 19.5575 7.28083 19.6055 7.29753C19.6849 7.32885 19.7642 7.36017 19.8435 7.39357C19.9166 7.4228 19.9897 7.45411 20.0606 7.48543C20.1442 7.52092 20.2256 7.55641 20.307 7.59399C20.3842 7.62948 20.4594 7.66498 20.5346 7.70047C20.5387 7.70256 20.545 7.70464 20.5513 7.70882C20.6327 7.7464 20.7141 7.78607 20.7934 7.82782C20.8561 7.85914 20.9187 7.89045 20.9793 7.92386C21.0377 7.95517 21.0962 7.98649 21.1546 8.0178C21.234 8.05956 21.3112 8.1034 21.3905 8.14724C21.4072 8.1556 21.4219 8.16603 21.4386 8.17438C21.4761 8.19526 21.5137 8.21614 21.5513 8.2391C21.5534 8.2391 21.5555 8.24119 21.5596 8.24328C21.568 8.24746 21.5763 8.25372 21.5847 8.25789C21.6661 8.30591 21.7455 8.35393 21.8248 8.40404C21.8645 8.427 21.9041 8.45205 21.9417 8.47711C21.9542 8.48546 21.9668 8.49381 21.9814 8.50216C22.0419 8.53974 22.1025 8.57941 22.1609 8.61907C22.1776 8.62951 22.1964 8.64204 22.2131 8.65248C22.2778 8.69632 22.3425 8.74016 22.4073 8.784C22.4657 8.82367 22.5242 8.86334 22.5805 8.90509C22.6098 8.92597 22.6411 8.94685 22.6703 8.96981C22.7267 9.01157 22.7831 9.05332 22.8394 9.09508C22.8916 9.13474 22.9459 9.17441 22.9981 9.21617C23.0336 9.24331 23.0691 9.27045 23.1046 9.29968C23.1192 9.31011 23.1317 9.32264 23.1463 9.33308C23.1881 9.36648 23.2298 9.39989 23.2716 9.43329C23.3217 9.47296 23.3697 9.51263 23.4177 9.55229C23.5012 9.62328 23.5848 9.69426 23.6683 9.76733C23.6891 9.78403 23.7079 9.80282 23.7288 9.81952C23.7622 9.84875 23.7935 9.87798 23.8248 9.90721C23.8708 9.94896 23.9146 9.99072 23.9605 10.0325C23.9647 10.0346 23.9668 10.0387 23.971 10.0429C24.042 10.1076 24.1109 10.1744 24.1798 10.2412C24.186 10.2475 24.1923 10.2538 24.1985 10.26C24.2591 10.3185 24.3196 10.3769 24.3781 10.4375C24.3948 10.4542 24.4136 10.473 24.4282 10.4897C24.4804 10.5419 24.5305 10.5941 24.5785 10.6463C24.6704 10.7444 24.7622 10.8425 24.8499 10.9406C24.9063 11.0033 24.9627 11.0659 25.0149 11.1306C25.0316 11.1494 25.0483 11.1682 25.0629 11.187C25.1046 11.235 25.1443 11.283 25.184 11.331C25.2174 11.3707 25.2508 11.4125 25.2842 11.4542C25.3009 11.4751 25.3176 11.4939 25.3322 11.5148C25.3739 11.567 25.4157 11.6192 25.4554 11.6713C25.5055 11.7361 25.5556 11.8029 25.6057 11.8697C25.875 12.2309 26.1276 12.6046 26.3614 12.9929C26.6809 13.5211 26.9648 14.0722 27.2091 14.6422C27.5869 15.5232 27.8771 16.4502 28.0629 17.4147C28.2279 18.2623 28.3135 19.1371 28.3135 20.0327L28.3177 20.0286Z" stroke="black" stroke-width="0.908016" stroke-miterlimit="10"/>
<path d="M28.3177 20.0288C28.3177 22.605 27.6058 25.0143 26.3636 27.0707C25.7018 28.1668 24.8917 29.1647 23.9585 30.0311C23.2278 30.7117 22.4198 31.313 21.5534 31.8203C20.7956 32.265 19.9897 32.6387 19.1483 32.931C16.5971 32.0458 14.3925 30.4236 12.7828 28.3213C11.4279 26.5509 10.4968 24.4381 10.1418 22.1353C10.0354 21.4505 9.979 20.747 9.979 20.0309C9.979 19.1352 10.0646 18.2605 10.2295 17.4128C10.2776 17.1644 10.3318 16.918 10.3945 16.6759C10.5719 15.9744 10.8037 15.2938 11.0855 14.6403C11.5114 13.6507 12.0521 12.7196 12.6889 11.8678C12.7348 11.8073 12.7787 11.7488 12.8246 11.6883C13.5824 10.7091 14.4676 9.83643 15.4593 9.09529C16.57 8.26228 17.8122 7.59629 19.1483 7.13281C19.2527 7.1683 19.3592 7.20797 19.4636 7.24555C19.5095 7.26225 19.5555 7.28104 19.6035 7.29774C19.6828 7.32906 19.7621 7.36038 19.8415 7.39378C19.9145 7.42301 19.9876 7.45432 20.0586 7.48564C20.1421 7.52113 20.2235 7.55662 20.305 7.5942C20.3822 7.62969 20.4574 7.66519 20.5325 7.70068C20.5367 7.70277 20.543 7.70485 20.5492 7.70903C20.6306 7.74661 20.7121 7.78627 20.7914 7.82803C20.854 7.85935 20.9167 7.89066 20.9772 7.92407C21.0357 7.95538 21.0941 7.9867 21.1526 8.01801C21.2319 8.05977 21.3092 8.10361 21.3885 8.14745C21.4052 8.1558 21.4198 8.16624 21.4365 8.17459C21.4741 8.19547 21.5117 8.21635 21.5492 8.23931C21.5513 8.23931 21.5534 8.2414 21.5576 8.24349C21.566 8.24766 21.5743 8.25393 21.5827 8.2581C21.6641 8.30612 21.7434 8.35414 21.8227 8.40425C21.8624 8.42721 21.9021 8.45226 21.9397 8.47732C21.9522 8.48567 21.9647 8.49402 21.9793 8.50237C22.0399 8.53995 22.1004 8.57962 22.1589 8.61928C22.1756 8.62972 22.1944 8.64225 22.2111 8.65269C22.2758 8.69653 22.3405 8.74037 22.4052 8.78421C22.4637 8.82388 22.5221 8.86355 22.5785 8.9053C22.6077 8.92618 22.639 8.94706 22.6683 8.97002C22.7246 9.01178 22.781 9.05353 22.8374 9.09529C22.8896 9.13495 22.9439 9.17462 22.9961 9.21638C23.0315 9.24352 23.067 9.27066 23.1025 9.29989C23.1171 9.31032 23.1297 9.32285 23.1443 9.33329C23.186 9.36669 23.2278 9.4001 23.2695 9.4335C23.3197 9.47317 23.3677 9.51283 23.4157 9.5525C23.4992 9.62348 23.5827 9.69447 23.6662 9.76754C23.6871 9.78424 23.7059 9.80303 23.7268 9.81973C23.7602 9.84896 23.7915 9.87819 23.8228 9.90742C23.8687 9.94917 23.9126 9.99093 23.9585 10.0327C23.9627 10.0348 23.9648 10.0389 23.9689 10.0431C24.0399 10.1078 24.1088 10.1746 24.1777 10.2415C24.184 10.2477 24.1902 10.254 24.1965 10.2602C24.257 10.3187 24.3176 10.3772 24.376 10.4377C24.3927 10.4544 24.4115 10.4732 24.4262 10.4899C24.4783 10.5421 24.5285 10.5943 24.5765 10.6465C24.6683 10.7446 24.7602 10.8427 24.8479 10.9408C24.9042 11.0035 24.9606 11.0661 25.0128 11.1308C25.0295 11.1496 25.0462 11.1684 25.0608 11.1872C25.1026 11.2352 25.1422 11.2832 25.1819 11.3313C25.2153 11.3709 25.2487 11.4127 25.2821 11.4544C25.2988 11.4753 25.3155 11.4941 25.3301 11.515C25.3719 11.5672 25.4137 11.6194 25.4533 11.6716C25.5034 11.7363 25.5535 11.8031 25.6036 11.8699C25.873 12.2311 26.1256 12.6048 26.3594 12.9931C26.6788 13.5213 26.9628 14.0725 27.207 14.6424C27.5849 15.5234 27.8751 16.4504 28.0609 17.4149C28.2258 18.2625 28.3114 19.1373 28.3114 20.0329L28.3177 20.0288Z" stroke="black" stroke-width="0.908016" stroke-miterlimit="10"/>
<path d="M28.3177 20.0286C28.3177 22.6049 27.6058 25.0141 26.3636 27.0705C25.7018 28.1666 24.8917 29.1645 23.9585 30.0309C23.2278 30.7115 22.4199 31.3128 21.5534 31.8201C19.9584 30.8869 18.5701 29.6364 17.4719 28.1582C16.3299 26.6196 15.5053 24.8346 15.0919 22.895C14.8936 21.9702 14.7913 21.0119 14.7913 20.0286C14.7913 19.1329 14.8769 18.2582 15.0418 17.4106C15.046 17.3897 15.0501 17.3688 15.0543 17.3479C15.2422 16.4043 15.5261 15.4982 15.8957 14.638C16.3216 13.6485 16.8623 12.7173 17.4991 11.8655C17.6076 11.7215 17.7183 11.5795 17.831 11.4396C18.5429 10.5607 19.3634 9.77152 20.2695 9.09301C20.6808 8.78611 21.1088 8.50009 21.5534 8.24121C21.5618 8.24539 21.5701 8.25165 21.5785 8.25583C21.6599 8.30384 21.7393 8.35186 21.8186 8.40197C21.8583 8.42493 21.8979 8.44998 21.9355 8.47504C21.948 8.48339 21.9606 8.49174 21.9752 8.50009C22.0357 8.53767 22.0963 8.57734 22.1547 8.617C22.1714 8.62744 22.1902 8.63997 22.2069 8.65041C22.2716 8.69425 22.3363 8.73809 22.4011 8.78194C22.4595 8.8216 22.518 8.86127 22.5743 8.90302C22.6036 8.9239 22.6349 8.94478 22.6641 8.96774C22.7205 9.0095 22.7769 9.05125 22.8332 9.09301C22.8854 9.13268 22.9397 9.17234 22.9919 9.2141C23.0274 9.24124 23.0629 9.26838 23.0984 9.29761C23.113 9.30805 23.1255 9.32057 23.1401 9.33101C23.1819 9.36441 23.2236 9.39782 23.2654 9.43122C23.3155 9.47089 23.3635 9.51056 23.4115 9.55022C23.495 9.62121 23.5786 9.69219 23.6621 9.76526C23.6829 9.78196 23.7017 9.80075 23.7226 9.81745C23.756 9.84668 23.7873 9.87591 23.8186 9.90514C23.8646 9.94689 23.9084 9.98865 23.9543 10.0304C23.9585 10.0325 23.9606 10.0367 23.9648 10.0408C24.0358 10.1056 24.1047 10.1724 24.1736 10.2392C24.1798 10.2454 24.1861 10.2517 24.1923 10.258C24.2529 10.3164 24.3134 10.3749 24.3719 10.4354C24.3886 10.4521 24.4074 10.4709 24.422 10.4876C24.4742 10.5398 24.5243 10.592 24.5723 10.6442C24.6642 10.7423 24.756 10.8404 24.8437 10.9386C24.9001 11.0012 24.9565 11.0638 25.0087 11.1286C25.0254 11.1473 25.0421 11.1661 25.0567 11.1849C25.0984 11.2329 25.1381 11.281 25.1778 11.329C25.2112 11.3686 25.2446 11.4104 25.278 11.4522C25.2947 11.473 25.3114 11.4918 25.326 11.5127C25.3677 11.5649 25.4095 11.6171 25.4492 11.6693C25.4993 11.734 25.5494 11.8008 25.5995 11.8676C25.8688 12.2288 26.1214 12.6025 26.3552 12.9908C26.6747 13.519 26.9586 14.0702 27.2029 14.6401C27.5807 15.5212 27.8709 16.4481 28.0568 17.4126C28.2217 18.2603 28.3073 19.135 28.3073 20.0307L28.3177 20.0286Z" stroke="black" stroke-width="0.908016" stroke-miterlimit="10"/>
<path d="M28.3175 20.0289C28.3175 22.6052 27.6056 25.0145 26.3634 27.0709C25.7016 28.1669 24.8915 29.1649 23.9583 30.0313C22.9228 29.0688 22.0376 27.9477 21.3403 26.7076C20.5261 25.2587 19.9687 23.6449 19.7306 21.9309C19.6451 21.3108 19.5991 20.6761 19.5991 20.031C19.5991 19.1354 19.6847 18.2606 19.8496 17.413C19.929 17.0059 20.025 16.6051 20.1398 16.2126C20.2943 15.6739 20.4843 15.1499 20.7035 14.6405C21.1294 13.6509 21.6702 12.7198 22.3069 11.868C22.8017 11.2062 23.3529 10.5924 23.9562 10.0308C23.9604 10.0328 23.9625 10.037 23.9667 10.0412C24.0377 10.1059 24.1065 10.1727 24.1754 10.2395C24.1817 10.2458 24.188 10.2521 24.1942 10.2583C24.2548 10.3168 24.3153 10.3752 24.3738 10.4358C24.3905 10.4525 24.4093 10.4713 24.4239 10.488C24.4761 10.5402 24.5262 10.5924 24.5742 10.6446C24.6661 10.7427 24.7579 10.8408 24.8456 10.9389C24.902 11.0016 24.9583 11.0642 25.0105 11.1289C25.0272 11.1477 25.0439 11.1665 25.0586 11.1853C25.1003 11.2333 25.14 11.2813 25.1796 11.3293C25.213 11.369 25.2465 11.4108 25.2799 11.4525C25.2966 11.4734 25.3133 11.4922 25.3279 11.5131C25.3696 11.5652 25.4114 11.6174 25.4511 11.6696C25.5012 11.7344 25.5513 11.8012 25.6014 11.868C25.8707 12.2292 26.1233 12.6029 26.3571 12.9912C26.6766 13.5194 26.9605 14.0705 27.2048 14.6405C27.5826 15.5215 27.8728 16.4485 28.0586 17.413C28.2236 18.2606 28.3092 19.1354 28.3092 20.031L28.3175 20.0289Z" stroke="black" stroke-width="0.908016" stroke-miterlimit="10"/>
<path d="M28.3178 20.0291C28.3178 22.6054 27.6059 25.0146 26.3637 27.0711C25.752 26.0564 25.2676 24.9562 24.9356 23.7891C24.5933 22.5949 24.4116 21.3339 24.4116 20.0291C24.4116 19.5969 24.4325 19.169 24.4701 18.7472C24.5118 18.2942 24.5766 17.8495 24.6622 17.4111C24.85 16.4466 25.1382 15.5175 25.516 14.6386C25.7603 14.0686 26.0442 13.5154 26.3637 12.9893C26.6831 13.5175 26.967 14.0686 27.2113 14.6386C27.5892 15.5196 27.8794 16.4466 28.0652 17.4111C28.2301 18.2587 28.3157 19.1335 28.3157 20.0291H28.3178Z" stroke="black" stroke-width="0.908016" stroke-miterlimit="10"/>
<path d="M22.8374 9.09115C21.3697 10.1893 19.6724 10.9993 17.831 11.4378C16.8142 11.6799 15.7537 11.8073 14.6639 11.8073C14.0396 11.8073 13.4258 11.7655 12.8246 11.6841C11.4696 11.5025 10.1752 11.1204 8.97478 10.5693C8.09166 10.1642 7.25657 9.66736 6.48828 9.09115C8.76809 7.38547 11.5991 6.375 14.6639 6.375C14.7328 6.375 14.8037 6.375 14.8726 6.375C14.8977 6.375 14.9248 6.375 14.9499 6.375C14.9541 6.375 14.9603 6.375 14.9645 6.375C15.0397 6.375 15.1148 6.37918 15.19 6.38126C15.2777 6.38335 15.3653 6.38961 15.453 6.39379C15.5219 6.39797 15.5908 6.40214 15.6597 6.40632C15.6848 6.40632 15.7098 6.41049 15.7349 6.41258C15.8038 6.41675 15.8727 6.42302 15.9395 6.42928C16.0376 6.43763 16.1336 6.44807 16.2297 6.45851C16.3048 6.46686 16.3779 6.47521 16.451 6.48565C16.547 6.49818 16.643 6.51279 16.7391 6.5274C16.7391 6.5274 16.76 6.52949 16.7704 6.53158C16.8163 6.53784 16.8623 6.54619 16.9082 6.55455C17.1107 6.58795 17.309 6.62553 17.5074 6.66728C17.5575 6.67772 17.6076 6.68816 17.6598 6.70069C17.76 6.72365 17.8623 6.74662 17.9625 6.77167C18.0126 6.7842 18.0627 6.79672 18.1128 6.80925C18.4155 6.88858 18.7141 6.97627 19.0085 7.07648C19.0544 7.09109 19.0982 7.1078 19.1442 7.12241C19.2485 7.1579 19.355 7.19757 19.4594 7.23515C19.5053 7.25185 19.5513 7.27064 19.5993 7.28734C19.6786 7.31866 19.7579 7.34997 19.8373 7.38338C19.9104 7.41261 19.9834 7.44392 20.0544 7.47524C20.1379 7.51073 20.2193 7.54622 20.3008 7.5838C20.378 7.61929 20.4532 7.65478 20.5283 7.69028C20.5325 7.69236 20.5388 7.69445 20.545 7.69863C20.6264 7.73621 20.7079 7.77587 20.7872 7.81763C20.8498 7.84894 20.9125 7.88026 20.973 7.91366C21.0315 7.94498 21.0899 7.9763 21.1484 8.00761C21.2277 8.04937 21.305 8.09321 21.3843 8.13705C21.401 8.1454 21.4156 8.15584 21.4323 8.16419C21.4699 8.18507 21.5075 8.20595 21.5451 8.22891C21.5471 8.22891 21.5492 8.231 21.5534 8.23309C21.5618 8.23726 21.5701 8.24353 21.5785 8.2477C21.6599 8.29572 21.7392 8.34374 21.8185 8.39384C21.8582 8.41681 21.8979 8.44186 21.9355 8.46691C21.948 8.47527 21.9605 8.48362 21.9751 8.49197C22.0357 8.52955 22.0962 8.56921 22.1547 8.60888C22.1714 8.61932 22.1902 8.63185 22.2069 8.64228C22.2716 8.68613 22.3363 8.72997 22.401 8.77381C22.4595 8.81348 22.5179 8.85315 22.5743 8.8949C22.6035 8.91578 22.6349 8.93666 22.6641 8.95962C22.7205 9.00138 22.7768 9.04313 22.8332 9.08488L22.8374 9.09115Z" stroke="black" stroke-width="0.908016" stroke-miterlimit="10"/>
<path d="M25.6078 11.8637C24.2007 13.7468 22.3197 15.2542 20.1421 16.2103C18.5784 16.8972 16.8602 17.298 15.0543 17.3482C14.9249 17.3523 14.7934 17.3544 14.6639 17.3544C13.1733 17.3544 11.739 17.1164 10.3945 16.6738C8.91011 16.1853 7.53847 15.4504 6.32758 14.5151C5.34217 13.7552 4.46323 12.8616 3.71582 11.8637C4.50081 10.8114 5.43612 9.87614 6.48625 9.09115C8.76815 7.38547 11.5991 6.375 14.6639 6.375C14.7328 6.375 14.8038 6.375 14.8727 6.375C14.8977 6.375 14.9249 6.375 14.9499 6.375C14.9541 6.375 14.9604 6.375 14.9646 6.375C15.0397 6.375 15.1149 6.37918 15.19 6.38126C15.2777 6.38335 15.3654 6.38961 15.4531 6.39379C15.522 6.39797 15.5909 6.40214 15.6598 6.40632C15.6848 6.40632 15.7099 6.41049 15.7349 6.41258C15.8038 6.41675 15.8727 6.42302 15.9395 6.42928C16.0377 6.43763 16.1337 6.44807 16.2297 6.45851C16.3049 6.46686 16.378 6.47521 16.451 6.48565C16.5471 6.49818 16.6431 6.51279 16.7391 6.5274C16.7391 6.5274 16.76 6.52949 16.7704 6.53158C16.8164 6.53784 16.8623 6.54619 16.9082 6.55455C17.1107 6.58795 17.3091 6.62553 17.5074 6.66728C17.5575 6.67772 17.6076 6.68816 17.6598 6.70069C17.76 6.72365 17.8623 6.74662 17.9625 6.77167C18.0127 6.7842 18.0628 6.79672 18.1129 6.80925C18.4156 6.88858 18.7141 6.97627 19.0085 7.07648C19.0544 7.09109 19.0983 7.1078 19.1442 7.12241C19.2486 7.1579 19.3551 7.19757 19.4595 7.23515C19.5054 7.25185 19.5513 7.27064 19.5993 7.28734C19.6787 7.31866 19.758 7.34997 19.8373 7.38338C19.9104 7.41261 19.9835 7.44392 20.0545 7.47524C20.138 7.51073 20.2194 7.54622 20.3008 7.5838C20.3781 7.61929 20.4532 7.65478 20.5284 7.69028C20.5326 7.69236 20.5388 7.69445 20.5451 7.69863C20.6265 7.73621 20.7079 7.77587 20.7873 7.81763C20.8499 7.84894 20.9125 7.88026 20.9731 7.91366C21.0315 7.94498 21.09 7.9763 21.1484 8.00761C21.2278 8.04937 21.305 8.09321 21.3843 8.13705C21.4011 8.1454 21.4157 8.15584 21.4324 8.16419C21.4699 8.18507 21.5075 8.20595 21.5451 8.22891C21.5472 8.22891 21.5493 8.231 21.5535 8.23309C21.5618 8.23726 21.5702 8.24353 21.5785 8.2477C21.6599 8.29572 21.7393 8.34374 21.8186 8.39384C21.8583 8.41681 21.8979 8.44186 21.9355 8.46691C21.948 8.47527 21.9606 8.48362 21.9752 8.49197C22.0357 8.52955 22.0963 8.56921 22.1547 8.60888C22.1714 8.61932 22.1902 8.63185 22.2069 8.64228C22.2716 8.68613 22.3364 8.72997 22.4011 8.77381C22.4595 8.81348 22.518 8.85315 22.5744 8.8949C22.6036 8.91578 22.6349 8.93666 22.6641 8.95962C22.7205 9.00138 22.7769 9.04313 22.8332 9.08488C22.8854 9.12455 22.9397 9.16422 22.9919 9.20597C23.0274 9.23311 23.0629 9.26025 23.0984 9.28948C23.113 9.29992 23.1255 9.31245 23.1401 9.32289C23.1819 9.35629 23.2236 9.38969 23.2654 9.4231C23.3155 9.46277 23.3635 9.50243 23.4115 9.5421C23.4951 9.61308 23.5786 9.68407 23.6621 9.75714C23.6829 9.77384 23.7017 9.79263 23.7226 9.80933C23.756 9.83856 23.7873 9.86779 23.8187 9.89702C23.8646 9.93877 23.9084 9.98052 23.9544 10.0223C23.9585 10.0244 23.9606 10.0285 23.9648 10.0327C24.0358 10.0974 24.1047 10.1642 24.1736 10.2311C24.1798 10.2373 24.1861 10.2436 24.1924 10.2498C24.2529 10.3083 24.3134 10.3668 24.3719 10.4273C24.3886 10.444 24.4074 10.4628 24.422 10.4795C24.4742 10.5317 24.5243 10.5839 24.5723 10.6361C24.6642 10.7342 24.756 10.8323 24.8437 10.9304C24.9001 10.9931 24.9565 11.0557 25.0087 11.1204C25.0254 11.1392 25.0421 11.158 25.0567 11.1768C25.0984 11.2248 25.1381 11.2728 25.1778 11.3209C25.2112 11.3605 25.2446 11.4023 25.278 11.444C25.2947 11.4649 25.3114 11.4837 25.326 11.5046C25.3678 11.5568 25.4095 11.609 25.4492 11.6612C25.4993 11.7259 25.5494 11.7927 25.5995 11.8595L25.6078 11.8637Z" stroke="black" stroke-width="0.908016" stroke-miterlimit="10"/>
<path d="M27.2112 14.6383C26.5515 16.1748 25.6162 17.5653 24.47 18.7469C23.1443 20.1165 21.5326 21.2084 19.7308 21.9286C18.2882 22.507 16.7266 22.8431 15.0919 22.8932C14.9499 22.8974 14.8059 22.8994 14.6639 22.8994C13.0793 22.8994 11.5573 22.6301 10.1419 22.1312C8.27542 21.4777 6.59688 20.4297 5.20227 19.0872C3.89743 17.8346 2.84103 16.3231 2.1145 14.6362C2.5404 13.6466 3.08112 12.7155 3.71789 11.8637C4.50287 10.8114 5.43818 9.87614 6.48831 9.09115C8.76812 7.38547 11.5991 6.375 14.6639 6.375C14.7328 6.375 14.8038 6.375 14.8727 6.375C14.8977 6.375 14.9249 6.375 14.9499 6.375C14.9541 6.375 14.9604 6.375 14.9645 6.375C15.0397 6.375 15.1148 6.37918 15.19 6.38126C15.2777 6.38335 15.3654 6.38961 15.4531 6.39379C15.522 6.39797 15.5909 6.40214 15.6597 6.40632C15.6848 6.40632 15.7099 6.41049 15.7349 6.41258C15.8038 6.41675 15.8727 6.42302 15.9395 6.42928C16.0376 6.43763 16.1337 6.44807 16.2297 6.45851C16.3049 6.46686 16.3779 6.47521 16.451 6.48565C16.547 6.49818 16.6431 6.51279 16.7391 6.5274C16.7391 6.5274 16.76 6.52949 16.7704 6.53158C16.8164 6.53784 16.8623 6.54619 16.9082 6.55455C17.1107 6.58795 17.3091 6.62553 17.5074 6.66728C17.5575 6.67772 17.6076 6.68816 17.6598 6.70069C17.76 6.72365 17.8623 6.74662 17.9625 6.77167C18.0126 6.7842 18.0627 6.79672 18.1128 6.80925C18.4156 6.88858 18.7141 6.97627 19.0085 7.07648C19.0544 7.09109 19.0983 7.1078 19.1442 7.12241C19.2486 7.1579 19.355 7.19757 19.4594 7.23515C19.5054 7.25185 19.5513 7.27064 19.5993 7.28734C19.6786 7.31866 19.758 7.34997 19.8373 7.38338C19.9104 7.41261 19.9835 7.44392 20.0544 7.47524C20.1379 7.51073 20.2194 7.54622 20.3008 7.5838C20.378 7.61929 20.4532 7.65478 20.5284 7.69028C20.5325 7.69236 20.5388 7.69445 20.5451 7.69863C20.6265 7.73621 20.7079 7.77587 20.7872 7.81763C20.8499 7.84894 20.9125 7.88026 20.973 7.91366C21.0315 7.94498 21.09 7.9763 21.1484 8.00761C21.2277 8.04937 21.305 8.09321 21.3843 8.13705C21.401 8.1454 21.4156 8.15584 21.4323 8.16419C21.4699 8.18507 21.5075 8.20595 21.5451 8.22891C21.5472 8.22891 21.5493 8.231 21.5534 8.23309C21.5618 8.23726 21.5701 8.24353 21.5785 8.2477C21.6599 8.29572 21.7392 8.34374 21.8186 8.39384C21.8582 8.41681 21.8979 8.44186 21.9355 8.46691C21.948 8.47526 21.9605 8.48362 21.9752 8.49197C22.0357 8.52955 22.0962 8.56921 22.1547 8.60888C22.1714 8.61932 22.1902 8.63184 22.2069 8.64228C22.2716 8.68613 22.3363 8.72997 22.4011 8.77381C22.4595 8.81348 22.518 8.85315 22.5743 8.8949C22.6036 8.91578 22.6349 8.93665 22.6641 8.95962C22.7205 9.00137 22.7768 9.04313 22.8332 9.08488C22.8854 9.12455 22.9397 9.16422 22.9919 9.20597C23.0274 9.23311 23.0629 9.26025 23.0984 9.28948C23.113 9.29992 23.1255 9.31245 23.1401 9.32289C23.1819 9.35629 23.2236 9.38969 23.2654 9.4231C23.3155 9.46276 23.3635 9.50243 23.4115 9.5421C23.495 9.61308 23.5785 9.68407 23.662 9.75714C23.6829 9.77384 23.7017 9.79263 23.7226 9.80933C23.756 9.83856 23.7873 9.86779 23.8186 9.89701C23.8646 9.93877 23.9084 9.98052 23.9543 10.0223C23.9585 10.0244 23.9606 10.0285 23.9648 10.0327C24.0358 10.0974 24.1046 10.1642 24.1735 10.2311C24.1798 10.2373 24.1861 10.2436 24.1923 10.2498C24.2529 10.3083 24.3134 10.3668 24.3719 10.4273C24.3886 10.444 24.4074 10.4628 24.422 10.4795C24.4742 10.5317 24.5243 10.5839 24.5723 10.6361C24.6642 10.7342 24.756 10.8323 24.8437 10.9304C24.9001 10.9931 24.9564 11.0557 25.0086 11.1204C25.0253 11.1392 25.042 11.158 25.0567 11.1768C25.0984 11.2248 25.1381 11.2728 25.1777 11.3209C25.2112 11.3605 25.2446 11.4023 25.278 11.444C25.2947 11.4649 25.3114 11.4837 25.326 11.5046C25.3677 11.5568 25.4095 11.609 25.4492 11.6612C25.4993 11.7259 25.5494 11.7927 25.5995 11.8595C25.8688 12.2207 26.1214 12.5944 26.3552 12.9827C26.6747 13.5109 26.9586 14.0621 27.2029 14.632L27.2112 14.6383Z" stroke="black" stroke-width="0.908016" stroke-miterlimit="10"/>
<path d="M28.0671 17.4108C27.5994 19.8242 26.495 22.0101 24.9355 23.7888C23.9146 24.9538 22.6995 25.9413 21.3425 26.7054C20.1524 27.3735 18.8518 27.8704 17.4739 28.1585C16.5678 28.3484 15.6283 28.4487 14.6659 28.4487C14.0291 28.4487 13.4007 28.4048 12.7848 28.3213C10.3964 27.9914 8.20223 27.0436 6.37546 25.6448C3.77414 23.6531 1.90978 20.7491 1.2605 17.4108C1.44839 16.4463 1.7365 15.5172 2.11438 14.6383C2.54028 13.6487 3.08101 12.7175 3.71777 11.8658C4.50276 10.8135 5.43806 9.87823 6.4882 9.09324C8.76801 7.38547 11.599 6.375 14.6638 6.375C14.7327 6.375 14.8037 6.375 14.8726 6.375C14.8976 6.375 14.9247 6.375 14.9498 6.375C14.954 6.375 14.9602 6.375 14.9644 6.375C15.0396 6.375 15.1147 6.37918 15.1899 6.38126C15.2776 6.38335 15.3653 6.38961 15.4529 6.39379C15.5218 6.39797 15.5907 6.40214 15.6596 6.40632C15.6847 6.40632 15.7097 6.41049 15.7348 6.41258C15.8037 6.41675 15.8726 6.42302 15.9394 6.42928C16.0375 6.43763 16.1335 6.44807 16.2296 6.45851C16.3047 6.46686 16.3778 6.47521 16.4509 6.48565C16.5469 6.49818 16.643 6.51279 16.739 6.5274C16.739 6.5274 16.7599 6.52949 16.7703 6.53158C16.8162 6.53784 16.8622 6.54619 16.9081 6.55455C17.1106 6.58795 17.3089 6.62553 17.5073 6.66728C17.5574 6.67772 17.6075 6.68816 17.6597 6.70069C17.7599 6.72365 17.8622 6.74662 17.9624 6.77167C18.0125 6.7842 18.0626 6.79672 18.1127 6.80925C18.4154 6.88858 18.714 6.97627 19.0084 7.07648C19.0543 7.09109 19.0981 7.1078 19.1441 7.12241C19.2485 7.1579 19.3549 7.19757 19.4593 7.23515C19.5052 7.25185 19.5512 7.27064 19.5992 7.28734C19.6785 7.31866 19.7579 7.34997 19.8372 7.38338C19.9103 7.41261 19.9833 7.44392 20.0543 7.47524C20.1378 7.51073 20.2193 7.54622 20.3007 7.5838C20.3779 7.61929 20.4531 7.65478 20.5282 7.69028C20.5324 7.69236 20.5387 7.69445 20.5449 7.69863C20.6264 7.73621 20.7078 7.77587 20.7871 7.81763C20.8498 7.84894 20.9124 7.88026 20.9729 7.91366C21.0314 7.94498 21.0898 7.9763 21.1483 8.00761C21.2276 8.04937 21.3049 8.09321 21.3842 8.13705C21.4009 8.1454 21.4155 8.15584 21.4322 8.16419C21.4698 8.18507 21.5074 8.20595 21.545 8.22891C21.5471 8.22891 21.5491 8.231 21.5533 8.23309C21.5617 8.23726 21.57 8.24353 21.5784 8.2477C21.6598 8.29572 21.7391 8.34374 21.8185 8.39384C21.8581 8.41681 21.8978 8.44186 21.9354 8.46691C21.9479 8.47527 21.9604 8.48362 21.975 8.49197C22.0356 8.52955 22.0961 8.56921 22.1546 8.60888C22.1713 8.61932 22.1901 8.63185 22.2068 8.64228C22.2715 8.68613 22.3362 8.72997 22.4009 8.77381C22.4594 8.81348 22.5179 8.85315 22.5742 8.8949C22.6035 8.91578 22.6348 8.93666 22.664 8.95962C22.7204 9.00138 22.7767 9.04313 22.8331 9.08488C22.8853 9.12455 22.9396 9.16422 22.9918 9.20597C23.0273 9.23311 23.0628 9.26025 23.0982 9.28948C23.1129 9.29992 23.1254 9.31245 23.14 9.32289C23.1818 9.35629 23.2235 9.38969 23.2653 9.4231C23.3154 9.46277 23.3634 9.50243 23.4114 9.5421C23.4949 9.61308 23.5784 9.68407 23.6619 9.75714C23.6828 9.77384 23.7016 9.79263 23.7225 9.80933C23.7559 9.83856 23.7872 9.86779 23.8185 9.89702C23.8644 9.93877 23.9083 9.98052 23.9542 10.0223C23.9584 10.0244 23.9605 10.0285 23.9647 10.0327C24.0356 10.0974 24.1045 10.1642 24.1734 10.2311C24.1797 10.2373 24.186 10.2436 24.1922 10.2498C24.2528 10.3083 24.3133 10.3668 24.3718 10.4273C24.3885 10.444 24.4073 10.4628 24.4219 10.4795C24.4741 10.5317 24.5242 10.5839 24.5722 10.6361C24.664 10.7342 24.7559 10.8323 24.8436 10.9304C24.9 10.9931 24.9563 11.0557 25.0085 11.1204C25.0252 11.1392 25.0419 11.158 25.0565 11.1768C25.0983 11.2248 25.138 11.2728 25.1776 11.3209C25.211 11.3605 25.2444 11.4023 25.2778 11.444C25.2945 11.4649 25.3112 11.4837 25.3259 11.5046C25.3676 11.5568 25.4094 11.609 25.449 11.6612C25.4991 11.7259 25.5493 11.7927 25.5994 11.8595C25.8687 12.2207 26.1213 12.5944 26.3551 12.9827C26.6745 13.5109 26.9585 14.0621 27.2027 14.632C27.5806 15.513 27.8708 16.44 28.0566 17.4045L28.0671 17.4108Z" stroke="black" stroke-width="0.908016" stroke-miterlimit="10"/>
<defs>
<filter id="filter0_d_1806_12039" x="35.3037" y="0.848147" width="41.2051" height="16.5996" filterUnits="userSpaceOnUse" color-interpolation-filters="sRGB">
<feFlood flood-opacity="0" result="BackgroundImageFix"/>
<feColorMatrix in="SourceAlpha" type="matrix" values="0 0 0 0 0 0 0 0 0 0 0 0 0 0 0 0 0 0 127 0" result="hardAlpha"/>
<feOffset/>
<feGaussianBlur stdDeviation="1.82251"/>
<feComposite in2="hardAlpha" operator="out"/>
<feColorMatrix type="matrix" values="0 0 0 0 0 0 0 0 0 0 0 0 0 0 0 0 0 0 0.25 0"/>
<feBlend mode="normal" in2="BackgroundImageFix" result="effect1_dropShadow_1806_12039"/>
<feBlend mode="normal" in="SourceGraphic" in2="effect1_dropShadow_1806_12039" result="shape"/>
</filter>
<filter id="filter1_d_1806_12039" x="33.4999" y="5.14834" width="44.8635" height="34.1769" filterUnits="userSpaceOnUse" color-interpolation-filters="sRGB">
<feFlood flood-opacity="0" result="BackgroundImageFix"/>
<feColorMatrix in="SourceAlpha" type="matrix" values="0 0 0 0 0 0 0 0 0 0 0 0 0 0 0 0 0 0 127 0" result="hardAlpha"/>
<feOffset/>
<feGaussianBlur stdDeviation="2.69731"/>
<feComposite in2="hardAlpha" operator="out"/>
<feColorMatrix type="matrix" values="0 0 0 0 0 0 0 0 0 0 0 0 0 0 0 0 0 0 0.25 0"/>
<feBlend mode="normal" in2="BackgroundImageFix" result="effect1_dropShadow_1806_12039"/>
<feBlend mode="normal" in="SourceGraphic" in2="effect1_dropShadow_1806_12039" result="shape"/>
</filter>
</defs>
</svg>
