<svg width="227" height="224" viewBox="0 0 227 224" fill="none" xmlns="http://www.w3.org/2000/svg">
<g filter="url(#filter0_d_2075_1101)">
<circle cx="113.441" cy="51.5152" r="45.8211" fill="#F7FF6E"/>
</g>
<g filter="url(#filter1_d_2075_1101)">
<circle cx="150.854" cy="65.1331" r="45.8211" transform="rotate(40 150.854 65.1331)" fill="#F7FF6E"/>
</g>
<g filter="url(#filter2_d_2075_1101)">
<circle cx="170.761" cy="99.6139" r="45.8211" transform="rotate(80 170.761 99.6139)" fill="#F7FF6E"/>
</g>
<g filter="url(#filter3_d_2075_1101)">
<circle cx="163.848" cy="138.824" r="45.8211" transform="rotate(120 163.848 138.824)" fill="#F7FF6E"/>
</g>
<g filter="url(#filter4_d_2075_1101)">
<circle cx="133.348" cy="164.416" r="45.8211" transform="rotate(160 133.348 164.416)" fill="#F7FF6E"/>
</g>
<g filter="url(#filter5_d_2075_1101)">
<circle cx="93.532" cy="164.416" r="45.8211" transform="rotate(-160 93.532 164.416)" fill="#F7FF6E"/>
</g>
<g filter="url(#filter6_d_2075_1101)">
<circle cx="63.0334" cy="138.824" r="45.8211" transform="rotate(-120 63.0334 138.824)" fill="#F7FF6E"/>
</g>
<g filter="url(#filter7_d_2075_1101)">
<circle cx="56.1207" cy="99.6138" r="45.8211" transform="rotate(-80 56.1207 99.6138)" fill="#F7FF6E"/>
</g>
<g filter="url(#filter8_d_2075_1101)">
<circle cx="76.0259" cy="65.1332" r="45.8211" transform="rotate(-40 76.0259 65.1332)" fill="#F7FF6E"/>
</g>
<g filter="url(#filter9_d_2075_1101)">
<rect x="64.2959" y="93.2301" width="99.5544" height="30.9079" transform="rotate(-0.425317 64.2959 93.2301)" fill="#FF6B00"/>
</g>
<path d="M71.27 112.453C70.8403 112.453 70.6894 112.059 70.8171 111.734L73.6621 104.615C73.8015 104.267 74.0569 104.046 74.4634 104.046C74.8698 104.046 75.1485 104.255 75.2878 104.615L78.1329 111.699C78.2722 112.035 78.1096 112.453 77.6567 112.453C77.3781 112.453 77.1923 112.291 77.0877 112.012L76.2749 109.899H72.6286L71.8041 112.035C71.6996 112.303 71.5371 112.453 71.27 112.453ZM72.9654 109.016H75.9381L74.684 105.765C74.6027 105.556 74.533 105.347 74.4518 105.149C74.3821 105.347 74.3008 105.556 74.2195 105.765L72.9654 109.016ZM79.49 112.453C79.1881 112.453 78.9907 112.244 78.9907 111.873V107.158C78.9907 106.787 79.1881 106.578 79.49 106.578C79.792 106.578 79.9894 106.787 79.9894 107.158V107.646C80.2681 107.007 80.93 106.543 81.557 106.543C81.7196 106.543 81.8473 106.578 81.9519 106.647C82.068 106.729 82.1376 106.856 82.1376 107.019C82.1376 107.205 82.068 107.344 81.9402 107.425C81.8473 107.495 81.7196 107.53 81.5686 107.53C80.6048 107.53 79.9894 108.11 79.9894 109.353V111.873C79.9894 112.244 79.792 112.453 79.49 112.453ZM85.0751 112.488C83.5655 112.488 82.2998 111.49 82.2998 109.504C82.2998 107.739 83.5307 106.531 85.1332 106.531C86.1434 106.531 86.9563 107.007 87.3395 107.785C87.6298 108.389 87.386 108.738 86.9911 108.738C86.6892 108.738 86.5615 108.552 86.4686 108.273C86.2828 107.716 85.8067 107.321 85.1099 107.321C84.0416 107.321 83.3333 108.261 83.3333 109.504C83.3333 110.839 84.0532 111.71 85.1332 111.71C85.8415 111.71 86.3409 111.362 86.5383 110.746C86.6195 110.479 86.7705 110.294 87.0608 110.294C87.4324 110.294 87.653 110.619 87.3976 111.199C87.0608 111.977 86.2712 112.488 85.0751 112.488ZM89.0845 112.453C88.7826 112.453 88.5852 112.244 88.5852 111.873V104.627C88.5852 104.255 88.7826 104.046 89.0845 104.046C89.3865 104.046 89.5839 104.255 89.5839 104.627V107.158V107.472C89.8858 106.938 90.5477 106.531 91.3025 106.531C92.5914 106.531 93.3695 107.344 93.3695 108.784V111.873C93.3695 112.244 93.1721 112.453 92.8701 112.453C92.5682 112.453 92.3708 112.244 92.3708 111.873V108.912C92.3708 107.855 92.0108 107.321 91.1051 107.321C90.1529 107.321 89.5839 108.064 89.5839 108.947V111.873C89.5839 112.244 89.3865 112.453 89.0845 112.453ZM95.2705 112.453C94.9686 112.453 94.7712 112.279 94.7712 111.873V107.123C94.7712 106.717 94.9686 106.543 95.2705 106.543C95.5725 106.543 95.7699 106.717 95.7699 107.123V111.873C95.7699 112.279 95.5725 112.453 95.2705 112.453ZM94.5273 105.068C94.5273 104.662 94.8525 104.336 95.2589 104.336C95.6654 104.336 95.9905 104.662 95.9905 105.068C95.9905 105.474 95.6654 105.8 95.2589 105.8C94.8525 105.8 94.5273 105.474 94.5273 105.068ZM99.1656 112.453C98.8288 112.453 98.6082 112.279 98.4572 111.873L96.7154 107.321C96.5644 106.926 96.785 106.578 97.1682 106.578C97.4005 106.578 97.5747 106.717 97.6676 106.984L99.003 110.77L99.2004 111.315C99.2468 111.165 99.3049 111.002 99.3862 110.77L100.675 106.984C100.768 106.717 100.942 106.578 101.186 106.578C101.546 106.578 101.743 106.903 101.604 107.274L99.8623 111.873C99.7113 112.279 99.5023 112.453 99.1656 112.453ZM103.028 112.453C102.726 112.453 102.528 112.279 102.528 111.873V107.123C102.528 106.717 102.726 106.543 103.028 106.543C103.33 106.543 103.527 106.717 103.527 107.123V111.873C103.527 112.279 103.33 112.453 103.028 112.453ZM102.284 105.068C102.284 104.662 102.61 104.336 103.016 104.336C103.422 104.336 103.748 104.662 103.748 105.068C103.748 105.474 103.422 105.8 103.016 105.8C102.61 105.8 102.284 105.474 102.284 105.068ZM105.494 112.453C105.192 112.453 104.995 112.244 104.995 111.873V107.158C104.995 106.787 105.192 106.578 105.494 106.578C105.796 106.578 105.982 106.787 105.982 107.158V107.472C106.284 106.984 106.958 106.531 107.712 106.531C109.001 106.531 109.779 107.344 109.779 108.784V111.873C109.779 112.244 109.582 112.453 109.28 112.453C108.978 112.453 108.781 112.244 108.781 111.873V108.912C108.781 107.855 108.432 107.321 107.55 107.321C106.574 107.321 105.994 108.064 105.994 108.947V111.873C105.994 112.244 105.796 112.453 105.494 112.453ZM113.527 114.904C112.226 114.904 111.437 114.265 111.205 113.533C111.03 112.988 111.297 112.709 111.623 112.709C111.855 112.709 112.041 112.848 112.122 113.197C112.25 113.719 112.737 114.126 113.539 114.126C114.595 114.126 115.222 113.58 115.222 112.384V111.699V111.327C114.932 111.896 114.212 112.256 113.388 112.256C111.843 112.256 110.845 111.141 110.845 109.411C110.845 107.692 111.959 106.531 113.422 106.531C114.351 106.531 114.932 107.007 115.222 107.472V107.158C115.222 106.787 115.42 106.578 115.722 106.578C116.024 106.578 116.221 106.787 116.221 107.158V112.035C116.221 113.951 115.315 114.904 113.527 114.904ZM111.878 109.411C111.878 110.665 112.575 111.478 113.585 111.478C114.595 111.478 115.292 110.654 115.292 109.411C115.292 108.192 114.595 107.321 113.585 107.321C112.575 107.321 111.878 108.169 111.878 109.411ZM117.778 113.58C117.464 113.58 117.29 113.417 117.29 113.162C117.29 112.906 117.464 112.732 117.778 112.732H122.446C122.759 112.732 122.934 112.895 122.934 113.15C122.934 113.406 122.759 113.58 122.446 113.58H117.778ZM126.971 112.488C124.591 112.488 123.116 110.665 123.116 108.296C123.116 105.498 124.951 104 127.064 104C128.469 104 129.642 104.662 130.13 105.684C130.467 106.392 130.165 106.775 129.758 106.775C129.491 106.775 129.34 106.659 129.155 106.171C128.841 105.382 128.051 104.894 127.064 104.894C125.439 104.894 124.231 106.044 124.231 108.296C124.231 110.201 125.357 111.606 127.006 111.606C128.493 111.606 129.456 110.758 129.456 109.109V108.958H127.308C126.971 108.958 126.786 108.796 126.786 108.517C126.786 108.238 126.971 108.064 127.308 108.064H129.828C130.211 108.064 130.432 108.285 130.432 108.668V111.943C130.432 112.268 130.258 112.453 129.991 112.453C129.724 112.453 129.549 112.268 129.549 111.943V111.188C129.108 111.919 128.121 112.488 126.971 112.488ZM133.406 112.488C132.338 112.488 131.479 111.838 131.479 110.781C131.479 109.701 132.338 109.19 133.337 109.039L134.533 108.854C134.962 108.784 135.102 108.633 135.102 108.296C135.102 107.681 134.626 107.321 133.975 107.321C133.255 107.321 132.837 107.634 132.698 108.145C132.628 108.424 132.477 108.61 132.187 108.61C131.862 108.61 131.56 108.354 131.804 107.774C132.094 107.065 132.826 106.531 133.894 106.531C135.287 106.531 136.077 107.356 136.077 108.645V111.873C136.077 112.244 135.891 112.453 135.601 112.453C135.311 112.453 135.125 112.244 135.125 111.873V111.559C134.846 112.14 134.242 112.488 133.406 112.488ZM132.512 110.781C132.512 111.362 132.977 111.71 133.546 111.71C134.44 111.71 135.102 111.106 135.102 110.201V109.376C135.032 109.481 134.823 109.562 134.486 109.62L133.673 109.771C133.011 109.899 132.512 110.189 132.512 110.781ZM137.979 112.453C137.677 112.453 137.48 112.244 137.48 111.873V107.158C137.48 106.787 137.677 106.578 137.979 106.578C138.281 106.578 138.479 106.787 138.479 107.158V107.646C138.757 107.007 139.419 106.543 140.046 106.543C140.209 106.543 140.337 106.578 140.441 106.647C140.557 106.729 140.627 106.856 140.627 107.019C140.627 107.205 140.557 107.344 140.43 107.425C140.337 107.495 140.209 107.53 140.058 107.53C139.094 107.53 138.479 108.11 138.479 109.353V111.873C138.479 112.244 138.281 112.453 137.979 112.453ZM143.413 112.488C141.95 112.488 140.823 111.42 140.823 109.516C140.823 107.82 141.845 106.531 143.425 106.531C144.365 106.531 144.981 107.042 145.224 107.472V107.019V104.627C145.224 104.255 145.422 104.046 145.724 104.046C146.026 104.046 146.223 104.255 146.223 104.627V111.873C146.223 112.244 146.026 112.453 145.724 112.453C145.422 112.453 145.224 112.244 145.224 111.873V111.536C144.922 112.059 144.249 112.488 143.413 112.488ZM141.868 109.516C141.868 110.828 142.565 111.71 143.575 111.71C144.586 111.71 145.294 110.851 145.294 109.504C145.294 108.169 144.597 107.321 143.575 107.321C142.577 107.321 141.868 108.203 141.868 109.516ZM150.078 112.488C148.406 112.488 147.361 111.432 147.361 109.492C147.361 107.774 148.488 106.531 150.009 106.531C151.844 106.531 152.459 107.913 152.575 108.9C152.656 109.585 152.389 109.701 151.983 109.701H148.36C148.383 110.979 149.126 111.71 150.09 111.71C150.682 111.71 151.228 111.513 151.472 110.897C151.576 110.63 151.693 110.445 151.983 110.445C152.354 110.445 152.575 110.77 152.32 111.315C152.018 111.954 151.275 112.488 150.078 112.488ZM148.395 108.993H151.542C151.542 107.994 150.996 107.321 150.009 107.321C149.08 107.321 148.464 108.052 148.395 108.993ZM154.191 112.453C153.889 112.453 153.691 112.244 153.691 111.873V107.158C153.691 106.787 153.889 106.578 154.191 106.578C154.493 106.578 154.678 106.787 154.678 107.158V107.472C154.98 106.984 155.654 106.531 156.409 106.531C157.698 106.531 158.476 107.344 158.476 108.784V111.873C158.476 112.244 158.278 112.453 157.976 112.453C157.674 112.453 157.477 112.244 157.477 111.873V108.912C157.477 107.855 157.129 107.321 156.246 107.321C155.271 107.321 154.69 108.064 154.69 108.947V111.873C154.69 112.244 154.493 112.453 154.191 112.453Z" fill="black"/>
<defs>
<filter id="filter0_d_2075_1101" x="65.0469" y="3.12088" width="96.789" height="96.7886" filterUnits="userSpaceOnUse" color-interpolation-filters="sRGB">
<feFlood flood-opacity="0" result="BackgroundImageFix"/>
<feColorMatrix in="SourceAlpha" type="matrix" values="0 0 0 0 0 0 0 0 0 0 0 0 0 0 0 0 0 0 127 0" result="hardAlpha"/>
<feOffset/>
<feGaussianBlur stdDeviation="1.28661"/>
<feComposite in2="hardAlpha" operator="out"/>
<feColorMatrix type="matrix" values="0 0 0 0 0 0 0 0 0 0 0 0 0 0 0 0 0 0 0.25 0"/>
<feBlend mode="normal" in2="BackgroundImageFix" result="effect1_dropShadow_2075_1101"/>
<feBlend mode="normal" in="SourceGraphic" in2="effect1_dropShadow_2075_1101" result="shape"/>
</filter>
<filter id="filter1_d_2075_1101" x="102.458" y="16.7378" width="96.791" height="96.7907" filterUnits="userSpaceOnUse" color-interpolation-filters="sRGB">
<feFlood flood-opacity="0" result="BackgroundImageFix"/>
<feColorMatrix in="SourceAlpha" type="matrix" values="0 0 0 0 0 0 0 0 0 0 0 0 0 0 0 0 0 0 127 0" result="hardAlpha"/>
<feOffset/>
<feGaussianBlur stdDeviation="1.28661"/>
<feComposite in2="hardAlpha" operator="out"/>
<feColorMatrix type="matrix" values="0 0 0 0 0 0 0 0 0 0 0 0 0 0 0 0 0 0 0.25 0"/>
<feBlend mode="normal" in2="BackgroundImageFix" result="effect1_dropShadow_2075_1101"/>
<feBlend mode="normal" in="SourceGraphic" in2="effect1_dropShadow_2075_1101" result="shape"/>
</filter>
<filter id="filter2_d_2075_1101" x="122.358" y="51.2119" width="96.8036" height="96.8039" filterUnits="userSpaceOnUse" color-interpolation-filters="sRGB">
<feFlood flood-opacity="0" result="BackgroundImageFix"/>
<feColorMatrix in="SourceAlpha" type="matrix" values="0 0 0 0 0 0 0 0 0 0 0 0 0 0 0 0 0 0 127 0" result="hardAlpha"/>
<feOffset/>
<feGaussianBlur stdDeviation="1.28661"/>
<feComposite in2="hardAlpha" operator="out"/>
<feColorMatrix type="matrix" values="0 0 0 0 0 0 0 0 0 0 0 0 0 0 0 0 0 0 0.25 0"/>
<feBlend mode="normal" in2="BackgroundImageFix" result="effect1_dropShadow_2075_1101"/>
<feBlend mode="normal" in="SourceGraphic" in2="effect1_dropShadow_2075_1101" result="shape"/>
</filter>
<filter id="filter3_d_2075_1101" x="115.445" y="90.4216" width="96.8046" height="96.8039" filterUnits="userSpaceOnUse" color-interpolation-filters="sRGB">
<feFlood flood-opacity="0" result="BackgroundImageFix"/>
<feColorMatrix in="SourceAlpha" type="matrix" values="0 0 0 0 0 0 0 0 0 0 0 0 0 0 0 0 0 0 127 0" result="hardAlpha"/>
<feOffset/>
<feGaussianBlur stdDeviation="1.28661"/>
<feComposite in2="hardAlpha" operator="out"/>
<feColorMatrix type="matrix" values="0 0 0 0 0 0 0 0 0 0 0 0 0 0 0 0 0 0 0.25 0"/>
<feBlend mode="normal" in2="BackgroundImageFix" result="effect1_dropShadow_2075_1101"/>
<feBlend mode="normal" in="SourceGraphic" in2="effect1_dropShadow_2075_1101" result="shape"/>
</filter>
<filter id="filter4_d_2075_1101" x="84.9414" y="116.009" width="96.8134" height="96.8135" filterUnits="userSpaceOnUse" color-interpolation-filters="sRGB">
<feFlood flood-opacity="0" result="BackgroundImageFix"/>
<feColorMatrix in="SourceAlpha" type="matrix" values="0 0 0 0 0 0 0 0 0 0 0 0 0 0 0 0 0 0 127 0" result="hardAlpha"/>
<feOffset/>
<feGaussianBlur stdDeviation="1.28661"/>
<feComposite in2="hardAlpha" operator="out"/>
<feColorMatrix type="matrix" values="0 0 0 0 0 0 0 0 0 0 0 0 0 0 0 0 0 0 0.25 0"/>
<feBlend mode="normal" in2="BackgroundImageFix" result="effect1_dropShadow_2075_1101"/>
<feBlend mode="normal" in="SourceGraphic" in2="effect1_dropShadow_2075_1101" result="shape"/>
</filter>
<filter id="filter5_d_2075_1101" x="45.125" y="116.009" width="96.8134" height="96.8135" filterUnits="userSpaceOnUse" color-interpolation-filters="sRGB">
<feFlood flood-opacity="0" result="BackgroundImageFix"/>
<feColorMatrix in="SourceAlpha" type="matrix" values="0 0 0 0 0 0 0 0 0 0 0 0 0 0 0 0 0 0 127 0" result="hardAlpha"/>
<feOffset/>
<feGaussianBlur stdDeviation="1.28661"/>
<feComposite in2="hardAlpha" operator="out"/>
<feColorMatrix type="matrix" values="0 0 0 0 0 0 0 0 0 0 0 0 0 0 0 0 0 0 0.25 0"/>
<feBlend mode="normal" in2="BackgroundImageFix" result="effect1_dropShadow_2075_1101"/>
<feBlend mode="normal" in="SourceGraphic" in2="effect1_dropShadow_2075_1101" result="shape"/>
</filter>
<filter id="filter6_d_2075_1101" x="14.6319" y="90.422" width="96.8036" height="96.8038" filterUnits="userSpaceOnUse" color-interpolation-filters="sRGB">
<feFlood flood-opacity="0" result="BackgroundImageFix"/>
<feColorMatrix in="SourceAlpha" type="matrix" values="0 0 0 0 0 0 0 0 0 0 0 0 0 0 0 0 0 0 127 0" result="hardAlpha"/>
<feOffset/>
<feGaussianBlur stdDeviation="1.28661"/>
<feComposite in2="hardAlpha" operator="out"/>
<feColorMatrix type="matrix" values="0 0 0 0 0 0 0 0 0 0 0 0 0 0 0 0 0 0 0.25 0"/>
<feBlend mode="normal" in2="BackgroundImageFix" result="effect1_dropShadow_2075_1101"/>
<feBlend mode="normal" in="SourceGraphic" in2="effect1_dropShadow_2075_1101" result="shape"/>
</filter>
<filter id="filter7_d_2075_1101" x="7.71878" y="51.2118" width="96.8036" height="96.8039" filterUnits="userSpaceOnUse" color-interpolation-filters="sRGB">
<feFlood flood-opacity="0" result="BackgroundImageFix"/>
<feColorMatrix in="SourceAlpha" type="matrix" values="0 0 0 0 0 0 0 0 0 0 0 0 0 0 0 0 0 0 127 0" result="hardAlpha"/>
<feOffset/>
<feGaussianBlur stdDeviation="1.28661"/>
<feComposite in2="hardAlpha" operator="out"/>
<feColorMatrix type="matrix" values="0 0 0 0 0 0 0 0 0 0 0 0 0 0 0 0 0 0 0.25 0"/>
<feBlend mode="normal" in2="BackgroundImageFix" result="effect1_dropShadow_2075_1101"/>
<feBlend mode="normal" in="SourceGraphic" in2="effect1_dropShadow_2075_1101" result="shape"/>
</filter>
<filter id="filter8_d_2075_1101" x="27.6309" y="16.7379" width="96.79" height="96.7907" filterUnits="userSpaceOnUse" color-interpolation-filters="sRGB">
<feFlood flood-opacity="0" result="BackgroundImageFix"/>
<feColorMatrix in="SourceAlpha" type="matrix" values="0 0 0 0 0 0 0 0 0 0 0 0 0 0 0 0 0 0 127 0" result="hardAlpha"/>
<feOffset/>
<feGaussianBlur stdDeviation="1.28661"/>
<feComposite in2="hardAlpha" operator="out"/>
<feColorMatrix type="matrix" values="0 0 0 0 0 0 0 0 0 0 0 0 0 0 0 0 0 0 0.25 0"/>
<feBlend mode="normal" in2="BackgroundImageFix" result="effect1_dropShadow_2075_1101"/>
<feBlend mode="normal" in="SourceGraphic" in2="effect1_dropShadow_2075_1101" result="shape"/>
</filter>
<filter id="filter9_d_2075_1101" x="61.541" y="89.7362" width="105.291" height="37.1559" filterUnits="userSpaceOnUse" color-interpolation-filters="sRGB">
<feFlood flood-opacity="0" result="BackgroundImageFix"/>
<feColorMatrix in="SourceAlpha" type="matrix" values="0 0 0 0 0 0 0 0 0 0 0 0 0 0 0 0 0 0 127 0" result="hardAlpha"/>
<feOffset/>
<feGaussianBlur stdDeviation="1.37744"/>
<feComposite in2="hardAlpha" operator="out"/>
<feColorMatrix type="matrix" values="0 0 0 0 0 0 0 0 0 0 0 0 0 0 0 0 0 0 0.25 0"/>
<feBlend mode="normal" in2="BackgroundImageFix" result="effect1_dropShadow_2075_1101"/>
<feBlend mode="normal" in="SourceGraphic" in2="effect1_dropShadow_2075_1101" result="shape"/>
</filter>
</defs>
</svg>
