<svg width="229" height="33" viewBox="0 0 229 33" fill="none" xmlns="http://www.w3.org/2000/svg">
<rect x="0.421875" y="4.25375" width="22.1194" height="28.0746" rx="5.10448" fill="white" fill-opacity="0.5"/>
<rect x="19.1387" y="4.25391" width="22.1194" height="28.0746" rx="5.10448" fill="white" fill-opacity="0.5"/>
<rect x="37.8555" y="4.25391" width="22.1194" height="28.0746" rx="5.10448" fill="white" fill-opacity="0.5"/>
<rect x="56.5703" y="4.25391" width="22.1194" height="28.0746" rx="5.10448" fill="white" fill-opacity="0.5"/>
<rect x="75.2871" y="4.25391" width="22.1194" height="28.0746" rx="5.10448" fill="white" fill-opacity="0.5"/>
<rect x="94.0039" y="4.25375" width="22.1194" height="28.0746" rx="5.10448" fill="white" fill-opacity="0.5"/>
<rect x="112.721" y="4.25391" width="22.1194" height="28.0746" rx="5.10448" fill="white" fill-opacity="0.5"/>
<rect x="131.438" y="4.25391" width="22.1194" height="28.0746" rx="5.10448" fill="white" fill-opacity="0.5"/>
<rect x="150.152" y="4.25391" width="22.1194" height="28.0746" rx="5.10448" fill="white" fill-opacity="0.5"/>
<rect x="168.869" y="4.25391" width="22.1194" height="28.0746" rx="5.10448" fill="white" fill-opacity="0.5"/>
<rect x="187.586" y="4.25375" width="22.1194" height="28.0746" rx="5.10448" fill="white" fill-opacity="0.5"/>
<rect x="206.303" y="4.25391" width="22.1194" height="28.0746" rx="5.10448" fill="white" fill-opacity="0.5"/>
<path d="M11.6252 14.8645C13.5445 14.8645 14.824 15.9399 14.824 17.3828C14.824 18.1722 14.4565 19.1251 13.5308 19.6423C14.7559 20.1732 15.1234 21.2485 15.1234 22.1333C15.1234 23.9845 13.5581 25.0871 11.6252 25.0871C9.69228 25.0871 8.1269 23.9845 8.1269 22.1333C8.1269 21.2485 8.48081 20.1732 9.7195 19.6423C8.78028 19.1251 8.41275 18.1722 8.41275 17.3828C8.41275 15.9399 9.70589 14.8645 11.6252 14.8645ZM11.6252 20.2004C10.3048 20.2004 9.44726 20.9899 9.44726 22.1333C9.44726 23.2767 10.3048 24.0118 11.6252 24.0118C12.9455 24.0118 13.7895 23.2767 13.7895 22.1333C13.7895 20.9899 12.9455 20.2004 11.6252 20.2004ZM13.5717 17.5053C13.5717 16.498 12.7958 15.9399 11.6252 15.9399C10.4545 15.9399 9.67866 16.5388 9.67866 17.5053C9.67866 18.4853 10.4545 19.234 11.6252 19.234C12.7958 19.234 13.5717 18.4853 13.5717 17.5053Z" fill="#FAFAFA"/>
<path d="M28.3391 21.7522C28.3391 23.0998 29.1422 24.0118 30.3809 24.0118C31.5787 24.0118 32.4363 23.0862 32.4363 21.7522C32.4363 20.4318 31.5923 19.4654 30.3945 19.4654C29.1694 19.4654 28.3391 20.4318 28.3391 21.7522ZM30.5714 15.9263C29.0605 15.9263 28.2574 17.4508 28.2029 19.6968C28.6249 18.9345 29.428 18.3492 30.6803 18.3492C32.4226 18.3492 33.7702 19.7376 33.7702 21.6977C33.7702 23.5081 32.409 25.0871 30.3945 25.0871C28.0532 25.0871 26.9098 23.3584 26.9098 20.3638C26.9098 17.5869 27.9307 14.8645 30.6395 14.8645C32.4771 14.8645 33.4163 16.076 33.6069 17.3011H32.2593C32.1096 16.4299 31.4698 15.9263 30.5714 15.9263Z" fill="#FAFAFA"/>
<path d="M49.0432 25.0871C46.5522 25.0871 45.5994 22.9909 45.5994 19.9282C45.5994 16.8655 46.5522 14.8645 49.0432 14.8645C51.5342 14.8645 52.5006 16.8655 52.5006 19.9282C52.5006 22.9909 51.5342 25.0871 49.0432 25.0871ZM46.8653 19.9282C46.8653 20.1051 46.8653 20.2685 46.8789 20.4318L51.1394 18.4853C50.9216 16.7702 50.2274 15.9263 49.0432 15.9263C47.5595 15.9263 46.8653 17.233 46.8653 19.9282ZM49.0432 24.0118C50.5269 24.0118 51.2347 22.6234 51.2347 19.9282C51.2347 19.7785 51.2347 19.6423 51.2211 19.4926L46.9606 21.4663C47.192 23.1542 47.8726 24.0118 49.0432 24.0118Z" fill="#FAFAFA"/>
<path d="M64.4931 16.1032V15.0415H71.4216V16.1032C68.9034 18.0361 67.2564 21.2894 67.1611 24.9102H65.7318C65.9496 21.3711 67.5558 18.0225 69.8971 16.1032H64.4931Z" fill="#FAFAFA"/>
<path d="M86.6401 14.8645C88.3689 14.8645 89.662 15.8446 89.662 17.5189C89.662 19.8057 87.4569 21.8202 84.9386 23.8348H89.8389V24.9102H83.1827V23.8348C86.4904 21.2622 88.328 19.4109 88.328 17.6822C88.328 16.6613 87.7427 15.9263 86.6265 15.9263C85.6056 15.9263 84.6664 16.5524 84.6392 18.1722H83.3597C83.3324 16.2938 84.6392 14.8645 86.6401 14.8645Z" fill="#FAFAFA"/>
<path d="M106.963 15.0415H107.78V23.8348H109.849V24.9102H104.009V23.8348H106.527V17.1922H104.009V16.3346C105.656 16.2938 106.459 16.1168 106.963 15.0415Z" fill="#FAFAFA"/>
<path d="M124.766 16.7294L121.417 21.303H124.766V16.7294ZM127.665 21.303V22.4736H126.018V24.9102H124.766V22.4736H120.111V21.303L124.752 15.0415H126.018V21.303H127.665Z" fill="#FAFAFA"/>
<path d="M142.625 24.0118C143.755 24.0118 144.708 23.1678 144.708 21.6705C144.708 20.0643 143.619 19.4109 142.598 19.4109C141.659 19.4109 141.005 19.969 140.801 20.4454L139.494 20.391L140.134 15.0415H145.606V16.1032H141.196L140.842 19.057C141.359 18.5534 142.094 18.322 142.884 18.322C144.517 18.322 146.042 19.5198 146.042 21.6569C146.042 23.8893 144.368 25.0871 142.612 25.0871C140.42 25.0871 139.345 23.5762 139.222 21.97H140.488C140.624 23.1678 141.305 24.0118 142.625 24.0118Z" fill="#FAFAFA"/>
<path d="M163.343 18.1995C163.343 16.8519 162.553 15.9263 161.315 15.9263C160.09 15.9263 159.259 16.8655 159.259 18.1995C159.259 19.5198 160.09 20.4727 161.288 20.4727C162.526 20.4727 163.343 19.5198 163.343 18.1995ZM161.138 24.0118C162.622 24.0118 163.438 22.5008 163.493 20.2413C163.071 21.0035 162.254 21.5888 161.015 21.5888C159.273 21.5888 157.925 20.2004 157.925 18.2539C157.925 16.4435 159.232 14.8645 161.288 14.8645C163.656 14.8645 164.786 16.5796 164.786 19.5879C164.786 22.3511 163.779 25.0871 161.07 25.0871C159.246 25.0871 158.279 23.8893 158.075 22.6506H159.436C159.586 23.5354 160.226 24.0118 161.138 24.0118Z" fill="#FAFAFA"/>
<path d="M180.059 25.0871C177.568 25.0871 176.615 22.9909 176.615 19.9282C176.615 16.8655 177.568 14.8645 180.059 14.8645C182.55 14.8645 183.516 16.8655 183.516 19.9282C183.516 22.9909 182.55 25.0871 180.059 25.0871ZM177.881 19.9282C177.881 20.1051 177.881 20.2685 177.895 20.4318L182.155 18.4853C181.937 16.7702 181.243 15.9263 180.059 15.9263C178.575 15.9263 177.881 17.233 177.881 19.9282ZM180.059 24.0118C181.543 24.0118 182.25 22.6234 182.25 19.9282C182.25 19.7785 182.25 19.6423 182.237 19.4926L177.976 21.4663C178.208 23.1542 178.888 24.0118 180.059 24.0118Z" fill="#FAFAFA"/>
<path d="M200.777 18.1995C200.777 16.8519 199.987 15.9263 198.748 15.9263C197.523 15.9263 196.693 16.8655 196.693 18.1995C196.693 19.5198 197.523 20.4727 198.721 20.4727C199.96 20.4727 200.777 19.5198 200.777 18.1995ZM198.571 24.0118C200.055 24.0118 200.872 22.5008 200.926 20.2413C200.504 21.0035 199.688 21.5888 198.449 21.5888C196.707 21.5888 195.359 20.2004 195.359 18.2539C195.359 16.4435 196.666 14.8645 198.721 14.8645C201.09 14.8645 202.219 16.5796 202.219 19.5879C202.219 22.3511 201.212 25.0871 198.503 25.0871C196.679 25.0871 195.713 23.8893 195.509 22.6506H196.87C197.02 23.5354 197.659 24.0118 198.571 24.0118Z" fill="#FAFAFA"/>
<path d="M217.492 24.0118C218.622 24.0118 219.575 23.1678 219.575 21.6705C219.575 20.0643 218.486 19.4109 217.465 19.4109C216.526 19.4109 215.873 19.969 215.668 20.4454L214.362 20.391L215.001 15.0415H220.473V16.1032H216.063L215.709 19.057C216.227 18.5534 216.962 18.322 217.751 18.322C219.384 18.322 220.909 19.5198 220.909 21.6569C220.909 23.8893 219.235 25.0871 217.479 25.0871C215.287 25.0871 214.212 23.5762 214.089 21.97H215.355C215.491 23.1678 216.172 24.0118 217.492 24.0118Z" fill="#FAFAFA"/>
<circle cx="20.8393" cy="2.55224" r="2.55224" fill="#D9D9D9"/>
<circle cx="39.5561" cy="2.55232" r="2.55224" fill="#D9D9D9"/>
<circle cx="58.2729" cy="2.55224" r="2.55224" fill="#D9D9D9"/>
<circle cx="76.9897" cy="2.55224" r="2.55224" fill="#D9D9D9"/>
<circle cx="95.7046" cy="2.55224" r="2.55224" fill="#D9D9D9"/>
<circle cx="114.421" cy="2.55224" r="2.55224" fill="#D9D9D9"/>
<circle cx="133.138" cy="2.55232" r="2.55224" fill="#D9D9D9"/>
<circle cx="151.855" cy="2.55224" r="2.55224" fill="#D9D9D9"/>
<circle cx="170.572" cy="2.55224" r="2.55224" fill="#D9D9D9"/>
<circle cx="189.287" cy="2.55224" r="2.55224" fill="#D9D9D9"/>
<circle cx="208.003" cy="2.55224" r="2.55224" fill="#D9D9D9"/>
</svg>
