<svg width="521" height="315" viewBox="0 0 521 315" fill="none" xmlns="http://www.w3.org/2000/svg">
<g filter="url(#filter0_d_1806_12039)">
<g filter="url(#filter1_b_1806_12039)">
<rect x="12.7661" y="12.1334" width="496" height="291" rx="5.77572" fill="#F6F6F6"/>
<rect x="12.6217" y="11.989" width="496.289" height="291.289" rx="5.92011" stroke="black" stroke-opacity="0.12" stroke-width="0.288786"/>
</g>
<g filter="url(#filter2_di_1806_12039)">
<path d="M12.7661 21.3746C12.7661 18.1399 12.7661 16.5225 13.3956 15.287C13.9494 14.2002 14.8329 13.3167 15.9197 12.7629C17.1552 12.1334 18.7726 12.1334 22.0073 12.1334H499.525C502.76 12.1334 504.377 12.1334 505.613 12.7629C506.699 13.3167 507.583 14.2002 508.137 15.287C508.766 16.5225 508.766 18.1399 508.766 21.3746V28.3054H12.7661V21.3746Z" fill="white"/>
<path fill-rule="evenodd" clip-rule="evenodd" d="M20.8521 23.6848C22.7661 23.6848 24.3176 22.1333 24.3176 20.2194C24.3176 18.3055 22.7661 16.754 20.8521 16.754C18.9382 16.754 17.3867 18.3055 17.3867 20.2194C17.3867 22.1333 18.9382 23.6848 20.8521 23.6848Z" fill="#EC6A5E"/>
<path d="M24.1732 20.2194C24.1732 22.0536 22.6863 23.5404 20.8521 23.5404C19.018 23.5404 17.5311 22.0536 17.5311 20.2194C17.5311 18.3852 19.018 16.8984 20.8521 16.8984C22.6863 16.8984 24.1732 18.3852 24.1732 20.2194Z" stroke="black" stroke-opacity="0.12" stroke-width="0.288786"/>
<path fill-rule="evenodd" clip-rule="evenodd" d="M32.4034 23.6848C34.3173 23.6848 35.8688 22.1332 35.8688 20.2193C35.8688 18.3054 34.3173 16.7539 32.4034 16.7539C30.4895 16.7539 28.938 18.3054 28.938 20.2193C28.938 22.1332 30.4895 23.6848 32.4034 23.6848Z" fill="#F5BF4F"/>
<path d="M35.7245 20.2193C35.7245 22.0535 34.2376 23.5404 32.4034 23.5404C30.5693 23.5404 29.0824 22.0535 29.0824 20.2193C29.0824 18.3852 30.5693 16.8983 32.4034 16.8983C34.2376 16.8983 35.7245 18.3852 35.7245 20.2193Z" stroke="black" stroke-opacity="0.12" stroke-width="0.288786"/>
<path fill-rule="evenodd" clip-rule="evenodd" d="M43.9552 23.6848C45.8691 23.6848 47.4206 22.1332 47.4206 20.2193C47.4206 18.3054 45.8691 16.7539 43.9552 16.7539C42.0413 16.7539 40.4897 18.3054 40.4897 20.2193C40.4897 22.1332 42.0413 23.6848 43.9552 23.6848Z" fill="#61C554"/>
<path d="M47.2762 20.2193C47.2762 22.0535 45.7893 23.5404 43.9552 23.5404C42.121 23.5404 40.6341 22.0535 40.6341 20.2193C40.6341 18.3852 42.121 16.8983 43.9552 16.8983C45.7893 16.8983 47.2762 18.3852 47.2762 20.2193Z" stroke="black" stroke-opacity="0.12" stroke-width="0.288786"/>
</g>
</g>
<path d="M137.171 76.184C144.823 75.5474 144.686 87.8771 136.628 86.5007C131.13 85.5613 131.66 76.6428 137.171 76.184Z" fill="#747D03"/>
<path d="M148.03 76.184C155.682 75.5474 155.545 87.8771 147.487 86.5007C141.99 85.5613 142.519 76.6428 148.03 76.184Z" fill="#747D03"/>
<path d="M343.504 76.184C351.156 75.5474 351.019 87.8771 342.961 86.5007C337.463 85.5613 337.993 76.6428 343.504 76.184Z" fill="#747D03"/>
<path d="M115.452 87.0438C123.104 86.4072 122.966 98.7369 114.909 97.3605C109.411 96.4211 109.94 87.5026 115.452 87.0438Z" fill="#747D03"/>
<path d="M126.311 87.0438C133.963 86.4072 133.826 98.7369 125.768 97.3605C120.27 96.4211 120.8 87.5026 126.311 87.0438Z" fill="#747D03"/>
<path d="M224.048 87.0438C231.7 86.4072 231.563 98.7369 223.505 97.3605C218.007 96.4211 218.537 87.5026 224.048 87.0438Z" fill="#747D03"/>
<path d="M234.908 87.0438C242.56 86.4072 242.423 98.7369 234.365 97.3605C228.867 96.4211 229.396 87.5026 234.908 87.0438Z" fill="#747D03"/>
<path d="M245.767 87.0438C253.419 86.4072 253.282 98.7369 245.224 97.3605C239.726 96.4211 240.256 87.5026 245.767 87.0438Z" fill="#747D03"/>
<path d="M310.925 87.0438C318.577 86.4072 318.44 98.7369 310.382 97.3605C304.884 96.4211 305.414 87.5026 310.925 87.0438Z" fill="#747D03"/>
<path d="M354.363 87.0438C362.015 86.4072 361.878 98.7369 353.82 97.3605C348.323 96.4211 348.852 87.5026 354.363 87.0438Z" fill="#747D03"/>
<path d="M104.592 97.9033C112.244 97.2667 112.107 109.596 104.049 108.22C98.5511 107.281 99.0805 98.3621 104.592 97.9033Z" fill="#747D03"/>
<path d="M148.03 97.9033C155.682 97.2667 155.545 109.596 147.487 108.22C141.99 107.281 142.519 98.3621 148.03 97.9033Z" fill="#747D03"/>
<path d="M158.89 97.9033C166.542 97.2667 166.405 109.596 158.347 108.22C152.849 107.281 153.379 98.3621 158.89 97.9033Z" fill="#747D03"/>
<path d="M213.188 97.9033C220.84 97.2667 220.703 109.596 212.645 108.22C207.148 107.281 207.677 98.3621 213.188 97.9033Z" fill="#747D03"/>
<path d="M256.627 97.9033C264.279 97.2667 264.142 109.596 256.084 108.22C250.586 107.281 251.116 98.3621 256.627 97.9033Z" fill="#747D03"/>
<path d="M332.644 97.9033C340.296 97.2667 340.159 109.596 332.101 108.22C326.603 107.281 327.133 98.3621 332.644 97.9033Z" fill="#747D03"/>
<path d="M354.363 97.9033C362.015 97.2667 361.878 109.596 353.82 108.22C348.323 107.281 348.852 98.3621 354.363 97.9033Z" fill="#747D03"/>
<path d="M441.24 97.9033C448.892 97.2667 448.755 109.596 440.697 108.22C435.2 107.281 435.729 98.3621 441.24 97.9033Z" fill="#747D03"/>
<path d="M462.959 97.9033C470.611 97.2667 470.474 109.596 462.416 108.22C456.919 107.281 457.448 98.3621 462.959 97.9033Z" fill="#747D03"/>
<path d="M115.452 108.763C123.104 108.126 122.966 120.456 114.909 119.08C109.411 118.14 109.94 109.222 115.452 108.763Z" fill="#747D03"/>
<path d="M126.311 108.763C133.963 108.126 133.826 120.456 125.768 119.08C120.27 118.14 120.8 109.222 126.311 108.763Z" fill="#747D03"/>
<path d="M137.171 108.763C144.823 108.126 144.686 120.456 136.628 119.08C131.13 118.14 131.66 109.222 137.171 108.763Z" fill="#747D03"/>
<path d="M158.89 108.763C166.542 108.126 166.405 120.456 158.347 119.08C152.849 118.14 153.379 109.222 158.89 108.763Z" fill="#747D03"/>
<path d="M191.469 108.763C199.121 108.126 198.984 120.456 190.926 119.08C185.429 118.14 185.958 109.222 191.469 108.763Z" fill="#747D03"/>
<path d="M202.329 108.763C209.981 108.126 209.843 120.456 201.786 119.08C196.288 118.14 196.817 109.222 202.329 108.763Z" fill="#747D03"/>
<path d="M213.188 108.763C220.84 108.126 220.703 120.456 212.645 119.08C207.148 118.14 207.677 109.222 213.188 108.763Z" fill="#747D03"/>
<path d="M256.627 108.763C264.279 108.126 264.142 120.456 256.084 119.08C250.586 118.14 251.116 109.222 256.627 108.763Z" fill="#747D03"/>
<path d="M310.925 108.763C318.577 108.126 318.44 120.456 310.382 119.08C304.884 118.14 305.414 109.222 310.925 108.763Z" fill="#747D03"/>
<path d="M354.363 108.763C362.015 108.126 361.878 120.456 353.82 119.08C348.323 118.14 348.852 109.222 354.363 108.763Z" fill="#747D03"/>
<path d="M452.1 108.763C459.752 108.126 459.615 120.456 451.557 119.08C446.059 118.14 446.589 109.222 452.1 108.763Z" fill="#747D03"/>
<path d="M473.819 108.763C481.471 108.126 481.334 120.456 473.276 119.08C467.779 118.14 468.308 109.222 473.819 108.763Z" fill="#747D03"/>
<path d="M61.1538 119.623C68.8057 118.986 68.6686 131.316 60.6108 129.939C55.1131 129 55.6425 120.081 61.1538 119.623Z" fill="#747D03"/>
<path d="M93.7324 119.623C101.384 118.986 101.247 131.316 93.1894 129.939C87.6917 129 88.2211 120.081 93.7324 119.623Z" fill="#747D03"/>
<path d="M115.452 119.623C123.104 118.986 122.966 131.316 114.909 129.939C109.411 129 109.94 120.081 115.452 119.623Z" fill="#747D03"/>
<path d="M126.311 119.623C133.963 118.986 133.826 131.316 125.768 129.939C120.27 129 120.8 120.081 126.311 119.623Z" fill="#747D03"/>
<path d="M137.171 119.623C144.823 118.986 144.686 131.316 136.628 129.939C131.13 129 131.66 120.081 137.171 119.623Z" fill="#747D03"/>
<path d="M148.03 119.623C155.682 118.986 155.545 131.316 147.487 129.939C141.99 129 142.519 120.081 148.03 119.623Z" fill="#747D03"/>
<path d="M180.609 119.623C188.261 118.986 188.124 131.316 180.066 129.939C174.569 129 175.098 120.081 180.609 119.623Z" fill="#747D03"/>
<path d="M213.188 119.623C220.84 118.986 220.703 131.316 212.645 129.939C207.148 129 207.677 120.081 213.188 119.623Z" fill="#747D03"/>
<path d="M245.767 119.623C253.419 118.986 253.282 131.316 245.224 129.939C239.726 129 240.256 120.081 245.767 119.623Z" fill="#747D03"/>
<path d="M343.504 119.623C351.156 118.986 351.019 131.316 342.961 129.939C337.463 129 337.993 120.081 343.504 119.623Z" fill="#747D03"/>
<path d="M354.363 119.623C362.015 118.986 361.878 131.316 353.82 129.939C348.323 129 348.852 120.081 354.363 119.623Z" fill="#747D03"/>
<path d="M419.521 119.623C427.173 118.986 427.036 131.316 418.978 129.939C413.48 129 414.01 120.081 419.521 119.623Z" fill="#747D03"/>
<path d="M430.38 119.623C438.032 118.986 437.895 131.316 429.837 129.939C424.34 129 424.869 120.081 430.38 119.623Z" fill="#747D03"/>
<path d="M441.24 119.623C448.892 118.986 448.755 131.316 440.697 129.939C435.2 129 435.729 120.081 441.24 119.623Z" fill="#747D03"/>
<path d="M452.1 119.623C459.752 118.986 459.615 131.316 451.557 129.939C446.059 129 446.589 120.081 452.1 119.623Z" fill="#747D03"/>
<path d="M473.819 119.623C481.471 118.986 481.334 131.316 473.276 129.939C467.779 129 468.308 120.081 473.819 119.623Z" fill="#747D03"/>
<path d="M82.873 130.482C90.525 129.846 90.3879 142.175 82.33 140.799C76.8323 139.859 77.3617 130.941 82.873 130.482Z" fill="#747D03"/>
<path d="M93.7324 130.482C101.384 129.846 101.247 142.175 93.1894 140.799C87.6917 139.859 88.2211 130.941 93.7324 130.482Z" fill="#747D03"/>
<path d="M115.452 130.482C123.104 129.846 122.966 142.175 114.909 140.799C109.411 139.859 109.94 130.941 115.452 130.482Z" fill="#747D03"/>
<path d="M213.188 130.482C220.84 129.846 220.703 142.175 212.645 140.799C207.148 139.859 207.677 130.941 213.188 130.482Z" fill="#747D03"/>
<path d="M234.908 130.482C242.56 129.846 242.423 142.175 234.365 140.799C228.867 139.859 229.396 130.941 234.908 130.482Z" fill="#747D03"/>
<path d="M321.785 130.482C329.437 129.846 329.3 142.175 321.242 140.799C315.744 139.859 316.274 130.941 321.785 130.482Z" fill="#747D03"/>
<path d="M343.504 130.482C351.156 129.846 351.019 142.175 342.961 140.799C337.463 139.859 337.993 130.941 343.504 130.482Z" fill="#747D03"/>
<path d="M376.082 130.482C383.734 129.846 383.597 142.175 375.539 140.799C370.042 139.859 370.571 130.941 376.082 130.482Z" fill="#747D03"/>
<path d="M408.661 130.482C416.313 129.846 416.176 142.175 408.118 140.799C402.62 139.859 403.15 130.941 408.661 130.482Z" fill="#747D03"/>
<path d="M419.521 130.482C427.173 129.846 427.036 142.175 418.978 140.799C413.48 139.859 414.01 130.941 419.521 130.482Z" fill="#747D03"/>
<path d="M430.38 130.482C438.032 129.846 437.895 142.175 429.837 140.799C424.34 139.859 424.869 130.941 430.38 130.482Z" fill="#747D03"/>
<path d="M441.24 130.482C448.892 129.846 448.755 142.175 440.697 140.799C435.2 139.859 435.729 130.941 441.24 130.482Z" fill="#747D03"/>
<path d="M50.2939 141.342C57.9459 140.705 57.8088 153.035 49.7509 151.658C44.2532 150.719 44.7826 141.801 50.2939 141.342Z" fill="#747D03"/>
<path d="M82.873 141.342C90.525 140.705 90.3879 153.035 82.33 151.658C76.8323 150.719 77.3617 141.801 82.873 141.342Z" fill="#747D03"/>
<path d="M115.452 141.342C123.104 140.705 122.966 153.035 114.909 151.658C109.411 150.719 109.94 141.801 115.452 141.342Z" fill="#747D03"/>
<path d="M191.469 141.342C199.121 140.705 198.984 153.035 190.926 151.658C185.429 150.719 185.958 141.801 191.469 141.342Z" fill="#747D03"/>
<path d="M213.188 141.342C220.84 140.705 220.703 153.035 212.645 151.658C207.148 150.719 207.677 141.801 213.188 141.342Z" fill="#747D03"/>
<path d="M267.486 141.342C275.138 140.705 275.001 153.035 266.943 151.658C261.446 150.719 261.975 141.801 267.486 141.342Z" fill="#747D03"/>
<path d="M300.065 141.342C307.717 140.705 307.58 153.035 299.522 151.658C294.025 150.719 294.554 141.801 300.065 141.342Z" fill="#747D03"/>
<path d="M321.785 141.342C329.437 140.705 329.3 153.035 321.242 151.658C315.744 150.719 316.274 141.801 321.785 141.342Z" fill="#747D03"/>
<path d="M332.644 141.342C340.296 140.705 340.159 153.035 332.101 151.658C326.603 150.719 327.133 141.801 332.644 141.342Z" fill="#747D03"/>
<path d="M376.082 141.342C383.734 140.705 383.597 153.035 375.539 151.658C370.042 150.719 370.571 141.801 376.082 141.342Z" fill="#747D03"/>
<path d="M397.802 141.342C405.454 140.705 405.317 153.035 397.259 151.658C391.761 150.719 392.29 141.801 397.802 141.342Z" fill="#747D03"/>
<path d="M408.661 141.342C416.313 140.705 416.176 153.035 408.118 151.658C402.62 150.719 403.15 141.801 408.661 141.342Z" fill="#747D03"/>
<path d="M419.521 141.342C427.173 140.705 427.036 153.035 418.978 151.658C413.48 150.719 414.01 141.801 419.521 141.342Z" fill="#747D03"/>
<path d="M441.24 141.342C448.892 140.705 448.755 153.035 440.697 151.658C435.2 150.719 435.729 141.801 441.24 141.342Z" fill="#747D03"/>
<path d="M462.959 141.342C470.611 140.705 470.474 153.035 462.416 151.658C456.919 150.719 457.448 141.801 462.959 141.342Z" fill="#747D03"/>
<path d="M473.819 141.342C481.471 140.705 481.334 153.035 473.276 151.658C467.779 150.719 468.308 141.801 473.819 141.342Z" fill="#747D03"/>
<path d="M484.679 141.342C492.331 140.705 492.194 153.035 484.136 151.658C478.638 150.719 479.167 141.801 484.679 141.342Z" fill="#747D03"/>
<path d="M50.2939 152.202C57.9459 151.565 57.8088 163.895 49.7509 162.518C44.2532 161.579 44.7826 152.66 50.2939 152.202Z" fill="#747D03"/>
<path d="M82.873 152.202C90.525 151.565 90.3879 163.895 82.33 162.518C76.8323 161.579 77.3617 152.66 82.873 152.202Z" fill="#747D03"/>
<path d="M93.7324 152.202C101.384 151.565 101.247 163.895 93.1894 162.518C87.6917 161.579 88.2211 152.66 93.7324 152.202Z" fill="#747D03"/>
<path d="M202.329 152.202C209.981 151.565 209.843 163.895 201.786 162.518C196.288 161.579 196.817 152.66 202.329 152.202Z" fill="#747D03"/>
<path d="M213.188 152.202C220.84 151.565 220.703 163.895 212.645 162.518C207.148 161.579 207.677 152.66 213.188 152.202Z" fill="#747D03"/>
<path d="M224.048 152.202C231.7 151.565 231.563 163.895 223.505 162.518C218.007 161.579 218.537 152.66 224.048 152.202Z" fill="#747D03"/>
<path d="M234.908 152.202C242.56 151.565 242.423 163.895 234.365 162.518C228.867 161.579 229.396 152.66 234.908 152.202Z" fill="#747D03"/>
<path d="M245.767 152.202C253.419 151.565 253.282 163.895 245.224 162.518C239.726 161.579 240.256 152.66 245.767 152.202Z" fill="#747D03"/>
<path d="M256.627 152.202C264.279 151.565 264.142 163.895 256.084 162.518C250.586 161.579 251.116 152.66 256.627 152.202Z" fill="#747D03"/>
<path d="M310.925 152.202C318.577 151.565 318.44 163.895 310.382 162.518C304.884 161.579 305.414 152.66 310.925 152.202Z" fill="#747D03"/>
<path d="M376.082 152.202C383.734 151.565 383.597 163.895 375.539 162.518C370.042 161.579 370.571 152.66 376.082 152.202Z" fill="#747D03"/>
<path d="M408.661 152.202C416.313 151.565 416.176 163.895 408.118 162.518C402.62 161.579 403.15 152.66 408.661 152.202Z" fill="#747D03"/>
<path d="M430.38 152.202C438.032 151.565 437.895 163.895 429.837 162.518C424.34 161.579 424.869 152.66 430.38 152.202Z" fill="#747D03"/>
<path d="M462.959 152.202C470.611 151.565 470.474 163.895 462.416 162.518C456.919 161.579 457.448 152.66 462.959 152.202Z" fill="#747D03"/>
<path d="M473.819 152.202C481.471 151.565 481.334 163.895 473.276 162.518C467.779 161.579 468.308 152.66 473.819 152.202Z" fill="#747D03"/>
<path d="M50.2939 163.061C57.9459 162.424 57.8088 174.754 49.7509 173.378C44.2532 172.438 44.7826 163.52 50.2939 163.061Z" fill="#747D03"/>
<path d="M61.1538 163.061C68.8057 162.424 68.6686 174.754 60.6108 173.378C55.1131 172.438 55.6425 163.52 61.1538 163.061Z" fill="#747D03"/>
<path d="M72.0131 163.061C79.6651 162.424 79.528 174.754 71.4702 173.378C65.9725 172.438 66.5019 163.52 72.0131 163.061Z" fill="#747D03"/>
<path d="M180.609 163.061C188.261 162.424 188.124 174.754 180.066 173.378C174.569 172.438 175.098 163.52 180.609 163.061Z" fill="#747D03"/>
<path d="M191.469 163.061C199.121 162.424 198.984 174.754 190.926 173.378C185.429 172.438 185.958 163.52 191.469 163.061Z" fill="#747D03"/>
<path d="M234.908 163.061C242.56 162.424 242.423 174.754 234.365 173.378C228.867 172.438 229.396 163.52 234.908 163.061Z" fill="#747D03"/>
<path d="M278.346 163.061C285.998 162.424 285.861 174.754 277.803 173.378C272.305 172.438 272.835 163.52 278.346 163.061Z" fill="#747D03"/>
<path d="M310.925 163.061C318.577 162.424 318.44 174.754 310.382 173.378C304.884 172.438 305.414 163.52 310.925 163.061Z" fill="#747D03"/>
<path d="M365.223 163.061C372.875 162.424 372.738 174.754 364.68 173.378C359.182 172.438 359.712 163.52 365.223 163.061Z" fill="#747D03"/>
<path d="M376.082 163.061C383.734 162.424 383.597 174.754 375.539 173.378C370.042 172.438 370.571 163.52 376.082 163.061Z" fill="#747D03"/>
<path d="M441.24 163.061C448.892 162.424 448.755 174.754 440.697 173.378C435.2 172.438 435.729 163.52 441.24 163.061Z" fill="#747D03"/>
<path d="M452.1 163.061C459.752 162.424 459.615 174.754 451.557 173.378C446.059 172.438 446.589 163.52 452.1 163.061Z" fill="#747D03"/>
<path d="M462.959 163.061C470.611 162.424 470.474 174.754 462.416 173.378C456.919 172.438 457.448 163.52 462.959 163.061Z" fill="#747D03"/>
<path d="M473.819 163.061C481.471 162.424 481.334 174.754 473.276 173.378C467.779 172.438 468.308 163.52 473.819 163.061Z" fill="#747D03"/>
<path d="M39.4345 173.921C47.0865 173.284 46.9494 185.614 38.8915 184.237C33.3939 183.298 33.9233 174.38 39.4345 173.921Z" fill="#747D03"/>
<path d="M72.0131 173.921C79.6651 173.284 79.528 185.614 71.4702 184.237C65.9725 183.298 66.5019 174.38 72.0131 173.921Z" fill="#747D03"/>
<path d="M82.873 173.921C90.525 173.284 90.3879 185.614 82.33 184.237C76.8323 183.298 77.3617 174.38 82.873 173.921Z" fill="#747D03"/>
<path d="M93.7324 173.921C101.384 173.284 101.247 185.614 93.1894 184.237C87.6917 183.298 88.2211 174.38 93.7324 173.921Z" fill="#747D03"/>
<path d="M115.452 173.921C123.104 173.284 122.966 185.614 114.909 184.237C109.411 183.298 109.94 174.38 115.452 173.921Z" fill="#747D03"/>
<path d="M126.311 173.921C133.963 173.284 133.826 185.614 125.768 184.237C120.27 183.298 120.8 174.38 126.311 173.921Z" fill="#747D03"/>
<path d="M148.03 173.921C155.682 173.284 155.545 185.614 147.487 184.237C141.99 183.298 142.519 174.38 148.03 173.921Z" fill="#747D03"/>
<path d="M180.609 173.921C188.261 173.284 188.124 185.614 180.066 184.237C174.569 183.298 175.098 174.38 180.609 173.921Z" fill="#747D03"/>
<path d="M202.329 173.921C209.981 173.284 209.843 185.614 201.786 184.237C196.288 183.298 196.817 174.38 202.329 173.921Z" fill="#747D03"/>
<path d="M213.188 173.921C220.84 173.284 220.703 185.614 212.645 184.237C207.148 183.298 207.677 174.38 213.188 173.921Z" fill="#747D03"/>
<path d="M321.785 173.921C329.437 173.284 329.3 185.614 321.242 184.237C315.744 183.298 316.274 174.38 321.785 173.921Z" fill="#747D03"/>
<path d="M365.223 173.921C372.875 173.284 372.738 185.614 364.68 184.237C359.182 183.298 359.712 174.38 365.223 173.921Z" fill="#747D03"/>
<path d="M376.082 173.921C383.734 173.284 383.597 185.614 375.539 184.237C370.042 183.298 370.571 174.38 376.082 173.921Z" fill="#747D03"/>
<path d="M397.802 173.921C405.454 173.284 405.317 185.614 397.259 184.237C391.761 183.298 392.29 174.38 397.802 173.921Z" fill="#747D03"/>
<path d="M408.661 173.921C416.313 173.284 416.176 185.614 408.118 184.237C402.62 183.298 403.15 174.38 408.661 173.921Z" fill="#747D03"/>
<path d="M61.1538 184.78C68.8057 184.144 68.6686 196.473 60.6108 195.097C55.1131 194.158 55.6425 185.239 61.1538 184.78Z" fill="#747D03"/>
<path d="M115.452 184.78C123.104 184.144 122.966 196.473 114.909 195.097C109.411 194.158 109.94 185.239 115.452 184.78Z" fill="#747D03"/>
<path d="M126.311 184.78C133.963 184.144 133.826 196.473 125.768 195.097C120.27 194.158 120.8 185.239 126.311 184.78Z" fill="#747D03"/>
<path d="M213.188 184.78C220.84 184.144 220.703 196.473 212.645 195.097C207.148 194.158 207.677 185.239 213.188 184.78Z" fill="#747D03"/>
<path d="M256.627 184.78C264.279 184.144 264.142 196.473 256.084 195.097C250.586 194.158 251.116 185.239 256.627 184.78Z" fill="#747D03"/>
<path d="M267.486 184.78C275.138 184.144 275.001 196.473 266.943 195.097C261.446 194.158 261.975 185.239 267.486 184.78Z" fill="#747D03"/>
<path d="M332.644 184.78C340.296 184.144 340.159 196.473 332.101 195.097C326.603 194.158 327.133 185.239 332.644 184.78Z" fill="#747D03"/>
<path d="M343.504 184.78C351.156 184.144 351.019 196.473 342.961 195.097C337.463 194.158 337.993 185.239 343.504 184.78Z" fill="#747D03"/>
<path d="M365.223 184.78C372.875 184.144 372.738 196.473 364.68 195.097C359.182 194.158 359.712 185.239 365.223 184.78Z" fill="#747D03"/>
<path d="M386.942 184.78C394.594 184.144 394.457 196.473 386.399 195.097C380.902 194.158 381.431 185.239 386.942 184.78Z" fill="#747D03"/>
<path d="M397.802 184.78C405.454 184.144 405.317 196.473 397.259 195.097C391.761 194.158 392.29 185.239 397.802 184.78Z" fill="#747D03"/>
<path d="M408.661 184.78C416.313 184.144 416.176 196.473 408.118 195.097C402.62 194.158 403.15 185.239 408.661 184.78Z" fill="#747D03"/>
<path d="M441.24 184.78C448.892 184.144 448.755 196.473 440.697 195.097C435.2 194.158 435.729 185.239 441.24 184.78Z" fill="#747D03"/>
<path d="M495.539 184.78C503.19 184.144 503.053 196.473 494.996 195.097C489.498 194.158 490.027 185.239 495.539 184.78Z" fill="#747D03"/>
<path d="M50.2939 195.64C57.9459 195.003 57.8088 207.333 49.7509 205.957C44.2532 205.017 44.7826 196.099 50.2939 195.64Z" fill="#747D03"/>
<path d="M115.452 195.64C123.104 195.003 122.966 207.333 114.909 205.957C109.411 205.017 109.94 196.099 115.452 195.64Z" fill="#747D03"/>
<path d="M126.311 195.64C133.963 195.003 133.826 207.333 125.768 205.957C120.27 205.017 120.8 196.099 126.311 195.64Z" fill="#747D03"/>
<path d="M191.469 195.64C199.121 195.003 198.984 207.333 190.926 205.957C185.429 205.017 185.958 196.099 191.469 195.64Z" fill="#747D03"/>
<path d="M202.329 195.64C209.981 195.003 209.843 207.333 201.786 205.957C196.288 205.017 196.817 196.099 202.329 195.64Z" fill="#747D03"/>
<path d="M343.504 195.64C351.156 195.003 351.019 207.333 342.961 205.957C337.463 205.017 337.993 196.099 343.504 195.64Z" fill="#747D03"/>
<path d="M430.38 195.64C438.032 195.003 437.895 207.333 429.837 205.957C424.34 205.017 424.869 196.099 430.38 195.64Z" fill="#747D03"/>
<path d="M441.24 195.64C448.892 195.003 448.755 207.333 440.697 205.957C435.2 205.017 435.729 196.099 441.24 195.64Z" fill="#747D03"/>
<path d="M452.1 195.64C459.752 195.003 459.615 207.333 451.557 205.957C446.059 205.017 446.589 196.099 452.1 195.64Z" fill="#747D03"/>
<path d="M462.959 195.64C470.611 195.003 470.474 207.333 462.416 205.957C456.919 205.017 457.448 196.099 462.959 195.64Z" fill="#747D03"/>
<path d="M473.819 195.64C481.471 195.003 481.334 207.333 473.276 205.957C467.779 205.017 468.308 196.099 473.819 195.64Z" fill="#747D03"/>
<path d="M484.679 195.64C492.331 195.003 492.194 207.333 484.136 205.957C478.638 205.017 479.167 196.099 484.679 195.64Z" fill="#747D03"/>
<path d="M50.2939 206.5C57.9459 205.863 57.8088 218.193 49.7509 216.816C44.2532 215.877 44.7826 206.958 50.2939 206.5Z" fill="#747D03"/>
<path d="M82.873 206.5C90.525 205.863 90.3879 218.193 82.33 216.816C76.8323 215.877 77.3617 206.958 82.873 206.5Z" fill="#747D03"/>
<path d="M115.452 206.5C123.104 205.863 122.966 218.193 114.909 216.816C109.411 215.877 109.94 206.958 115.452 206.5Z" fill="#747D03"/>
<path d="M126.311 206.5C133.963 205.863 133.826 218.193 125.768 216.816C120.27 215.877 120.8 206.958 126.311 206.5Z" fill="#747D03"/>
<path d="M137.171 206.5C144.823 205.863 144.686 218.193 136.628 216.816C131.13 215.877 131.66 206.958 137.171 206.5Z" fill="#747D03"/>
<path d="M191.469 206.5C199.121 205.863 198.984 218.193 190.926 216.816C185.429 215.877 185.958 206.958 191.469 206.5Z" fill="#747D03"/>
<path d="M256.627 206.5C264.279 205.863 264.142 218.193 256.084 216.816C250.586 215.877 251.116 206.958 256.627 206.5Z" fill="#747D03"/>
<path d="M354.363 206.5C362.015 205.863 361.878 218.193 353.82 216.816C348.323 215.877 348.852 206.958 354.363 206.5Z" fill="#747D03"/>
<path d="M386.942 206.5C394.594 205.863 394.457 218.193 386.399 216.816C380.902 215.877 381.431 206.958 386.942 206.5Z" fill="#747D03"/>
<path d="M397.802 206.5C405.454 205.863 405.317 218.193 397.259 216.816C391.761 215.877 392.29 206.958 397.802 206.5Z" fill="#747D03"/>
<path d="M408.661 206.5C416.313 205.863 416.176 218.193 408.118 216.816C402.62 215.877 403.15 206.958 408.661 206.5Z" fill="#747D03"/>
<path d="M419.521 206.5C427.173 205.863 427.036 218.193 418.978 216.816C413.48 215.877 414.01 206.958 419.521 206.5Z" fill="#747D03"/>
<path d="M473.819 206.5C481.471 205.863 481.334 218.193 473.276 216.816C467.779 215.877 468.308 206.958 473.819 206.5Z" fill="#747D03"/>
<path d="M484.679 206.5C492.331 205.863 492.194 218.193 484.136 216.816C478.638 215.877 479.167 206.958 484.679 206.5Z" fill="#747D03"/>
<path d="M82.873 217.359C90.525 216.723 90.3879 229.052 82.33 227.676C76.8323 226.736 77.3617 217.818 82.873 217.359Z" fill="#747D03"/>
<path d="M115.452 217.359C123.104 216.723 122.966 229.052 114.909 227.676C109.411 226.736 109.94 217.818 115.452 217.359Z" fill="#747D03"/>
<path d="M126.311 217.359C133.963 216.723 133.826 229.052 125.768 227.676C120.27 226.736 120.8 217.818 126.311 217.359Z" fill="#747D03"/>
<path d="M137.171 217.359C144.823 216.723 144.686 229.052 136.628 227.676C131.13 226.736 131.66 217.818 137.171 217.359Z" fill="#747D03"/>
<path d="M202.329 217.359C209.981 216.723 209.843 229.052 201.786 227.676C196.288 226.736 196.817 217.818 202.329 217.359Z" fill="#747D03"/>
<path d="M332.644 217.359C340.296 216.723 340.159 229.052 332.101 227.676C326.603 226.736 327.133 217.818 332.644 217.359Z" fill="#747D03"/>
<path d="M354.363 217.359C362.015 216.723 361.878 229.052 353.82 227.676C348.323 226.736 348.852 217.818 354.363 217.359Z" fill="#747D03"/>
<path d="M462.959 217.359C470.611 216.723 470.474 229.052 462.416 227.676C456.919 226.736 457.448 217.818 462.959 217.359Z" fill="#747D03"/>
<path d="M61.1538 228.219C68.8057 227.582 68.6686 239.912 60.6108 238.536C55.1131 237.596 55.6425 228.678 61.1538 228.219Z" fill="#747D03"/>
<path d="M104.592 228.219C112.244 227.582 112.107 239.912 104.049 238.536C98.5511 237.596 99.0805 228.678 104.592 228.219Z" fill="#747D03"/>
<path d="M126.311 228.219C133.963 227.582 133.826 239.912 125.768 238.536C120.27 237.596 120.8 228.678 126.311 228.219Z" fill="#747D03"/>
<path d="M137.171 228.219C144.823 227.582 144.686 239.912 136.628 238.536C131.13 237.596 131.66 228.678 137.171 228.219Z" fill="#747D03"/>
<path d="M180.609 228.219C188.261 227.582 188.124 239.912 180.066 238.536C174.569 237.596 175.098 228.678 180.609 228.219Z" fill="#747D03"/>
<path d="M202.329 228.219C209.981 227.582 209.843 239.912 201.786 238.536C196.288 237.596 196.817 228.678 202.329 228.219Z" fill="#747D03"/>
<path d="M245.767 228.219C253.419 227.582 253.282 239.912 245.224 238.536C239.726 237.596 240.256 228.678 245.767 228.219Z" fill="#747D03"/>
<path d="M267.486 228.219C275.138 227.582 275.001 239.912 266.943 238.536C261.446 237.596 261.975 228.678 267.486 228.219Z" fill="#747D03"/>
<path d="M321.785 228.219C329.437 227.582 329.3 239.912 321.242 238.536C315.744 237.596 316.274 228.678 321.785 228.219Z" fill="#747D03"/>
<path d="M354.363 228.219C362.015 227.582 361.878 239.912 353.82 238.536C348.323 237.596 348.852 228.678 354.363 228.219Z" fill="#747D03"/>
<path d="M386.942 228.219C394.594 227.582 394.457 239.912 386.399 238.536C380.902 237.596 381.431 228.678 386.942 228.219Z" fill="#747D03"/>
<path d="M408.661 228.219C416.313 227.582 416.176 239.912 408.118 238.536C402.62 237.596 403.15 228.678 408.661 228.219Z" fill="#747D03"/>
<path d="M462.959 228.219C470.611 227.582 470.474 239.912 462.416 238.536C456.919 237.596 457.448 228.678 462.959 228.219Z" fill="#747D03"/>
<path d="M104.592 239.078C112.244 238.442 112.107 250.772 104.049 249.395C98.5511 248.456 99.0805 239.537 104.592 239.078Z" fill="#747D03"/>
<path d="M126.311 239.078C133.963 238.442 133.826 250.772 125.768 249.395C120.27 248.456 120.8 239.537 126.311 239.078Z" fill="#747D03"/>
<path d="M137.171 239.078C144.823 238.442 144.686 250.772 136.628 249.395C131.13 248.456 131.66 239.537 137.171 239.078Z" fill="#747D03"/>
<path d="M169.75 239.078C177.402 238.442 177.265 250.772 169.207 249.395C163.709 248.456 164.239 239.537 169.75 239.078Z" fill="#747D03"/>
<path d="M202.329 239.078C209.981 238.442 209.843 250.772 201.786 249.395C196.288 248.456 196.817 239.537 202.329 239.078Z" fill="#747D03"/>
<path d="M245.767 239.078C253.419 238.442 253.282 250.772 245.224 249.395C239.726 248.456 240.256 239.537 245.767 239.078Z" fill="#747D03"/>
<path d="M267.486 239.078C275.138 238.442 275.001 250.772 266.943 249.395C261.446 248.456 261.975 239.537 267.486 239.078Z" fill="#747D03"/>
<path d="M300.065 239.078C307.717 238.442 307.58 250.772 299.522 249.395C294.025 248.456 294.554 239.537 300.065 239.078Z" fill="#747D03"/>
<path d="M321.785 239.078C329.437 238.442 329.3 250.772 321.242 249.395C315.744 248.456 316.274 239.537 321.785 239.078Z" fill="#747D03"/>
<path d="M354.363 239.078C362.015 238.442 361.878 250.772 353.82 249.395C348.323 248.456 348.852 239.537 354.363 239.078Z" fill="#747D03"/>
<path d="M386.942 239.078C394.594 238.442 394.457 250.772 386.399 249.395C380.902 248.456 381.431 239.537 386.942 239.078Z" fill="#747D03"/>
<path d="M397.802 239.078C405.454 238.442 405.317 250.772 397.259 249.395C391.761 248.456 392.29 239.537 397.802 239.078Z" fill="#747D03"/>
<path d="M419.521 239.078C427.173 238.442 427.036 250.772 418.978 249.395C413.48 248.456 414.01 239.537 419.521 239.078Z" fill="#747D03"/>
<path d="M430.38 239.078C438.032 238.442 437.895 250.772 429.837 249.395C424.34 248.456 424.869 239.537 430.38 239.078Z" fill="#747D03"/>
<path d="M441.24 239.078C448.892 238.442 448.755 250.772 440.697 249.395C435.2 248.456 435.729 239.537 441.24 239.078Z" fill="#747D03"/>
<path d="M452.1 239.078C459.752 238.442 459.615 250.772 451.557 249.395C446.059 248.456 446.589 239.537 452.1 239.078Z" fill="#747D03"/>
<path d="M462.959 239.078C470.611 238.442 470.474 250.772 462.416 249.395C456.919 248.456 457.448 239.537 462.959 239.078Z" fill="#747D03"/>
<path d="M72.0131 249.938C79.6651 249.301 79.528 261.631 71.4702 260.255C65.9725 259.315 66.5019 250.397 72.0131 249.938Z" fill="#747D03"/>
<path d="M104.592 249.938C112.244 249.301 112.107 261.631 104.049 260.255C98.5511 259.315 99.0805 250.397 104.592 249.938Z" fill="#747D03"/>
<path d="M126.311 249.938C133.963 249.301 133.826 261.631 125.768 260.255C120.27 259.315 120.8 250.397 126.311 249.938Z" fill="#747D03"/>
<path d="M158.89 249.938C166.542 249.301 166.405 261.631 158.347 260.255C152.849 259.315 153.379 250.397 158.89 249.938Z" fill="#747D03"/>
<path d="M202.329 249.938C209.981 249.301 209.843 261.631 201.786 260.255C196.288 259.315 196.817 250.397 202.329 249.938Z" fill="#747D03"/>
<path d="M213.188 249.938C220.84 249.301 220.703 261.631 212.645 260.255C207.148 259.315 207.677 250.397 213.188 249.938Z" fill="#747D03"/>
<path d="M234.908 249.938C242.56 249.301 242.423 261.631 234.365 260.255C228.867 259.315 229.396 250.397 234.908 249.938Z" fill="#747D03"/>
<path d="M245.767 249.938C253.419 249.301 253.282 261.631 245.224 260.255C239.726 259.315 240.256 250.397 245.767 249.938Z" fill="#747D03"/>
<path d="M256.627 249.938C264.279 249.301 264.142 261.631 256.084 260.255C250.586 259.315 251.116 250.397 256.627 249.938Z" fill="#747D03"/>
<path d="M267.486 249.938C275.138 249.301 275.001 261.631 266.943 260.255C261.446 259.315 261.975 250.397 267.486 249.938Z" fill="#747D03"/>
<path d="M278.346 249.938C285.998 249.301 285.861 261.631 277.803 260.255C272.305 259.315 272.835 250.397 278.346 249.938Z" fill="#747D03"/>
<path d="M289.206 249.938C296.857 249.301 296.72 261.631 288.663 260.255C283.165 259.315 283.694 250.397 289.206 249.938Z" fill="#747D03"/>
<path d="M300.065 249.938C307.717 249.301 307.58 261.631 299.522 260.255C294.025 259.315 294.554 250.397 300.065 249.938Z" fill="#747D03"/>
<path d="M310.925 249.938C318.577 249.301 318.44 261.631 310.382 260.255C304.884 259.315 305.414 250.397 310.925 249.938Z" fill="#747D03"/>
<path d="M321.785 249.938C329.437 249.301 329.3 261.631 321.242 260.255C315.744 259.315 316.274 250.397 321.785 249.938Z" fill="#747D03"/>
<path d="M332.644 249.938C340.296 249.301 340.159 261.631 332.101 260.255C326.603 259.315 327.133 250.397 332.644 249.938Z" fill="#747D03"/>
<path d="M343.504 249.938C351.156 249.301 351.019 261.631 342.961 260.255C337.463 259.315 337.993 250.397 343.504 249.938Z" fill="#747D03"/>
<path d="M354.363 249.938C362.015 249.301 361.878 261.631 353.82 260.255C348.323 259.315 348.852 250.397 354.363 249.938Z" fill="#747D03"/>
<path d="M365.223 249.938C372.875 249.301 372.738 261.631 364.68 260.255C359.182 259.315 359.712 250.397 365.223 249.938Z" fill="#747D03"/>
<path d="M386.942 249.938C394.594 249.301 394.457 261.631 386.399 260.255C380.902 259.315 381.431 250.397 386.942 249.938Z" fill="#747D03"/>
<path d="M72.0131 260.798C79.6651 260.161 79.528 272.491 71.4702 271.114C65.9725 270.175 66.5019 261.256 72.0131 260.798Z" fill="#747D03"/>
<path d="M93.7324 260.798C101.384 260.161 101.247 272.491 93.1894 271.114C87.6917 270.175 88.2211 261.256 93.7324 260.798Z" fill="#747D03"/>
<path d="M104.592 260.798C112.244 260.161 112.107 272.491 104.049 271.114C98.5511 270.175 99.0805 261.256 104.592 260.798Z" fill="#747D03"/>
<path d="M126.311 260.798C133.963 260.161 133.826 272.491 125.768 271.114C120.27 270.175 120.8 261.256 126.311 260.798Z" fill="#747D03"/>
<path d="M169.75 260.798C177.402 260.161 177.265 272.491 169.207 271.114C163.709 270.175 164.239 261.256 169.75 260.798Z" fill="#747D03"/>
<path d="M191.469 260.798C199.121 260.161 198.984 272.491 190.926 271.114C185.429 270.175 185.958 261.256 191.469 260.798Z" fill="#747D03"/>
<path d="M202.329 260.798C209.981 260.161 209.843 272.491 201.786 271.114C196.288 270.175 196.817 261.256 202.329 260.798Z" fill="#747D03"/>
<path d="M234.908 260.798C242.56 260.161 242.423 272.491 234.365 271.114C228.867 270.175 229.396 261.256 234.908 260.798Z" fill="#747D03"/>
<path d="M256.627 260.798C264.279 260.161 264.142 272.491 256.084 271.114C250.586 270.175 251.116 261.256 256.627 260.798Z" fill="#747D03"/>
<path d="M278.346 260.798C285.998 260.161 285.861 272.491 277.803 271.114C272.305 270.175 272.835 261.256 278.346 260.798Z" fill="#747D03"/>
<path d="M300.065 260.798C307.717 260.161 307.58 272.491 299.522 271.114C294.025 270.175 294.554 261.256 300.065 260.798Z" fill="#747D03"/>
<path d="M343.504 260.798C351.156 260.161 351.019 272.491 342.961 271.114C337.463 270.175 337.993 261.256 343.504 260.798Z" fill="#747D03"/>
<path d="M365.223 260.798C372.875 260.161 372.738 272.491 364.68 271.114C359.182 270.175 359.712 261.256 365.223 260.798Z" fill="#747D03"/>
<path d="M376.082 260.798C383.734 260.161 383.597 272.491 375.539 271.114C370.042 270.175 370.571 261.256 376.082 260.798Z" fill="#747D03"/>
<path d="M386.942 260.798C394.594 260.161 394.457 272.491 386.399 271.114C380.902 270.175 381.431 261.256 386.942 260.798Z" fill="#747D03"/>
<path d="M408.661 260.798C416.313 260.161 416.176 272.491 408.118 271.114C402.62 270.175 403.15 261.256 408.661 260.798Z" fill="#747D03"/>
<path d="M419.521 260.798C427.173 260.161 427.036 272.491 418.978 271.114C413.48 270.175 414.01 261.256 419.521 260.798Z" fill="#747D03"/>
<path d="M39.4345 271.657C47.0865 271.021 46.9494 283.35 38.8915 281.974C33.3939 281.035 33.9233 272.116 39.4345 271.657Z" fill="#747D03"/>
<path d="M50.2939 271.657C57.9459 271.021 57.8088 283.35 49.7509 281.974C44.2532 281.035 44.7826 272.116 50.2939 271.657Z" fill="#747D03"/>
<path d="M61.1538 271.657C68.8057 271.021 68.6686 283.35 60.6108 281.974C55.1131 281.035 55.6425 272.116 61.1538 271.657Z" fill="#747D03"/>
<path d="M72.0131 271.657C79.6651 271.021 79.528 283.35 71.4702 281.974C65.9725 281.035 66.5019 272.116 72.0131 271.657Z" fill="#747D03"/>
<path d="M93.7324 271.657C101.384 271.021 101.247 283.35 93.1894 281.974C87.6917 281.035 88.2211 272.116 93.7324 271.657Z" fill="#747D03"/>
<path d="M126.311 271.657C133.963 271.021 133.826 283.35 125.768 281.974C120.27 281.035 120.8 272.116 126.311 271.657Z" fill="#747D03"/>
<path d="M148.03 271.657C155.682 271.021 155.545 283.35 147.487 281.974C141.99 281.035 142.519 272.116 148.03 271.657Z" fill="#747D03"/>
<path d="M158.89 271.657C166.542 271.021 166.405 283.35 158.347 281.974C152.849 281.035 153.379 272.116 158.89 271.657Z" fill="#747D03"/>
<path d="M180.609 271.657C188.261 271.021 188.124 283.35 180.066 281.974C174.569 281.035 175.098 272.116 180.609 271.657Z" fill="#747D03"/>
<path d="M202.329 271.657C209.981 271.021 209.843 283.35 201.786 281.974C196.288 281.035 196.817 272.116 202.329 271.657Z" fill="#747D03"/>
<path d="M213.188 271.657C220.84 271.021 220.703 283.35 212.645 281.974C207.148 281.035 207.677 272.116 213.188 271.657Z" fill="#747D03"/>
<path d="M224.048 271.657C231.7 271.021 231.563 283.35 223.505 281.974C218.007 281.035 218.537 272.116 224.048 271.657Z" fill="#747D03"/>
<path d="M278.346 271.657C285.998 271.021 285.861 283.35 277.803 281.974C272.305 281.035 272.835 272.116 278.346 271.657Z" fill="#747D03"/>
<path d="M289.206 271.657C296.857 271.021 296.72 283.35 288.663 281.974C283.165 281.035 283.694 272.116 289.206 271.657Z" fill="#747D03"/>
<path d="M310.925 271.657C318.577 271.021 318.44 283.35 310.382 281.974C304.884 281.035 305.414 272.116 310.925 271.657Z" fill="#747D03"/>
<path d="M343.504 271.657C351.156 271.021 351.019 283.35 342.961 281.974C337.463 281.035 337.993 272.116 343.504 271.657Z" fill="#747D03"/>
<path d="M365.223 271.657C372.875 271.021 372.738 283.35 364.68 281.974C359.182 281.035 359.712 272.116 365.223 271.657Z" fill="#747D03"/>
<path d="M386.942 271.657C394.594 271.021 394.457 283.35 386.399 281.974C380.902 281.035 381.431 272.116 386.942 271.657Z" fill="#747D03"/>
<path d="M397.802 271.657C405.454 271.021 405.317 283.35 397.259 281.974C391.761 281.035 392.29 272.116 397.802 271.657Z" fill="#747D03"/>
<path d="M408.661 271.657C416.313 271.021 416.176 283.35 408.118 281.974C402.62 281.035 403.15 272.116 408.661 271.657Z" fill="#747D03"/>
<path d="M441.24 271.657C448.892 271.021 448.755 283.35 440.697 281.974C435.2 281.035 435.729 272.116 441.24 271.657Z" fill="#747D03"/>
<path d="M452.1 271.657C459.752 271.021 459.615 283.35 451.557 281.974C446.059 281.035 446.589 272.116 452.1 271.657Z" fill="#747D03"/>
<path d="M462.959 271.657C470.611 271.021 470.474 283.35 462.416 281.974C456.919 281.035 457.448 272.116 462.959 271.657Z" fill="#747D03"/>
<path d="M61.1538 282.517C68.8057 281.88 68.6686 294.21 60.6108 292.834C55.1131 291.894 55.6425 282.976 61.1538 282.517Z" fill="#747D03"/>
<path d="M93.7324 282.517C101.384 281.88 101.247 294.21 93.1894 292.834C87.6917 291.894 88.2211 282.976 93.7324 282.517Z" fill="#747D03"/>
<path d="M104.592 282.517C112.244 281.88 112.107 294.21 104.049 292.834C98.5511 291.894 99.0805 282.976 104.592 282.517Z" fill="#747D03"/>
<path d="M126.311 282.517C133.963 281.88 133.826 294.21 125.768 292.834C120.27 291.894 120.8 282.976 126.311 282.517Z" fill="#747D03"/>
<path d="M137.171 282.517C144.823 281.88 144.686 294.21 136.628 292.834C131.13 291.894 131.66 282.976 137.171 282.517Z" fill="#747D03"/>
<path d="M148.03 282.517C155.682 281.88 155.545 294.21 147.487 292.834C141.99 291.894 142.519 282.976 148.03 282.517Z" fill="#747D03"/>
<path d="M180.609 282.517C188.261 281.88 188.124 294.21 180.066 292.834C174.569 291.894 175.098 282.976 180.609 282.517Z" fill="#747D03"/>
<path d="M202.329 282.517C209.981 281.88 209.843 294.21 201.786 292.834C196.288 291.894 196.817 282.976 202.329 282.517Z" fill="#747D03"/>
<path d="M213.188 282.517C220.84 281.88 220.703 294.21 212.645 292.834C207.148 291.894 207.677 282.976 213.188 282.517Z" fill="#747D03"/>
<path d="M224.048 282.517C231.7 281.88 231.563 294.21 223.505 292.834C218.007 291.894 218.537 282.976 224.048 282.517Z" fill="#747D03"/>
<path d="M245.767 282.517C253.419 281.88 253.282 294.21 245.224 292.834C239.726 291.894 240.256 282.976 245.767 282.517Z" fill="#747D03"/>
<path d="M256.627 282.517C264.279 281.88 264.142 294.21 256.084 292.834C250.586 291.894 251.116 282.976 256.627 282.517Z" fill="#747D03"/>
<path d="M267.486 282.517C275.138 281.88 275.001 294.21 266.943 292.834C261.446 291.894 261.975 282.976 267.486 282.517Z" fill="#747D03"/>
<path d="M289.206 282.517C296.857 281.88 296.72 294.21 288.663 292.834C283.165 291.894 283.694 282.976 289.206 282.517Z" fill="#747D03"/>
<path d="M332.644 282.517C340.296 281.88 340.159 294.21 332.101 292.834C326.603 291.894 327.133 282.976 332.644 282.517Z" fill="#747D03"/>
<path d="M365.223 282.517C372.875 281.88 372.738 294.21 364.68 292.834C359.182 291.894 359.712 282.976 365.223 282.517Z" fill="#747D03"/>
<path d="M376.082 282.517C383.734 281.88 383.597 294.21 375.539 292.834C370.042 291.894 370.571 282.976 376.082 282.517Z" fill="#747D03"/>
<path d="M397.802 282.517C405.454 281.88 405.317 294.21 397.259 292.834C391.761 291.894 392.29 282.976 397.802 282.517Z" fill="#747D03"/>
<path d="M430.38 282.517C438.032 281.88 437.895 294.21 429.837 292.834C424.34 291.894 424.869 282.976 430.38 282.517Z" fill="#747D03"/>
<path d="M441.24 282.517C448.892 281.88 448.755 294.21 440.697 292.834C435.2 291.894 435.729 282.976 441.24 282.517Z" fill="#747D03"/>
<path d="M462.959 282.517C470.611 281.88 470.474 294.21 462.416 292.834C456.919 291.894 457.448 282.976 462.959 282.517Z" fill="#747D03"/>
<path d="M28.5747 293.377C36.2266 292.74 36.0895 305.07 28.0317 303.693C22.534 302.754 23.0634 293.835 28.5747 293.377Z" fill="#747D03"/>
<path d="M61.1538 293.377C68.8057 292.74 68.6686 305.07 60.6108 303.693C55.1131 302.754 55.6425 293.835 61.1538 293.377Z" fill="#747D03"/>
<path d="M82.873 293.377C90.525 292.74 90.3879 305.07 82.33 303.693C76.8323 302.754 77.3617 293.835 82.873 293.377Z" fill="#747D03"/>
<path d="M93.7324 293.377C101.384 292.74 101.247 305.07 93.1894 303.693C87.6917 302.754 88.2211 293.835 93.7324 293.377Z" fill="#747D03"/>
<path d="M104.592 293.377C112.244 292.74 112.107 305.07 104.049 303.693C98.5511 302.754 99.0805 293.835 104.592 293.377Z" fill="#747D03"/>
<path d="M115.452 293.377C123.104 292.74 122.966 305.07 114.909 303.693C109.411 302.754 109.94 293.835 115.452 293.377Z" fill="#747D03"/>
<path d="M126.311 293.377C133.963 292.74 133.826 305.07 125.768 303.693C120.27 302.754 120.8 293.835 126.311 293.377Z" fill="#747D03"/>
<path d="M137.171 293.377C144.823 292.74 144.686 305.07 136.628 303.693C131.13 302.754 131.66 293.835 137.171 293.377Z" fill="#747D03"/>
<path d="M169.75 293.377C177.402 292.74 177.265 305.07 169.207 303.693C163.709 302.754 164.239 293.835 169.75 293.377Z" fill="#747D03"/>
<path d="M180.609 293.377C188.261 292.74 188.124 305.07 180.066 303.693C174.569 302.754 175.098 293.835 180.609 293.377Z" fill="#747D03"/>
<path d="M213.188 293.377C220.84 292.74 220.703 305.07 212.645 303.693C207.148 302.754 207.677 293.835 213.188 293.377Z" fill="#747D03"/>
<path d="M234.908 293.377C242.56 292.74 242.423 305.07 234.365 303.693C228.867 302.754 229.396 293.835 234.908 293.377Z" fill="#747D03"/>
<path d="M245.767 293.377C253.419 292.74 253.282 305.07 245.224 303.693C239.726 302.754 240.256 293.835 245.767 293.377Z" fill="#747D03"/>
<path d="M256.627 293.377C264.279 292.74 264.142 305.07 256.084 303.693C250.586 302.754 251.116 293.835 256.627 293.377Z" fill="#747D03"/>
<path d="M278.346 293.377C285.998 292.74 285.861 305.07 277.803 303.693C272.305 302.754 272.835 293.835 278.346 293.377Z" fill="#747D03"/>
<path d="M289.206 293.377C296.857 292.74 296.72 305.07 288.663 303.693C283.165 302.754 283.694 293.835 289.206 293.377Z" fill="#747D03"/>
<path d="M300.065 293.377C307.717 292.74 307.58 305.07 299.522 303.693C294.025 302.754 294.554 293.835 300.065 293.377Z" fill="#747D03"/>
<path d="M332.644 293.377C340.296 292.74 340.159 305.07 332.101 303.693C326.603 302.754 327.133 293.835 332.644 293.377Z" fill="#747D03"/>
<path d="M365.223 293.377C372.875 292.74 372.738 305.07 364.68 303.693C359.182 302.754 359.712 293.835 365.223 293.377Z" fill="#747D03"/>
<path d="M376.082 293.377C383.734 292.74 383.597 305.07 375.539 303.693C370.042 302.754 370.571 293.835 376.082 293.377Z" fill="#747D03"/>
<path d="M386.942 293.377C394.594 292.74 394.457 305.07 386.399 303.693C380.902 302.754 381.431 293.835 386.942 293.377Z" fill="#747D03"/>
<path d="M397.802 293.377C405.454 292.74 405.317 305.07 397.259 303.693C391.761 302.754 392.29 293.835 397.802 293.377Z" fill="#747D03"/>
<path d="M419.521 293.377C427.173 292.74 427.036 305.07 418.978 303.693C413.48 302.754 414.01 293.835 419.521 293.377Z" fill="#747D03"/>
<path d="M430.38 293.377C438.032 292.74 437.895 305.07 429.837 303.693C424.34 302.754 424.869 293.835 430.38 293.377Z" fill="#747D03"/>
<path d="M441.24 293.377C448.892 292.74 448.755 305.07 440.697 303.693C435.2 302.754 435.729 293.835 441.24 293.377Z" fill="#747D03"/>
<path d="M452.1 293.377C459.752 292.74 459.615 305.07 451.557 303.693C446.059 302.754 446.589 293.835 452.1 293.377Z" fill="#747D03"/>
<path d="M462.959 293.377C470.611 292.74 470.474 305.07 462.416 303.693C456.919 302.754 457.448 293.835 462.959 293.377Z" fill="#747D03"/>
<defs>
<filter id="filter0_d_1806_12039" x="0.926103" y="0.293229" width="519.68" height="314.68" filterUnits="userSpaceOnUse" color-interpolation-filters="sRGB">
<feFlood flood-opacity="0" result="BackgroundImageFix"/>
<feColorMatrix in="SourceAlpha" type="matrix" values="0 0 0 0 0 0 0 0 0 0 0 0 0 0 0 0 0 0 127 0" result="hardAlpha"/>
<feOffset/>
<feGaussianBlur stdDeviation="5.77572"/>
<feComposite in2="hardAlpha" operator="out"/>
<feColorMatrix type="matrix" values="0 0 0 0 0 0 0 0 0 0 0 0 0 0 0 0 0 0 0.15 0"/>
<feBlend mode="normal" in2="BackgroundImageFix" result="effect1_dropShadow_1806_12039"/>
<feBlend mode="normal" in="SourceGraphic" in2="effect1_dropShadow_1806_12039" result="shape"/>
</filter>
<filter id="filter1_b_1806_12039" x="-33.7282" y="-34.3611" width="588.989" height="383.989" filterUnits="userSpaceOnUse" color-interpolation-filters="sRGB">
<feFlood flood-opacity="0" result="BackgroundImageFix"/>
<feGaussianBlur in="BackgroundImageFix" stdDeviation="23.1029"/>
<feComposite in2="SourceAlpha" operator="in" result="effect1_backgroundBlur_1806_12039"/>
<feBlend mode="normal" in="SourceGraphic" in2="effect1_backgroundBlur_1806_12039" result="shape"/>
</filter>
<filter id="filter2_di_1806_12039" x="12.7661" y="12.1334" width="496" height="16.4608" filterUnits="userSpaceOnUse" color-interpolation-filters="sRGB">
<feFlood flood-opacity="0" result="BackgroundImageFix"/>
<feColorMatrix in="SourceAlpha" type="matrix" values="0 0 0 0 0 0 0 0 0 0 0 0 0 0 0 0 0 0 127 0" result="hardAlpha"/>
<feOffset dy="0.288786"/>
<feColorMatrix type="matrix" values="0 0 0 0 0 0 0 0 0 0 0 0 0 0 0 0 0 0 0.15 0"/>
<feBlend mode="normal" in2="BackgroundImageFix" result="effect1_dropShadow_1806_12039"/>
<feBlend mode="normal" in="SourceGraphic" in2="effect1_dropShadow_1806_12039" result="shape"/>
<feColorMatrix in="SourceAlpha" type="matrix" values="0 0 0 0 0 0 0 0 0 0 0 0 0 0 0 0 0 0 127 0" result="hardAlpha"/>
<feOffset dy="-0.288786"/>
<feComposite in2="hardAlpha" operator="arithmetic" k2="-1" k3="1"/>
<feColorMatrix type="matrix" values="0 0 0 0 0 0 0 0 0 0 0 0 0 0 0 0 0 0 0.05 0"/>
<feBlend mode="normal" in2="shape" result="effect2_innerShadow_1806_12039"/>
</filter>
</defs>
</svg>
