<svg width="154" height="133" viewBox="0 0 154 133" fill="none" xmlns="http://www.w3.org/2000/svg">
<g filter="url(#filter0_d_1806_12039)">
<path d="M5.32422 14.8492V32.3924V34.6181H148.124V24.2405C148.124 16.729 141.176 14.5193 137.702 14.3534C116.296 14.271 68.9784 14.1063 68.9784 14.1063C58.1001 14.5205 58.7598 6.04492 48.9808 4.72026C38.7151 4.72025 23.3502 4.47159 15.4638 4.47159C7.57746 4.47159 5.4181 11.39 5.32422 14.8492Z" fill="black"/>
</g>
<g filter="url(#filter1_d_1806_12039)">
<rect x="5.32422" y="27.9541" width="142.799" height="98.9548" rx="5.75514" fill="#3C3C3C"/>
</g>
<path d="M99.1954 68.6124C99.1954 73.4092 97.8699 77.895 95.557 81.7239C94.3248 83.7646 92.8165 85.6227 91.079 87.2359C89.7185 88.5031 88.2141 89.6226 86.6009 90.5672C85.1899 91.3952 83.6894 92.091 82.1229 92.6352C80.6846 93.1366 79.1881 93.5098 77.6449 93.7469C76.3815 93.9413 75.091 94.0385 73.7732 94.0385C59.7327 94.0346 48.3511 82.6529 48.3511 68.6124C48.3511 66.9448 48.5104 65.3161 48.8175 63.7379C49.1674 61.942 49.7038 60.2122 50.4074 58.5757C51.2004 56.7332 52.2072 54.9995 53.3927 53.4135C54.8543 51.4544 56.5958 49.7129 58.551 48.2514C62.7958 45.0716 68.0669 43.1902 73.7732 43.1902C73.9015 43.1902 74.0337 43.1902 74.162 43.1902C74.2086 43.1902 74.2591 43.1902 74.3058 43.1902C74.3136 43.1902 74.3252 43.1902 74.333 43.1902C74.4729 43.1902 74.6129 43.198 74.7528 43.2019C74.9161 43.2058 75.0793 43.2175 75.2426 43.2252C75.3709 43.233 75.4991 43.2408 75.6274 43.2486C75.6741 43.2486 75.7207 43.2563 75.7674 43.2602C75.8956 43.268 76.0239 43.2797 76.1483 43.2913C76.331 43.3069 76.5098 43.3263 76.6886 43.3457C76.8286 43.3613 76.9646 43.3768 77.1007 43.3963C77.2795 43.4196 77.4583 43.4468 77.6371 43.474C77.6371 43.474 77.676 43.4779 77.6954 43.4818C77.7809 43.4934 77.8664 43.509 77.952 43.5245C78.329 43.5867 78.6983 43.6567 79.0676 43.7345C79.1609 43.7539 79.2542 43.7733 79.3513 43.7966C79.5379 43.8394 79.7284 43.8822 79.915 43.9288C80.0083 43.9521 80.1016 43.9755 80.1949 43.9988C80.7585 44.1465 81.3144 44.3098 81.8625 44.4963C81.948 44.5235 82.0296 44.5546 82.1151 44.5819C82.3095 44.6479 82.5077 44.7218 82.7021 44.7918C82.7876 44.8229 82.8731 44.8578 82.9625 44.8889C83.1103 44.9473 83.258 45.0056 83.4057 45.0678C83.5417 45.1222 83.6778 45.1805 83.8099 45.2388C83.9654 45.3049 84.117 45.371 84.2686 45.4409C84.4125 45.507 84.5524 45.5731 84.6923 45.6392C84.7001 45.6431 84.7118 45.6469 84.7234 45.6547C84.875 45.7247 85.0266 45.7985 85.1743 45.8763C85.291 45.9346 85.4076 45.9929 85.5203 46.0551C85.6291 46.1134 85.738 46.1717 85.8468 46.23C85.9945 46.3078 86.1384 46.3894 86.2861 46.471C86.3172 46.4866 86.3444 46.506 86.3755 46.5216C86.4455 46.5604 86.5154 46.5993 86.5854 46.6421C86.5893 46.6421 86.5932 46.646 86.6009 46.6498C86.6165 46.6576 86.632 46.6693 86.6476 46.677C86.7992 46.7665 86.9469 46.8559 87.0946 46.9492C87.1685 46.9919 87.2423 47.0386 87.3123 47.0852C87.3356 47.1008 87.3589 47.1163 87.3862 47.1318C87.4989 47.2018 87.6116 47.2757 87.7204 47.3495C87.7515 47.369 87.7865 47.3923 87.8176 47.4117C87.9381 47.4934 88.0586 47.575 88.1791 47.6566C88.288 47.7305 88.3968 47.8043 88.5018 47.8821C88.5562 47.9209 88.6145 47.9598 88.6689 48.0026C88.7739 48.0803 88.8788 48.1581 88.9838 48.2358C89.081 48.3097 89.182 48.3835 89.2792 48.4613C89.3453 48.5118 89.4114 48.5623 89.4775 48.6168C89.5047 48.6362 89.528 48.6595 89.5552 48.6789C89.6329 48.7411 89.7107 48.8033 89.7884 48.8655C89.8817 48.9394 89.9711 49.0132 90.0605 49.0871C90.216 49.2193 90.3715 49.3514 90.527 49.4875C90.5659 49.5186 90.6009 49.5536 90.6397 49.5847C90.7019 49.6391 90.7602 49.6935 90.8185 49.7479C90.9041 49.8257 90.9857 49.9034 91.0712 49.9812C91.079 49.985 91.0829 49.9928 91.0906 50.0006C91.2228 50.1211 91.3511 50.2455 91.4794 50.3699C91.491 50.3815 91.5027 50.3932 91.5143 50.4049C91.6271 50.5137 91.7398 50.6225 91.8486 50.7353C91.8797 50.7664 91.9147 50.8013 91.9419 50.8324C92.0391 50.9296 92.1324 51.0268 92.2218 51.124C92.3928 51.3067 92.5639 51.4894 92.7271 51.6721C92.8321 51.7887 92.937 51.9053 93.0342 52.0258C93.0653 52.0608 93.0964 52.0958 93.1236 52.1308C93.2014 52.2202 93.2752 52.3096 93.3491 52.399C93.4113 52.4728 93.4735 52.5506 93.5357 52.6283C93.5668 52.6672 93.5979 52.7022 93.6251 52.7411C93.7028 52.8382 93.7806 52.9354 93.8544 53.0326C93.9477 53.1531 94.041 53.2775 94.1343 53.4019C94.6357 54.0744 95.1061 54.7702 95.5415 55.4932C96.1362 56.4766 96.6649 57.5028 97.1197 58.5641C97.8232 60.2044 98.3636 61.9304 98.7095 63.7262C99.0166 65.3044 99.176 66.9332 99.176 68.6008L99.1954 68.6124Z" stroke="#E6E6E6" stroke-miterlimit="10"/>
<path d="M99.1953 68.6124C99.1953 73.4092 97.8698 77.895 95.5569 81.7239C94.3247 83.7646 92.8165 85.6227 91.0789 87.2359C89.7184 88.5031 88.214 89.6226 86.6009 90.5672C85.1898 91.3952 83.6894 92.091 82.1228 92.6352C80.6846 93.1366 79.188 93.5098 77.6448 93.7469C69.0191 92.4292 61.8162 86.7694 58.341 79.0728C56.9028 75.8814 56.0981 72.3441 56.0981 68.6202C56.0981 68.0332 56.1176 67.4501 56.1603 66.8748C56.2303 65.8136 56.3702 64.7719 56.5685 63.7495C56.9183 61.9537 57.4548 60.2239 58.1584 58.5874C58.1894 58.5096 58.2244 58.4358 58.2594 58.358C59.0369 56.5971 60.0086 54.9451 61.1437 53.4213C61.7773 52.5778 62.4576 51.7731 63.1884 51.0112C64.1485 50.0122 65.1903 49.0871 66.302 48.2591C69.5672 45.8141 73.4389 44.1387 77.6487 43.4934C77.6487 43.4934 77.6875 43.4973 77.707 43.5012C77.7925 43.5129 77.878 43.5284 77.9635 43.544C78.3406 43.6062 78.7099 43.6761 79.0792 43.7539C79.1725 43.7733 79.2657 43.7928 79.3629 43.8161C79.5495 43.8588 79.74 43.9016 79.9266 43.9482C80.0199 43.9716 80.1132 43.9949 80.2064 44.0182C80.7701 44.1659 81.326 44.3292 81.874 44.5158C81.9596 44.543 82.0412 44.5741 82.1267 44.6013C82.3211 44.6674 82.5193 44.7412 82.7137 44.8112C82.7992 44.8423 82.8847 44.8773 82.9741 44.9084C83.1218 44.9667 83.2695 45.025 83.4173 45.0872C83.5533 45.1416 83.6894 45.1999 83.8215 45.2582C83.977 45.3243 84.1286 45.3904 84.2802 45.4604C84.424 45.5264 84.564 45.5925 84.7039 45.6586C84.7117 45.6625 84.7233 45.6664 84.735 45.6741C84.8866 45.7441 85.0382 45.818 85.1859 45.8957C85.3025 45.954 85.4192 46.0123 85.5319 46.0745C85.6407 46.1328 85.7496 46.1911 85.8584 46.2495C86.0061 46.3272 86.1499 46.4088 86.2977 46.4905C86.3288 46.506 86.356 46.5254 86.3871 46.541C86.457 46.5799 86.527 46.6187 86.597 46.6615C86.6009 46.6615 86.6047 46.6654 86.6125 46.6693C86.6281 46.677 86.6436 46.6887 86.6592 46.6965C86.8108 46.7859 86.9585 46.8753 87.1062 46.9686C87.18 47.0113 87.2539 47.058 87.3239 47.1046C87.3472 47.1202 87.3705 47.1357 87.3977 47.1513C87.5105 47.2212 87.6232 47.2951 87.732 47.369C87.7631 47.3884 87.7981 47.4117 87.8292 47.4312C87.9497 47.5128 88.0702 47.5944 88.1907 47.676C88.2996 47.7499 88.4084 47.8238 88.5134 47.9015C88.5678 47.9404 88.6261 47.9792 88.6805 48.022C88.7855 48.0997 88.8904 48.1775 88.9954 48.2552C89.0925 48.3291 89.1936 48.4029 89.2908 48.4807C89.3569 48.5312 89.423 48.5818 89.489 48.6362C89.5162 48.6556 89.5396 48.6789 89.5668 48.6984C89.6445 48.7606 89.7223 48.8228 89.8 48.885C89.8933 48.9588 89.9827 49.0327 90.0721 49.1065C90.2276 49.2387 90.3831 49.3709 90.5386 49.5069C90.5774 49.538 90.6124 49.573 90.6513 49.6041C90.7135 49.6585 90.7718 49.7129 90.8301 49.7674C90.9156 49.8451 90.9973 49.9228 91.0828 50.0006C91.0906 50.0045 91.0944 50.0122 91.1022 50.02C91.2344 50.1405 91.3627 50.2649 91.4909 50.3893C91.5026 50.401 91.5143 50.4126 91.5259 50.4243C91.6386 50.5331 91.7514 50.642 91.8602 50.7547C91.8913 50.7858 91.9263 50.8208 91.9535 50.8519C92.0507 50.9491 92.144 51.0462 92.2334 51.1434C92.4044 51.3261 92.5755 51.5088 92.7387 51.6915C92.8437 51.8081 92.9486 51.9247 93.0458 52.0452C93.0769 52.0802 93.108 52.1152 93.1352 52.1502C93.213 52.2396 93.2868 52.329 93.3607 52.4184C93.4229 52.4923 93.4851 52.57 93.5473 52.6478C93.5783 52.6866 93.6094 52.7216 93.6367 52.7605C93.7144 52.8577 93.7921 52.9548 93.866 53.052C93.9593 53.1725 94.0526 53.2969 94.1459 53.4213C94.6473 54.0938 95.1177 54.7896 95.553 55.5126C96.1478 56.4961 96.6764 57.5223 97.1312 58.5835C97.8348 60.2239 98.3751 61.9498 98.7211 63.7457C99.0282 65.3239 99.1876 66.9526 99.1876 68.6202L99.1953 68.6124Z" stroke="#E6E6E6" stroke-miterlimit="10"/>
<path d="M99.1953 68.6124C99.1953 73.4092 97.8698 77.895 95.5569 81.7239C94.3247 83.7646 92.8164 85.6227 91.0789 87.2359C89.7183 88.5031 88.214 89.6226 86.6008 90.5672C85.1898 91.3952 83.6893 92.091 82.1228 92.6352C77.3727 90.987 73.2678 87.9667 70.2708 84.0523C67.748 80.756 66.0143 76.8221 65.3535 72.5346C65.1552 71.2596 65.0503 69.9496 65.0503 68.6163C65.0503 66.9487 65.2097 65.32 65.5168 63.7418C65.6062 63.2792 65.7072 62.8205 65.8238 62.3696C66.1543 61.0635 66.5857 59.7963 67.1105 58.5796C67.9035 56.7371 68.9103 55.0034 70.0959 53.4174C70.1814 53.3047 70.263 53.1958 70.3485 53.0831C71.7596 51.26 73.4077 49.6352 75.2541 48.2552C77.3221 46.7043 79.635 45.4642 82.1228 44.6013C82.3172 44.6674 82.5154 44.7412 82.7098 44.8112C82.7953 44.8423 82.8808 44.8773 82.9702 44.9084C83.1179 44.9667 83.2656 45.025 83.4133 45.0872C83.5494 45.1416 83.6854 45.1999 83.8176 45.2582C83.9731 45.3243 84.1247 45.3904 84.2763 45.4604C84.4201 45.5264 84.5601 45.5925 84.7 45.6586C84.7078 45.6625 84.7194 45.6664 84.7311 45.6741C84.8827 45.7441 85.0343 45.818 85.182 45.8957C85.2986 45.954 85.4152 46.0123 85.528 46.0745C85.6368 46.1328 85.7456 46.1911 85.8545 46.2495C86.0022 46.3272 86.146 46.4088 86.2937 46.4905C86.3248 46.506 86.352 46.5254 86.3831 46.541C86.4531 46.5799 86.5231 46.6187 86.5931 46.6615C86.5969 46.6615 86.6008 46.6654 86.6086 46.6693C86.6242 46.677 86.6397 46.6887 86.6552 46.6965C86.8068 46.7859 86.9546 46.8753 87.1023 46.9686C87.1761 47.0113 87.25 47.058 87.32 47.1046C87.3433 47.1202 87.3666 47.1357 87.3938 47.1513C87.5065 47.2212 87.6193 47.2951 87.7281 47.369C87.7592 47.3884 87.7942 47.4117 87.8253 47.4312C87.9458 47.5128 88.0663 47.5944 88.1868 47.676C88.2956 47.7499 88.4045 47.8238 88.5094 47.9015C88.5639 47.9404 88.6222 47.9792 88.6766 48.022C88.7815 48.0998 88.8865 48.1775 88.9914 48.2552C89.0886 48.3291 89.1897 48.403 89.2869 48.4807C89.353 48.5312 89.419 48.5818 89.4851 48.6362C89.5123 48.6556 89.5356 48.6789 89.5629 48.6984C89.6406 48.7606 89.7183 48.8228 89.7961 48.885C89.8894 48.9588 89.9788 49.0327 90.0682 49.1065C90.2237 49.2387 90.3792 49.3709 90.5347 49.5069C90.5735 49.538 90.6085 49.573 90.6474 49.6041C90.7096 49.6585 90.7679 49.7129 90.8262 49.7674C90.9117 49.8451 90.9933 49.9228 91.0789 50.0006C91.0866 50.0045 91.0905 50.0122 91.0983 50.02C91.2305 50.1405 91.3587 50.2649 91.487 50.3893C91.4987 50.401 91.5103 50.4126 91.522 50.4243C91.6347 50.5331 91.7475 50.642 91.8563 50.7547C91.8874 50.7858 91.9224 50.8208 91.9496 50.8519C92.0468 50.9491 92.1401 51.0462 92.2295 51.1434C92.4005 51.3261 92.5715 51.5088 92.7348 51.6915C92.8398 51.8081 92.9447 51.9247 93.0419 52.0452C93.073 52.0802 93.1041 52.1152 93.1313 52.1502C93.209 52.2396 93.2829 52.329 93.3567 52.4184C93.4189 52.4923 93.4811 52.57 93.5433 52.6478C93.5744 52.6866 93.6055 52.7216 93.6327 52.7605C93.7105 52.8577 93.7882 52.9548 93.8621 53.052C93.9554 53.1725 94.0487 53.2969 94.142 53.4213C94.6434 54.0938 95.1138 54.7896 95.5491 55.5126C96.1439 56.4961 96.6725 57.5223 97.1273 58.5835C97.8309 60.2239 98.3712 61.9498 98.7172 63.7457C99.0243 65.3239 99.1836 66.9526 99.1836 68.6202L99.1953 68.6124Z" stroke="#E6E6E6" stroke-miterlimit="10"/>
<path d="M99.1953 68.6124C99.1953 73.4092 97.8698 77.895 95.5569 81.7239C94.3247 83.7646 92.8164 85.6227 91.0789 87.2359C89.7184 88.5031 88.214 89.6226 86.6008 90.5672C83.631 88.8296 81.0461 86.5012 79.0014 83.7491C76.8751 80.8842 75.3397 77.5607 74.57 73.9495C74.2007 72.2275 74.0103 70.4433 74.0103 68.6124C74.0103 66.9448 74.1696 65.3161 74.4767 63.7379C74.4845 63.699 74.4923 63.6601 74.5 63.6213C74.8499 61.8643 75.3785 60.1772 76.0666 58.5757C76.8596 56.7332 77.8663 54.9995 79.0519 53.4135C79.2541 53.1453 79.4601 52.881 79.67 52.6205C80.9955 50.984 82.5232 49.5147 84.2102 48.2513C84.976 47.6799 85.7729 47.1474 86.6008 46.6654C86.6164 46.6731 86.6319 46.6848 86.6475 46.6926C86.7991 46.782 86.9468 46.8714 87.0945 46.9647C87.1684 47.0074 87.2422 47.0541 87.3122 47.1007C87.3355 47.1163 87.3588 47.1318 87.386 47.1474C87.4988 47.2174 87.6115 47.2912 87.7203 47.3651C87.7514 47.3845 87.7864 47.4078 87.8175 47.4273C87.938 47.5089 88.0585 47.5905 88.179 47.6722C88.2879 47.746 88.3967 47.8199 88.5017 47.8976C88.5561 47.9365 88.6144 47.9754 88.6688 48.0181C88.7738 48.0959 88.8787 48.1736 88.9837 48.2513C89.0809 48.3252 89.1819 48.3991 89.2791 48.4768C89.3452 48.5273 89.4113 48.5779 89.4774 48.6323C89.5046 48.6517 89.5279 48.675 89.5551 48.6945C89.6328 48.7567 89.7106 48.8189 89.7883 48.8811C89.8816 48.9549 89.971 49.0288 90.0604 49.1026C90.2159 49.2348 90.3714 49.367 90.5269 49.503C90.5658 49.5341 90.6007 49.5691 90.6396 49.6002C90.7018 49.6546 90.7601 49.709 90.8184 49.7635C90.9039 49.8412 90.9856 49.9189 91.0711 49.9967C91.0789 50.0006 91.0828 50.0084 91.0905 50.0161C91.2227 50.1366 91.351 50.261 91.4792 50.3854C91.4909 50.3971 91.5026 50.4087 91.5142 50.4204C91.627 50.5292 91.7397 50.6381 91.8485 50.7508C91.8796 50.7819 91.9146 50.8169 91.9418 50.848C92.039 50.9452 92.1323 51.0423 92.2217 51.1395C92.3927 51.3222 92.5638 51.5049 92.727 51.6876C92.832 51.8042 92.9369 51.9208 93.0341 52.0413C93.0652 52.0763 93.0963 52.1113 93.1235 52.1463C93.2013 52.2357 93.2751 52.3251 93.349 52.4145C93.4112 52.4884 93.4734 52.5661 93.5356 52.6439C93.5667 52.6827 93.5978 52.7177 93.625 52.7566C93.7027 52.8538 93.7805 52.9509 93.8543 53.0481C93.9476 53.1686 94.0409 53.293 94.1342 53.4174C94.6356 54.0899 95.106 54.7857 95.5414 55.5087C96.1361 56.4922 96.6647 57.5184 97.1195 58.5796C97.8231 60.22 98.3634 61.9459 98.7094 63.7418C99.0165 65.32 99.1759 66.9487 99.1759 68.6163L99.1953 68.6124Z" stroke="#E6E6E6" stroke-miterlimit="10"/>
<path d="M99.1953 68.6124C99.1953 73.4092 97.8697 77.895 95.5569 81.7239C94.3246 83.7646 92.8164 85.6227 91.0788 87.2359C89.1508 85.4439 87.5026 83.3565 86.2043 81.0475C84.6883 78.3498 83.6504 75.345 83.2073 72.1536C83.0479 70.9991 82.9624 69.8174 82.9624 68.6163C82.9624 66.9487 83.1218 65.32 83.4289 63.7418C83.5766 62.9838 83.7554 62.2374 83.9692 61.5066C84.2568 60.5038 84.6106 59.5281 85.0187 58.5796C85.8117 56.7371 86.8185 55.0034 88.0041 53.4174C88.9253 52.1852 89.9516 51.0424 91.075 49.9967C91.0827 50.0006 91.0866 50.0084 91.0944 50.0161C91.2266 50.1366 91.3548 50.261 91.4831 50.3854C91.4948 50.3971 91.5064 50.4087 91.5181 50.4204C91.6308 50.5292 91.7435 50.6381 91.8524 50.7508C91.8835 50.7819 91.9185 50.8169 91.9457 50.848C92.0429 50.9452 92.1362 51.0424 92.2256 51.1395C92.3966 51.3222 92.5676 51.5049 92.7309 51.6876C92.8358 51.8042 92.9408 51.9209 93.038 52.0414C93.0691 52.0763 93.1002 52.1113 93.1274 52.1463C93.2051 52.2357 93.279 52.3251 93.3528 52.4145C93.415 52.4884 93.4772 52.5661 93.5394 52.6439C93.5705 52.6827 93.6016 52.7177 93.6288 52.7566C93.7066 52.8538 93.7843 52.951 93.8582 53.0481C93.9515 53.1686 94.0448 53.293 94.1381 53.4174C94.6395 54.0899 95.1098 54.7857 95.5452 55.5087C96.1399 56.4922 96.6686 57.5184 97.1234 58.5796C97.827 60.22 98.3673 61.9459 98.7133 63.7418C99.0203 65.32 99.1797 66.9487 99.1797 68.6163L99.1953 68.6124Z" stroke="#E6E6E6" stroke-miterlimit="10"/>
<path d="M99.1953 68.6124C99.1953 73.4092 97.8698 77.895 95.5569 81.7239C94.4179 79.8347 93.5161 77.7861 92.898 75.6132C92.2605 73.3897 91.9224 71.0419 91.9224 68.6124C91.9224 67.8078 91.9612 67.0109 92.0312 66.2257C92.109 65.3821 92.2295 64.5542 92.3888 63.7379C92.7387 61.942 93.2751 60.2122 93.9787 58.5757C94.4335 57.5145 94.9621 56.4844 95.5569 55.5048C96.1516 56.4883 96.6803 57.5145 97.1351 58.5757C97.8387 60.2161 98.379 61.942 98.7249 63.7379C99.032 65.3161 99.1914 66.9448 99.1914 68.6124H99.1953Z" stroke="#E6E6E6" stroke-miterlimit="10"/>
<path d="M88.9918 48.2475C86.2591 50.2921 83.0988 51.8004 79.6703 52.6167C77.7773 53.0676 75.8026 53.3047 73.7735 53.3047C72.6112 53.3047 71.4684 53.2269 70.3489 53.0753C67.8261 52.7372 65.416 52.0258 63.1809 50.9996C61.5366 50.2455 59.9818 49.3203 58.5513 48.2475C62.7961 45.0716 68.0671 43.1902 73.7735 43.1902C73.9018 43.1902 74.0339 43.1902 74.1622 43.1902C74.2088 43.1902 74.2594 43.1902 74.306 43.1902C74.3138 43.1902 74.3255 43.1902 74.3332 43.1902C74.4732 43.1902 74.6131 43.198 74.753 43.2019C74.9163 43.2058 75.0796 43.2175 75.2428 43.2252C75.3711 43.233 75.4994 43.2408 75.6277 43.2486C75.6743 43.2486 75.721 43.2563 75.7676 43.2602C75.8959 43.268 76.0242 43.2797 76.1485 43.2913C76.3312 43.3069 76.5101 43.3263 76.6889 43.3457C76.8288 43.3613 76.9649 43.3768 77.1009 43.3963C77.2797 43.4196 77.4585 43.4468 77.6373 43.474C77.6373 43.474 77.6762 43.4779 77.6956 43.4818C77.7812 43.4934 77.8667 43.509 77.9522 43.5245C78.3293 43.5867 78.6985 43.6567 79.0678 43.7345C79.1611 43.7539 79.2544 43.7733 79.3516 43.7966C79.5382 43.8394 79.7286 43.8822 79.9152 43.9288C80.0085 43.9521 80.1018 43.9755 80.1951 43.9988C80.7587 44.1465 81.3146 44.3098 81.8627 44.4963C81.9482 44.5235 82.0298 44.5546 82.1154 44.5819C82.3097 44.6479 82.508 44.7218 82.7023 44.7918C82.7879 44.8229 82.8734 44.8578 82.9628 44.8889C83.1105 44.9473 83.2582 45.0056 83.4059 45.0678C83.542 45.1222 83.678 45.1805 83.8102 45.2388C83.9657 45.3049 84.1173 45.371 84.2689 45.4409C84.4127 45.507 84.5526 45.5731 84.6926 45.6392C84.7003 45.6431 84.712 45.6469 84.7237 45.6547C84.8753 45.7247 85.0269 45.7985 85.1746 45.8763C85.2912 45.9346 85.4078 45.9929 85.5205 46.0551C85.6294 46.1134 85.7382 46.1717 85.8471 46.23C85.9948 46.3078 86.1386 46.3894 86.2863 46.471C86.3174 46.4866 86.3446 46.506 86.3757 46.5216C86.4457 46.5604 86.5157 46.5993 86.5856 46.6421C86.5895 46.6421 86.5934 46.646 86.6012 46.6498C86.6167 46.6576 86.6323 46.6693 86.6478 46.677C86.7994 46.7665 86.9471 46.8559 87.0948 46.9492C87.1687 46.9919 87.2426 47.0386 87.3125 47.0852C87.3359 47.1008 87.3592 47.1163 87.3864 47.1318C87.4991 47.2018 87.6118 47.2757 87.7207 47.3495C87.7518 47.369 87.7868 47.3923 87.8179 47.4117C87.9384 47.4934 88.0589 47.575 88.1794 47.6566C88.2882 47.7305 88.3971 47.8043 88.502 47.8821C88.5564 47.9209 88.6147 47.9598 88.6692 48.0026C88.7741 48.0803 88.8791 48.1581 88.984 48.2358L88.9918 48.2475Z" stroke="#E6E6E6" stroke-miterlimit="10"/>
<path d="M94.1501 53.4096C91.5302 56.9159 88.0278 59.7224 83.9735 61.5028C81.062 62.7816 77.8629 63.528 74.5004 63.6213C74.2594 63.629 74.0145 63.6329 73.7735 63.6329C70.9981 63.6329 68.3276 63.1898 65.8243 62.3657C63.0605 61.4561 60.5066 60.0878 58.252 58.3464C56.4173 56.9314 54.7808 55.2677 53.3892 53.4096C54.8507 51.4505 56.5922 49.7091 58.5474 48.2475C62.7961 45.0716 68.0672 43.1902 73.7735 43.1902C73.9018 43.1902 74.034 43.1902 74.1623 43.1902C74.2089 43.1902 74.2594 43.1902 74.3061 43.1902C74.3139 43.1902 74.3255 43.1902 74.3333 43.1902C74.4732 43.1902 74.6132 43.198 74.7531 43.2019C74.9164 43.2058 75.0796 43.2175 75.2429 43.2252C75.3712 43.233 75.4994 43.2408 75.6277 43.2486C75.6744 43.2486 75.721 43.2563 75.7677 43.2602C75.8959 43.268 76.0242 43.2797 76.1486 43.2913C76.3313 43.3069 76.5101 43.3263 76.6889 43.3457C76.8289 43.3613 76.9649 43.3768 77.101 43.3963C77.2798 43.4196 77.4586 43.4468 77.6374 43.474C77.6374 43.474 77.6763 43.4779 77.6957 43.4818C77.7812 43.4934 77.8667 43.509 77.9523 43.5245C78.3293 43.5867 78.6986 43.6567 79.0679 43.7345C79.1612 43.7539 79.2545 43.7733 79.3516 43.7966C79.5382 43.8394 79.7287 43.8822 79.9153 43.9288C80.0086 43.9521 80.1019 43.9755 80.1952 43.9988C80.7588 44.1465 81.3147 44.3098 81.8628 44.4963C81.9483 44.5235 82.0299 44.5546 82.1154 44.5819C82.3098 44.6479 82.508 44.7218 82.7024 44.7918C82.7879 44.8229 82.8734 44.8578 82.9628 44.8889C83.1105 44.9473 83.2583 45.0056 83.406 45.0678C83.542 45.1222 83.6781 45.1805 83.8102 45.2388C83.9657 45.3049 84.1173 45.371 84.2689 45.4409C84.4128 45.507 84.5527 45.5731 84.6926 45.6392C84.7004 45.6431 84.7121 45.6469 84.7237 45.6547C84.8753 45.7247 85.0269 45.7985 85.1746 45.8763C85.2913 45.9346 85.4079 45.9929 85.5206 46.0551C85.6294 46.1134 85.7383 46.1717 85.8471 46.23C85.9948 46.3078 86.1387 46.3894 86.2864 46.471C86.3175 46.4866 86.3447 46.506 86.3758 46.5216C86.4458 46.5604 86.5157 46.5993 86.5857 46.6421C86.5896 46.6421 86.5935 46.646 86.6012 46.6498C86.6168 46.6576 86.6323 46.6693 86.6479 46.677C86.7995 46.7665 86.9472 46.8559 87.0949 46.9492C87.1688 46.9919 87.2426 47.0386 87.3126 47.0852C87.3359 47.1008 87.3592 47.1163 87.3864 47.1318C87.4992 47.2018 87.6119 47.2757 87.7207 47.3495C87.7518 47.369 87.7868 47.3923 87.8179 47.4117C87.9384 47.4934 88.0589 47.575 88.1794 47.6566C88.2883 47.7305 88.3971 47.8043 88.5021 47.8821C88.5565 47.9209 88.6148 47.9598 88.6692 48.0026C88.7742 48.0803 88.8791 48.1581 88.9841 48.2358C89.0813 48.3097 89.1823 48.3835 89.2795 48.4613C89.3456 48.5118 89.4117 48.5623 89.4778 48.6168C89.505 48.6362 89.5283 48.6595 89.5555 48.6789C89.6332 48.7411 89.711 48.8033 89.7887 48.8655C89.882 48.9394 89.9714 49.0132 90.0608 49.0871C90.2163 49.2193 90.3718 49.3514 90.5273 49.4875C90.5662 49.5186 90.6011 49.5536 90.64 49.5847C90.7022 49.6391 90.7605 49.6935 90.8188 49.7479C90.9043 49.8257 90.986 49.9034 91.0715 49.9812C91.0793 49.985 91.0832 49.9928 91.0909 50.0006C91.2231 50.1211 91.3514 50.2455 91.4796 50.3699C91.4913 50.3815 91.503 50.3932 91.5146 50.4049C91.6274 50.5137 91.7401 50.6225 91.8489 50.7353C91.88 50.7664 91.915 50.8013 91.9422 50.8324C92.0394 50.9296 92.1327 51.0268 92.2221 51.124C92.3931 51.3067 92.5642 51.4894 92.7274 51.6721C92.8324 51.7887 92.9373 51.9053 93.0345 52.0258C93.0656 52.0608 93.0967 52.0958 93.1239 52.1308C93.2017 52.2202 93.2755 52.3096 93.3494 52.399C93.4116 52.4728 93.4738 52.5506 93.536 52.6283C93.5671 52.6672 93.5982 52.7022 93.6254 52.7411C93.7031 52.8382 93.7809 52.9354 93.8547 53.0326C93.948 53.1531 94.0413 53.2775 94.1346 53.4019L94.1501 53.4096Z" stroke="#E6E6E6" stroke-miterlimit="10"/>
<path d="M97.135 58.5757C95.9067 61.4367 94.1652 64.0255 92.0312 66.2257C89.5628 68.7757 86.5619 70.8087 83.2073 72.1497C80.5212 73.2265 77.6136 73.8523 74.5699 73.9456C74.3056 73.9534 74.0374 73.9573 73.7731 73.9573C70.8227 73.9573 67.9889 73.4558 65.3534 72.5268C61.8783 71.3101 58.753 69.3588 56.1564 66.8593C53.7269 64.527 51.76 61.7127 50.4072 58.5718C51.2002 56.7293 52.207 54.9956 53.3926 53.4096C54.8542 51.4505 56.5956 49.7091 58.5509 48.2475C62.7957 45.0716 68.0667 43.1902 73.7731 43.1902C73.9014 43.1902 74.0335 43.1902 74.1618 43.1902C74.2084 43.1902 74.259 43.1902 74.3056 43.1902C74.3134 43.1902 74.3251 43.1902 74.3328 43.1902C74.4728 43.1902 74.6127 43.198 74.7526 43.2019C74.9159 43.2058 75.0792 43.2175 75.2424 43.2252C75.3707 43.233 75.499 43.2408 75.6273 43.2486C75.6739 43.2486 75.7206 43.2563 75.7672 43.2602C75.8955 43.268 76.0238 43.2797 76.1481 43.2913C76.3308 43.3069 76.5096 43.3263 76.6885 43.3457C76.8284 43.3613 76.9644 43.3768 77.1005 43.3963C77.2793 43.4196 77.4581 43.4468 77.6369 43.474C77.6369 43.474 77.6758 43.4779 77.6952 43.4818C77.7808 43.4934 77.8663 43.509 77.9518 43.5245C78.3288 43.5867 78.6981 43.6567 79.0674 43.7345C79.1607 43.7539 79.254 43.7733 79.3512 43.7966C79.5378 43.8394 79.7282 43.8822 79.9148 43.9288C80.0081 43.9521 80.1014 43.9755 80.1947 43.9988C80.7583 44.1465 81.3142 44.3098 81.8623 44.4963C81.9478 44.5235 82.0294 44.5546 82.115 44.5819C82.3093 44.6479 82.5076 44.7218 82.7019 44.7918C82.7874 44.8229 82.873 44.8578 82.9624 44.8889C83.1101 44.9473 83.2578 45.0056 83.4055 45.0678C83.5416 45.1222 83.6776 45.1805 83.8098 45.2388C83.9653 45.3049 84.1169 45.371 84.2685 45.4409C84.4123 45.507 84.5522 45.5731 84.6922 45.6392C84.6999 45.6431 84.7116 45.6469 84.7233 45.6547C84.8749 45.7247 85.0265 45.7985 85.1742 45.8763C85.2908 45.9346 85.4074 45.9929 85.5201 46.0551C85.629 46.1134 85.7378 46.1717 85.8467 46.23C85.9944 46.3078 86.1382 46.3894 86.2859 46.471C86.317 46.4866 86.3442 46.506 86.3753 46.5216C86.4453 46.5604 86.5153 46.5993 86.5852 46.6421C86.5891 46.6421 86.593 46.646 86.6008 46.6498C86.6163 46.6576 86.6319 46.6693 86.6474 46.677C86.799 46.7665 86.9467 46.8559 87.0944 46.9492C87.1683 46.9919 87.2422 47.0386 87.3121 47.0852C87.3354 47.1008 87.3588 47.1163 87.386 47.1318C87.4987 47.2018 87.6114 47.2757 87.7203 47.3495C87.7514 47.369 87.7864 47.3923 87.8175 47.4117C87.938 47.4934 88.0585 47.575 88.179 47.6566C88.2878 47.7305 88.3966 47.8043 88.5016 47.8821C88.556 47.9209 88.6143 47.9598 88.6688 48.0026C88.7737 48.0803 88.8787 48.1581 88.9836 48.2358C89.0808 48.3097 89.1819 48.3835 89.279 48.4613C89.3451 48.5118 89.4112 48.5623 89.4773 48.6168C89.5045 48.6362 89.5278 48.6595 89.555 48.6789C89.6328 48.7411 89.7105 48.8033 89.7883 48.8655C89.8816 48.9394 89.971 49.0132 90.0604 49.0871C90.2159 49.2193 90.3713 49.3514 90.5268 49.4875C90.5657 49.5186 90.6007 49.5536 90.6396 49.5847C90.7017 49.6391 90.7601 49.6935 90.8184 49.7479C90.9039 49.8257 90.9855 49.9034 91.071 49.9812C91.0788 49.985 91.0827 49.9928 91.0905 50.0006C91.2226 50.1211 91.3509 50.2455 91.4792 50.3699C91.4908 50.3815 91.5025 50.3932 91.5142 50.4049C91.6269 50.5137 91.7396 50.6225 91.8485 50.7353C91.8796 50.7664 91.9145 50.8013 91.9418 50.8324C92.0389 50.9296 92.1322 51.0268 92.2216 51.124C92.3927 51.3067 92.5637 51.4894 92.727 51.6721C92.8319 51.7887 92.9369 51.9053 93.0341 52.0258C93.0652 52.0608 93.0963 52.0958 93.1235 52.1308C93.2012 52.2202 93.2751 52.3096 93.3489 52.399C93.4111 52.4728 93.4733 52.5506 93.5355 52.6283C93.5666 52.6672 93.5977 52.7022 93.6249 52.7411C93.7027 52.8382 93.7804 52.9354 93.8543 53.0326C93.9475 53.1531 94.0408 53.2775 94.1341 53.4019C94.6356 54.0744 95.1059 54.7702 95.5413 55.4932C96.136 56.4766 96.6647 57.5028 97.1195 58.564L97.135 58.5757Z" stroke="#E6E6E6" stroke-miterlimit="10"/>
<path d="M98.7288 63.7379C97.8581 68.2315 95.8018 72.3014 92.898 75.6132C90.9972 77.7823 88.7349 79.6209 86.2082 81.0436C83.9925 82.2875 81.5708 83.2127 79.0052 83.7491C77.3182 84.1028 75.569 84.2894 73.777 84.2894C72.5914 84.2894 71.4213 84.2078 70.2746 84.0523C65.8277 83.4381 61.7423 81.6733 58.341 79.0689C53.4975 75.3606 50.0263 69.9535 48.8174 63.7379C49.1672 61.942 49.7037 60.2122 50.4072 58.5757C51.2002 56.7332 52.207 54.9995 53.3926 53.4135C54.8542 51.4544 56.5956 49.7129 58.5509 48.2514C62.7957 45.0716 68.0667 43.1902 73.7731 43.1902C73.9014 43.1902 74.0335 43.1902 74.1618 43.1902C74.2085 43.1902 74.259 43.1902 74.3056 43.1902C74.3134 43.1902 74.3251 43.1902 74.3328 43.1902C74.4728 43.1902 74.6127 43.198 74.7527 43.2019C74.9159 43.2058 75.0792 43.2175 75.2424 43.2252C75.3707 43.233 75.499 43.2408 75.6273 43.2486C75.6739 43.2486 75.7206 43.2563 75.7672 43.2602C75.8955 43.268 76.0238 43.2797 76.1482 43.2913C76.3309 43.3069 76.5097 43.3263 76.6885 43.3457C76.8284 43.3613 76.9645 43.3768 77.1005 43.3963C77.2793 43.4196 77.4581 43.4468 77.6369 43.474C77.6369 43.474 77.6758 43.4779 77.6953 43.4818C77.7808 43.4934 77.8663 43.509 77.9518 43.5245C78.3289 43.5867 78.6981 43.6567 79.0674 43.7345C79.1607 43.7539 79.254 43.7733 79.3512 43.7966C79.5378 43.8394 79.7283 43.8822 79.9148 43.9288C80.0081 43.9521 80.1014 43.9755 80.1947 43.9988C80.7584 44.1465 81.3142 44.3098 81.8623 44.4963C81.9478 44.5235 82.0295 44.5546 82.115 44.5819C82.3093 44.6479 82.5076 44.7218 82.7019 44.7918C82.7875 44.8229 82.873 44.8578 82.9624 44.8889C83.1101 44.9473 83.2578 45.0056 83.4055 45.0678C83.5416 45.1222 83.6776 45.1805 83.8098 45.2388C83.9653 45.3049 84.1169 45.371 84.2685 45.4409C84.4123 45.507 84.5522 45.5731 84.6922 45.6392C84.7 45.6431 84.7116 45.6469 84.7233 45.6547C84.8749 45.7247 85.0265 45.7985 85.1742 45.8763C85.2908 45.9346 85.4074 45.9929 85.5202 46.0551C85.629 46.1134 85.7378 46.1717 85.8467 46.23C85.9944 46.3078 86.1382 46.3894 86.2859 46.471C86.317 46.4866 86.3442 46.506 86.3753 46.5216C86.4453 46.5604 86.5153 46.5993 86.5852 46.6421C86.5891 46.6421 86.593 46.646 86.6008 46.6498C86.6163 46.6576 86.6319 46.6693 86.6474 46.677C86.799 46.7665 86.9468 46.8559 87.0945 46.9492C87.1683 46.9919 87.2422 47.0386 87.3121 47.0852C87.3355 47.1008 87.3588 47.1163 87.386 47.1318C87.4987 47.2018 87.6115 47.2757 87.7203 47.3495C87.7514 47.369 87.7864 47.3923 87.8175 47.4117C87.938 47.4934 88.0585 47.575 88.179 47.6566C88.2878 47.7305 88.3967 47.8043 88.5016 47.8821C88.556 47.9209 88.6144 47.9598 88.6688 48.0026C88.7737 48.0803 88.8787 48.1581 88.9836 48.2358C89.0808 48.3097 89.1819 48.3835 89.2791 48.4613C89.3451 48.5118 89.4112 48.5623 89.4773 48.6168C89.5045 48.6362 89.5278 48.6595 89.5551 48.6789C89.6328 48.7411 89.7105 48.8033 89.7883 48.8655C89.8816 48.9394 89.971 49.0132 90.0604 49.0871C90.2159 49.2193 90.3714 49.3514 90.5268 49.4875C90.5657 49.5186 90.6007 49.5536 90.6396 49.5847C90.7018 49.6391 90.7601 49.6935 90.8184 49.7479C90.9039 49.8257 90.9855 49.9034 91.0711 49.9812C91.0788 49.985 91.0827 49.9928 91.0905 50.0006C91.2226 50.1211 91.3509 50.2455 91.4792 50.3699C91.4909 50.3815 91.5025 50.3932 91.5142 50.4049C91.6269 50.5137 91.7396 50.6225 91.8485 50.7353C91.8796 50.7664 91.9146 50.8013 91.9418 50.8324C92.039 50.9296 92.1323 51.0268 92.2217 51.124C92.3927 51.3067 92.5637 51.4894 92.727 51.6721C92.8319 51.7887 92.9369 51.9053 93.0341 52.0258C93.0652 52.0608 93.0963 52.0958 93.1235 52.1308C93.2012 52.2202 93.2751 52.3096 93.3489 52.399C93.4111 52.4728 93.4733 52.5506 93.5355 52.6283C93.5666 52.6672 93.5977 52.7022 93.6249 52.7411C93.7027 52.8382 93.7804 52.9354 93.8543 53.0326C93.9476 53.1531 94.0409 53.2775 94.1341 53.4019C94.6356 54.0744 95.1059 54.7702 95.5413 55.4932C96.136 56.4766 96.6647 57.5028 97.1195 58.564C97.8231 60.2044 98.3634 61.9303 98.7094 63.7262L98.7288 63.7379Z" stroke="#E6E6E6" stroke-miterlimit="10"/>
<path d="M12.9902 118.24C12.3684 118.24 12.15 117.669 12.3348 117.198L16.4521 106.897C16.6537 106.393 17.0234 106.073 17.6116 106.073C18.1998 106.073 18.6031 106.376 18.8048 106.897L22.922 117.148C23.1236 117.635 22.8884 118.24 22.233 118.24C21.8296 118.24 21.5608 118.005 21.4095 117.602L20.2332 114.543H14.9564L13.7633 117.635C13.612 118.022 13.3767 118.24 12.9902 118.24ZM15.4438 113.266H19.7458L17.9309 108.56C17.8133 108.258 17.7124 107.956 17.5948 107.67C17.494 107.956 17.3763 108.258 17.2587 108.56L15.4438 113.266ZM24.886 118.24C24.4491 118.24 24.1634 117.938 24.1634 117.4V110.577C24.1634 110.039 24.4491 109.737 24.886 109.737C25.323 109.737 25.6087 110.039 25.6087 110.577V111.283C26.012 110.359 26.9699 109.686 27.8773 109.686C28.1126 109.686 28.2975 109.737 28.4487 109.838C28.6168 109.955 28.7176 110.14 28.7176 110.375C28.7176 110.644 28.6168 110.846 28.4319 110.964C28.2975 111.064 28.1126 111.115 27.8941 111.115C26.4993 111.115 25.6087 111.955 25.6087 113.753V117.4C25.6087 117.938 25.323 118.24 24.886 118.24ZM32.9686 118.291C30.7839 118.291 28.9522 116.845 28.9522 113.972C28.9522 111.417 30.7335 109.67 33.0526 109.67C34.5146 109.67 35.691 110.359 36.2456 111.485C36.6657 112.358 36.3128 112.863 35.7414 112.863C35.3045 112.863 35.1196 112.594 34.9852 112.19C34.7163 111.384 34.0273 110.812 33.019 110.812C31.4729 110.812 30.4478 112.174 30.4478 113.972C30.4478 115.904 31.4897 117.165 33.0526 117.165C34.0777 117.165 34.8003 116.66 35.086 115.77C35.2036 115.383 35.4221 115.114 35.8422 115.114C36.38 115.114 36.6993 115.585 36.3296 116.425C35.8422 117.551 34.6995 118.291 32.9686 118.291ZM38.7709 118.24C38.334 118.24 38.0483 117.938 38.0483 117.4V106.914C38.0483 106.376 38.334 106.073 38.7709 106.073C39.2078 106.073 39.4935 106.376 39.4935 106.914V110.577V111.031C39.9304 110.258 40.8883 109.67 41.9806 109.67C43.846 109.67 44.9719 110.846 44.9719 112.93V117.4C44.9719 117.938 44.6862 118.24 44.2493 118.24C43.8124 118.24 43.5267 117.938 43.5267 117.4V113.115C43.5267 111.585 43.0057 110.812 41.695 110.812C40.3169 110.812 39.4935 111.888 39.4935 113.165V117.4C39.4935 117.938 39.2078 118.24 38.7709 118.24ZM47.7231 118.24C47.2862 118.24 47.0005 117.988 47.0005 117.4V110.527C47.0005 109.938 47.2862 109.686 47.7231 109.686C48.16 109.686 48.4457 109.938 48.4457 110.527V117.4C48.4457 117.988 48.16 118.24 47.7231 118.24ZM46.6476 107.552C46.6476 106.964 47.1181 106.493 47.7063 106.493C48.2944 106.493 48.765 106.964 48.765 107.552C48.765 108.14 48.2944 108.611 47.7063 108.611C47.1181 108.611 46.6476 108.14 46.6476 107.552ZM53.3598 118.24C52.8725 118.24 52.5532 117.988 52.3347 117.4L49.814 110.812C49.5955 110.241 49.9148 109.737 50.4694 109.737C50.8055 109.737 51.0576 109.938 51.192 110.325L53.1246 115.803L53.4103 116.593C53.4775 116.375 53.5615 116.14 53.6791 115.803L55.5445 110.325C55.6789 109.938 55.931 109.737 56.2839 109.737C56.8049 109.737 57.0905 110.207 56.8889 110.745L54.3681 117.4C54.1497 117.988 53.8472 118.24 53.3598 118.24ZM58.9489 118.24C58.512 118.24 58.2263 117.988 58.2263 117.4V110.527C58.2263 109.938 58.512 109.686 58.9489 109.686C59.3859 109.686 59.6715 109.938 59.6715 110.527V117.4C59.6715 117.988 59.3859 118.24 58.9489 118.24ZM57.8734 107.552C57.8734 106.964 58.344 106.493 58.9321 106.493C59.5203 106.493 59.9908 106.964 59.9908 107.552C59.9908 108.14 59.5203 108.611 58.9321 108.611C58.344 108.611 57.8734 108.14 57.8734 107.552ZM62.5187 118.24C62.0817 118.24 61.7961 117.938 61.7961 117.4V110.577C61.7961 110.039 62.0817 109.737 62.5187 109.737C62.9556 109.737 63.2245 110.039 63.2245 110.577V111.031C63.6614 110.325 64.6361 109.67 65.7284 109.67C67.5938 109.67 68.7197 110.846 68.7197 112.93V117.4C68.7197 117.938 68.434 118.24 67.9971 118.24C67.5602 118.24 67.2745 117.938 67.2745 117.4V113.115C67.2745 111.585 66.7703 110.812 65.4932 110.812C64.0815 110.812 63.2413 111.888 63.2413 113.165V117.4C63.2413 117.938 62.9556 118.24 62.5187 118.24ZM74.1432 121.786C72.2611 121.786 71.1184 120.862 70.7823 119.803C70.5302 119.013 70.9167 118.61 71.3872 118.61C71.7233 118.61 71.9922 118.812 72.1098 119.316C72.2947 120.072 73.0005 120.66 74.1601 120.66C75.6893 120.66 76.5968 119.87 76.5968 118.139V117.148V116.61C76.1766 117.434 75.1347 117.954 73.9416 117.954C71.7065 117.954 70.2613 116.341 70.2613 113.837C70.2613 111.35 71.8746 109.67 73.992 109.67C75.3364 109.67 76.1766 110.359 76.5968 111.031V110.577C76.5968 110.039 76.8825 109.737 77.3194 109.737C77.7563 109.737 78.042 110.039 78.042 110.577V117.635C78.042 120.408 76.7312 121.786 74.1432 121.786ZM71.7569 113.837C71.7569 115.652 72.7652 116.829 74.2273 116.829C75.6893 116.829 76.6976 115.635 76.6976 113.837C76.6976 112.073 75.6893 110.812 74.2273 110.812C72.7652 110.812 71.7569 112.039 71.7569 113.837ZM80.2948 119.87C79.841 119.87 79.589 119.635 79.589 119.265C79.589 118.896 79.841 118.643 80.2948 118.643H87.0504C87.5041 118.643 87.7562 118.879 87.7562 119.248C87.7562 119.618 87.5041 119.87 87.0504 119.87H80.2948ZM93.5996 118.291C90.1546 118.291 88.0203 115.652 88.0203 112.224C88.0203 108.174 90.6755 106.006 93.734 106.006C95.7674 106.006 97.4647 106.964 98.1705 108.443C98.6579 109.468 98.221 110.023 97.6328 110.023C97.2463 110.023 97.0278 109.854 96.7589 109.149C96.3052 108.006 95.1625 107.3 93.734 107.3C91.3813 107.3 89.6336 108.964 89.6336 112.224C89.6336 114.98 91.2637 117.013 93.65 117.013C95.801 117.013 97.1959 115.787 97.1959 113.4V113.182H94.0869C93.5996 113.182 93.3307 112.947 93.3307 112.543C93.3307 112.14 93.5996 111.888 94.0869 111.888H97.7336C98.2882 111.888 98.6075 112.207 98.6075 112.762V117.501C98.6075 117.971 98.3554 118.24 97.9689 118.24C97.5824 118.24 97.3303 117.971 97.3303 117.501V116.408C96.6917 117.467 95.2633 118.291 93.5996 118.291ZM102.912 118.291C101.366 118.291 100.122 117.349 100.122 115.82C100.122 114.257 101.366 113.518 102.811 113.299L104.542 113.031C105.164 112.93 105.365 112.711 105.365 112.224C105.365 111.333 104.676 110.812 103.735 110.812C102.693 110.812 102.088 111.266 101.887 112.005C101.786 112.409 101.568 112.678 101.147 112.678C100.677 112.678 100.24 112.308 100.593 111.468C101.013 110.443 102.072 109.67 103.618 109.67C105.634 109.67 106.777 110.863 106.777 112.728V117.4C106.777 117.938 106.508 118.24 106.088 118.24C105.668 118.24 105.399 117.938 105.399 117.4V116.946C104.996 117.786 104.122 118.291 102.912 118.291ZM101.618 115.82C101.618 116.66 102.29 117.165 103.114 117.165C104.408 117.165 105.365 116.291 105.365 114.98V113.787C105.265 113.938 104.962 114.056 104.475 114.14L103.298 114.358C102.341 114.543 101.618 114.963 101.618 115.82ZM109.53 118.24C109.093 118.24 108.807 117.938 108.807 117.4V110.577C108.807 110.039 109.093 109.737 109.53 109.737C109.967 109.737 110.253 110.039 110.253 110.577V111.283C110.656 110.359 111.614 109.686 112.521 109.686C112.756 109.686 112.941 109.737 113.093 109.838C113.261 109.955 113.361 110.14 113.361 110.375C113.361 110.644 113.261 110.846 113.076 110.964C112.941 111.064 112.756 111.115 112.538 111.115C111.143 111.115 110.253 111.955 110.253 113.753V117.4C110.253 117.938 109.967 118.24 109.53 118.24ZM117.393 118.291C115.276 118.291 113.646 116.745 113.646 113.988C113.646 111.535 115.125 109.67 117.41 109.67C118.771 109.67 119.662 110.409 120.015 111.031V110.375V106.914C120.015 106.376 120.3 106.073 120.737 106.073C121.174 106.073 121.46 106.376 121.46 106.914V117.4C121.46 117.938 121.174 118.24 120.737 118.24C120.3 118.24 120.015 117.938 120.015 117.4V116.913C119.578 117.669 118.603 118.291 117.393 118.291ZM115.158 113.988C115.158 115.887 116.166 117.165 117.628 117.165C119.091 117.165 120.116 115.921 120.116 113.972C120.116 112.039 119.107 110.812 117.628 110.812C116.183 110.812 115.158 112.09 115.158 113.988ZM127.039 118.291C124.619 118.291 123.107 116.761 123.107 113.955C123.107 111.468 124.737 109.67 126.939 109.67C129.594 109.67 130.484 111.669 130.652 113.098C130.77 114.089 130.384 114.257 129.795 114.257H124.552C124.586 116.106 125.661 117.165 127.056 117.165C127.913 117.165 128.703 116.879 129.056 115.988C129.207 115.602 129.375 115.333 129.795 115.333C130.333 115.333 130.652 115.803 130.283 116.593C129.846 117.518 128.77 118.291 127.039 118.291ZM124.603 113.232H129.157C129.157 111.787 128.367 110.812 126.939 110.812C125.594 110.812 124.703 111.871 124.603 113.232ZM132.991 118.24C132.554 118.24 132.268 117.938 132.268 117.4V110.577C132.268 110.039 132.554 109.737 132.991 109.737C133.427 109.737 133.696 110.039 133.696 110.577V111.031C134.133 110.325 135.108 109.67 136.2 109.67C138.066 109.67 139.192 110.846 139.192 112.93V117.4C139.192 117.938 138.906 118.24 138.469 118.24C138.032 118.24 137.746 117.938 137.746 117.4V113.115C137.746 111.585 137.242 110.812 135.965 110.812C134.553 110.812 133.713 111.888 133.713 113.165V117.4C133.713 117.938 133.427 118.24 132.991 118.24Z" fill="#E6E6E6"/>
<defs>
<filter id="filter0_d_1806_12039" x="1.72726" y="0.874628" width="149.993" height="37.3404" filterUnits="userSpaceOnUse" color-interpolation-filters="sRGB">
<feFlood flood-opacity="0" result="BackgroundImageFix"/>
<feColorMatrix in="SourceAlpha" type="matrix" values="0 0 0 0 0 0 0 0 0 0 0 0 0 0 0 0 0 0 127 0" result="hardAlpha"/>
<feOffset/>
<feGaussianBlur stdDeviation="1.79848"/>
<feComposite in2="hardAlpha" operator="out"/>
<feColorMatrix type="matrix" values="0 0 0 0 0 0 0 0 0 0 0 0 0 0 0 0 0 0 0.25 0"/>
<feBlend mode="normal" in2="BackgroundImageFix" result="effect1_dropShadow_1806_12039"/>
<feBlend mode="normal" in="SourceGraphic" in2="effect1_dropShadow_1806_12039" result="shape"/>
</filter>
<filter id="filter1_d_1806_12039" x="0.000717163" y="22.6306" width="153.446" height="109.602" filterUnits="userSpaceOnUse" color-interpolation-filters="sRGB">
<feFlood flood-opacity="0" result="BackgroundImageFix"/>
<feColorMatrix in="SourceAlpha" type="matrix" values="0 0 0 0 0 0 0 0 0 0 0 0 0 0 0 0 0 0 127 0" result="hardAlpha"/>
<feOffset/>
<feGaussianBlur stdDeviation="2.66175"/>
<feComposite in2="hardAlpha" operator="out"/>
<feColorMatrix type="matrix" values="0 0 0 0 0 0 0 0 0 0 0 0 0 0 0 0 0 0 0.25 0"/>
<feBlend mode="normal" in2="BackgroundImageFix" result="effect1_dropShadow_1806_12039"/>
<feBlend mode="normal" in="SourceGraphic" in2="effect1_dropShadow_1806_12039" result="shape"/>
</filter>
</defs>
</svg>
