<svg width="154" height="132" viewBox="0 0 154 132" fill="none" xmlns="http://www.w3.org/2000/svg">
<g filter="url(#filter0_d_1806_12039)">
<path d="M5.52051 14.0824V31.6256V33.8513H148.32V23.4736C148.32 15.9622 141.372 13.7525 137.899 13.5866C116.493 13.5042 69.1746 13.3395 69.1746 13.3395C58.2964 13.7537 58.9561 5.27811 49.1771 3.95345C38.9114 3.95344 23.5465 3.70477 15.6601 3.70477C7.77375 3.70477 5.61439 10.6232 5.52051 14.0824Z" fill="#15D076"/>
</g>
<g filter="url(#filter1_d_1806_12039)">
<rect x="5.52051" y="27.1873" width="142.799" height="98.9548" rx="5.75514" fill="#BAECB7"/>
</g>
<path d="M99.3917 67.8456C99.3917 72.6424 98.0662 77.1282 95.7533 80.9571C94.5211 82.9978 93.0128 84.8559 91.2753 86.4691C89.9147 87.7363 88.4104 88.8558 86.7972 89.8004C85.3862 90.6284 83.8857 91.3242 82.3192 91.8684C80.8809 92.3698 79.3844 92.743 77.8412 92.9801C76.5778 93.1745 75.2873 93.2717 73.9695 93.2717C59.929 93.2678 48.5474 81.8861 48.5474 67.8456C48.5474 66.178 48.7067 64.5493 49.0138 62.9711C49.3637 61.1752 49.9001 59.4454 50.6037 57.8089C51.3967 55.9664 52.4034 54.2327 53.589 52.6467C55.0506 50.6876 56.7921 48.9461 58.7473 47.4845C62.9921 44.3048 68.2631 42.4234 73.9695 42.4234C74.0978 42.4234 74.23 42.4234 74.3582 42.4234C74.4049 42.4234 74.4554 42.4234 74.5021 42.4234C74.5098 42.4234 74.5215 42.4234 74.5293 42.4234C74.6692 42.4234 74.8092 42.4312 74.9491 42.4351C75.1124 42.439 75.2756 42.4506 75.4389 42.4584C75.5672 42.4662 75.6954 42.474 75.8237 42.4817C75.8704 42.4817 75.917 42.4895 75.9637 42.4934C76.0919 42.5012 76.2202 42.5128 76.3446 42.5245C76.5273 42.54 76.7061 42.5595 76.8849 42.5789C77.0249 42.5945 77.1609 42.61 77.297 42.6295C77.4758 42.6528 77.6546 42.68 77.8334 42.7072C77.8334 42.7072 77.8723 42.7111 77.8917 42.715C77.9772 42.7266 78.0627 42.7422 78.1483 42.7577C78.5253 42.8199 78.8946 42.8899 79.2639 42.9676C79.3572 42.9871 79.4505 43.0065 79.5476 43.0298C79.7342 43.0726 79.9247 43.1153 80.1113 43.162C80.2046 43.1853 80.2979 43.2086 80.3912 43.232C80.9548 43.3797 81.5107 43.5429 82.0588 43.7295C82.1443 43.7567 82.2259 43.7878 82.3114 43.815C82.5058 43.8811 82.704 43.955 82.8984 44.025C82.9839 44.056 83.0694 44.091 83.1588 44.1221C83.3065 44.1804 83.4543 44.2387 83.602 44.3009C83.738 44.3554 83.8741 44.4137 84.0062 44.472C84.1617 44.5381 84.3133 44.6041 84.4649 44.6741C84.6087 44.7402 84.7487 44.8063 84.8886 44.8724C84.8964 44.8762 84.9081 44.8801 84.9197 44.8879C85.0713 44.9579 85.2229 45.0317 85.3706 45.1095C85.4873 45.1678 85.6039 45.2261 85.7166 45.2883C85.8254 45.3466 85.9343 45.4049 86.0431 45.4632C86.1908 45.541 86.3347 45.6226 86.4824 45.7042C86.5135 45.7198 86.5407 45.7392 86.5718 45.7547C86.6417 45.7936 86.7117 45.8325 86.7817 45.8752C86.7856 45.8752 86.7895 45.8791 86.7972 45.883C86.8128 45.8908 86.8283 45.9025 86.8439 45.9102C86.9955 45.9996 87.1432 46.089 87.2909 46.1823C87.3648 46.2251 87.4386 46.2717 87.5086 46.3184C87.5319 46.3339 87.5552 46.3495 87.5824 46.365C87.6952 46.435 87.8079 46.5089 87.9167 46.5827C87.9478 46.6022 87.9828 46.6255 88.0139 46.6449C88.1344 46.7265 88.2549 46.8082 88.3754 46.8898C88.4843 46.9637 88.5931 47.0375 88.6981 47.1153C88.7525 47.1541 88.8108 47.193 88.8652 47.2358C88.9702 47.3135 89.0751 47.3912 89.1801 47.469C89.2773 47.5428 89.3783 47.6167 89.4755 47.6945C89.5416 47.745 89.6077 47.7955 89.6737 47.8499C89.701 47.8694 89.7243 47.8927 89.7515 47.9121C89.8292 47.9743 89.907 48.0365 89.9847 48.0987C90.078 48.1726 90.1674 48.2464 90.2568 48.3203C90.4123 48.4525 90.5678 48.5846 90.7233 48.7207C90.7622 48.7518 90.7971 48.7867 90.836 48.8178C90.8982 48.8723 90.9565 48.9267 91.0148 48.9811C91.1003 49.0589 91.182 49.1366 91.2675 49.2143C91.2753 49.2182 91.2791 49.226 91.2869 49.2338C91.4191 49.3543 91.5474 49.4787 91.6756 49.6031C91.6873 49.6147 91.699 49.6264 91.7106 49.638C91.8234 49.7469 91.9361 49.8557 92.0449 49.9685C92.076 49.9995 92.111 50.0345 92.1382 50.0656C92.2354 50.1628 92.3287 50.26 92.4181 50.3572C92.5891 50.5399 92.7602 50.7226 92.9234 50.9053C93.0284 51.0219 93.1333 51.1385 93.2305 51.259C93.2616 51.294 93.2927 51.329 93.3199 51.3639C93.3977 51.4534 93.4715 51.5428 93.5454 51.6322C93.6076 51.706 93.6698 51.7838 93.732 51.8615C93.7631 51.9004 93.7942 51.9354 93.8214 51.9742C93.8991 52.0714 93.9769 52.1686 94.0507 52.2658C94.144 52.3863 94.2373 52.5107 94.3306 52.6351C94.832 53.3075 95.3024 54.0033 95.7377 54.7264C96.3325 55.7098 96.8611 56.736 97.3159 57.7972C98.0195 59.4376 98.5598 61.1635 98.9058 62.9594C99.2129 64.5376 99.3723 66.1663 99.3723 67.8339L99.3917 67.8456Z" stroke="black" stroke-miterlimit="10"/>
<path d="M99.3916 67.8456C99.3916 72.6424 98.0661 77.1282 95.7532 80.9571C94.521 82.9978 93.0127 84.8559 91.2752 86.4691C89.9147 87.7363 88.4103 88.8558 86.7971 89.8004C85.3861 90.6284 83.8856 91.3242 82.3191 91.8684C80.8809 92.3698 79.3843 92.743 77.8411 92.9801C69.2154 91.6624 62.0125 86.0026 58.5373 78.306C57.0991 75.1146 56.2944 71.5773 56.2944 67.8534C56.2944 67.2664 56.3139 66.6833 56.3566 66.108C56.4266 65.0468 56.5665 64.0051 56.7648 62.9827C57.1146 61.1869 57.6511 59.4571 58.3546 57.8206C58.3857 57.7428 58.4207 57.669 58.4557 57.5912C59.2331 55.8303 60.2049 54.1783 61.34 52.6545C61.9736 51.811 62.6539 51.0063 63.3847 50.2444C64.3448 49.2454 65.3866 48.3203 66.4983 47.4923C69.7635 45.0473 73.6352 43.3719 77.845 42.7266C77.845 42.7266 77.8838 42.7305 77.9033 42.7344C77.9888 42.7461 78.0743 42.7616 78.1598 42.7772C78.5369 42.8394 78.9062 42.9093 79.2755 42.9871C79.3687 43.0065 79.462 43.0259 79.5592 43.0493C79.7458 43.092 79.9363 43.1348 80.1229 43.1814C80.2162 43.2047 80.3094 43.2281 80.4027 43.2514C80.9664 43.3991 81.5222 43.5624 82.0703 43.749C82.1559 43.7762 82.2375 43.8073 82.323 43.8345C82.5174 43.9006 82.7156 43.9744 82.91 44.0444C82.9955 44.0755 83.081 44.1105 83.1704 44.1416C83.3181 44.1999 83.4658 44.2582 83.6135 44.3204C83.7496 44.3748 83.8856 44.4331 84.0178 44.4914C84.1733 44.5575 84.3249 44.6236 84.4765 44.6935C84.6203 44.7596 84.7603 44.8257 84.9002 44.8918C84.908 44.8957 84.9196 44.8996 84.9313 44.9073C85.0829 44.9773 85.2345 45.0512 85.3822 45.1289C85.4988 45.1872 85.6154 45.2455 85.7282 45.3077C85.837 45.366 85.9459 45.4243 86.0547 45.4826C86.2024 45.5604 86.3462 45.642 86.4939 45.7236C86.525 45.7392 86.5523 45.7586 86.5834 45.7742C86.6533 45.813 86.7233 45.8519 86.7933 45.8947C86.7971 45.8947 86.801 45.8986 86.8088 45.9025C86.8244 45.9102 86.8399 45.9219 86.8555 45.9297C87.0071 46.0191 87.1548 46.1085 87.3025 46.2018C87.3763 46.2445 87.4502 46.2912 87.5202 46.3378C87.5435 46.3534 87.5668 46.3689 87.594 46.3845C87.7067 46.4544 87.8195 46.5283 87.9283 46.6021C87.9594 46.6216 87.9944 46.6449 88.0255 46.6643C88.146 46.746 88.2665 46.8276 88.387 46.9092C88.4958 46.9831 88.6047 47.0569 88.7096 47.1347C88.7641 47.1736 88.8224 47.2124 88.8768 47.2552C88.9817 47.3329 89.0867 47.4107 89.1917 47.4884C89.2888 47.5623 89.3899 47.6361 89.4871 47.7139C89.5532 47.7644 89.6192 47.8149 89.6853 47.8694C89.7125 47.8888 89.7359 47.9121 89.7631 47.9316C89.8408 47.9938 89.9186 48.0559 89.9963 48.1181C90.0896 48.192 90.179 48.2659 90.2684 48.3397C90.4239 48.4719 90.5794 48.604 90.7349 48.7401C90.7737 48.7712 90.8087 48.8062 90.8476 48.8373C90.9098 48.8917 90.9681 48.9461 91.0264 49.0005C91.1119 49.0783 91.1935 49.156 91.2791 49.2338C91.2868 49.2377 91.2907 49.2454 91.2985 49.2532C91.4307 49.3737 91.5589 49.4981 91.6872 49.6225C91.6989 49.6341 91.7105 49.6458 91.7222 49.6575C91.8349 49.7663 91.9477 49.8752 92.0565 49.9879C92.0876 50.019 92.1226 50.054 92.1498 50.0851C92.247 50.1822 92.3403 50.2794 92.4297 50.3766C92.6007 50.5593 92.7717 50.742 92.935 50.9247C93.04 51.0413 93.1449 51.1579 93.2421 51.2784C93.2732 51.3134 93.3043 51.3484 93.3315 51.3834C93.4092 51.4728 93.4831 51.5622 93.557 51.6516C93.6192 51.7254 93.6813 51.8032 93.7435 51.8809C93.7746 51.9198 93.8057 51.9548 93.8329 51.9937C93.9107 52.0908 93.9884 52.188 94.0623 52.2852C94.1556 52.4057 94.2489 52.5301 94.3422 52.6545C94.8436 53.327 95.314 54.0228 95.7493 54.7458C96.3441 55.7292 96.8727 56.7555 97.3275 57.8167C98.0311 59.4571 98.5714 61.183 98.9174 62.9788C99.2245 64.557 99.3838 66.1858 99.3838 67.8534L99.3916 67.8456Z" stroke="black" stroke-miterlimit="10"/>
<path d="M99.3916 67.8456C99.3916 72.6424 98.0661 77.1282 95.7532 80.9571C94.5209 82.9978 93.0127 84.8559 91.2751 86.4691C89.9146 87.7363 88.4103 88.8558 86.7971 89.8004C85.3861 90.6284 83.8856 91.3242 82.3191 91.8684C77.5689 90.2202 73.4641 87.1999 70.4671 83.2855C67.9443 79.9892 66.2106 76.0553 65.5498 71.7678C65.3515 70.4928 65.2466 69.1828 65.2466 67.8495C65.2466 66.1819 65.406 64.5532 65.713 62.975C65.8024 62.5124 65.9035 62.0537 66.0201 61.6028C66.3505 60.2967 66.782 59.0295 67.3068 57.8128C68.0998 55.9703 69.1066 54.2366 70.2921 52.6506C70.3777 52.5379 70.4593 52.429 70.5448 52.3163C71.9559 50.4932 73.604 48.8684 75.4504 47.4884C77.5184 45.9374 79.8313 44.6974 82.3191 43.8345C82.5134 43.9006 82.7117 43.9744 82.906 44.0444C82.9916 44.0755 83.0771 44.1105 83.1665 44.1416C83.3142 44.1999 83.4619 44.2582 83.6096 44.3204C83.7457 44.3748 83.8817 44.4331 84.0139 44.4914C84.1694 44.5575 84.321 44.6236 84.4726 44.6935C84.6164 44.7596 84.7563 44.8257 84.8963 44.8918C84.9041 44.8957 84.9157 44.8996 84.9274 44.9073C85.079 44.9773 85.2306 45.0512 85.3783 45.1289C85.4949 45.1872 85.6115 45.2455 85.7243 45.3077C85.8331 45.366 85.9419 45.4243 86.0508 45.4826C86.1985 45.5604 86.3423 45.642 86.49 45.7236C86.5211 45.7392 86.5483 45.7586 86.5794 45.7742C86.6494 45.813 86.7194 45.8519 86.7893 45.8947C86.7932 45.8947 86.7971 45.8986 86.8049 45.9025C86.8204 45.9102 86.836 45.9219 86.8515 45.9297C87.0031 46.0191 87.1509 46.1085 87.2986 46.2018C87.3724 46.2445 87.4463 46.2912 87.5162 46.3378C87.5396 46.3534 87.5629 46.3689 87.5901 46.3845C87.7028 46.4544 87.8156 46.5283 87.9244 46.6021C87.9555 46.6216 87.9905 46.6449 88.0216 46.6643C88.1421 46.746 88.2626 46.8276 88.3831 46.9092C88.4919 46.9831 88.6008 47.0569 88.7057 47.1347C88.7601 47.1736 88.8185 47.2124 88.8729 47.2552C88.9778 47.3329 89.0828 47.4107 89.1877 47.4884C89.2849 47.5623 89.386 47.6361 89.4832 47.7139C89.5492 47.7644 89.6153 47.8149 89.6814 47.8694C89.7086 47.8888 89.7319 47.9121 89.7591 47.9316C89.8369 47.9938 89.9146 48.056 89.9924 48.1181C90.0857 48.192 90.1751 48.2659 90.2645 48.3397C90.42 48.4719 90.5755 48.604 90.7309 48.7401C90.7698 48.7712 90.8048 48.8062 90.8437 48.8373C90.9059 48.8917 90.9642 48.9461 91.0225 49.0005C91.108 49.0783 91.1896 49.156 91.2751 49.2338C91.2829 49.2377 91.2868 49.2454 91.2946 49.2532C91.4268 49.3737 91.555 49.4981 91.6833 49.6225C91.695 49.6341 91.7066 49.6458 91.7183 49.6575C91.831 49.7663 91.9437 49.8752 92.0526 49.9879C92.0837 50.019 92.1187 50.054 92.1459 50.0851C92.2431 50.1822 92.3363 50.2794 92.4258 50.3766C92.5968 50.5593 92.7678 50.742 92.9311 50.9247C93.036 51.0413 93.141 51.1579 93.2382 51.2784C93.2693 51.3134 93.3004 51.3484 93.3276 51.3834C93.4053 51.4728 93.4792 51.5622 93.553 51.6516C93.6152 51.7255 93.6774 51.8032 93.7396 51.8809C93.7707 51.9198 93.8018 51.9548 93.829 51.9937C93.9068 52.0908 93.9845 52.188 94.0584 52.2852C94.1517 52.4057 94.245 52.5301 94.3383 52.6545C94.8397 53.327 95.31 54.0228 95.7454 54.7458C96.3401 55.7292 96.8688 56.7555 97.3236 57.8167C98.0272 59.4571 98.5675 61.183 98.9135 62.9788C99.2206 64.557 99.3799 66.1858 99.3799 67.8534L99.3916 67.8456Z" stroke="black" stroke-miterlimit="10"/>
<path d="M99.3916 67.8456C99.3916 72.6424 98.0661 77.1282 95.7532 80.957C94.521 82.9978 93.0127 84.8559 91.2752 86.4691C89.9146 87.7363 88.4103 88.8558 86.7971 89.8004C83.8273 88.0628 81.2423 85.7344 79.1977 82.9823C77.0714 80.1174 75.536 76.7939 74.7663 73.1827C74.397 71.4607 74.2065 69.6764 74.2065 67.8456C74.2065 66.178 74.3659 64.5493 74.673 62.9711C74.6808 62.9322 74.6886 62.8933 74.6963 62.8544C75.0462 61.0974 75.5748 59.4104 76.2629 57.8089C77.0558 55.9664 78.0626 54.2327 79.2482 52.6467C79.4504 52.3785 79.6564 52.1142 79.8663 51.8537C81.1918 50.2172 82.7195 48.7479 84.4065 47.4845C85.1723 46.9131 85.9692 46.3806 86.7971 45.8986C86.8127 45.9063 86.8282 45.918 86.8438 45.9258C86.9954 46.0152 87.1431 46.1046 87.2908 46.1979C87.3647 46.2406 87.4385 46.2873 87.5085 46.3339C87.5318 46.3495 87.5551 46.365 87.5823 46.3806C87.6951 46.4505 87.8078 46.5244 87.9166 46.5983C87.9477 46.6177 87.9827 46.641 88.0138 46.6604C88.1343 46.7421 88.2548 46.8237 88.3753 46.9053C88.4842 46.9792 88.593 47.0531 88.698 47.1308C88.7524 47.1697 88.8107 47.2085 88.8651 47.2513C88.9701 47.329 89.075 47.4068 89.18 47.4845C89.2771 47.5584 89.3782 47.6322 89.4754 47.71C89.5415 47.7605 89.6076 47.8111 89.6736 47.8655C89.7009 47.8849 89.7242 47.9082 89.7514 47.9277C89.8291 47.9899 89.9069 48.0521 89.9846 48.1143C90.0779 48.1881 90.1673 48.262 90.2567 48.3358C90.4122 48.468 90.5677 48.6002 90.7232 48.7362C90.762 48.7673 90.797 48.8023 90.8359 48.8334C90.8981 48.8878 90.9564 48.9422 91.0147 48.9966C91.1002 49.0744 91.1819 49.1521 91.2674 49.2299C91.2752 49.2338 91.279 49.2415 91.2868 49.2493C91.419 49.3698 91.5473 49.4942 91.6755 49.6186C91.6872 49.6303 91.6989 49.6419 91.7105 49.6536C91.8233 49.7624 91.936 49.8713 92.0448 49.984C92.0759 50.0151 92.1109 50.0501 92.1381 50.0812C92.2353 50.1783 92.3286 50.2755 92.418 50.3727C92.589 50.5554 92.7601 50.7381 92.9233 50.9208C93.0283 51.0374 93.1332 51.154 93.2304 51.2745C93.2615 51.3095 93.2926 51.3445 93.3198 51.3795C93.3976 51.4689 93.4714 51.5583 93.5453 51.6477C93.6075 51.7216 93.6697 51.7993 93.7319 51.877C93.763 51.9159 93.7941 51.9509 93.8213 51.9898C93.899 52.087 93.9767 52.1841 94.0506 52.2813C94.1439 52.4018 94.2372 52.5262 94.3305 52.6506C94.8319 53.3231 95.3023 54.0189 95.7376 54.7419C96.3324 55.7254 96.861 56.7516 97.3158 57.8128C98.0194 59.4532 98.5597 61.1791 98.9057 62.9749C99.2128 64.5531 99.3722 66.1819 99.3722 67.8495L99.3916 67.8456Z" stroke="black" stroke-miterlimit="10"/>
<path d="M99.3916 67.8456C99.3916 72.6424 98.066 77.1282 95.7532 80.9571C94.5209 82.9978 93.0127 84.8559 91.2751 86.4691C89.3471 84.6771 87.6989 82.5897 86.4006 80.2807C84.8846 77.583 83.8467 74.5782 83.4036 71.3868C83.2442 70.2323 83.1587 69.0506 83.1587 67.8495C83.1587 66.1819 83.3181 64.5532 83.6252 62.975C83.7729 62.217 83.9517 61.4706 84.1655 60.7398C84.4531 59.7369 84.8069 58.7613 85.215 57.8128C86.008 55.9703 87.0148 54.2366 88.2004 52.6506C89.1216 51.4184 90.1478 50.2755 91.2712 49.2299C91.279 49.2338 91.2829 49.2416 91.2907 49.2493C91.4228 49.3698 91.5511 49.4942 91.6794 49.6186C91.6911 49.6303 91.7027 49.6419 91.7144 49.6536C91.8271 49.7624 91.9398 49.8713 92.0487 49.984C92.0798 50.0151 92.1148 50.0501 92.142 50.0812C92.2391 50.1784 92.3324 50.2755 92.4218 50.3727C92.5929 50.5554 92.7639 50.7381 92.9272 50.9208C93.0321 51.0374 93.1371 51.154 93.2343 51.2745C93.2654 51.3095 93.2965 51.3445 93.3237 51.3795C93.4014 51.4689 93.4753 51.5583 93.5491 51.6477C93.6113 51.7216 93.6735 51.7993 93.7357 51.8771C93.7668 51.9159 93.7979 51.9509 93.8251 51.9898C93.9029 52.087 93.9806 52.1841 94.0545 52.2813C94.1478 52.4018 94.241 52.5262 94.3343 52.6506C94.8358 53.3231 95.3061 54.0189 95.7415 54.7419C96.3362 55.7254 96.8649 56.7516 97.3197 57.8128C98.0233 59.4532 98.5636 61.1791 98.9096 62.975C99.2166 64.5532 99.376 66.1819 99.376 67.8495L99.3916 67.8456Z" stroke="black" stroke-miterlimit="10"/>
<path d="M99.3916 67.8456C99.3916 72.6424 98.066 77.1282 95.7532 80.957C94.6142 79.0679 93.7124 77.0193 93.0943 74.8464C92.4568 72.6229 92.1187 70.2751 92.1187 67.8456C92.1187 67.0409 92.1575 66.2441 92.2275 65.4589C92.3052 64.6153 92.4257 63.7874 92.5851 62.9711C92.935 61.1752 93.4714 59.4454 94.175 57.8089C94.6298 56.7477 95.1584 55.7176 95.7532 54.738C96.3479 55.7215 96.8766 56.7477 97.3314 57.8089C98.0349 59.4493 98.5753 61.1752 98.9212 62.9711C99.2283 64.5493 99.3877 66.178 99.3877 67.8456H99.3916Z" stroke="black" stroke-miterlimit="10"/>
<path d="M89.1881 47.4807C86.4554 49.5253 83.2951 51.0335 79.8666 51.8498C77.9736 52.3008 75.9989 52.5379 73.9698 52.5379C72.8075 52.5379 71.6647 52.4601 70.5452 52.3085C68.0224 51.9703 65.6123 51.259 63.3772 50.2328C61.7329 49.4787 60.178 48.5535 58.7476 47.4807C62.9924 44.3048 68.2634 42.4234 73.9698 42.4234C74.098 42.4234 74.2302 42.4234 74.3585 42.4234C74.4051 42.4234 74.4557 42.4234 74.5023 42.4234C74.5101 42.4234 74.5217 42.4234 74.5295 42.4234C74.6695 42.4234 74.8094 42.4312 74.9493 42.4351C75.1126 42.439 75.2759 42.4506 75.4391 42.4584C75.5674 42.4662 75.6957 42.474 75.8239 42.4817C75.8706 42.4817 75.9172 42.4895 75.9639 42.4934C76.0922 42.5012 76.2204 42.5128 76.3448 42.5245C76.5275 42.54 76.7063 42.5595 76.8852 42.5789C77.0251 42.5945 77.1611 42.61 77.2972 42.6295C77.476 42.6528 77.6548 42.68 77.8336 42.7072C77.8336 42.7072 77.8725 42.7111 77.8919 42.715C77.9774 42.7266 78.063 42.7422 78.1485 42.7577C78.5255 42.8199 78.8948 42.8899 79.2641 42.9676C79.3574 42.9871 79.4507 43.0065 79.5479 43.0298C79.7345 43.0726 79.9249 43.1153 80.1115 43.162C80.2048 43.1853 80.2981 43.2086 80.3914 43.232C80.955 43.3797 81.5109 43.5429 82.059 43.7295C82.1445 43.7567 82.2261 43.7878 82.3117 43.815C82.506 43.8811 82.7043 43.955 82.8986 44.025C82.9841 44.056 83.0697 44.091 83.1591 44.1221C83.3068 44.1804 83.4545 44.2387 83.6022 44.3009C83.7383 44.3554 83.8743 44.4137 84.0065 44.472C84.162 44.5381 84.3136 44.6041 84.4652 44.6741C84.609 44.7402 84.7489 44.8063 84.8889 44.8724C84.8966 44.8762 84.9083 44.8801 84.92 44.8879C85.0716 44.9579 85.2232 45.0317 85.3709 45.1095C85.4875 45.1678 85.6041 45.2261 85.7168 45.2883C85.8257 45.3466 85.9345 45.4049 86.0434 45.4632C86.1911 45.541 86.3349 45.6226 86.4826 45.7042C86.5137 45.7198 86.5409 45.7392 86.572 45.7547C86.642 45.7936 86.7119 45.8325 86.7819 45.8752C86.7858 45.8752 86.7897 45.8791 86.7975 45.883C86.813 45.8908 86.8286 45.9025 86.8441 45.9102C86.9957 45.9996 87.1434 46.089 87.2911 46.1823C87.365 46.2251 87.4389 46.2717 87.5088 46.3184C87.5321 46.3339 87.5555 46.3495 87.5827 46.365C87.6954 46.435 87.8081 46.5089 87.917 46.5827C87.9481 46.6022 87.9831 46.6255 88.0142 46.6449C88.1347 46.7265 88.2552 46.8082 88.3757 46.8898C88.4845 46.9637 88.5933 47.0375 88.6983 47.1153C88.7527 47.1541 88.811 47.193 88.8654 47.2358C88.9704 47.3135 89.0754 47.3912 89.1803 47.469L89.1881 47.4807Z" stroke="black" stroke-miterlimit="10"/>
<path d="M94.3464 52.6428C91.7265 56.1491 88.2241 58.9556 84.1698 60.7359C81.2583 62.0148 78.0591 62.7612 74.6967 62.8545C74.4557 62.8622 74.2108 62.8661 73.9698 62.8661C71.1944 62.8661 68.5239 62.423 66.0205 61.5989C63.2568 60.6893 60.7029 59.321 58.4483 57.5796C56.6136 56.1646 54.9771 54.5009 53.5854 52.6428C55.047 50.6837 56.7885 48.9422 58.7437 47.4807C62.9924 44.3048 68.2634 42.4234 73.9698 42.4234C74.0981 42.4234 74.2303 42.4234 74.3585 42.4234C74.4052 42.4234 74.4557 42.4234 74.5024 42.4234C74.5101 42.4234 74.5218 42.4234 74.5296 42.4234C74.6695 42.4234 74.8095 42.4312 74.9494 42.4351C75.1127 42.439 75.2759 42.4506 75.4392 42.4584C75.5675 42.4662 75.6957 42.474 75.824 42.4817C75.8707 42.4817 75.9173 42.4895 75.964 42.4934C76.0922 42.5012 76.2205 42.5128 76.3449 42.5245C76.5276 42.54 76.7064 42.5595 76.8852 42.5789C77.0252 42.5945 77.1612 42.61 77.2973 42.6295C77.4761 42.6528 77.6549 42.68 77.8337 42.7072C77.8337 42.7072 77.8726 42.7111 77.892 42.715C77.9775 42.7266 78.063 42.7422 78.1485 42.7577C78.5256 42.8199 78.8949 42.8899 79.2642 42.9676C79.3575 42.9871 79.4508 43.0065 79.5479 43.0298C79.7345 43.0726 79.925 43.1153 80.1116 43.162C80.2049 43.1853 80.2982 43.2086 80.3915 43.232C80.9551 43.3797 81.511 43.5429 82.0591 43.7295C82.1446 43.7567 82.2262 43.7878 82.3117 43.815C82.5061 43.8811 82.7043 43.955 82.8987 44.025C82.9842 44.056 83.0697 44.091 83.1591 44.1221C83.3068 44.1804 83.4546 44.2387 83.6023 44.3009C83.7383 44.3554 83.8744 44.4137 84.0065 44.472C84.162 44.5381 84.3136 44.6041 84.4652 44.6741C84.609 44.7402 84.749 44.8063 84.8889 44.8724C84.8967 44.8762 84.9084 44.8801 84.92 44.8879C85.0716 44.9579 85.2232 45.0317 85.3709 45.1095C85.4875 45.1678 85.6042 45.2261 85.7169 45.2883C85.8257 45.3466 85.9346 45.4049 86.0434 45.4632C86.1911 45.541 86.335 45.6226 86.4827 45.7042C86.5138 45.7198 86.541 45.7392 86.5721 45.7547C86.642 45.7936 86.712 45.8325 86.782 45.8752C86.7859 45.8752 86.7898 45.8791 86.7975 45.883C86.8131 45.8908 86.8286 45.9025 86.8442 45.9102C86.9958 45.9996 87.1435 46.089 87.2912 46.1823C87.3651 46.2251 87.4389 46.2717 87.5089 46.3184C87.5322 46.3339 87.5555 46.3495 87.5827 46.365C87.6955 46.435 87.8082 46.5089 87.917 46.5827C87.9481 46.6022 87.9831 46.6255 88.0142 46.6449C88.1347 46.7265 88.2552 46.8082 88.3757 46.8898C88.4846 46.9637 88.5934 47.0375 88.6984 47.1153C88.7528 47.1541 88.8111 47.193 88.8655 47.2358C88.9705 47.3135 89.0754 47.3912 89.1804 47.469C89.2775 47.5428 89.3786 47.6167 89.4758 47.6945C89.5419 47.745 89.608 47.7955 89.674 47.8499C89.7013 47.8694 89.7246 47.8927 89.7518 47.9121C89.8295 47.9743 89.9073 48.0365 89.985 48.0987C90.0783 48.1726 90.1677 48.2464 90.2571 48.3203C90.4126 48.4525 90.5681 48.5846 90.7236 48.7207C90.7625 48.7518 90.7974 48.7867 90.8363 48.8178C90.8985 48.8723 90.9568 48.9267 91.0151 48.9811C91.1006 49.0589 91.1823 49.1366 91.2678 49.2143C91.2756 49.2182 91.2794 49.226 91.2872 49.2338C91.4194 49.3543 91.5477 49.4787 91.6759 49.6031C91.6876 49.6147 91.6993 49.6264 91.7109 49.638C91.8237 49.7469 91.9364 49.8557 92.0452 49.9685C92.0763 49.9995 92.1113 50.0345 92.1385 50.0656C92.2357 50.1628 92.329 50.26 92.4184 50.3572C92.5894 50.5399 92.7605 50.7226 92.9237 50.9053C93.0287 51.0219 93.1336 51.1385 93.2308 51.259C93.2619 51.294 93.293 51.329 93.3202 51.3639C93.398 51.4534 93.4718 51.5428 93.5457 51.6322C93.6079 51.706 93.6701 51.7838 93.7323 51.8615C93.7634 51.9004 93.7945 51.9354 93.8217 51.9742C93.8994 52.0714 93.9771 52.1686 94.051 52.2658C94.1443 52.3863 94.2376 52.5107 94.3309 52.6351L94.3464 52.6428Z" stroke="black" stroke-miterlimit="10"/>
<path d="M97.3313 57.8089C96.103 60.6699 94.3615 63.2587 92.2275 65.4589C89.7591 68.0089 86.7582 70.0419 83.4036 71.3829C80.7175 72.4597 77.8099 73.0855 74.7662 73.1788C74.5019 73.1866 74.2337 73.1905 73.9694 73.1905C71.019 73.1905 68.1852 72.689 65.5497 71.76C62.0746 70.5433 58.9493 68.5919 56.3527 66.0925C53.9232 63.7602 51.9563 60.9459 50.6035 57.805C51.3965 55.9625 52.4033 54.2288 53.5889 52.6428C55.0505 50.6837 56.7919 48.9422 58.7472 47.4807C62.992 44.3048 68.263 42.4234 73.9694 42.4234C74.0976 42.4234 74.2298 42.4234 74.3581 42.4234C74.4047 42.4234 74.4553 42.4234 74.5019 42.4234C74.5097 42.4234 74.5213 42.4234 74.5291 42.4234C74.6691 42.4234 74.809 42.4312 74.9489 42.4351C75.1122 42.439 75.2755 42.4506 75.4387 42.4584C75.567 42.4662 75.6953 42.474 75.8235 42.4817C75.8702 42.4817 75.9168 42.4895 75.9635 42.4934C76.0918 42.5012 76.22 42.5128 76.3444 42.5245C76.5271 42.54 76.7059 42.5595 76.8847 42.5789C77.0247 42.5945 77.1607 42.61 77.2968 42.6295C77.4756 42.6528 77.6544 42.68 77.8332 42.7072C77.8332 42.7072 77.8721 42.7111 77.8915 42.715C77.977 42.7266 78.0626 42.7422 78.1481 42.7577C78.5251 42.8199 78.8944 42.8899 79.2637 42.9676C79.357 42.9871 79.4503 43.0065 79.5475 43.0298C79.7341 43.0726 79.9245 43.1153 80.1111 43.162C80.2044 43.1853 80.2977 43.2086 80.391 43.232C80.9546 43.3797 81.5105 43.5429 82.0586 43.7295C82.1441 43.7567 82.2257 43.7878 82.3113 43.815C82.5056 43.8811 82.7039 43.955 82.8982 44.025C82.9837 44.056 83.0693 44.091 83.1587 44.1221C83.3064 44.1804 83.4541 44.2387 83.6018 44.3009C83.7378 44.3554 83.8739 44.4137 84.0061 44.472C84.1616 44.5381 84.3132 44.6041 84.4648 44.6741C84.6086 44.7402 84.7485 44.8063 84.8885 44.8724C84.8962 44.8762 84.9079 44.8801 84.9196 44.8879C85.0712 44.9579 85.2228 45.0317 85.3705 45.1095C85.4871 45.1678 85.6037 45.2261 85.7164 45.2883C85.8253 45.3466 85.9341 45.4049 86.0429 45.4632C86.1907 45.541 86.3345 45.6226 86.4822 45.7042C86.5133 45.7198 86.5405 45.7392 86.5716 45.7547C86.6416 45.7936 86.7115 45.8325 86.7815 45.8752C86.7854 45.8752 86.7893 45.8791 86.7971 45.883C86.8126 45.8908 86.8282 45.9025 86.8437 45.9102C86.9953 45.9996 87.143 46.089 87.2907 46.1823C87.3646 46.2251 87.4384 46.2717 87.5084 46.3184C87.5317 46.3339 87.5551 46.3495 87.5823 46.365C87.695 46.435 87.8077 46.5089 87.9166 46.5827C87.9477 46.6022 87.9827 46.6255 88.0137 46.6449C88.1343 46.7265 88.2548 46.8082 88.3753 46.8898C88.4841 46.9637 88.5929 47.0375 88.6979 47.1153C88.7523 47.1541 88.8106 47.193 88.865 47.2358C88.97 47.3135 89.0749 47.3912 89.1799 47.469C89.2771 47.5428 89.3781 47.6167 89.4753 47.6944C89.5414 47.745 89.6075 47.7955 89.6736 47.8499C89.7008 47.8694 89.7241 47.8927 89.7513 47.9121C89.8291 47.9743 89.9068 48.0365 89.9845 48.0987C90.0778 48.1726 90.1672 48.2464 90.2567 48.3203C90.4121 48.4525 90.5676 48.5846 90.7231 48.7207C90.762 48.7518 90.797 48.7867 90.8358 48.8178C90.898 48.8723 90.9563 48.9267 91.0147 48.9811C91.1002 49.0589 91.1818 49.1366 91.2673 49.2143C91.2751 49.2182 91.279 49.226 91.2868 49.2338C91.4189 49.3543 91.5472 49.4787 91.6755 49.6031C91.6871 49.6147 91.6988 49.6264 91.7105 49.638C91.8232 49.7469 91.9359 49.8557 92.0448 49.9685C92.0759 49.9995 92.1108 50.0345 92.138 50.0656C92.2352 50.1628 92.3285 50.26 92.4179 50.3572C92.589 50.5399 92.76 50.7226 92.9233 50.9053C93.0282 51.0219 93.1332 51.1385 93.2303 51.259C93.2614 51.294 93.2925 51.329 93.3198 51.3639C93.3975 51.4534 93.4714 51.5428 93.5452 51.6322C93.6074 51.706 93.6696 51.7838 93.7318 51.8615C93.7629 51.9004 93.794 51.9354 93.8212 51.9742C93.8989 52.0714 93.9767 52.1686 94.0505 52.2658C94.1438 52.3863 94.2371 52.5107 94.3304 52.6351C94.8319 53.3075 95.3022 54.0033 95.7376 54.7264C96.3323 55.7098 96.861 56.736 97.3158 57.7972L97.3313 57.8089Z" stroke="black" stroke-miterlimit="10"/>
<path d="M98.9251 62.9711C98.0544 67.4647 95.998 71.5345 93.0943 74.8464C91.1935 77.0155 88.9311 78.8541 86.4045 80.2768C84.1888 81.5207 81.7671 82.4459 79.2015 82.9823C77.5145 83.336 75.7653 83.5226 73.9733 83.5226C72.7877 83.5226 71.6176 83.441 70.4709 83.2855C66.024 82.6713 61.9386 80.9065 58.5373 78.3021C53.6938 74.5937 50.2226 69.1867 49.0137 62.9711C49.3635 61.1752 49.8999 59.4454 50.6035 57.8089C51.3965 55.9664 52.4033 54.2327 53.5889 52.6467C55.0505 50.6876 56.7919 48.9461 58.7472 47.4845C62.992 44.3048 68.263 42.4234 73.9694 42.4234C74.0977 42.4234 74.2298 42.4234 74.3581 42.4234C74.4047 42.4234 74.4553 42.4234 74.5019 42.4234C74.5097 42.4234 74.5214 42.4234 74.5291 42.4234C74.6691 42.4234 74.809 42.4312 74.9489 42.4351C75.1122 42.439 75.2755 42.4506 75.4387 42.4584C75.567 42.4662 75.6953 42.474 75.8236 42.4817C75.8702 42.4817 75.9169 42.4895 75.9635 42.4934C76.0918 42.5012 76.2201 42.5128 76.3444 42.5245C76.5271 42.54 76.706 42.5595 76.8848 42.5789C77.0247 42.5945 77.1608 42.61 77.2968 42.6295C77.4756 42.6528 77.6544 42.68 77.8332 42.7072C77.8332 42.7072 77.8721 42.7111 77.8915 42.715C77.9771 42.7266 78.0626 42.7422 78.1481 42.7577C78.5252 42.8199 78.8944 42.8899 79.2637 42.9676C79.357 42.9871 79.4503 43.0065 79.5475 43.0298C79.7341 43.0726 79.9245 43.1153 80.1111 43.162C80.2044 43.1853 80.2977 43.2086 80.391 43.232C80.9546 43.3797 81.5105 43.5429 82.0586 43.7295C82.1441 43.7567 82.2258 43.7878 82.3113 43.815C82.5056 43.8811 82.7039 43.955 82.8982 44.025C82.9838 44.056 83.0693 44.091 83.1587 44.1221C83.3064 44.1804 83.4541 44.2387 83.6018 44.3009C83.7379 44.3554 83.8739 44.4137 84.0061 44.472C84.1616 44.5381 84.3132 44.6041 84.4648 44.6741C84.6086 44.7402 84.7485 44.8063 84.8885 44.8724C84.8962 44.8762 84.9079 44.8801 84.9196 44.8879C85.0712 44.9579 85.2228 45.0317 85.3705 45.1095C85.4871 45.1678 85.6037 45.2261 85.7164 45.2883C85.8253 45.3466 85.9341 45.4049 86.043 45.4632C86.1907 45.541 86.3345 45.6226 86.4822 45.7042C86.5133 45.7198 86.5405 45.7392 86.5716 45.7547C86.6416 45.7936 86.7116 45.8325 86.7815 45.8752C86.7854 45.8752 86.7893 45.8791 86.7971 45.883C86.8126 45.8908 86.8282 45.9025 86.8437 45.9102C86.9953 45.9996 87.143 46.089 87.2908 46.1823C87.3646 46.2251 87.4385 46.2717 87.5084 46.3184C87.5318 46.3339 87.5551 46.3495 87.5823 46.365C87.695 46.435 87.8077 46.5089 87.9166 46.5827C87.9477 46.6022 87.9827 46.6255 88.0138 46.6449C88.1343 46.7265 88.2548 46.8082 88.3753 46.8898C88.4841 46.9637 88.593 47.0375 88.6979 47.1153C88.7523 47.1541 88.8106 47.193 88.8651 47.2358C88.97 47.3135 89.075 47.3912 89.1799 47.469C89.2771 47.5428 89.3782 47.6167 89.4753 47.6944C89.5414 47.745 89.6075 47.7955 89.6736 47.8499C89.7008 47.8694 89.7241 47.8927 89.7513 47.9121C89.8291 47.9743 89.9068 48.0365 89.9846 48.0987C90.0779 48.1726 90.1673 48.2464 90.2567 48.3203C90.4122 48.4525 90.5676 48.5846 90.7231 48.7207C90.762 48.7518 90.797 48.7867 90.8359 48.8178C90.8981 48.8723 90.9564 48.9267 91.0147 48.9811C91.1002 49.0589 91.1818 49.1366 91.2673 49.2143C91.2751 49.2182 91.279 49.226 91.2868 49.2338C91.4189 49.3543 91.5472 49.4787 91.6755 49.6031C91.6872 49.6147 91.6988 49.6264 91.7105 49.638C91.8232 49.7469 91.9359 49.8557 92.0448 49.9685C92.0759 49.9995 92.1109 50.0345 92.1381 50.0656C92.2352 50.1628 92.3285 50.26 92.4179 50.3572C92.589 50.5399 92.76 50.7226 92.9233 50.9053C93.0282 51.0219 93.1332 51.1385 93.2304 51.259C93.2615 51.294 93.2926 51.329 93.3198 51.3639C93.3975 51.4534 93.4714 51.5428 93.5452 51.6322C93.6074 51.706 93.6696 51.7838 93.7318 51.8615C93.7629 51.9004 93.794 51.9354 93.8212 51.9742C93.899 52.0714 93.9767 52.1686 94.0506 52.2658C94.1439 52.3863 94.2371 52.5107 94.3304 52.6351C94.8319 53.3075 95.3022 54.0033 95.7376 54.7264C96.3323 55.7098 96.861 56.736 97.3158 57.7972C98.0194 59.4376 98.5597 61.1635 98.9057 62.9594L98.9251 62.9711Z" stroke="black" stroke-miterlimit="10"/>
<path d="M13.1865 117.473C12.5647 117.473 12.3463 116.902 12.5311 116.431L16.6483 106.13C16.85 105.626 17.2197 105.307 17.8079 105.307C18.3961 105.307 18.7994 105.609 19.001 106.13L23.1183 116.381C23.3199 116.868 23.0846 117.473 22.4293 117.473C22.0259 117.473 21.7571 117.238 21.6058 116.835L20.4295 113.776H15.1527L13.9595 116.868C13.8083 117.255 13.573 117.473 13.1865 117.473ZM15.64 112.499H19.9421L18.1272 107.794C18.0095 107.491 17.9087 107.189 17.7911 106.903C17.6903 107.189 17.5726 107.491 17.455 107.794L15.64 112.499ZM25.0823 117.473C24.6454 117.473 24.3597 117.171 24.3597 116.633V109.81C24.3597 109.273 24.6454 108.97 25.0823 108.97C25.5193 108.97 25.805 109.273 25.805 109.81V110.516C26.2083 109.592 27.1662 108.92 28.0736 108.92C28.3089 108.92 28.4937 108.97 28.645 109.071C28.813 109.188 28.9139 109.373 28.9139 109.609C28.9139 109.877 28.813 110.079 28.6282 110.197C28.4937 110.298 28.3089 110.348 28.0904 110.348C26.6956 110.348 25.805 111.188 25.805 112.986V116.633C25.805 117.171 25.5193 117.473 25.0823 117.473ZM33.1649 117.524C30.9802 117.524 29.1485 116.079 29.1485 113.205C29.1485 110.651 30.9298 108.903 33.2489 108.903C34.7109 108.903 35.8873 109.592 36.4418 110.718C36.862 111.592 36.5091 112.096 35.9377 112.096C35.5008 112.096 35.3159 111.827 35.1815 111.424C34.9126 110.617 34.2236 110.046 33.2153 110.046C31.6692 110.046 30.6441 111.407 30.6441 113.205C30.6441 115.137 31.686 116.398 33.2489 116.398C34.274 116.398 34.9966 115.894 35.2823 115.003C35.3999 114.616 35.6184 114.348 36.0385 114.348C36.5763 114.348 36.8956 114.818 36.5259 115.658C36.0385 116.784 34.8958 117.524 33.1649 117.524ZM38.9672 117.473C38.5303 117.473 38.2446 117.171 38.2446 116.633V106.147C38.2446 105.609 38.5303 105.307 38.9672 105.307C39.4041 105.307 39.6898 105.609 39.6898 106.147V109.81V110.264C40.1267 109.491 41.0846 108.903 42.1769 108.903C44.0423 108.903 45.1682 110.079 45.1682 112.163V116.633C45.1682 117.171 44.8825 117.473 44.4456 117.473C44.0087 117.473 43.723 117.171 43.723 116.633V112.348C43.723 110.819 43.202 110.046 41.8912 110.046C40.5132 110.046 39.6898 111.121 39.6898 112.398V116.633C39.6898 117.171 39.4041 117.473 38.9672 117.473ZM47.9194 117.473C47.4824 117.473 47.1968 117.221 47.1968 116.633V109.76C47.1968 109.172 47.4824 108.92 47.9194 108.92C48.3563 108.92 48.642 109.172 48.642 109.76V116.633C48.642 117.221 48.3563 117.473 47.9194 117.473ZM46.8439 106.785C46.8439 106.197 47.3144 105.727 47.9026 105.727C48.4907 105.727 48.9613 106.197 48.9613 106.785C48.9613 107.374 48.4907 107.844 47.9026 107.844C47.3144 107.844 46.8439 107.374 46.8439 106.785ZM53.5561 117.473C53.0688 117.473 52.7495 117.221 52.531 116.633L50.0103 110.046C49.7918 109.474 50.1111 108.97 50.6657 108.97C51.0018 108.97 51.2538 109.172 51.3883 109.558L53.3209 115.037L53.6065 115.826C53.6738 115.608 53.7578 115.373 53.8754 115.037L55.7408 109.558C55.8752 109.172 56.1273 108.97 56.4802 108.97C57.0011 108.97 57.2868 109.441 57.0852 109.978L54.5644 116.633C54.346 117.221 54.0435 117.473 53.5561 117.473ZM59.1452 117.473C58.7083 117.473 58.4226 117.221 58.4226 116.633V109.76C58.4226 109.172 58.7083 108.92 59.1452 108.92C59.5821 108.92 59.8678 109.172 59.8678 109.76V116.633C59.8678 117.221 59.5821 117.473 59.1452 117.473ZM58.0697 106.785C58.0697 106.197 58.5402 105.727 59.1284 105.727C59.7166 105.727 60.1871 106.197 60.1871 106.785C60.1871 107.374 59.7166 107.844 59.1284 107.844C58.5402 107.844 58.0697 107.374 58.0697 106.785ZM62.715 117.473C62.278 117.473 61.9923 117.171 61.9923 116.633V109.81C61.9923 109.273 62.278 108.97 62.715 108.97C63.1519 108.97 63.4208 109.273 63.4208 109.81V110.264C63.8577 109.558 64.8324 108.903 65.9247 108.903C67.7901 108.903 68.916 110.079 68.916 112.163V116.633C68.916 117.171 68.6303 117.473 68.1934 117.473C67.7565 117.473 67.4708 117.171 67.4708 116.633V112.348C67.4708 110.819 66.9666 110.046 65.6894 110.046C64.2778 110.046 63.4376 111.121 63.4376 112.398V116.633C63.4376 117.171 63.1519 117.473 62.715 117.473ZM74.3395 121.019C72.4574 121.019 71.3146 120.095 70.9785 119.036C70.7265 118.246 71.113 117.843 71.5835 117.843C71.9196 117.843 72.1885 118.045 72.3061 118.549C72.491 119.305 73.1968 119.893 74.3563 119.893C75.8856 119.893 76.7931 119.103 76.7931 117.372V116.381V115.843C76.3729 116.667 75.331 117.188 74.1379 117.188C71.9028 117.188 70.4576 115.574 70.4576 113.07C70.4576 110.583 72.0709 108.903 74.1883 108.903C75.5327 108.903 76.3729 109.592 76.7931 110.264V109.81C76.7931 109.273 77.0787 108.97 77.5157 108.97C77.9526 108.97 78.2383 109.273 78.2383 109.81V116.868C78.2383 119.641 76.9275 121.019 74.3395 121.019ZM71.9532 113.07C71.9532 114.885 72.9615 116.062 74.4236 116.062C75.8856 116.062 76.8939 114.869 76.8939 113.07C76.8939 111.306 75.8856 110.046 74.4236 110.046C72.9615 110.046 71.9532 111.272 71.9532 113.07ZM80.4911 119.103C80.0373 119.103 79.7853 118.868 79.7853 118.498C79.7853 118.129 80.0373 117.877 80.4911 117.877H87.2467C87.7004 117.877 87.9525 118.112 87.9525 118.482C87.9525 118.851 87.7004 119.103 87.2467 119.103H80.4911ZM93.7959 117.524C90.3509 117.524 88.2166 114.885 88.2166 111.457C88.2166 107.407 90.8718 105.239 93.9303 105.239C95.9637 105.239 97.661 106.197 98.3668 107.676C98.8542 108.701 98.4173 109.256 97.8291 109.256C97.4426 109.256 97.2241 109.088 96.9552 108.382C96.5015 107.239 95.3587 106.533 93.9303 106.533C91.5776 106.533 89.8299 108.197 89.8299 111.457C89.8299 114.213 91.46 116.247 93.8463 116.247C95.9973 116.247 97.3921 115.02 97.3921 112.633V112.415H94.2832C93.7959 112.415 93.527 112.18 93.527 111.776C93.527 111.373 93.7959 111.121 94.2832 111.121H97.9299C98.4845 111.121 98.8038 111.44 98.8038 111.995V116.734C98.8038 117.204 98.5517 117.473 98.1652 117.473C97.7787 117.473 97.5266 117.204 97.5266 116.734V115.642C96.888 116.7 95.4596 117.524 93.7959 117.524ZM103.108 117.524C101.562 117.524 100.319 116.583 100.319 115.053C100.319 113.491 101.562 112.751 103.007 112.533L104.738 112.264C105.36 112.163 105.562 111.944 105.562 111.457C105.562 110.566 104.873 110.046 103.932 110.046C102.89 110.046 102.285 110.499 102.083 111.239C101.982 111.642 101.764 111.911 101.344 111.911C100.873 111.911 100.436 111.541 100.789 110.701C101.209 109.676 102.268 108.903 103.814 108.903C105.831 108.903 106.973 110.096 106.973 111.961V116.633C106.973 117.171 106.704 117.473 106.284 117.473C105.864 117.473 105.595 117.171 105.595 116.633V116.179C105.192 117.02 104.318 117.524 103.108 117.524ZM101.814 115.053C101.814 115.894 102.486 116.398 103.31 116.398C104.604 116.398 105.562 115.524 105.562 114.213V113.02C105.461 113.171 105.158 113.289 104.671 113.373L103.495 113.591C102.537 113.776 101.814 114.196 101.814 115.053ZM109.726 117.473C109.289 117.473 109.004 117.171 109.004 116.633V109.81C109.004 109.273 109.289 108.97 109.726 108.97C110.163 108.97 110.449 109.273 110.449 109.81V110.516C110.852 109.592 111.81 108.92 112.717 108.92C112.953 108.92 113.138 108.97 113.289 109.071C113.457 109.188 113.558 109.373 113.558 109.609C113.558 109.877 113.457 110.079 113.272 110.197C113.138 110.298 112.953 110.348 112.734 110.348C111.339 110.348 110.449 111.188 110.449 112.986V116.633C110.449 117.171 110.163 117.473 109.726 117.473ZM117.589 117.524C115.472 117.524 113.842 115.978 113.842 113.222C113.842 110.768 115.321 108.903 117.606 108.903C118.967 108.903 119.858 109.642 120.211 110.264V109.609V106.147C120.211 105.609 120.497 105.307 120.934 105.307C121.371 105.307 121.656 105.609 121.656 106.147V116.633C121.656 117.171 121.371 117.473 120.934 117.473C120.497 117.473 120.211 117.171 120.211 116.633V116.146C119.774 116.902 118.799 117.524 117.589 117.524ZM115.354 113.222C115.354 115.121 116.363 116.398 117.825 116.398C119.287 116.398 120.312 115.154 120.312 113.205C120.312 111.272 119.304 110.046 117.825 110.046C116.38 110.046 115.354 111.323 115.354 113.222ZM127.236 117.524C124.816 117.524 123.303 115.994 123.303 113.188C123.303 110.701 124.933 108.903 127.135 108.903C129.79 108.903 130.681 110.903 130.849 112.331C130.966 113.322 130.58 113.491 129.992 113.491H124.749C124.782 115.339 125.858 116.398 127.252 116.398C128.11 116.398 128.899 116.112 129.252 115.221C129.404 114.835 129.572 114.566 129.992 114.566C130.529 114.566 130.849 115.037 130.479 115.826C130.042 116.751 128.967 117.524 127.236 117.524ZM124.799 112.465H129.353C129.353 111.02 128.563 110.046 127.135 110.046C125.79 110.046 124.9 111.104 124.799 112.465ZM133.187 117.473C132.75 117.473 132.464 117.171 132.464 116.633V109.81C132.464 109.273 132.75 108.97 133.187 108.97C133.624 108.97 133.893 109.273 133.893 109.81V110.264C134.33 109.558 135.304 108.903 136.397 108.903C138.262 108.903 139.388 110.079 139.388 112.163V116.633C139.388 117.171 139.102 117.473 138.665 117.473C138.228 117.473 137.943 117.171 137.943 116.633V112.348C137.943 110.819 137.439 110.046 136.161 110.046C134.75 110.046 133.909 111.121 133.909 112.398V116.633C133.909 117.171 133.624 117.473 133.187 117.473Z" fill="black"/>
<defs>
<filter id="filter0_d_1806_12039" x="1.92355" y="0.107813" width="149.993" height="37.3404" filterUnits="userSpaceOnUse" color-interpolation-filters="sRGB">
<feFlood flood-opacity="0" result="BackgroundImageFix"/>
<feColorMatrix in="SourceAlpha" type="matrix" values="0 0 0 0 0 0 0 0 0 0 0 0 0 0 0 0 0 0 127 0" result="hardAlpha"/>
<feOffset/>
<feGaussianBlur stdDeviation="1.79848"/>
<feComposite in2="hardAlpha" operator="out"/>
<feColorMatrix type="matrix" values="0 0 0 0 0 0 0 0 0 0 0 0 0 0 0 0 0 0 0.25 0"/>
<feBlend mode="normal" in2="BackgroundImageFix" result="effect1_dropShadow_1806_12039"/>
<feBlend mode="normal" in="SourceGraphic" in2="effect1_dropShadow_1806_12039" result="shape"/>
</filter>
<filter id="filter1_d_1806_12039" x="0.197006" y="21.8638" width="153.446" height="109.602" filterUnits="userSpaceOnUse" color-interpolation-filters="sRGB">
<feFlood flood-opacity="0" result="BackgroundImageFix"/>
<feColorMatrix in="SourceAlpha" type="matrix" values="0 0 0 0 0 0 0 0 0 0 0 0 0 0 0 0 0 0 127 0" result="hardAlpha"/>
<feOffset/>
<feGaussianBlur stdDeviation="2.66175"/>
<feComposite in2="hardAlpha" operator="out"/>
<feColorMatrix type="matrix" values="0 0 0 0 0 0 0 0 0 0 0 0 0 0 0 0 0 0 0.25 0"/>
<feBlend mode="normal" in2="BackgroundImageFix" result="effect1_dropShadow_1806_12039"/>
<feBlend mode="normal" in="SourceGraphic" in2="effect1_dropShadow_1806_12039" result="shape"/>
</filter>
</defs>
</svg>
