<svg width="386" height="36" viewBox="0 0 386 36" fill="none" xmlns="http://www.w3.org/2000/svg">
<path d="M16.7171 9.35492V1.65492H21.7221V2.49092H17.7181V5.00992H21.5461V5.85692H17.7181V8.50792H21.8541V9.35492H16.7171ZM25.0607 9.44292C24.2687 9.44292 23.5537 9.05792 23.5537 7.88092V4.83392H22.5637V4.05292H23.5537V2.30392H24.4997V4.05292H25.5997V4.83392H24.4997V7.78192C24.4997 8.39792 24.8077 8.59592 25.2807 8.59592C25.4127 8.59592 25.5227 8.58492 25.6767 8.56292V9.37692C25.4787 9.42092 25.2807 9.44292 25.0607 9.44292ZM26.8106 9.35492V1.65492H27.7566V4.31692V4.76792C28.0426 4.26192 28.6696 3.87692 29.3846 3.87692C30.6056 3.87692 31.3426 4.64692 31.3426 6.01092V9.35492H30.3966V6.13192C30.3966 5.13092 30.0556 4.62492 29.1976 4.62492C28.2956 4.62492 27.7566 5.32892 27.7566 6.16492V9.35492H26.8106ZM32.9014 9.35492V4.05292H33.8474V9.35492H32.9014ZM32.8134 3.05192V1.91892H33.9134V3.05192H32.8134ZM37.7675 9.51992C36.3265 9.51992 35.1385 8.57392 35.1385 6.69292C35.1385 5.02092 36.3045 3.87692 37.8115 3.87692C39.0655 3.87692 40.0115 4.63592 40.1215 5.83492H39.1425C39.0545 5.14192 38.5815 4.62492 37.7895 4.62492C36.7775 4.62492 36.1175 5.51592 36.1175 6.69292C36.1175 7.95792 36.7885 8.78292 37.8115 8.78292C38.5925 8.78292 39.1205 8.33192 39.2195 7.57292H40.1545C40.0555 8.72792 39.2195 9.51992 37.7675 9.51992ZM42.8732 9.51992C41.8612 9.51992 41.0472 8.90392 41.0472 7.90292C41.0472 6.87992 41.8612 6.39592 42.8072 6.25292L43.9402 6.07692C44.3472 6.01092 44.4792 5.86792 44.4792 5.54892C44.4792 4.96592 44.0282 4.62492 43.4122 4.62492C42.5982 4.62492 42.1802 5.05392 42.1582 5.71392H41.2122C41.2452 4.74592 42.0042 3.87692 43.3352 3.87692C44.6552 3.87692 45.4032 4.65792 45.4032 5.87892V9.35492H44.5012V9.09092V8.63992C44.2372 9.18992 43.6652 9.51992 42.8732 9.51992ZM43.0052 8.78292C43.8522 8.78292 44.4792 8.21092 44.4792 7.35292V6.57192C44.4132 6.67092 44.2152 6.74792 43.8962 6.80292L43.1262 6.94592C42.4992 7.06692 42.0262 7.34192 42.0262 7.90292C42.0262 8.45292 42.4662 8.78292 43.0052 8.78292ZM46.9629 9.35492V1.65492H47.9089V9.35492H46.9629ZM52.3274 9.35492V1.65492H54.6374C57.1344 1.65492 58.7734 2.75492 58.7734 5.49392C58.7734 7.83692 57.4424 9.35492 54.8794 9.35492H52.3274ZM54.7584 8.50792C56.6064 8.50792 57.7284 7.64992 57.7284 5.49392C57.7284 3.56892 56.8154 2.49092 54.7144 2.49092H53.3284V8.50792H54.7584ZM61.6076 9.51992C60.5956 9.51992 59.7816 8.90392 59.7816 7.90292C59.7816 6.87992 60.5956 6.39592 61.5416 6.25292L62.6746 6.07692C63.0816 6.01092 63.2136 5.86792 63.2136 5.54892C63.2136 4.96592 62.7626 4.62492 62.1466 4.62492C61.3326 4.62492 60.9146 5.05392 60.8926 5.71392H59.9466C59.9796 4.74592 60.7386 3.87692 62.0696 3.87692C63.3896 3.87692 64.1376 4.65792 64.1376 5.87892V9.35492H63.2356V9.09092V8.63992C62.9716 9.18992 62.3996 9.51992 61.6076 9.51992ZM61.7396 8.78292C62.5866 8.78292 63.2136 8.21092 63.2136 7.35292V6.57192C63.1476 6.67092 62.9496 6.74792 62.6306 6.80292L61.8606 6.94592C61.2336 7.06692 60.7606 7.34192 60.7606 7.90292C60.7606 8.45292 61.2006 8.78292 61.7396 8.78292ZM67.5246 9.44292C66.7326 9.44292 66.0176 9.05792 66.0176 7.88092V4.83392H65.0276V4.05292H66.0176V2.30392H66.9636V4.05292H68.0636V4.83392H66.9636V7.78192C66.9636 8.39792 67.2716 8.59592 67.7446 8.59592C67.8766 8.59592 67.9866 8.58492 68.1406 8.56292V9.37692C67.9426 9.42092 67.7446 9.44292 67.5246 9.44292ZM70.7814 9.51992C69.7694 9.51992 68.9554 8.90392 68.9554 7.90292C68.9554 6.87992 69.7694 6.39592 70.7154 6.25292L71.8484 6.07692C72.2554 6.01092 72.3874 5.86792 72.3874 5.54892C72.3874 4.96592 71.9364 4.62492 71.3204 4.62492C70.5064 4.62492 70.0884 5.05392 70.0664 5.71392H69.1204C69.1534 4.74592 69.9124 3.87692 71.2434 3.87692C72.5634 3.87692 73.3114 4.65792 73.3114 5.87892V9.35492H72.4094V9.09092V8.63992C72.1454 9.18992 71.5734 9.51992 70.7814 9.51992ZM70.9134 8.78292C71.7604 8.78292 72.3874 8.21092 72.3874 7.35292V6.57192C72.3214 6.67092 72.1234 6.74792 71.8044 6.80292L71.0344 6.94592C70.4074 7.06692 69.9344 7.34192 69.9344 7.90292C69.9344 8.45292 70.3744 8.78292 70.9134 8.78292ZM76.4217 9.35492L79.5017 1.65492H80.7117L83.8027 9.35492H82.6917L81.8117 7.06692H78.3577L77.4777 9.35492H76.4217ZM78.6767 6.23092H81.4927L80.3047 3.15092L80.0847 2.56792L79.8647 3.15092L78.6767 6.23092ZM84.668 11.6429V4.05292H85.614V4.43792V4.77892C85.911 4.30592 86.571 3.87692 87.363 3.87692C88.892 3.87692 89.805 5.07592 89.805 6.69292C89.805 8.37592 88.804 9.51992 87.341 9.51992C86.582 9.51992 85.955 9.15692 85.614 8.61792V9.05792V11.6429H84.668ZM87.198 8.78292C88.177 8.78292 88.815 7.92492 88.815 6.69292C88.815 5.47192 88.177 4.62492 87.198 4.62492C86.241 4.62492 85.559 5.42792 85.559 6.69292C85.559 7.93592 86.23 8.78292 87.198 8.78292ZM91.0918 11.6429V4.05292H92.0378V4.43792V4.77892C92.3348 4.30592 92.9948 3.87692 93.7868 3.87692C95.3158 3.87692 96.2288 5.07592 96.2288 6.69292C96.2288 8.37592 95.2278 9.51992 93.7648 9.51992C93.0058 9.51992 92.3788 9.15692 92.0378 8.61792V9.05792V11.6429H91.0918ZM93.6218 8.78292C94.6008 8.78292 95.2388 7.92492 95.2388 6.69292C95.2388 5.47192 94.6008 4.62492 93.6218 4.62492C92.6648 4.62492 91.9828 5.42792 91.9828 6.69292C91.9828 7.93592 92.6538 8.78292 93.6218 8.78292ZM97.5157 9.35492V4.05292H98.4617V4.28392V4.93292C98.7257 4.32792 99.3087 3.87692 100.123 3.87692C100.189 3.87692 100.277 3.87692 100.365 3.88792V4.82292C100.288 4.81192 100.2 4.80092 100.068 4.80092C99.0447 4.80092 98.4617 5.37292 98.4617 6.54992V9.35492H97.5157ZM103.466 9.51992C101.937 9.51992 100.859 8.38692 100.859 6.69292C100.859 5.04292 101.937 3.87692 103.466 3.87692C104.984 3.87692 106.073 5.04292 106.073 6.69292C106.073 8.38692 104.984 9.51992 103.466 9.51992ZM103.466 8.78292C104.478 8.78292 105.094 7.93592 105.094 6.69292C105.094 5.44992 104.456 4.62492 103.466 4.62492C102.476 4.62492 101.838 5.44992 101.838 6.69292C101.838 7.93592 102.454 8.78292 103.466 8.78292ZM108.863 9.51992C107.851 9.51992 107.037 8.90392 107.037 7.90292C107.037 6.87992 107.851 6.39592 108.797 6.25292L109.93 6.07692C110.337 6.01092 110.469 5.86792 110.469 5.54892C110.469 4.96592 110.018 4.62492 109.402 4.62492C108.588 4.62492 108.17 5.05392 108.148 5.71392H107.202C107.235 4.74592 107.994 3.87692 109.325 3.87692C110.645 3.87692 111.393 4.65792 111.393 5.87892V9.35492H110.491V9.09092V8.63992C110.227 9.18992 109.655 9.51992 108.863 9.51992ZM108.995 8.78292C109.842 8.78292 110.469 8.21092 110.469 7.35292V6.57192C110.403 6.67092 110.205 6.74792 109.886 6.80292L109.116 6.94592C108.489 7.06692 108.016 7.34192 108.016 7.90292C108.016 8.45292 108.456 8.78292 108.995 8.78292ZM115.24 9.51992C113.799 9.51992 112.611 8.57392 112.611 6.69292C112.611 5.02092 113.777 3.87692 115.284 3.87692C116.538 3.87692 117.484 4.63592 117.594 5.83492H116.615C116.527 5.14192 116.054 4.62492 115.262 4.62492C114.25 4.62492 113.59 5.51592 113.59 6.69292C113.59 7.95792 114.261 8.78292 115.284 8.78292C116.065 8.78292 116.593 8.33192 116.692 7.57292H117.627C117.528 8.72792 116.692 9.51992 115.24 9.51992ZM118.839 9.35492V1.65492H119.785V4.31692V4.76792C120.071 4.26192 120.698 3.87692 121.413 3.87692C122.634 3.87692 123.371 4.64692 123.371 6.01092V9.35492H122.425V6.13192C122.425 5.13092 122.084 4.62492 121.226 4.62492C120.324 4.62492 119.785 5.32892 119.785 6.16492V9.35492H118.839Z" fill="white"/>
<path d="M365.418 11.1599C365 11.1599 364.604 10.8739 364.813 10.2909C364.978 9.83993 365.363 9.32293 366.298 8.60793L367.343 7.80493C367.992 7.29893 368.795 6.59493 368.795 5.61593C368.795 4.73593 368.256 4.07593 367.332 4.07593C366.463 4.07593 365.891 4.64793 365.792 5.59393C365.737 6.09993 365.561 6.27593 365.264 6.27593C364.725 6.27593 364.725 5.72593 364.791 5.35193C364.989 4.17493 365.924 3.28393 367.332 3.28393C368.751 3.28393 369.796 4.17493 369.796 5.60493C369.796 6.75993 369.103 7.59593 367.651 8.68493L367.112 9.09193C366.397 9.63093 365.968 9.99393 365.88 10.2799H369.521C369.84 10.2799 370.038 10.4449 370.038 10.7199C370.038 10.9949 369.84 11.1599 369.521 11.1599H365.418ZM371.759 11.2479C371.319 11.2479 370.956 10.8849 370.956 10.4449C370.956 10.0049 371.319 9.64193 371.759 9.64193C372.199 9.64193 372.562 10.0049 372.562 10.4449C372.562 10.8849 372.199 11.2479 371.759 11.2479ZM370.956 6.89193C370.956 6.45193 371.319 6.08893 371.759 6.08893C372.199 6.08893 372.562 6.45193 372.562 6.89193C372.562 7.33193 372.199 7.69493 371.759 7.69493C371.319 7.69493 370.956 7.33193 370.956 6.89193ZM374.249 11.1599C373.831 11.1599 373.435 10.8739 373.644 10.2909C373.809 9.83993 374.194 9.32293 375.129 8.60793L376.174 7.80493C376.823 7.29893 377.626 6.59493 377.626 5.61593C377.626 4.73593 377.087 4.07593 376.163 4.07593C375.294 4.07593 374.722 4.64793 374.623 5.59393C374.568 6.09993 374.392 6.27593 374.095 6.27593C373.556 6.27593 373.556 5.72593 373.622 5.35193C373.82 4.17493 374.755 3.28393 376.163 3.28393C377.582 3.28393 378.627 4.17493 378.627 5.60493C378.627 6.75993 377.934 7.59593 376.482 8.68493L375.943 9.09193C375.228 9.63093 374.799 9.99393 374.711 10.2799H378.352C378.671 10.2799 378.869 10.4449 378.869 10.7199C378.869 10.9949 378.671 11.1599 378.352 11.1599H374.249ZM382.415 11.3249C380.402 11.3249 379.654 9.58693 379.654 7.48593C379.654 5.10993 380.644 3.28393 382.756 3.28393C383.911 3.28393 384.703 3.89993 384.934 4.68093C385.088 5.18693 384.846 5.46193 384.516 5.46193C384.252 5.46193 384.087 5.29693 384.021 4.98893C383.889 4.41693 383.405 4.05393 382.734 4.05393C381.447 4.05393 380.721 5.06593 380.633 6.93593C380.622 7.04593 380.622 7.16693 380.622 7.28793C380.941 6.66093 381.722 6.11093 382.668 6.11093C384.098 6.11093 385.055 7.21093 385.055 8.67393C385.055 10.2139 383.911 11.3249 382.415 11.3249ZM380.798 8.65193C380.798 9.97193 381.502 10.5879 382.415 10.5879C383.361 10.5879 384.054 9.82893 384.054 8.68493C384.054 7.70593 383.449 6.89193 382.481 6.89193C381.502 6.89193 380.798 7.67293 380.798 8.65193Z" fill="white"/>
<rect x="385.301" y="27.4858" width="3.33182" height="384.491" transform="rotate(90 385.301 27.4858)" fill="white" fill-opacity="0.25" stroke="white" stroke-width="0.666362"/>
<rect x="57.7847" y="23.1544" width="11.9945" height="3.99817" rx="1.99908" transform="rotate(90 57.7847 23.1544)" fill="white"/>
<path d="M10.1303 5.75743L1.48633 0.354919V11.1599L10.1303 5.75743Z" fill="white"/>
</svg>
