<svg width="316" height="241" viewBox="0 0 316 241" fill="none" xmlns="http://www.w3.org/2000/svg">
<path d="M142.862 29.3887V18.1887H147.23C149.182 18.1887 151.07 18.9087 151.07 21.3727C151.07 23.8207 149.262 24.5407 147.23 24.5407H144.318V29.3887H142.862ZM147.214 23.3247C148.926 23.3247 149.582 22.5567 149.582 21.3727C149.582 20.1727 148.926 19.4047 147.214 19.4047H144.318V23.3247H147.214ZM155.621 29.6287C153.397 29.6287 151.829 27.9807 151.829 25.5167C151.829 23.1167 153.397 21.4207 155.621 21.4207C157.829 21.4207 159.413 23.1167 159.413 25.5167C159.413 27.9807 157.829 29.6287 155.621 29.6287ZM155.621 28.5567C157.093 28.5567 157.989 27.3247 157.989 25.5167C157.989 23.7087 157.061 22.5087 155.621 22.5087C154.181 22.5087 153.253 23.7087 153.253 25.5167C153.253 27.3247 154.149 28.5567 155.621 28.5567ZM164.334 29.6287C162.318 29.6287 160.782 28.1567 160.782 25.5327C160.782 23.1967 162.174 21.4207 164.366 21.4207C165.646 21.4207 166.494 22.1247 166.846 22.7167V22.0927V18.1887H168.222V29.3887H166.846V28.9407V28.3167C166.43 29.0367 165.486 29.6287 164.334 29.6287ZM164.574 28.5567C165.95 28.5567 166.942 27.3727 166.942 25.5167C166.942 23.6767 165.966 22.5087 164.574 22.5087C163.182 22.5087 162.206 23.7247 162.206 25.5327C162.206 27.3407 163.166 28.5567 164.574 28.5567ZM173.918 29.6287C171.822 29.6287 170.094 28.2527 170.094 25.5167C170.094 23.0847 171.79 21.4207 173.982 21.4207C175.806 21.4207 177.182 22.5247 177.342 24.2687H175.918C175.79 23.2607 175.102 22.5087 173.95 22.5087C172.478 22.5087 171.518 23.8047 171.518 25.5167C171.518 27.3567 172.494 28.5567 173.982 28.5567C175.118 28.5567 175.886 27.9007 176.03 26.7967H177.39C177.246 28.4767 176.03 29.6287 173.918 29.6287ZM181.345 29.6287C179.873 29.6287 178.689 28.7327 178.689 27.2767C178.689 25.7887 179.873 25.0847 181.249 24.8767L182.897 24.6207C183.489 24.5247 183.681 24.3167 183.681 23.8527C183.681 23.0047 183.025 22.5087 182.129 22.5087C180.945 22.5087 180.337 23.1327 180.305 24.0927H178.929C178.977 22.6847 180.081 21.4207 182.017 21.4207C183.937 21.4207 185.025 22.5567 185.025 24.3327V29.3887H183.713V29.0047V28.3487C183.329 29.1487 182.497 29.6287 181.345 29.6287ZM181.537 28.5567C182.769 28.5567 183.681 27.7247 183.681 26.4767V25.3407C183.585 25.4847 183.297 25.5967 182.833 25.6767L181.713 25.8847C180.801 26.0607 180.113 26.4607 180.113 27.2767C180.113 28.0767 180.753 28.5567 181.537 28.5567ZM189.997 29.6287C187.917 29.6287 186.717 28.4927 186.685 26.8447H188.029C188.077 27.8847 188.781 28.5567 190.013 28.5567C191.069 28.5567 191.789 28.0767 191.789 27.2927C191.789 26.6847 191.373 26.2847 190.445 26.1087L189.277 25.8847C187.837 25.6127 186.925 24.8767 186.925 23.6927C186.925 22.3807 188.173 21.4207 189.917 21.4207C191.773 21.4207 192.893 22.3327 192.989 23.9007H191.629C191.517 22.9727 190.861 22.5087 189.821 22.5087C188.893 22.5087 188.301 22.9567 188.301 23.6127C188.301 24.2367 188.749 24.5407 189.613 24.7007L190.813 24.9247C192.205 25.1807 193.149 25.8687 193.149 27.1487C193.149 28.5247 191.965 29.6287 189.997 29.6287ZM197.67 29.5167C196.518 29.5167 195.478 28.9567 195.478 27.2447V22.8127H194.038V21.6767H195.478V19.1327H196.854V21.6767H198.454V22.8127H196.854V27.1007C196.854 27.9967 197.302 28.2847 197.99 28.2847C198.182 28.2847 198.342 28.2687 198.566 28.2367V29.4207C198.278 29.4847 197.99 29.5167 197.67 29.5167Z" fill="white"/>
<path d="M145.591 9.55373C143.523 9.55373 141.939 7.95873 141.939 5.53873C141.939 3.11873 143.512 1.51273 145.591 1.51273C147.681 1.51273 149.243 3.11873 149.243 5.53873C149.243 7.95873 147.659 9.55373 145.591 9.55373ZM145.591 8.71773C147.153 8.71773 148.187 7.50773 148.187 5.53873C148.187 3.56973 147.131 2.35973 145.591 2.35973C144.062 2.35973 142.995 3.56973 142.995 5.53873C142.995 7.50773 144.029 8.71773 145.591 8.71773ZM150.572 11.6767V4.08673H151.518V4.47173V4.81273C151.815 4.33973 152.475 3.91073 153.267 3.91073C154.796 3.91073 155.709 5.10973 155.709 6.72673C155.709 8.40973 154.708 9.55373 153.245 9.55373C152.486 9.55373 151.859 9.19073 151.518 8.65173V9.09173V11.6767H150.572ZM153.102 8.81673C154.081 8.81673 154.719 7.95873 154.719 6.72673C154.719 5.50573 154.081 4.65873 153.102 4.65873C152.145 4.65873 151.463 5.46173 151.463 6.72673C151.463 7.96973 152.134 8.81673 153.102 8.81673ZM159.229 9.55373C157.645 9.55373 156.655 8.55273 156.655 6.71573C156.655 5.08773 157.722 3.91073 159.174 3.91073C160.758 3.91073 161.627 5.02173 161.627 6.72673V6.91373H157.601C157.623 8.12373 158.327 8.81673 159.24 8.81673C159.889 8.81673 160.505 8.56373 160.637 7.74973H161.572C161.462 8.68473 160.736 9.55373 159.229 9.55373ZM160.615 6.24273C160.615 5.29673 160.098 4.65873 159.174 4.65873C158.283 4.65873 157.7 5.35173 157.634 6.24273H160.615ZM162.925 9.38873V4.08673H163.86V4.44973V4.80173C164.146 4.33973 164.784 3.91073 165.499 3.91073C166.72 3.91073 167.457 4.68073 167.457 6.04473V9.38873H166.511V6.16573C166.511 5.16473 166.181 4.65873 165.345 4.65873C164.421 4.65873 163.871 5.36273 163.871 6.19873V9.38873H162.925ZM173.893 9.55373C172.364 9.55373 171.286 8.42073 171.286 6.72673C171.286 5.07673 172.364 3.91073 173.893 3.91073C175.411 3.91073 176.5 5.07673 176.5 6.72673C176.5 8.42073 175.411 9.55373 173.893 9.55373ZM173.893 8.81673C174.905 8.81673 175.521 7.96973 175.521 6.72673C175.521 5.48373 174.883 4.65873 173.893 4.65873C172.903 4.65873 172.264 5.48373 172.264 6.72673C172.264 7.96973 172.881 8.81673 173.893 8.81673ZM177.782 9.38873V4.08673H178.717V4.44973V4.80173C179.003 4.33973 179.641 3.91073 180.356 3.91073C181.577 3.91073 182.314 4.68073 182.314 6.04473V9.38873H181.368V6.16573C181.368 5.16473 181.038 4.65873 180.202 4.65873C179.278 4.65873 178.728 5.36273 178.728 6.19873V9.38873H177.782ZM189.2 9.55373C187.33 9.55373 186.109 8.54173 186.087 6.91373H187.11C187.176 8.02473 187.99 8.71773 189.211 8.71773C190.476 8.71773 191.169 8.15673 191.169 7.32073C191.169 6.58373 190.553 6.25373 189.64 6.04473L188.496 5.78073C187.319 5.50573 186.351 4.83473 186.351 3.65773C186.351 2.41473 187.539 1.51273 189.167 1.51273C190.828 1.51273 191.939 2.41473 192.027 3.84473H191.004C190.938 2.93173 190.223 2.35973 189.145 2.35973C188.144 2.35973 187.407 2.86573 187.407 3.56973C187.407 4.22973 187.847 4.62573 188.749 4.83473L190.113 5.14273C191.334 5.42873 192.225 6.08873 192.225 7.25473C192.225 8.51973 191.092 9.55373 189.2 9.55373ZM193.487 11.6767V4.08673H194.433V4.47173V4.81273C194.73 4.33973 195.39 3.91073 196.182 3.91073C197.711 3.91073 198.624 5.10973 198.624 6.72673C198.624 8.40973 197.623 9.55373 196.16 9.55373C195.401 9.55373 194.774 9.19073 194.433 8.65173V9.09173V11.6767H193.487ZM196.017 8.81673C196.996 8.81673 197.634 7.95873 197.634 6.72673C197.634 5.50573 196.996 4.65873 196.017 4.65873C195.06 4.65873 194.378 5.46173 194.378 6.72673C194.378 7.96973 195.049 8.81673 196.017 8.81673ZM202.177 9.55373C200.648 9.55373 199.57 8.42073 199.57 6.72673C199.57 5.07673 200.648 3.91073 202.177 3.91073C203.695 3.91073 204.784 5.07673 204.784 6.72673C204.784 8.42073 203.695 9.55373 202.177 9.55373ZM202.177 8.81673C203.189 8.81673 203.805 7.96973 203.805 6.72673C203.805 5.48373 203.167 4.65873 202.177 4.65873C201.187 4.65873 200.549 5.48373 200.549 6.72673C200.549 7.96973 201.165 8.81673 202.177 8.81673ZM207.872 9.47673C207.08 9.47673 206.365 9.09173 206.365 7.91473V4.86773H205.375V4.08673H206.365V2.33773H207.311V4.08673H208.411V4.86773H207.311V7.81573C207.311 8.43173 207.619 8.62973 208.092 8.62973C208.224 8.62973 208.334 8.61873 208.488 8.59673V9.41073C208.29 9.45473 208.092 9.47673 207.872 9.47673ZM209.622 9.38873V4.08673H210.568V9.38873H209.622ZM209.534 3.08573V1.95273H210.634V3.08573H209.534ZM212.596 9.38873V4.86773H211.595V4.08673H212.596V3.10773C212.596 2.07373 213.3 1.51273 214.114 1.51273C214.345 1.51273 214.554 1.56773 214.653 1.61173V2.41473C214.554 2.40373 214.433 2.38173 214.312 2.38173C213.817 2.38173 213.542 2.66773 213.542 3.17373V4.08673H214.642V4.86773H213.542V9.38873H212.596ZM216.154 11.6767L217.122 9.20173L214.999 4.08673H216.044L217.364 7.47473L217.617 8.12373L217.848 7.47473L219.014 4.08673H220.004L217.155 11.6767H216.154Z" fill="white" fill-opacity="0.5"/>
<circle cx="128.422" cy="13.3887" r="4" fill="white"/>
<path d="M142.862 29.3887V18.1887H147.23C149.182 18.1887 151.07 18.9087 151.07 21.3727C151.07 23.8207 149.262 24.5407 147.23 24.5407H144.318V29.3887H142.862ZM147.214 23.3247C148.926 23.3247 149.582 22.5567 149.582 21.3727C149.582 20.1727 148.926 19.4047 147.214 19.4047H144.318V23.3247H147.214ZM155.621 29.6287C153.397 29.6287 151.829 27.9807 151.829 25.5167C151.829 23.1167 153.397 21.4207 155.621 21.4207C157.829 21.4207 159.413 23.1167 159.413 25.5167C159.413 27.9807 157.829 29.6287 155.621 29.6287ZM155.621 28.5567C157.093 28.5567 157.989 27.3247 157.989 25.5167C157.989 23.7087 157.061 22.5087 155.621 22.5087C154.181 22.5087 153.253 23.7087 153.253 25.5167C153.253 27.3247 154.149 28.5567 155.621 28.5567ZM164.334 29.6287C162.318 29.6287 160.782 28.1567 160.782 25.5327C160.782 23.1967 162.174 21.4207 164.366 21.4207C165.646 21.4207 166.494 22.1247 166.846 22.7167V22.0927V18.1887H168.222V29.3887H166.846V28.9407V28.3167C166.43 29.0367 165.486 29.6287 164.334 29.6287ZM164.574 28.5567C165.95 28.5567 166.942 27.3727 166.942 25.5167C166.942 23.6767 165.966 22.5087 164.574 22.5087C163.182 22.5087 162.206 23.7247 162.206 25.5327C162.206 27.3407 163.166 28.5567 164.574 28.5567ZM173.918 29.6287C171.822 29.6287 170.094 28.2527 170.094 25.5167C170.094 23.0847 171.79 21.4207 173.982 21.4207C175.806 21.4207 177.182 22.5247 177.342 24.2687H175.918C175.79 23.2607 175.102 22.5087 173.95 22.5087C172.478 22.5087 171.518 23.8047 171.518 25.5167C171.518 27.3567 172.494 28.5567 173.982 28.5567C175.118 28.5567 175.886 27.9007 176.03 26.7967H177.39C177.246 28.4767 176.03 29.6287 173.918 29.6287ZM181.345 29.6287C179.873 29.6287 178.689 28.7327 178.689 27.2767C178.689 25.7887 179.873 25.0847 181.249 24.8767L182.897 24.6207C183.489 24.5247 183.681 24.3167 183.681 23.8527C183.681 23.0047 183.025 22.5087 182.129 22.5087C180.945 22.5087 180.337 23.1327 180.305 24.0927H178.929C178.977 22.6847 180.081 21.4207 182.017 21.4207C183.937 21.4207 185.025 22.5567 185.025 24.3327V29.3887H183.713V29.0047V28.3487C183.329 29.1487 182.497 29.6287 181.345 29.6287ZM181.537 28.5567C182.769 28.5567 183.681 27.7247 183.681 26.4767V25.3407C183.585 25.4847 183.297 25.5967 182.833 25.6767L181.713 25.8847C180.801 26.0607 180.113 26.4607 180.113 27.2767C180.113 28.0767 180.753 28.5567 181.537 28.5567ZM189.997 29.6287C187.917 29.6287 186.717 28.4927 186.685 26.8447H188.029C188.077 27.8847 188.781 28.5567 190.013 28.5567C191.069 28.5567 191.789 28.0767 191.789 27.2927C191.789 26.6847 191.373 26.2847 190.445 26.1087L189.277 25.8847C187.837 25.6127 186.925 24.8767 186.925 23.6927C186.925 22.3807 188.173 21.4207 189.917 21.4207C191.773 21.4207 192.893 22.3327 192.989 23.9007H191.629C191.517 22.9727 190.861 22.5087 189.821 22.5087C188.893 22.5087 188.301 22.9567 188.301 23.6127C188.301 24.2367 188.749 24.5407 189.613 24.7007L190.813 24.9247C192.205 25.1807 193.149 25.8687 193.149 27.1487C193.149 28.5247 191.965 29.6287 189.997 29.6287ZM197.67 29.5167C196.518 29.5167 195.478 28.9567 195.478 27.2447V22.8127H194.038V21.6767H195.478V19.1327H196.854V21.6767H198.454V22.8127H196.854V27.1007C196.854 27.9967 197.302 28.2847 197.99 28.2847C198.182 28.2847 198.342 28.2687 198.566 28.2367V29.4207C198.278 29.4847 197.99 29.5167 197.67 29.5167Z" fill="white"/>
<path d="M145.591 9.55373C143.523 9.55373 141.939 7.95873 141.939 5.53873C141.939 3.11873 143.512 1.51273 145.591 1.51273C147.681 1.51273 149.243 3.11873 149.243 5.53873C149.243 7.95873 147.659 9.55373 145.591 9.55373ZM145.591 8.71773C147.153 8.71773 148.187 7.50773 148.187 5.53873C148.187 3.56973 147.131 2.35973 145.591 2.35973C144.062 2.35973 142.995 3.56973 142.995 5.53873C142.995 7.50773 144.029 8.71773 145.591 8.71773ZM150.572 11.6767V4.08673H151.518V4.47173V4.81273C151.815 4.33973 152.475 3.91073 153.267 3.91073C154.796 3.91073 155.709 5.10973 155.709 6.72673C155.709 8.40973 154.708 9.55373 153.245 9.55373C152.486 9.55373 151.859 9.19073 151.518 8.65173V9.09173V11.6767H150.572ZM153.102 8.81673C154.081 8.81673 154.719 7.95873 154.719 6.72673C154.719 5.50573 154.081 4.65873 153.102 4.65873C152.145 4.65873 151.463 5.46173 151.463 6.72673C151.463 7.96973 152.134 8.81673 153.102 8.81673ZM159.229 9.55373C157.645 9.55373 156.655 8.55273 156.655 6.71573C156.655 5.08773 157.722 3.91073 159.174 3.91073C160.758 3.91073 161.627 5.02173 161.627 6.72673V6.91373H157.601C157.623 8.12373 158.327 8.81673 159.24 8.81673C159.889 8.81673 160.505 8.56373 160.637 7.74973H161.572C161.462 8.68473 160.736 9.55373 159.229 9.55373ZM160.615 6.24273C160.615 5.29673 160.098 4.65873 159.174 4.65873C158.283 4.65873 157.7 5.35173 157.634 6.24273H160.615ZM162.925 9.38873V4.08673H163.86V4.44973V4.80173C164.146 4.33973 164.784 3.91073 165.499 3.91073C166.72 3.91073 167.457 4.68073 167.457 6.04473V9.38873H166.511V6.16573C166.511 5.16473 166.181 4.65873 165.345 4.65873C164.421 4.65873 163.871 5.36273 163.871 6.19873V9.38873H162.925ZM173.893 9.55373C172.364 9.55373 171.286 8.42073 171.286 6.72673C171.286 5.07673 172.364 3.91073 173.893 3.91073C175.411 3.91073 176.5 5.07673 176.5 6.72673C176.5 8.42073 175.411 9.55373 173.893 9.55373ZM173.893 8.81673C174.905 8.81673 175.521 7.96973 175.521 6.72673C175.521 5.48373 174.883 4.65873 173.893 4.65873C172.903 4.65873 172.264 5.48373 172.264 6.72673C172.264 7.96973 172.881 8.81673 173.893 8.81673ZM177.782 9.38873V4.08673H178.717V4.44973V4.80173C179.003 4.33973 179.641 3.91073 180.356 3.91073C181.577 3.91073 182.314 4.68073 182.314 6.04473V9.38873H181.368V6.16573C181.368 5.16473 181.038 4.65873 180.202 4.65873C179.278 4.65873 178.728 5.36273 178.728 6.19873V9.38873H177.782ZM189.2 9.55373C187.33 9.55373 186.109 8.54173 186.087 6.91373H187.11C187.176 8.02473 187.99 8.71773 189.211 8.71773C190.476 8.71773 191.169 8.15673 191.169 7.32073C191.169 6.58373 190.553 6.25373 189.64 6.04473L188.496 5.78073C187.319 5.50573 186.351 4.83473 186.351 3.65773C186.351 2.41473 187.539 1.51273 189.167 1.51273C190.828 1.51273 191.939 2.41473 192.027 3.84473H191.004C190.938 2.93173 190.223 2.35973 189.145 2.35973C188.144 2.35973 187.407 2.86573 187.407 3.56973C187.407 4.22973 187.847 4.62573 188.749 4.83473L190.113 5.14273C191.334 5.42873 192.225 6.08873 192.225 7.25473C192.225 8.51973 191.092 9.55373 189.2 9.55373ZM193.487 11.6767V4.08673H194.433V4.47173V4.81273C194.73 4.33973 195.39 3.91073 196.182 3.91073C197.711 3.91073 198.624 5.10973 198.624 6.72673C198.624 8.40973 197.623 9.55373 196.16 9.55373C195.401 9.55373 194.774 9.19073 194.433 8.65173V9.09173V11.6767H193.487ZM196.017 8.81673C196.996 8.81673 197.634 7.95873 197.634 6.72673C197.634 5.50573 196.996 4.65873 196.017 4.65873C195.06 4.65873 194.378 5.46173 194.378 6.72673C194.378 7.96973 195.049 8.81673 196.017 8.81673ZM202.177 9.55373C200.648 9.55373 199.57 8.42073 199.57 6.72673C199.57 5.07673 200.648 3.91073 202.177 3.91073C203.695 3.91073 204.784 5.07673 204.784 6.72673C204.784 8.42073 203.695 9.55373 202.177 9.55373ZM202.177 8.81673C203.189 8.81673 203.805 7.96973 203.805 6.72673C203.805 5.48373 203.167 4.65873 202.177 4.65873C201.187 4.65873 200.549 5.48373 200.549 6.72673C200.549 7.96973 201.165 8.81673 202.177 8.81673ZM207.872 9.47673C207.08 9.47673 206.365 9.09173 206.365 7.91473V4.86773H205.375V4.08673H206.365V2.33773H207.311V4.08673H208.411V4.86773H207.311V7.81573C207.311 8.43173 207.619 8.62973 208.092 8.62973C208.224 8.62973 208.334 8.61873 208.488 8.59673V9.41073C208.29 9.45473 208.092 9.47673 207.872 9.47673ZM209.622 9.38873V4.08673H210.568V9.38873H209.622ZM209.534 3.08573V1.95273H210.634V3.08573H209.534ZM212.596 9.38873V4.86773H211.595V4.08673H212.596V3.10773C212.596 2.07373 213.3 1.51273 214.114 1.51273C214.345 1.51273 214.554 1.56773 214.653 1.61173V2.41473C214.554 2.40373 214.433 2.38173 214.312 2.38173C213.817 2.38173 213.542 2.66773 213.542 3.17373V4.08673H214.642V4.86773H213.542V9.38873H212.596ZM216.154 11.6767L217.122 9.20173L214.999 4.08673H216.044L217.364 7.47473L217.617 8.12373L217.848 7.47473L219.014 4.08673H220.004L217.155 11.6767H216.154Z" fill="white" fill-opacity="0.5"/>
<circle cx="128.422" cy="13.3887" r="4" fill="white"/>
<g filter="url(#filter0_d_1806_12039)">
<circle cx="113.441" cy="68.5152" r="45.8211" fill="#F7FF6E"/>
</g>
<g filter="url(#filter1_d_1806_12039)">
<circle cx="150.854" cy="82.1331" r="45.8211" transform="rotate(40 150.854 82.1331)" fill="#F7FF6E"/>
</g>
<g filter="url(#filter2_d_1806_12039)">
<circle cx="170.761" cy="116.614" r="45.8211" transform="rotate(80 170.761 116.614)" fill="#F7FF6E"/>
</g>
<g filter="url(#filter3_d_1806_12039)">
<circle cx="163.848" cy="155.824" r="45.8211" transform="rotate(120 163.848 155.824)" fill="#F7FF6E"/>
</g>
<g filter="url(#filter4_d_1806_12039)">
<circle cx="133.348" cy="181.416" r="45.8211" transform="rotate(160 133.348 181.416)" fill="#F7FF6E"/>
</g>
<g filter="url(#filter5_d_1806_12039)">
<circle cx="93.532" cy="181.416" r="45.8211" transform="rotate(-160 93.532 181.416)" fill="#F7FF6E"/>
</g>
<g filter="url(#filter6_d_1806_12039)">
<circle cx="63.0334" cy="155.824" r="45.8211" transform="rotate(-120 63.0334 155.824)" fill="#F7FF6E"/>
</g>
<g filter="url(#filter7_d_1806_12039)">
<circle cx="56.1207" cy="116.614" r="45.8211" transform="rotate(-80 56.1207 116.614)" fill="#F7FF6E"/>
</g>
<g filter="url(#filter8_d_1806_12039)">
<circle cx="76.0259" cy="82.1332" r="45.8211" transform="rotate(-40 76.0259 82.1332)" fill="#F7FF6E"/>
</g>
<g filter="url(#filter9_d_1806_12039)">
<rect x="64.2959" y="110.23" width="99.5544" height="30.9079" transform="rotate(-0.425317 64.2959 110.23)" fill="#FF6B00"/>
</g>
<path d="M71.27 129.453C70.8403 129.453 70.6894 129.059 70.8171 128.734L73.6621 121.615C73.8015 121.267 74.0569 121.046 74.4634 121.046C74.8698 121.046 75.1485 121.255 75.2878 121.615L78.1329 128.699C78.2722 129.035 78.1096 129.453 77.6567 129.453C77.3781 129.453 77.1923 129.291 77.0877 129.012L76.2749 126.899H72.6286L71.8041 129.035C71.6996 129.303 71.5371 129.453 71.27 129.453ZM72.9654 126.016H75.9381L74.684 122.765C74.6027 122.556 74.533 122.347 74.4518 122.149C74.3821 122.347 74.3008 122.556 74.2195 122.765L72.9654 126.016ZM79.49 129.453C79.1881 129.453 78.9907 129.244 78.9907 128.873V124.158C78.9907 123.787 79.1881 123.578 79.49 123.578C79.792 123.578 79.9894 123.787 79.9894 124.158V124.646C80.2681 124.007 80.93 123.543 81.557 123.543C81.7196 123.543 81.8473 123.578 81.9519 123.647C82.068 123.729 82.1376 123.856 82.1376 124.019C82.1376 124.205 82.068 124.344 81.9402 124.425C81.8473 124.495 81.7196 124.53 81.5686 124.53C80.6048 124.53 79.9894 125.11 79.9894 126.353V128.873C79.9894 129.244 79.792 129.453 79.49 129.453ZM85.0751 129.488C83.5655 129.488 82.2998 128.49 82.2998 126.504C82.2998 124.739 83.5307 123.531 85.1332 123.531C86.1434 123.531 86.9563 124.007 87.3395 124.785C87.6298 125.389 87.386 125.738 86.9911 125.738C86.6892 125.738 86.5615 125.552 86.4686 125.273C86.2828 124.716 85.8067 124.321 85.1099 124.321C84.0416 124.321 83.3333 125.261 83.3333 126.504C83.3333 127.839 84.0532 128.71 85.1332 128.71C85.8415 128.71 86.3409 128.362 86.5383 127.746C86.6195 127.479 86.7705 127.294 87.0608 127.294C87.4324 127.294 87.653 127.619 87.3976 128.199C87.0608 128.977 86.2712 129.488 85.0751 129.488ZM89.0845 129.453C88.7826 129.453 88.5852 129.244 88.5852 128.873V121.627C88.5852 121.255 88.7826 121.046 89.0845 121.046C89.3865 121.046 89.5839 121.255 89.5839 121.627V124.158V124.472C89.8858 123.938 90.5477 123.531 91.3025 123.531C92.5914 123.531 93.3695 124.344 93.3695 125.784V128.873C93.3695 129.244 93.1721 129.453 92.8701 129.453C92.5682 129.453 92.3708 129.244 92.3708 128.873V125.912C92.3708 124.855 92.0108 124.321 91.1051 124.321C90.1529 124.321 89.5839 125.064 89.5839 125.947V128.873C89.5839 129.244 89.3865 129.453 89.0845 129.453ZM95.2705 129.453C94.9686 129.453 94.7712 129.279 94.7712 128.873V124.123C94.7712 123.717 94.9686 123.543 95.2705 123.543C95.5725 123.543 95.7699 123.717 95.7699 124.123V128.873C95.7699 129.279 95.5725 129.453 95.2705 129.453ZM94.5273 122.068C94.5273 121.662 94.8525 121.336 95.2589 121.336C95.6654 121.336 95.9905 121.662 95.9905 122.068C95.9905 122.474 95.6654 122.8 95.2589 122.8C94.8525 122.8 94.5273 122.474 94.5273 122.068ZM99.1656 129.453C98.8288 129.453 98.6082 129.279 98.4572 128.873L96.7154 124.321C96.5644 123.926 96.785 123.578 97.1682 123.578C97.4005 123.578 97.5747 123.717 97.6676 123.984L99.003 127.77L99.2004 128.315C99.2468 128.165 99.3049 128.002 99.3862 127.77L100.675 123.984C100.768 123.717 100.942 123.578 101.186 123.578C101.546 123.578 101.743 123.903 101.604 124.274L99.8623 128.873C99.7113 129.279 99.5023 129.453 99.1656 129.453ZM103.028 129.453C102.726 129.453 102.528 129.279 102.528 128.873V124.123C102.528 123.717 102.726 123.543 103.028 123.543C103.33 123.543 103.527 123.717 103.527 124.123V128.873C103.527 129.279 103.33 129.453 103.028 129.453ZM102.284 122.068C102.284 121.662 102.61 121.336 103.016 121.336C103.422 121.336 103.748 121.662 103.748 122.068C103.748 122.474 103.422 122.8 103.016 122.8C102.61 122.8 102.284 122.474 102.284 122.068ZM105.494 129.453C105.192 129.453 104.995 129.244 104.995 128.873V124.158C104.995 123.787 105.192 123.578 105.494 123.578C105.796 123.578 105.982 123.787 105.982 124.158V124.472C106.284 123.984 106.958 123.531 107.712 123.531C109.001 123.531 109.779 124.344 109.779 125.784V128.873C109.779 129.244 109.582 129.453 109.28 129.453C108.978 129.453 108.781 129.244 108.781 128.873V125.912C108.781 124.855 108.432 124.321 107.55 124.321C106.574 124.321 105.994 125.064 105.994 125.947V128.873C105.994 129.244 105.796 129.453 105.494 129.453ZM113.527 131.904C112.226 131.904 111.437 131.265 111.205 130.533C111.03 129.988 111.297 129.709 111.623 129.709C111.855 129.709 112.041 129.848 112.122 130.197C112.25 130.719 112.737 131.126 113.539 131.126C114.595 131.126 115.222 130.58 115.222 129.384V128.699V128.327C114.932 128.896 114.212 129.256 113.388 129.256C111.843 129.256 110.845 128.141 110.845 126.411C110.845 124.692 111.959 123.531 113.422 123.531C114.351 123.531 114.932 124.007 115.222 124.472V124.158C115.222 123.787 115.42 123.578 115.722 123.578C116.024 123.578 116.221 123.787 116.221 124.158V129.035C116.221 130.951 115.315 131.904 113.527 131.904ZM111.878 126.411C111.878 127.665 112.575 128.478 113.585 128.478C114.595 128.478 115.292 127.654 115.292 126.411C115.292 125.192 114.595 124.321 113.585 124.321C112.575 124.321 111.878 125.169 111.878 126.411ZM117.778 130.58C117.464 130.58 117.29 130.417 117.29 130.162C117.29 129.906 117.464 129.732 117.778 129.732H122.446C122.759 129.732 122.934 129.895 122.934 130.15C122.934 130.406 122.759 130.58 122.446 130.58H117.778ZM126.971 129.488C124.591 129.488 123.116 127.665 123.116 125.296C123.116 122.498 124.951 121 127.064 121C128.469 121 129.642 121.662 130.13 122.684C130.467 123.392 130.165 123.775 129.758 123.775C129.491 123.775 129.34 123.659 129.155 123.171C128.841 122.382 128.051 121.894 127.064 121.894C125.439 121.894 124.231 123.044 124.231 125.296C124.231 127.201 125.357 128.606 127.006 128.606C128.493 128.606 129.456 127.758 129.456 126.109V125.958H127.308C126.971 125.958 126.786 125.796 126.786 125.517C126.786 125.238 126.971 125.064 127.308 125.064H129.828C130.211 125.064 130.432 125.285 130.432 125.668V128.943C130.432 129.268 130.258 129.453 129.991 129.453C129.724 129.453 129.549 129.268 129.549 128.943V128.188C129.108 128.919 128.121 129.488 126.971 129.488ZM133.406 129.488C132.338 129.488 131.479 128.838 131.479 127.781C131.479 126.701 132.338 126.19 133.337 126.039L134.533 125.854C134.962 125.784 135.102 125.633 135.102 125.296C135.102 124.681 134.626 124.321 133.975 124.321C133.255 124.321 132.837 124.634 132.698 125.145C132.628 125.424 132.477 125.61 132.187 125.61C131.862 125.61 131.56 125.354 131.804 124.774C132.094 124.065 132.826 123.531 133.894 123.531C135.287 123.531 136.077 124.356 136.077 125.645V128.873C136.077 129.244 135.891 129.453 135.601 129.453C135.311 129.453 135.125 129.244 135.125 128.873V128.559C134.846 129.14 134.242 129.488 133.406 129.488ZM132.512 127.781C132.512 128.362 132.977 128.71 133.546 128.71C134.44 128.71 135.102 128.106 135.102 127.201V126.376C135.032 126.481 134.823 126.562 134.486 126.62L133.673 126.771C133.011 126.899 132.512 127.189 132.512 127.781ZM137.979 129.453C137.677 129.453 137.48 129.244 137.48 128.873V124.158C137.48 123.787 137.677 123.578 137.979 123.578C138.281 123.578 138.479 123.787 138.479 124.158V124.646C138.757 124.007 139.419 123.543 140.046 123.543C140.209 123.543 140.337 123.578 140.441 123.647C140.557 123.729 140.627 123.856 140.627 124.019C140.627 124.205 140.557 124.344 140.43 124.425C140.337 124.495 140.209 124.53 140.058 124.53C139.094 124.53 138.479 125.11 138.479 126.353V128.873C138.479 129.244 138.281 129.453 137.979 129.453ZM143.413 129.488C141.95 129.488 140.823 128.42 140.823 126.516C140.823 124.82 141.845 123.531 143.425 123.531C144.365 123.531 144.981 124.042 145.224 124.472V124.019V121.627C145.224 121.255 145.422 121.046 145.724 121.046C146.026 121.046 146.223 121.255 146.223 121.627V128.873C146.223 129.244 146.026 129.453 145.724 129.453C145.422 129.453 145.224 129.244 145.224 128.873V128.536C144.922 129.059 144.249 129.488 143.413 129.488ZM141.868 126.516C141.868 127.828 142.565 128.71 143.575 128.71C144.586 128.71 145.294 127.851 145.294 126.504C145.294 125.169 144.597 124.321 143.575 124.321C142.577 124.321 141.868 125.203 141.868 126.516ZM150.078 129.488C148.406 129.488 147.361 128.432 147.361 126.492C147.361 124.774 148.488 123.531 150.009 123.531C151.844 123.531 152.459 124.913 152.575 125.9C152.656 126.585 152.389 126.701 151.983 126.701H148.36C148.383 127.979 149.126 128.71 150.09 128.71C150.682 128.71 151.228 128.513 151.472 127.897C151.576 127.63 151.693 127.445 151.983 127.445C152.354 127.445 152.575 127.77 152.32 128.315C152.018 128.954 151.275 129.488 150.078 129.488ZM148.395 125.993H151.542C151.542 124.994 150.996 124.321 150.009 124.321C149.08 124.321 148.464 125.052 148.395 125.993ZM154.191 129.453C153.889 129.453 153.691 129.244 153.691 128.873V124.158C153.691 123.787 153.889 123.578 154.191 123.578C154.493 123.578 154.678 123.787 154.678 124.158V124.472C154.98 123.984 155.654 123.531 156.409 123.531C157.698 123.531 158.476 124.344 158.476 125.784V128.873C158.476 129.244 158.278 129.453 157.976 129.453C157.674 129.453 157.477 129.244 157.477 128.873V125.912C157.477 124.855 157.129 124.321 156.246 124.321C155.271 124.321 154.69 125.064 154.69 125.947V128.873C154.69 129.244 154.493 129.453 154.191 129.453Z" fill="black"/>
<defs>
<filter id="filter0_d_1806_12039" x="65.0469" y="20.1209" width="96.789" height="96.7885" filterUnits="userSpaceOnUse" color-interpolation-filters="sRGB">
<feFlood flood-opacity="0" result="BackgroundImageFix"/>
<feColorMatrix in="SourceAlpha" type="matrix" values="0 0 0 0 0 0 0 0 0 0 0 0 0 0 0 0 0 0 127 0" result="hardAlpha"/>
<feOffset/>
<feGaussianBlur stdDeviation="1.28661"/>
<feComposite in2="hardAlpha" operator="out"/>
<feColorMatrix type="matrix" values="0 0 0 0 0 0 0 0 0 0 0 0 0 0 0 0 0 0 0.25 0"/>
<feBlend mode="normal" in2="BackgroundImageFix" result="effect1_dropShadow_1806_12039"/>
<feBlend mode="normal" in="SourceGraphic" in2="effect1_dropShadow_1806_12039" result="shape"/>
</filter>
<filter id="filter1_d_1806_12039" x="102.458" y="33.7378" width="96.791" height="96.7907" filterUnits="userSpaceOnUse" color-interpolation-filters="sRGB">
<feFlood flood-opacity="0" result="BackgroundImageFix"/>
<feColorMatrix in="SourceAlpha" type="matrix" values="0 0 0 0 0 0 0 0 0 0 0 0 0 0 0 0 0 0 127 0" result="hardAlpha"/>
<feOffset/>
<feGaussianBlur stdDeviation="1.28661"/>
<feComposite in2="hardAlpha" operator="out"/>
<feColorMatrix type="matrix" values="0 0 0 0 0 0 0 0 0 0 0 0 0 0 0 0 0 0 0.25 0"/>
<feBlend mode="normal" in2="BackgroundImageFix" result="effect1_dropShadow_1806_12039"/>
<feBlend mode="normal" in="SourceGraphic" in2="effect1_dropShadow_1806_12039" result="shape"/>
</filter>
<filter id="filter2_d_1806_12039" x="122.358" y="68.2119" width="96.8036" height="96.8038" filterUnits="userSpaceOnUse" color-interpolation-filters="sRGB">
<feFlood flood-opacity="0" result="BackgroundImageFix"/>
<feColorMatrix in="SourceAlpha" type="matrix" values="0 0 0 0 0 0 0 0 0 0 0 0 0 0 0 0 0 0 127 0" result="hardAlpha"/>
<feOffset/>
<feGaussianBlur stdDeviation="1.28661"/>
<feComposite in2="hardAlpha" operator="out"/>
<feColorMatrix type="matrix" values="0 0 0 0 0 0 0 0 0 0 0 0 0 0 0 0 0 0 0.25 0"/>
<feBlend mode="normal" in2="BackgroundImageFix" result="effect1_dropShadow_1806_12039"/>
<feBlend mode="normal" in="SourceGraphic" in2="effect1_dropShadow_1806_12039" result="shape"/>
</filter>
<filter id="filter3_d_1806_12039" x="115.445" y="107.422" width="96.8036" height="96.8039" filterUnits="userSpaceOnUse" color-interpolation-filters="sRGB">
<feFlood flood-opacity="0" result="BackgroundImageFix"/>
<feColorMatrix in="SourceAlpha" type="matrix" values="0 0 0 0 0 0 0 0 0 0 0 0 0 0 0 0 0 0 127 0" result="hardAlpha"/>
<feOffset/>
<feGaussianBlur stdDeviation="1.28661"/>
<feComposite in2="hardAlpha" operator="out"/>
<feColorMatrix type="matrix" values="0 0 0 0 0 0 0 0 0 0 0 0 0 0 0 0 0 0 0.25 0"/>
<feBlend mode="normal" in2="BackgroundImageFix" result="effect1_dropShadow_1806_12039"/>
<feBlend mode="normal" in="SourceGraphic" in2="effect1_dropShadow_1806_12039" result="shape"/>
</filter>
<filter id="filter4_d_1806_12039" x="84.9405" y="133.009" width="96.8134" height="96.8135" filterUnits="userSpaceOnUse" color-interpolation-filters="sRGB">
<feFlood flood-opacity="0" result="BackgroundImageFix"/>
<feColorMatrix in="SourceAlpha" type="matrix" values="0 0 0 0 0 0 0 0 0 0 0 0 0 0 0 0 0 0 127 0" result="hardAlpha"/>
<feOffset/>
<feGaussianBlur stdDeviation="1.28661"/>
<feComposite in2="hardAlpha" operator="out"/>
<feColorMatrix type="matrix" values="0 0 0 0 0 0 0 0 0 0 0 0 0 0 0 0 0 0 0.25 0"/>
<feBlend mode="normal" in2="BackgroundImageFix" result="effect1_dropShadow_1806_12039"/>
<feBlend mode="normal" in="SourceGraphic" in2="effect1_dropShadow_1806_12039" result="shape"/>
</filter>
<filter id="filter5_d_1806_12039" x="45.125" y="133.009" width="96.8134" height="96.8135" filterUnits="userSpaceOnUse" color-interpolation-filters="sRGB">
<feFlood flood-opacity="0" result="BackgroundImageFix"/>
<feColorMatrix in="SourceAlpha" type="matrix" values="0 0 0 0 0 0 0 0 0 0 0 0 0 0 0 0 0 0 127 0" result="hardAlpha"/>
<feOffset/>
<feGaussianBlur stdDeviation="1.28661"/>
<feComposite in2="hardAlpha" operator="out"/>
<feColorMatrix type="matrix" values="0 0 0 0 0 0 0 0 0 0 0 0 0 0 0 0 0 0 0.25 0"/>
<feBlend mode="normal" in2="BackgroundImageFix" result="effect1_dropShadow_1806_12039"/>
<feBlend mode="normal" in="SourceGraphic" in2="effect1_dropShadow_1806_12039" result="shape"/>
</filter>
<filter id="filter6_d_1806_12039" x="14.6319" y="107.422" width="96.8036" height="96.8039" filterUnits="userSpaceOnUse" color-interpolation-filters="sRGB">
<feFlood flood-opacity="0" result="BackgroundImageFix"/>
<feColorMatrix in="SourceAlpha" type="matrix" values="0 0 0 0 0 0 0 0 0 0 0 0 0 0 0 0 0 0 127 0" result="hardAlpha"/>
<feOffset/>
<feGaussianBlur stdDeviation="1.28661"/>
<feComposite in2="hardAlpha" operator="out"/>
<feColorMatrix type="matrix" values="0 0 0 0 0 0 0 0 0 0 0 0 0 0 0 0 0 0 0.25 0"/>
<feBlend mode="normal" in2="BackgroundImageFix" result="effect1_dropShadow_1806_12039"/>
<feBlend mode="normal" in="SourceGraphic" in2="effect1_dropShadow_1806_12039" result="shape"/>
</filter>
<filter id="filter7_d_1806_12039" x="7.71878" y="68.2119" width="96.8036" height="96.8039" filterUnits="userSpaceOnUse" color-interpolation-filters="sRGB">
<feFlood flood-opacity="0" result="BackgroundImageFix"/>
<feColorMatrix in="SourceAlpha" type="matrix" values="0 0 0 0 0 0 0 0 0 0 0 0 0 0 0 0 0 0 127 0" result="hardAlpha"/>
<feOffset/>
<feGaussianBlur stdDeviation="1.28661"/>
<feComposite in2="hardAlpha" operator="out"/>
<feColorMatrix type="matrix" values="0 0 0 0 0 0 0 0 0 0 0 0 0 0 0 0 0 0 0.25 0"/>
<feBlend mode="normal" in2="BackgroundImageFix" result="effect1_dropShadow_1806_12039"/>
<feBlend mode="normal" in="SourceGraphic" in2="effect1_dropShadow_1806_12039" result="shape"/>
</filter>
<filter id="filter8_d_1806_12039" x="27.6309" y="33.7379" width="96.79" height="96.7906" filterUnits="userSpaceOnUse" color-interpolation-filters="sRGB">
<feFlood flood-opacity="0" result="BackgroundImageFix"/>
<feColorMatrix in="SourceAlpha" type="matrix" values="0 0 0 0 0 0 0 0 0 0 0 0 0 0 0 0 0 0 127 0" result="hardAlpha"/>
<feOffset/>
<feGaussianBlur stdDeviation="1.28661"/>
<feComposite in2="hardAlpha" operator="out"/>
<feColorMatrix type="matrix" values="0 0 0 0 0 0 0 0 0 0 0 0 0 0 0 0 0 0 0.25 0"/>
<feBlend mode="normal" in2="BackgroundImageFix" result="effect1_dropShadow_1806_12039"/>
<feBlend mode="normal" in="SourceGraphic" in2="effect1_dropShadow_1806_12039" result="shape"/>
</filter>
<filter id="filter9_d_1806_12039" x="61.541" y="106.736" width="105.291" height="37.1559" filterUnits="userSpaceOnUse" color-interpolation-filters="sRGB">
<feFlood flood-opacity="0" result="BackgroundImageFix"/>
<feColorMatrix in="SourceAlpha" type="matrix" values="0 0 0 0 0 0 0 0 0 0 0 0 0 0 0 0 0 0 127 0" result="hardAlpha"/>
<feOffset/>
<feGaussianBlur stdDeviation="1.37744"/>
<feComposite in2="hardAlpha" operator="out"/>
<feColorMatrix type="matrix" values="0 0 0 0 0 0 0 0 0 0 0 0 0 0 0 0 0 0 0.25 0"/>
<feBlend mode="normal" in2="BackgroundImageFix" result="effect1_dropShadow_1806_12039"/>
<feBlend mode="normal" in="SourceGraphic" in2="effect1_dropShadow_1806_12039" result="shape"/>
</filter>
</defs>
</svg>
