<svg width="443" height="92" viewBox="0 0 443 92" fill="none" xmlns="http://www.w3.org/2000/svg">
<g filter="url(#filter0_i_1874_602)">
<rect x="0.887207" y="0.0219727" width="442" height="91.7867" fill="#B4AEA5" fill-opacity="0.1"/>
<rect x="1.38721" y="0.521973" width="441" height="90.7867" stroke="#B3B3B3" stroke-opacity="0.4"/>
<path d="M58.1593 30.8305H60.8559C61.3515 30.8305 61.6381 30.5389 61.6381 30.0433V27.3516C61.6381 27.0989 61.4487 26.8997 61.1911 26.8997C60.9336 26.8997 60.749 27.094 60.749 27.3516V27.7597L60.851 29.4554L59.5683 28.1095L58.0767 26.6033C57.9941 26.5159 57.8823 26.4721 57.7657 26.4721C57.4887 26.4721 57.2847 26.6568 57.2847 26.9288C57.2847 27.0552 57.3333 27.1766 57.4207 27.2641L58.9172 28.7606L60.2631 30.0385L58.5674 29.9413H58.1593C57.9017 29.9413 57.7025 30.1211 57.7025 30.3834C57.7025 30.641 57.8969 30.8305 58.1593 30.8305ZM62.8188 35.7621C63.0764 35.7621 63.261 35.5726 63.261 35.3103V34.8487L63.1589 33.1578L64.4416 34.5037L65.9673 36.0391C66.0499 36.1265 66.1568 36.1702 66.2783 36.1702C66.5504 36.1702 66.7544 35.9856 66.7544 35.7135C66.7544 35.5872 66.7107 35.4657 66.6232 35.3783L65.0927 33.8477L63.742 32.5699L65.4426 32.6671H65.9042C66.1617 32.6671 66.3609 32.4873 66.3609 32.2298C66.3609 31.9674 66.1665 31.7828 65.9042 31.7828H63.1541C62.6585 31.7828 62.3718 32.0695 62.3718 32.565V35.3103C62.3718 35.5678 62.5564 35.7621 62.8188 35.7621Z" fill="white"/>
<g filter="url(#filter1_bii_1874_602)">
<rect x="80.2957" y="13.5626" width="283.183" height="35.6823" stroke="white" stroke-width="0.414616"/>
<path d="M182.288 25.4429C181.017 25.4429 180.186 24.7547 180.171 23.6475H180.867C180.912 24.4031 181.465 24.8744 182.296 24.8744C183.156 24.8744 183.627 24.4929 183.627 23.9243C183.627 23.4231 183.208 23.1987 182.588 23.0565L181.81 22.877C181.009 22.69 180.351 22.2337 180.351 21.4332C180.351 20.5879 181.159 19.9744 182.266 19.9744C183.395 19.9744 184.151 20.5879 184.211 21.5604H183.515C183.47 20.9395 182.984 20.5505 182.251 20.5505C181.57 20.5505 181.069 20.8946 181.069 21.3734C181.069 21.8222 181.368 22.0915 181.982 22.2337L182.909 22.4431C183.74 22.6376 184.346 23.0865 184.346 23.8794C184.346 24.7397 183.575 25.4429 182.288 25.4429ZM186.109 21.6576V21.1414C185.862 21.5379 185.383 21.8746 184.852 21.897V21.2387C185.458 21.1714 186.057 20.6627 186.229 20.0941H186.767V25.3307H186.109V21.6576ZM187.949 26.1386C188.181 26.0713 188.338 25.9292 188.338 25.4429V25.3307H187.942V24.4629H188.795V25.413C188.795 26.1611 188.451 26.4828 187.949 26.5576V26.1386ZM191.526 25.3307V20.0941H194.93V20.6627H192.207V22.3758H194.81V22.9518H192.207V24.7547H195.019V25.3307H191.526ZM197.956 25.3307V23.9916H195.555V23.3558L197.732 20.0941H198.614V23.3932H199.579V23.9916H198.614V25.3307H197.956ZM196.176 23.3932H197.956V20.6851L197.732 21.0442L196.348 23.1314L196.176 23.3932ZM202.041 22.9892V22.4431H203.986V22.9892H202.041ZM206.904 25.3307V20.0941H207.585V25.3307H206.904ZM210.59 25.3307V20.0941H211.234V25.3307H210.59ZM213.885 25.4429C212.845 25.4429 212.112 24.6724 212.112 23.5204C212.112 22.3982 212.845 21.6053 213.885 21.6053C214.917 21.6053 215.658 22.3982 215.658 23.5204C215.658 24.6724 214.917 25.4429 213.885 25.4429ZM213.885 24.9417C214.573 24.9417 214.992 24.3657 214.992 23.5204C214.992 22.675 214.558 22.114 213.885 22.114C213.211 22.114 212.778 22.675 212.778 23.5204C212.778 24.3657 213.197 24.9417 213.885 24.9417ZM217.392 25.3307L216.008 21.725H216.711L217.631 24.3358L217.751 24.6874L217.871 24.3358L218.768 21.725H219.442L218.073 25.3307H217.392ZM221.548 25.4429C220.47 25.4429 219.797 24.7622 219.797 23.5129C219.797 22.4057 220.523 21.6053 221.51 21.6053C222.588 21.6053 223.179 22.3608 223.179 23.5204V23.6475H220.441C220.456 24.4704 220.934 24.9417 221.555 24.9417C221.997 24.9417 222.415 24.7697 222.505 24.2161H223.141C223.066 24.8519 222.573 25.4429 221.548 25.4429ZM222.49 23.1912C222.49 22.5478 222.139 22.114 221.51 22.114C220.904 22.114 220.508 22.5852 220.463 23.1912H222.49ZM227.007 25.3906C226.468 25.3906 225.982 25.1287 225.982 24.3283V22.2561H225.308V21.725H225.982V20.5355H226.625V21.725H227.373V22.2561H226.625V24.261C226.625 24.6799 226.835 24.8145 227.156 24.8145C227.246 24.8145 227.321 24.8071 227.426 24.7921V25.3457C227.291 25.3756 227.156 25.3906 227.007 25.3906ZM228.197 25.3307V20.0941H228.84V21.9045V22.2112C229.035 21.8671 229.461 21.6053 229.947 21.6053C230.778 21.6053 231.279 22.1289 231.279 23.0565V25.3307H230.635V23.1388C230.635 22.4581 230.404 22.114 229.82 22.114C229.207 22.114 228.84 22.5927 228.84 23.1613V25.3307H228.197ZM233.857 25.4429C232.78 25.4429 232.107 24.7622 232.107 23.5129C232.107 22.4057 232.833 21.6053 233.82 21.6053C234.897 21.6053 235.488 22.3608 235.488 23.5204V23.6475H232.75C232.765 24.4704 233.244 24.9417 233.865 24.9417C234.306 24.9417 234.725 24.7697 234.815 24.2161H235.451C235.376 24.8519 234.882 25.4429 233.857 25.4429ZM234.8 23.1912C234.8 22.5478 234.448 22.114 233.82 22.114C233.214 22.114 232.818 22.5852 232.773 23.1912H234.8ZM238.266 25.3307V20.0941H238.947V25.3307H238.266ZM240.178 25.3307V21.725H240.814V21.9718V22.2112C241.008 21.897 241.442 21.6053 241.928 21.6053C242.759 21.6053 243.26 22.1289 243.26 23.0565V25.3307H242.616V23.1388C242.616 22.4581 242.392 22.114 241.823 22.114C241.195 22.114 240.821 22.5927 240.821 23.1613V25.3307H240.178ZM245.563 25.3906C245.024 25.3906 244.538 25.1287 244.538 24.3283V22.2561H243.864V21.725H244.538V20.5355H245.181V21.725H245.929V22.2561H245.181V24.261C245.181 24.6799 245.391 24.8145 245.712 24.8145C245.802 24.8145 245.877 24.8071 245.982 24.7921V25.3457C245.847 25.3756 245.712 25.3906 245.563 25.3906ZM248.227 25.4429C247.15 25.4429 246.477 24.7622 246.477 23.5129C246.477 22.4057 247.203 21.6053 248.19 21.6053C249.267 21.6053 249.858 22.3608 249.858 23.5204V23.6475H247.12C247.135 24.4704 247.614 24.9417 248.235 24.9417C248.676 24.9417 249.095 24.7697 249.185 24.2161H249.821C249.746 24.8519 249.252 25.4429 248.227 25.4429ZM249.17 23.1912C249.17 22.5478 248.818 22.114 248.19 22.114C247.584 22.114 247.188 22.5852 247.143 23.1912H249.17ZM250.741 25.3307V21.725H251.385V21.8821V22.3234C251.564 21.912 251.961 21.6053 252.514 21.6053C252.559 21.6053 252.619 21.6053 252.679 21.6127V22.2486C252.627 22.2411 252.567 22.2337 252.477 22.2337C251.781 22.2337 251.385 22.6227 251.385 23.4231V25.3307H250.741ZM253.335 25.3307V21.725H253.971V21.9718V22.2112C254.165 21.897 254.599 21.6053 255.085 21.6053C255.916 21.6053 256.417 22.1289 256.417 23.0565V25.3307H255.774V23.1388C255.774 22.4581 255.549 22.114 254.981 22.114C254.352 22.114 253.978 22.5927 253.978 23.1613V25.3307H253.335ZM258.996 25.4429C257.919 25.4429 257.245 24.7622 257.245 23.5129C257.245 22.4057 257.971 21.6053 258.958 21.6053C260.036 21.6053 260.627 22.3608 260.627 23.5204V23.6475H257.889C257.904 24.4704 258.382 24.9417 259.003 24.9417C259.445 24.9417 259.864 24.7697 259.953 24.2161H260.589C260.514 24.8519 260.021 25.4429 258.996 25.4429ZM259.938 23.1912C259.938 22.5478 259.587 22.114 258.958 22.114C258.352 22.114 257.956 22.5852 257.911 23.1912H259.938ZM262.745 25.3906C262.207 25.3906 261.72 25.1287 261.72 24.3283V22.2561H261.047V21.725H261.72V20.5355H262.364V21.725H263.112V22.2561H262.364V24.261C262.364 24.6799 262.573 24.8145 262.895 24.8145C262.985 24.8145 263.059 24.8071 263.164 24.7921V25.3457C263.029 25.3756 262.895 25.3906 262.745 25.3906Z" fill="#ECECEF"/>
<path d="M178.156 41.4769V35.1769H182.395V36.0139H179.155V37.8139H182.251V38.6689H179.155V40.6309H182.512V41.4769H178.156ZM185.251 41.5489C184.459 41.5489 183.919 41.1619 183.919 40.1899V37.8679H183.01V37.1119H183.919V35.5999H184.855V37.1119H185.845V37.8679H184.855V40.0639C184.855 40.5499 185.071 40.7659 185.494 40.7659C185.602 40.7659 185.71 40.7569 185.827 40.7389V41.4859C185.692 41.5219 185.476 41.5489 185.251 41.5489ZM186.713 41.4769V35.1769H187.649V37.3189C187.649 37.4449 187.649 37.5709 187.631 37.7149C187.874 37.2919 188.333 36.9679 188.972 36.9679C189.962 36.9679 190.547 37.6249 190.547 38.7229V41.4769H189.611V38.8489C189.611 38.1199 189.314 37.7059 188.711 37.7059C188.072 37.7059 187.649 38.2369 187.649 38.8849V41.4769H186.713ZM191.723 41.4769V37.1119H192.659V41.4769H191.723ZM191.687 36.3649V35.3299H192.704V36.3649H191.687ZM195.811 41.6209C194.524 41.6209 193.624 40.7839 193.624 39.2899C193.624 37.8679 194.596 36.9679 195.856 36.9679C197.008 36.9679 197.737 37.6609 197.836 38.6689H196.882C196.828 38.1379 196.477 37.7059 195.847 37.7059C195.109 37.7059 194.578 38.3359 194.578 39.2899C194.578 40.2439 195.082 40.8919 195.838 40.8919C196.495 40.8919 196.864 40.4779 196.936 39.9109H197.872C197.755 40.9369 197.053 41.6209 195.811 41.6209ZM200.032 41.6209C199.24 41.6209 198.529 41.1169 198.529 40.2799C198.529 39.3619 199.249 38.9929 200.104 38.8759L200.887 38.7589C201.229 38.7139 201.346 38.5879 201.346 38.3449C201.346 37.9579 201.04 37.6789 200.554 37.6789C199.96 37.6789 199.627 38.0029 199.6 38.4979H198.646C198.691 37.6429 199.375 36.9679 200.491 36.9679C201.697 36.9679 202.273 37.6429 202.273 38.7589V41.4769H201.4V41.2789C201.4 41.1439 201.409 41.0179 201.418 40.8829C201.193 41.3239 200.734 41.6209 200.032 41.6209ZM200.239 40.9189C200.878 40.9189 201.364 40.4689 201.364 39.8029V39.2449C201.292 39.3349 201.13 39.3889 200.869 39.4339L200.374 39.5329C199.861 39.6319 199.492 39.8299 199.492 40.2529C199.492 40.6759 199.825 40.9189 200.239 40.9189ZM203.439 41.4769V35.1769H204.375V41.4769H203.439ZM207.757 41.4769V35.1769H209.818C211.897 35.1769 213.175 36.1759 213.175 38.3269C213.175 40.2349 212.059 41.4769 209.926 41.4769H207.757ZM209.836 40.6309C211.258 40.6309 212.149 39.9379 212.149 38.3269C212.149 36.8599 211.402 36.0139 209.818 36.0139H208.756V40.6309H209.836ZM215.43 41.6209C214.638 41.6209 213.927 41.1169 213.927 40.2799C213.927 39.3619 214.647 38.9929 215.502 38.8759L216.285 38.7589C216.627 38.7139 216.744 38.5879 216.744 38.3449C216.744 37.9579 216.438 37.6789 215.952 37.6789C215.358 37.6789 215.025 38.0029 214.998 38.4979H214.044C214.089 37.6429 214.773 36.9679 215.889 36.9679C217.095 36.9679 217.671 37.6429 217.671 38.7589V41.4769H216.798V41.2789C216.798 41.1439 216.807 41.0179 216.816 40.8829C216.591 41.3239 216.132 41.6209 215.43 41.6209ZM215.637 40.9189C216.276 40.9189 216.762 40.4689 216.762 39.8029V39.2449C216.69 39.3349 216.528 39.3889 216.267 39.4339L215.772 39.5329C215.259 39.6319 214.89 39.8299 214.89 40.2529C214.89 40.6759 215.223 40.9189 215.637 40.9189ZM220.539 41.5489C219.747 41.5489 219.207 41.1619 219.207 40.1899V37.8679H218.298V37.1119H219.207V35.5999H220.143V37.1119H221.133V37.8679H220.143V40.0639C220.143 40.5499 220.359 40.7659 220.782 40.7659C220.89 40.7659 220.998 40.7569 221.115 40.7389V41.4859C220.98 41.5219 220.764 41.5489 220.539 41.5489ZM223.261 41.6209C222.469 41.6209 221.758 41.1169 221.758 40.2799C221.758 39.3619 222.478 38.9929 223.333 38.8759L224.116 38.7589C224.458 38.7139 224.575 38.5879 224.575 38.3449C224.575 37.9579 224.269 37.6789 223.783 37.6789C223.189 37.6789 222.856 38.0029 222.829 38.4979H221.875C221.92 37.6429 222.604 36.9679 223.72 36.9679C224.926 36.9679 225.502 37.6429 225.502 38.7589V41.4769H224.629V41.2789C224.629 41.1439 224.638 41.0179 224.647 40.8829C224.422 41.3239 223.963 41.6209 223.261 41.6209ZM223.468 40.9189C224.107 40.9189 224.593 40.4689 224.593 39.8029V39.2449C224.521 39.3349 224.359 39.3889 224.098 39.4339L223.603 39.5329C223.09 39.6319 222.721 39.8299 222.721 40.2529C222.721 40.6759 223.054 40.9189 223.468 40.9189ZM227.805 41.4769L230.361 35.1769H231.531L234.096 41.4769H232.98L232.305 39.6769H229.551L228.867 41.4769H227.805ZM229.866 38.8399H231.99L231.144 36.5989L230.928 35.9959C230.865 36.2029 230.784 36.3919 230.712 36.5989L229.866 38.8399ZM234.71 43.3309V37.1119H235.646V37.3639C235.646 37.4809 235.646 37.5889 235.628 37.7239C235.889 37.2919 236.393 36.9679 237.068 36.9679C238.274 36.9679 239.03 37.9399 239.03 39.2989C239.03 40.7029 238.193 41.6209 237.032 41.6209C236.357 41.6209 235.907 41.3149 235.628 40.8739C235.646 41.0179 235.646 41.1349 235.646 41.2609V43.3309H234.71ZM236.843 40.8919C237.581 40.8919 238.067 40.2349 238.067 39.2899C238.067 38.3629 237.59 37.7059 236.843 37.7059C236.123 37.7059 235.601 38.3179 235.601 39.2899C235.601 40.2439 236.114 40.8919 236.843 40.8919ZM239.984 43.3309V37.1119H240.92V37.3639C240.92 37.4809 240.92 37.5889 240.902 37.7239C241.163 37.2919 241.667 36.9679 242.342 36.9679C243.548 36.9679 244.304 37.9399 244.304 39.2989C244.304 40.7029 243.467 41.6209 242.306 41.6209C241.631 41.6209 241.181 41.3149 240.902 40.8739C240.92 41.0179 240.92 41.1349 240.92 41.2609V43.3309H239.984ZM242.117 40.8919C242.855 40.8919 243.341 40.2349 243.341 39.2899C243.341 38.3629 242.864 37.7059 242.117 37.7059C241.397 37.7059 240.875 38.3179 240.875 39.2899C240.875 40.2439 241.388 40.8919 242.117 40.8919ZM245.257 41.4769V37.1119H246.193V37.3729C246.193 37.5439 246.193 37.7059 246.175 37.8679C246.4 37.3729 246.841 36.9679 247.498 36.9679C247.57 36.9679 247.642 36.9679 247.714 36.9859V37.8949C247.651 37.8859 247.561 37.8679 247.435 37.8679C246.679 37.8679 246.193 38.2729 246.193 39.2359V41.4769H245.257ZM250.294 41.6209C249.007 41.6209 248.107 40.7209 248.107 39.2989C248.107 37.9039 249.016 36.9679 250.294 36.9679C251.581 36.9679 252.49 37.9039 252.49 39.2989C252.49 40.7209 251.581 41.6209 250.294 41.6209ZM250.294 40.8919C251.05 40.8919 251.536 40.2709 251.536 39.2989C251.536 38.3089 251.041 37.7059 250.294 37.7059C249.556 37.7059 249.061 38.3089 249.061 39.2989C249.061 40.2709 249.538 40.8919 250.294 40.8919ZM254.717 41.6209C253.925 41.6209 253.214 41.1169 253.214 40.2799C253.214 39.3619 253.934 38.9929 254.789 38.8759L255.572 38.7589C255.914 38.7139 256.031 38.5879 256.031 38.3449C256.031 37.9579 255.725 37.6789 255.239 37.6789C254.645 37.6789 254.312 38.0029 254.285 38.4979H253.331C253.376 37.6429 254.06 36.9679 255.176 36.9679C256.382 36.9679 256.958 37.6429 256.958 38.7589V41.4769H256.085V41.2789C256.085 41.1439 256.094 41.0179 256.103 40.8829C255.878 41.3239 255.419 41.6209 254.717 41.6209ZM254.924 40.9189C255.563 40.9189 256.049 40.4689 256.049 39.8029V39.2449C255.977 39.3349 255.815 39.3889 255.554 39.4339L255.059 39.5329C254.546 39.6319 254.177 39.8299 254.177 40.2529C254.177 40.6759 254.51 40.9189 254.924 40.9189ZM260.05 41.6209C258.763 41.6209 257.863 40.7839 257.863 39.2899C257.863 37.8679 258.835 36.9679 260.095 36.9679C261.247 36.9679 261.976 37.6609 262.075 38.6689H261.121C261.067 38.1379 260.716 37.7059 260.086 37.7059C259.348 37.7059 258.817 38.3359 258.817 39.2899C258.817 40.2439 259.321 40.8919 260.077 40.8919C260.734 40.8919 261.103 40.4779 261.175 39.9109H262.111C261.994 40.9369 261.292 41.6209 260.05 41.6209ZM263.011 41.4769V35.1769H263.947V37.3189C263.947 37.4449 263.947 37.5709 263.929 37.7149C264.172 37.2919 264.631 36.9679 265.27 36.9679C266.26 36.9679 266.845 37.6249 266.845 38.7229V41.4769H265.909V38.8489C265.909 38.1199 265.612 37.7059 265.009 37.7059C264.37 37.7059 263.947 38.2369 263.947 38.8849V41.4769H263.011Z" fill="#ECECEF"/>
</g>
<path d="M380.533 35.8264C380.853 35.8264 381.082 35.598 381.082 35.2822V27.8288C381.082 27.513 380.853 27.2555 380.523 27.2555C380.295 27.2555 380.139 27.3526 379.896 27.5907L377.821 29.5342C377.792 29.5634 377.749 29.578 377.7 29.578H376.31C375.65 29.578 375.295 29.9424 375.295 30.642V32.4495C375.295 33.154 375.65 33.5136 376.31 33.5136H377.7C377.749 33.5136 377.792 33.5282 377.821 33.5573L379.896 35.5203C380.115 35.734 380.304 35.8264 380.533 35.8264ZM382.816 33.6059C382.977 33.7176 383.205 33.6836 383.336 33.4942C383.71 33.0034 383.934 32.2795 383.934 31.5361C383.934 30.7927 383.71 30.0736 383.336 29.578C383.205 29.3885 382.977 29.3496 382.816 29.4662C382.617 29.6023 382.588 29.8452 382.739 30.0444C383.02 30.4331 383.181 30.9724 383.181 31.5361C383.181 32.0997 383.016 32.6341 382.739 33.0277C382.593 33.2318 382.617 33.465 382.816 33.6059ZM384.619 34.874C384.799 34.9955 385.022 34.9518 385.153 34.7672C385.775 33.912 386.14 32.7362 386.14 31.5361C386.14 30.3359 385.78 29.1504 385.153 28.305C385.022 28.1203 384.799 28.0766 384.619 28.1981C384.439 28.3195 384.41 28.5479 384.551 28.7471C385.081 29.4954 385.387 30.5011 385.387 31.5361C385.387 32.571 385.071 33.567 384.551 34.325C384.415 34.5242 384.439 34.7526 384.619 34.874ZM386.441 36.1616C386.606 36.2831 386.844 36.2345 386.975 36.0402C387.826 34.8109 388.336 33.2512 388.336 31.5361C388.336 29.816 387.811 28.2661 386.975 27.032C386.844 26.8328 386.606 26.789 386.441 26.9105C386.256 27.0368 386.232 27.2652 386.363 27.4644C387.116 28.5771 387.593 29.9764 387.593 31.5361C387.593 33.0909 387.116 34.4999 386.363 35.6077C386.232 35.8069 386.256 36.0353 386.441 36.1616Z" fill="white"/>
<g clip-path="url(#clip0_1874_602)">
<path d="M56.9893 66.9713C56.9893 70.0698 59.5602 72.6353 62.6532 72.6353C65.7517 72.6353 68.3171 70.0698 68.3171 66.9713C68.3171 64.2393 66.3237 61.9237 63.7249 61.4129V60.6244C63.7249 60.2301 63.4528 60.1246 63.153 60.3412L61.3816 61.5795C61.1262 61.7572 61.1206 62.0237 61.3816 62.2069L63.1474 63.4508C63.4528 63.6729 63.7249 63.5674 63.7249 63.1676V62.3791C65.8239 62.8566 67.3676 64.7224 67.3676 66.9713C67.3676 69.5923 65.2742 71.6913 62.6532 71.6913C60.0322 71.6913 57.9277 69.5923 57.9333 66.9713C57.9388 65.3943 58.7051 64.0005 59.8879 63.1565C60.1155 62.9843 60.1877 62.7234 60.0489 62.4901C59.9101 62.2625 59.6047 62.2014 59.3603 62.3902C57.9333 63.4286 56.9893 65.1055 56.9893 66.9713ZM61.0318 69.248C61.2483 69.248 61.3871 69.0981 61.3871 68.8649V65.361C61.3871 65.0778 61.2428 64.9279 60.9929 64.9279C60.8374 64.9279 60.7264 64.9778 60.532 65.1111L59.7657 65.6275C59.638 65.7219 59.5769 65.8219 59.5769 65.9496C59.5769 66.1328 59.7213 66.2883 59.9045 66.2883C60.01 66.2883 60.0656 66.2661 60.1711 66.1828L60.6986 65.7941H60.693V68.8649C60.693 69.0925 60.8263 69.248 61.0318 69.248ZM63.8526 69.3146C64.7744 69.3146 65.3853 68.7205 65.3853 67.8265C65.3853 67.0102 64.8355 66.4271 64.0414 66.4271C63.6916 66.4271 63.3084 66.5993 63.1641 66.8825H63.1918L63.2863 65.6275H64.9521C65.1131 65.6275 65.252 65.4942 65.252 65.3055C65.252 65.1167 65.1131 64.9945 64.9521 64.9945H63.1752C62.8864 64.9945 62.7254 65.1611 62.6976 65.4554L62.581 67.0546C62.5533 67.3322 62.6976 67.4655 62.942 67.4655C63.1252 67.4655 63.203 67.4322 63.364 67.3101C63.575 67.1157 63.7471 67.0379 63.9637 67.0379C64.3968 67.0379 64.6856 67.3545 64.6856 67.8376C64.6856 68.3262 64.3468 68.6816 63.886 68.6816C63.5583 68.6816 63.2751 68.4928 63.1307 68.2041C63.0475 68.0597 62.9475 67.9819 62.8087 67.9819C62.6254 67.9819 62.4977 68.1152 62.4977 68.304C62.4977 68.3818 62.5144 68.4539 62.5422 68.5261C62.6921 68.9259 63.1807 69.3146 63.8526 69.3146Z" fill="white"/>
</g>
<g clip-path="url(#clip1_1874_602)">
<path d="M88.8486 74.4039H91.0642C91.9096 74.4039 92.3566 73.957 92.3566 73.1018V59.8665C92.3566 58.9822 91.9096 58.574 91.0642 58.574H88.8486C88.0032 58.574 87.5562 59.021 87.5562 59.8665V73.1018C87.5562 73.957 88.0032 74.4039 88.8486 74.4039ZM95.9132 74.4039H98.1192C98.9743 74.4039 99.4116 73.957 99.4116 73.1018V59.8665C99.4116 58.9822 98.9743 58.574 98.1192 58.574H95.9132C95.0581 58.574 94.6111 59.021 94.6111 59.8665V73.1018C94.6111 73.957 95.0581 74.4039 95.9132 74.4039Z" fill="white"/>
</g>
<g clip-path="url(#clip2_1874_602)">
<path d="M118.351 66.9695C118.351 70.068 120.922 72.6335 124.015 72.6335C127.114 72.6335 129.679 70.068 129.679 66.9695C129.679 65.1037 128.735 63.4268 127.308 62.3884C127.064 62.1996 126.758 62.2607 126.62 62.4883C126.481 62.7216 126.553 62.9826 126.781 63.1547C127.963 63.9987 128.73 65.3925 128.735 66.9695C128.741 69.5905 126.636 71.6895 124.015 71.6895C121.394 71.6895 119.301 69.5905 119.301 66.9695C119.301 64.7206 120.845 62.8548 122.944 62.3773V63.1713C122.944 63.5656 123.216 63.6711 123.521 63.4545L125.292 62.2107C125.542 62.0386 125.548 61.772 125.292 61.5888L123.527 60.3449C123.216 60.1228 122.944 60.2283 122.944 60.6281V61.4111C120.345 61.9219 118.351 64.2375 118.351 66.9695ZM122.366 69.2462C122.583 69.2462 122.721 69.0963 122.721 68.8631V65.3592C122.721 65.076 122.577 64.9261 122.327 64.9261C122.172 64.9261 122.061 64.976 121.866 65.1093L121.1 65.6257C120.972 65.7201 120.911 65.8201 120.911 65.9478C120.911 66.131 121.061 66.2865 121.239 66.2865C121.344 66.2865 121.4 66.2643 121.505 66.181L122.033 65.7923H122.027V68.8631C122.027 69.0907 122.161 69.2462 122.366 69.2462ZM125.187 69.3128C126.109 69.3128 126.72 68.7187 126.72 67.8247C126.72 67.0084 126.17 66.4253 125.376 66.4253C125.026 66.4253 124.643 66.5975 124.498 66.8807H124.526L124.621 65.6257H126.286C126.447 65.6257 126.586 65.4924 126.586 65.3037C126.586 65.1149 126.447 64.9927 126.286 64.9927H124.509C124.221 64.9927 124.06 65.1593 124.032 65.4536L123.915 67.0528C123.888 67.3304 124.032 67.4637 124.276 67.4637C124.459 67.4637 124.537 67.4304 124.698 67.3083C124.909 67.1139 125.081 67.0362 125.304 67.0362C125.731 67.0362 126.02 67.3527 126.02 67.8358C126.02 68.3244 125.681 68.6798 125.22 68.6798C124.893 68.6798 124.609 68.491 124.465 68.2023C124.382 68.0579 124.282 67.9801 124.143 67.9801C123.96 67.9801 123.832 68.1134 123.832 68.3022C123.832 68.38 123.849 68.4521 123.882 68.5243C124.026 68.9241 124.515 69.3128 125.187 69.3128Z" fill="white"/>
</g>
<g filter="url(#filter2_i_1874_602)">
<rect x="143.11" y="63.9638" width="220.576" height="5.80462" rx="2.90231" fill="white" fill-opacity="0.25"/>
<g filter="url(#filter3_iii_1874_602)">
<rect x="143.11" y="63.9638" width="128.116" height="5.80462" rx="2.90231" fill="#C8C4C1"/>
</g>
</g>
<g clip-path="url(#clip3_1874_602)">
<path d="M379.308 72.3485H384.925C385.795 72.3485 386.305 71.8431 386.305 70.8422V65.3324C386.305 64.3315 385.79 63.8262 384.779 63.8262H379.308C378.293 63.8262 377.783 64.3266 377.783 65.3324V70.8422C377.783 71.8431 378.293 72.3485 379.308 72.3485ZM379.318 71.5662C378.832 71.5662 378.565 71.3038 378.565 70.7985V65.3712C378.565 64.8708 378.832 64.6084 379.318 64.6084H384.765C385.246 64.6084 385.523 64.8708 385.523 65.3712V70.7985C385.523 71.3038 385.246 71.5662 384.911 71.5662H379.318ZM378.842 63.0439H385.241C385.168 62.6017 384.959 62.3588 384.473 62.3588H379.61C379.124 62.3588 378.915 62.6017 378.842 63.0439ZM379.687 61.698H384.4C384.371 61.285 384.133 61.0712 383.686 61.0712H380.397C379.95 61.0712 379.717 61.285 379.687 61.698ZM381.14 70.0114L383.905 68.374C384.114 68.2574 384.109 67.9756 383.905 67.8541L381.14 66.2167C380.931 66.0952 380.654 66.1875 380.654 66.4256V69.8024C380.654 70.0357 380.912 70.1474 381.14 70.0114Z" fill="white"/>
</g>
</g>
<defs>
<filter id="filter0_i_1874_602" x="0.887207" y="0.0219727" width="443.333" height="93.1201" filterUnits="userSpaceOnUse" color-interpolation-filters="sRGB">
<feFlood flood-opacity="0" result="BackgroundImageFix"/>
<feBlend mode="normal" in="SourceGraphic" in2="BackgroundImageFix" result="shape"/>
<feColorMatrix in="SourceAlpha" type="matrix" values="0 0 0 0 0 0 0 0 0 0 0 0 0 0 0 0 0 0 127 0" result="hardAlpha"/>
<feOffset dx="2" dy="2"/>
<feGaussianBlur stdDeviation="0.666667"/>
<feComposite in2="hardAlpha" operator="arithmetic" k2="-1" k3="1"/>
<feColorMatrix type="matrix" values="0 0 0 0 1 0 0 0 0 1 0 0 0 0 1 0 0 0 0.1 0"/>
<feBlend mode="normal" in2="shape" result="effect1_innerShadow_1874_602"/>
</filter>
<filter id="filter1_bii_1874_602" x="38.6268" y="-28.1063" width="366.52" height="119.02" filterUnits="userSpaceOnUse" color-interpolation-filters="sRGB">
<feFlood flood-opacity="0" result="BackgroundImageFix"/>
<feGaussianBlur in="BackgroundImageFix" stdDeviation="20.7308"/>
<feComposite in2="SourceAlpha" operator="in" result="effect1_backgroundBlur_1874_602"/>
<feBlend mode="normal" in="SourceGraphic" in2="effect1_backgroundBlur_1874_602" result="shape"/>
<feColorMatrix in="SourceAlpha" type="matrix" values="0 0 0 0 0 0 0 0 0 0 0 0 0 0 0 0 0 0 127 0" result="hardAlpha"/>
<feOffset dx="1.24385" dy="1.24385"/>
<feGaussianBlur stdDeviation="0.414616"/>
<feComposite in2="hardAlpha" operator="arithmetic" k2="-1" k3="1"/>
<feColorMatrix type="matrix" values="0 0 0 0 1 0 0 0 0 1 0 0 0 0 1 0 0 0 0.1 0"/>
<feBlend mode="normal" in2="shape" result="effect2_innerShadow_1874_602"/>
<feColorMatrix in="SourceAlpha" type="matrix" values="0 0 0 0 0 0 0 0 0 0 0 0 0 0 0 0 0 0 127 0" result="hardAlpha"/>
<feOffset dx="-0.829232"/>
<feGaussianBlur stdDeviation="0.414616"/>
<feComposite in2="hardAlpha" operator="arithmetic" k2="-1" k3="1"/>
<feColorMatrix type="matrix" values="0 0 0 0 1 0 0 0 0 1 0 0 0 0 1 0 0 0 0.2 0"/>
<feBlend mode="normal" in2="effect2_innerShadow_1874_602" result="effect3_innerShadow_1874_602"/>
</filter>
<filter id="filter2_i_1874_602" x="143.11" y="63.9638" width="220.576" height="7.46309" filterUnits="userSpaceOnUse" color-interpolation-filters="sRGB">
<feFlood flood-opacity="0" result="BackgroundImageFix"/>
<feBlend mode="normal" in="SourceGraphic" in2="BackgroundImageFix" result="shape"/>
<feColorMatrix in="SourceAlpha" type="matrix" values="0 0 0 0 0 0 0 0 0 0 0 0 0 0 0 0 0 0 127 0" result="hardAlpha"/>
<feOffset dy="1.65846"/>
<feGaussianBlur stdDeviation="0.829232"/>
<feComposite in2="hardAlpha" operator="arithmetic" k2="-1" k3="1"/>
<feColorMatrix type="matrix" values="0 0 0 0 0.239216 0 0 0 0 0.239216 0 0 0 0 0.239216 0 0 0 0.35 0"/>
<feBlend mode="normal" in2="shape" result="effect1_innerShadow_1874_602"/>
</filter>
<filter id="filter3_iii_1874_602" x="142.281" y="63.1346" width="129.775" height="6.63386" filterUnits="userSpaceOnUse" color-interpolation-filters="sRGB">
<feFlood flood-opacity="0" result="BackgroundImageFix"/>
<feBlend mode="normal" in="SourceGraphic" in2="BackgroundImageFix" result="shape"/>
<feColorMatrix in="SourceAlpha" type="matrix" values="0 0 0 0 0 0 0 0 0 0 0 0 0 0 0 0 0 0 127 0" result="hardAlpha"/>
<feOffset dy="-0.829232"/>
<feGaussianBlur stdDeviation="0.414616"/>
<feComposite in2="hardAlpha" operator="arithmetic" k2="-1" k3="1"/>
<feColorMatrix type="matrix" values="0 0 0 0 1 0 0 0 0 1 0 0 0 0 1 0 0 0 0.35 0"/>
<feBlend mode="normal" in2="shape" result="effect1_innerShadow_1874_602"/>
<feColorMatrix in="SourceAlpha" type="matrix" values="0 0 0 0 0 0 0 0 0 0 0 0 0 0 0 0 0 0 127 0" result="hardAlpha"/>
<feOffset dx="0.829232" dy="-0.829232"/>
<feGaussianBlur stdDeviation="0.414616"/>
<feComposite in2="hardAlpha" operator="arithmetic" k2="-1" k3="1"/>
<feColorMatrix type="matrix" values="0 0 0 0 1 0 0 0 0 1 0 0 0 0 1 0 0 0 0.1 0"/>
<feBlend mode="normal" in2="effect1_innerShadow_1874_602" result="effect2_innerShadow_1874_602"/>
<feColorMatrix in="SourceAlpha" type="matrix" values="0 0 0 0 0 0 0 0 0 0 0 0 0 0 0 0 0 0 127 0" result="hardAlpha"/>
<feOffset dx="-0.829232"/>
<feGaussianBlur stdDeviation="0.414616"/>
<feComposite in2="hardAlpha" operator="arithmetic" k2="-1" k3="1"/>
<feColorMatrix type="matrix" values="0 0 0 0 1 0 0 0 0 1 0 0 0 0 1 0 0 0 0.2 0"/>
<feBlend mode="normal" in2="effect2_innerShadow_1874_602" result="effect3_innerShadow_1874_602"/>
</filter>
<clipPath id="clip0_1874_602">
<rect width="11.3279" height="13.4869" fill="white" transform="translate(56.9917 60.2324)"/>
</clipPath>
<clipPath id="clip1_1874_602">
<rect width="11.8554" height="15.8299" fill="white" transform="translate(87.5505 58.5745)"/>
</clipPath>
<clipPath id="clip2_1874_602">
<rect width="11.3279" height="13.4833" fill="white" transform="translate(118.352 60.2324)"/>
</clipPath>
<clipPath id="clip3_1874_602">
<rect width="8.52231" height="11.287" fill="white" transform="translate(377.783 61.0615)"/>
</clipPath>
</defs>
</svg>
