<svg width="2721" height="600" viewBox="0 0 2721 600" fill="none" xmlns="http://www.w3.org/2000/svg">
<rect width="2721" height="600" fill="white"/>
<line x1="39.1659" y1="69.0173" x2="90.4468" y2="164.421" stroke="#15D076" stroke-width="0.376595"/>
<line x1="37" y1="76.9181" x2="62" y2="76.9182" stroke="#15D076" stroke-width="0.376595"/>
<line x1="769" y1="76.9181" x2="802" y2="76.9182" stroke="#15D076" stroke-width="0.376595"/>
<path d="M1743.5 76.8625L1774.41 76.8623" stroke="#15D076" stroke-width="0.376595"/>
<line x1="2229" y1="76.8117" x2="2259" y2="76.8117" stroke="#15D076" stroke-width="0.376595"/>
<line x1="939.798" y1="288.527" x2="1015.12" y2="253.127" stroke="#15D076" stroke-width="0.376595"/>
<line x1="1292.37" y1="133.352" x2="1381.25" y2="133.352" stroke="#15D076" stroke-width="0.376595"/>
<line x1="1164.23" y1="236.566" x2="1334.45" y2="133.379" stroke="#15D076" stroke-width="0.376595"/>
<line x1="1585.44" y1="150.69" x2="1785.03" y2="235.8" stroke="#15D076" stroke-width="0.376595"/>
<line x1="1761.15" y1="69.2249" x2="1667.6" y2="184.876" stroke="#15D076" stroke-width="0.376595"/>
<line x1="2237.16" y1="72.0986" x2="2015.59" y2="432.655" stroke="#15D076" stroke-width="0.376595"/>
<line x1="2234.53" y1="190.954" x2="2169.01" y2="161.58" stroke="#15D076" stroke-width="0.376595"/>
<line x1="2234.44" y1="347.527" x2="2151.59" y2="173.541" stroke="#15D076" stroke-width="0.376595"/>
<line x1="1329.92" y1="390.978" x2="1387.92" y2="349.552" stroke="#15D076" stroke-width="0.376595"/>
<line x1="1406.03" y1="223.747" x2="1622.2" y2="141.649" stroke="#15D076" stroke-width="0.376595"/>
<line x1="238.645" y1="164.609" x2="69.9306" y2="151.804" stroke="#15D076" stroke-width="0.376595"/>
<line x1="778.025" y1="77.2201" x2="508.383" y2="208.275" stroke="#15D076" stroke-width="0.376595"/>
<line x1="766.115" y1="67.957" x2="1187.79" y2="390.981" stroke="#15D076" stroke-width="0.376595"/>
<line x1="160.471" y1="158.517" x2="118.292" y2="208.228" stroke="#15D076" stroke-width="0.376595"/>
</svg>
