 <svg width="1443" height="225" viewBox="0 0 1443 225" fill="none" xmlns="http://www.w3.org/2000/svg">
        <mask id="path-1-outside-1_2075_5167" maskUnits="userSpaceOnUse" x="-1" y="-0.561523" width="1445" height="226"
            fill="black">
            <rect fill="white" x="-1" y="-0.561523" width="1445" height="226" />
            <path
                d="M0.800001 224.438L0.800001 0.438461H29.92L29.92 224.438H0.800001ZM75.675 224.438L75.675 0.438461L119.515 0.438461L233.115 191.478V163.318L233.115 0.438461L262.555 0.438461L262.555 224.438H221.915L104.795 28.5985V55.7985L104.795 224.438H75.675ZM359.57 224.438L359.57 24.7585H282.13V0.438461L465.81 0.438461V24.7585L388.69 24.7585L388.69 224.438H359.57ZM485.738 224.438V0.438461L631.338 0.438461V24.7585L514.858 24.7585V98.0385L626.218 98.0385V122.678L514.858 122.678V199.798H635.178V224.438L485.738 224.438ZM668.738 224.438V0.438461L763.778 0.438461C806.658 0.438461 833.858 21.5585 833.858 59.3185C833.858 87.4785 812.738 107.638 792.578 113.718C813.698 117.238 829.058 135.478 829.058 164.918V224.438H799.938V172.918C799.938 137.398 786.178 126.518 752.898 126.518H697.858V224.438H668.738ZM756.738 101.878C786.818 101.878 804.098 88.1185 804.098 62.8385C804.098 37.5585 786.818 24.7585 756.738 24.7585L697.858 24.7585V101.878H756.738ZM869.55 224.438V0.438461L913.39 0.438461L1026.99 191.478V163.318V0.438461L1056.43 0.438461V224.438H1015.79L898.67 28.5985V55.7985V224.438H869.55ZM1101.93 224.438V0.438461L1247.53 0.438461V24.7585L1131.05 24.7585V98.0385H1242.41V122.678H1131.05V199.798L1251.37 199.798V224.438L1101.93 224.438ZM1336.45 224.438V24.7585H1259.01V0.438461L1442.69 0.438461V24.7585L1365.57 24.7585V224.438H1336.45Z" />
        </mask>
        <path
            d="M0.800001 224.438H-0.136778V225.375H0.800001V224.438ZM0.800001 0.438461V-0.498318H-0.136778V0.438461H0.800001ZM29.92 0.438461H30.8568V-0.498318H29.92V0.438461ZM29.92 224.438V225.375H30.8568V224.438H29.92ZM1.73678 224.438L1.73678 0.438461H-0.136778L-0.136778 224.438H1.73678ZM0.800001 1.37524H29.92V-0.498318H0.800001V1.37524ZM28.9832 0.438461L28.9832 224.438H30.8568L30.8568 0.438461H28.9832ZM29.92 223.502H0.800001V225.375H29.92V223.502ZM75.675 224.438H74.7382V225.375H75.675V224.438ZM75.675 0.438461V-0.498318H74.7382V0.438461H75.675ZM119.515 0.438461L120.32 -0.040329L120.048 -0.498318H119.515V0.438461ZM233.115 191.478L232.31 191.957L234.052 194.887V191.478H233.115ZM233.115 0.438461V-0.498318H232.178V0.438461H233.115ZM262.555 0.438461H263.492V-0.498318H262.555V0.438461ZM262.555 224.438V225.375H263.492V224.438H262.555ZM221.915 224.438L221.111 224.919L221.384 225.375H221.915V224.438ZM104.795 28.5985L105.599 28.1177L103.858 25.2069L103.858 28.5985L104.795 28.5985ZM104.795 224.438V225.375H105.732V224.438H104.795ZM76.6118 224.438L76.6118 0.438461H74.7382L74.7382 224.438H76.6118ZM75.675 1.37524L119.515 1.37524V-0.498318L75.675 -0.498318V1.37524ZM118.71 0.917252L232.31 191.957L233.92 191L120.32 -0.040329L118.71 0.917252ZM234.052 191.478V163.318H232.178V191.478H234.052ZM234.052 163.318L234.052 0.438461H232.178L232.178 163.318H234.052ZM233.115 1.37524L262.555 1.37524V-0.498318L233.115 -0.498318V1.37524ZM261.618 0.438461L261.618 224.438H263.492L263.492 0.438461H261.618ZM262.555 223.502H221.915V225.375H262.555V223.502ZM222.719 223.958L105.599 28.1177L103.991 29.0793L221.111 224.919L222.719 223.958ZM103.858 28.5985V55.7985L105.732 55.7985V28.5985L103.858 28.5985ZM103.858 55.7985L103.858 224.438H105.732L105.732 55.7985L103.858 55.7985ZM104.795 223.502H75.675V225.375H104.795V223.502ZM359.57 224.438H358.633V225.375H359.57V224.438ZM359.57 24.7585H360.507V23.8217H359.57V24.7585ZM282.13 24.7585L281.193 24.7585V25.6953L282.13 25.6953V24.7585ZM282.13 0.438461V-0.498318H281.193V0.438461H282.13ZM465.81 0.438461H466.747V-0.498318H465.81V0.438461ZM465.81 24.7585V25.6953H466.747V24.7585H465.81ZM388.69 24.7585V23.8217H387.753V24.7585H388.69ZM388.69 224.438V225.375H389.627V224.438H388.69ZM360.507 224.438L360.507 24.7585H358.633L358.633 224.438H360.507ZM359.57 23.8217H282.13V25.6953H359.57V23.8217ZM283.067 24.7585V0.438461H281.193V24.7585L283.067 24.7585ZM282.13 1.37524L465.81 1.37524V-0.498318L282.13 -0.498318V1.37524ZM464.873 0.438461V24.7585H466.747V0.438461H464.873ZM465.81 23.8217L388.69 23.8217V25.6953L465.81 25.6953V23.8217ZM387.753 24.7585L387.753 224.438H389.627L389.627 24.7585H387.753ZM388.69 223.502H359.57V225.375H388.69V223.502ZM485.737 224.438H484.801V225.375H485.737V224.438ZM485.737 0.438461V-0.498318H484.801V0.438461H485.737ZM631.338 0.438461H632.274V-0.498318H631.338V0.438461ZM631.338 24.7585V25.6953H632.274V24.7585H631.338ZM514.857 24.7585V23.8217H513.921V24.7585H514.857ZM514.857 98.0385H513.921V98.9753H514.857V98.0385ZM626.218 98.0385H627.154V97.1017H626.218V98.0385ZM626.218 122.678V123.615H627.154V122.678H626.218ZM514.857 122.678V121.742H513.921V122.678H514.857ZM514.857 199.798H513.921V200.735H514.857V199.798ZM635.177 199.798H636.114V198.862H635.177V199.798ZM635.177 224.438V225.375H636.114V224.438H635.177ZM486.674 224.438V0.438461H484.801V224.438H486.674ZM485.737 1.37524L631.338 1.37524V-0.498318L485.737 -0.498318V1.37524ZM630.401 0.438461V24.7585H632.274V0.438461H630.401ZM631.338 23.8217L514.857 23.8217V25.6953L631.338 25.6953V23.8217ZM513.921 24.7585V98.0385H515.794V24.7585H513.921ZM514.857 98.9753L626.218 98.9753V97.1017L514.857 97.1017V98.9753ZM625.281 98.0385V122.678H627.154V98.0385H625.281ZM626.218 121.742L514.857 121.742V123.615L626.218 123.615V121.742ZM513.921 122.678V199.798H515.794V122.678H513.921ZM514.857 200.735H635.177V198.862H514.857V200.735ZM634.241 199.798V224.438H636.114V199.798H634.241ZM635.177 223.502L485.737 223.502V225.375L635.177 225.375V223.502ZM668.737 224.438H667.801V225.375H668.737V224.438ZM668.737 0.438461V-0.498318H667.801V0.438461H668.737ZM792.578 113.718L792.307 112.822L792.424 114.643L792.578 113.718ZM829.057 224.438V225.375H829.994V224.438H829.057ZM799.938 224.438H799.001V225.375H799.938V224.438ZM697.857 126.518V125.582H696.921V126.518H697.857ZM697.857 224.438V225.375H698.794V224.438H697.857ZM697.857 24.7585V23.8217H696.921V24.7585H697.857ZM697.857 101.878H696.921V102.815H697.857V101.878ZM669.674 224.438V0.438461H667.801V224.438H669.674ZM668.737 1.37524L763.778 1.37524V-0.498318L668.737 -0.498318V1.37524ZM763.778 1.37524C785.076 1.37524 802.36 6.62128 814.302 16.442C826.22 26.2424 832.921 40.6827 832.921 59.3185H834.794C834.794 40.1943 827.895 25.1945 815.492 14.9949C803.115 4.81565 785.359 -0.498318 763.778 -0.498318V1.37524ZM832.921 59.3185C832.921 86.9787 812.161 106.834 792.307 112.822L792.848 114.615C813.314 108.443 834.794 87.9782 834.794 59.3185H832.921ZM792.424 114.643C812.996 118.071 828.121 135.832 828.121 164.918H829.994C829.994 135.125 814.399 116.406 792.732 112.794L792.424 114.643ZM828.121 164.918V224.438H829.994V164.918H828.121ZM829.057 223.502H799.938V225.375H829.057V223.502ZM800.874 224.438V172.918H799.001V224.438H800.874ZM800.874 172.918C800.874 155.078 797.426 143.147 789.54 135.717C781.667 128.299 769.591 125.582 752.898 125.582V127.455C769.484 127.455 780.928 130.178 788.255 137.08C795.569 143.97 799.001 155.239 799.001 172.918H800.874ZM752.898 125.582H697.857V127.455H752.898V125.582ZM696.921 126.518V224.438H698.794V126.518H696.921ZM697.857 223.502H668.737V225.375H697.857V223.502ZM756.737 102.815C771.904 102.815 783.985 99.3481 792.29 92.564C800.625 85.756 805.034 75.7085 805.034 62.8385H803.161C803.161 75.2484 798.93 84.7209 791.105 91.113C783.25 97.5289 771.651 100.942 756.737 100.942V102.815ZM805.034 62.8385C805.034 49.9659 800.622 40.1512 792.277 33.5824C783.969 27.0428 771.89 23.8217 756.737 23.8217V25.6953C771.665 25.6953 783.266 28.8742 791.118 35.0546C798.933 41.2057 803.161 50.431 803.161 62.8385H805.034ZM756.737 23.8217L697.857 23.8217V25.6953L756.737 25.6953V23.8217ZM696.921 24.7585V101.878H698.794V24.7585H696.921ZM697.857 102.815H756.737V100.942H697.857V102.815ZM869.55 224.438H868.613V225.375H869.55V224.438ZM869.55 0.438461V-0.498318H868.613V0.438461H869.55ZM913.39 0.438461L914.195 -0.040329L913.923 -0.498318H913.39V0.438461ZM1026.99 191.478L1026.18 191.957L1027.93 194.887V191.478H1026.99ZM1026.99 0.438461V-0.498318H1026.05V0.438461H1026.99ZM1056.43 0.438461H1057.37V-0.498318H1056.43V0.438461ZM1056.43 224.438V225.375H1057.37V224.438H1056.43ZM1015.79 224.438L1014.99 224.919L1015.26 225.375H1015.79V224.438ZM898.67 28.5985L899.474 28.1177L897.733 25.2069V28.5985H898.67ZM898.67 224.438V225.375H899.607V224.438H898.67ZM870.487 224.438V0.438461H868.613V224.438H870.487ZM869.55 1.37524L913.39 1.37524V-0.498318L869.55 -0.498318V1.37524ZM912.585 0.917252L1026.18 191.957L1027.8 191L914.195 -0.040329L912.585 0.917252ZM1027.93 191.478V163.318H1026.05V191.478H1027.93ZM1027.93 163.318V0.438461H1026.05V163.318H1027.93ZM1026.99 1.37524L1056.43 1.37524V-0.498318L1026.99 -0.498318V1.37524ZM1055.49 0.438461V224.438H1057.37V0.438461H1055.49ZM1056.43 223.502H1015.79V225.375H1056.43V223.502ZM1016.59 223.958L899.474 28.1177L897.866 29.0793L1014.99 224.919L1016.59 223.958ZM897.733 28.5985V55.7985H899.607V28.5985H897.733ZM897.733 55.7985V224.438H899.607V55.7985H897.733ZM898.67 223.502H869.55V225.375H898.67V223.502ZM1101.93 224.438H1100.99V225.375H1101.93V224.438ZM1101.93 0.438461V-0.498318H1100.99V0.438461H1101.93ZM1247.53 0.438461H1248.46V-0.498318H1247.53V0.438461ZM1247.53 24.7585V25.6953H1248.46V24.7585H1247.53ZM1131.05 24.7585V23.8217H1130.11V24.7585H1131.05ZM1131.05 98.0385H1130.11V98.9753H1131.05V98.0385ZM1242.41 98.0385H1243.34V97.1017H1242.41V98.0385ZM1242.41 122.678V123.615H1243.34V122.678H1242.41ZM1131.05 122.678V121.742H1130.11V122.678H1131.05ZM1131.05 199.798H1130.11V200.735H1131.05V199.798ZM1251.36 199.798H1252.3V198.862H1251.36V199.798ZM1251.36 224.438V225.375H1252.3V224.438H1251.36ZM1102.86 224.438V0.438461H1100.99V224.438H1102.86ZM1101.93 1.37524L1247.53 1.37524V-0.498318L1101.93 -0.498318V1.37524ZM1246.59 0.438461V24.7585H1248.46V0.438461H1246.59ZM1247.53 23.8217L1131.05 23.8217V25.6953L1247.53 25.6953V23.8217ZM1130.11 24.7585V98.0385H1131.98V24.7585H1130.11ZM1131.05 98.9753H1242.41V97.1017H1131.05V98.9753ZM1241.47 98.0385V122.678H1243.34V98.0385H1241.47ZM1242.41 121.742H1131.05V123.615H1242.41V121.742ZM1130.11 122.678V199.798H1131.98V122.678H1130.11ZM1131.05 200.735L1251.36 200.735V198.862L1131.05 198.862V200.735ZM1250.43 199.798V224.438H1252.3V199.798H1250.43ZM1251.36 223.502L1101.93 223.502V225.375L1251.36 225.375V223.502ZM1336.44 224.438H1335.51V225.375H1336.44V224.438ZM1336.44 24.7585H1337.38V23.8217H1336.44V24.7585ZM1259.01 24.7585H1258.07V25.6953H1259.01V24.7585ZM1259.01 0.438461V-0.498318H1258.07V0.438461H1259.01ZM1442.69 0.438461H1443.62V-0.498318H1442.69V0.438461ZM1442.69 24.7585V25.6953H1443.62V24.7585H1442.69ZM1365.56 24.7585V23.8217H1364.63V24.7585H1365.56ZM1365.56 224.438V225.375H1366.5V224.438H1365.56ZM1337.38 224.438V24.7585H1335.51V224.438H1337.38ZM1336.44 23.8217H1259.01V25.6953H1336.44V23.8217ZM1259.94 24.7585V0.438461H1258.07V24.7585H1259.94ZM1259.01 1.37524L1442.69 1.37524V-0.498318L1259.01 -0.498318V1.37524ZM1441.75 0.438461V24.7585H1443.62V0.438461H1441.75ZM1442.69 23.8217L1365.56 23.8217V25.6953L1442.69 25.6953V23.8217ZM1364.63 24.7585V224.438H1366.5V24.7585H1364.63ZM1365.56 223.502H1336.44V225.375H1365.56V223.502Z"
            fill="black" mask="url(#path-1-outside-1_2075_5167)" />
    </svg>