 <svg width="887" height="235" viewBox="0 0 887 235" fill="none" xmlns="http://www.w3.org/2000/svg">
        <mask id="path-1-outside-1_2075_1991" maskUnits="userSpaceOnUse" x="-0.578125" y="-1" width="889" height="237"
            fill="black">
            <rect fill="white" x="-0.578125" y="-1" width="889" height="237" />
            <path
                d="M106.702 234.8C41.1019 234.8 0.461876 184.56 0.461876 119.28C0.461876 42.16 51.0219 0.879993 109.262 0.879993C158.542 0.879993 195.662 29.68 200.782 70.96H169.742C165.262 44.08 140.942 25.52 109.262 25.52C64.4619 25.52 31.1819 57.2 31.1819 119.28C31.1819 171.76 62.2219 210.48 107.662 210.48C148.622 210.48 175.182 187.12 175.182 141.68V137.52H104.782V112.88H201.742L201.742 230H177.742V220.08L177.742 198.96C165.582 219.12 138.382 234.8 106.702 234.8ZM330.639 234.8C270.479 234.8 224.399 188.4 224.399 118C224.399 47.6 270.159 0.879993 330.639 0.879993C391.439 0.879993 436.879 47.6 436.879 118C436.879 188.4 390.799 234.8 330.639 234.8ZM330.639 210.48C376.079 210.48 406.159 175.28 406.159 118C406.159 60.72 375.439 25.52 330.639 25.52C286.159 25.52 255.119 60.72 255.119 118C255.119 175.28 285.199 210.48 330.639 210.48ZM561.139 234.8C500.979 234.8 454.899 188.4 454.899 118C454.899 47.6 500.659 0.879993 561.139 0.879993C621.939 0.879993 667.379 47.6 667.379 118C667.379 188.4 621.299 234.8 561.139 234.8ZM561.139 210.48C606.579 210.48 636.659 175.28 636.659 118C636.659 60.72 605.939 25.52 561.139 25.52C516.659 25.52 485.619 60.72 485.619 118C485.619 175.28 515.699 210.48 561.139 210.48ZM699.159 230V5.99998L766.359 5.99998C838.999 5.99998 886.679 38 886.679 117.68C886.679 185.84 847.959 230 773.399 230H699.159ZM769.879 205.36C823.639 205.36 856.279 180.4 856.279 117.68C856.279 61.68 829.719 30.32 768.599 30.32L728.279 30.32V205.36H769.879Z" />
        </mask>
        <path
            d="M200.782 70.96V71.8968H201.842L201.712 70.8447L200.782 70.96ZM169.742 70.96L168.818 71.114L168.948 71.8968H169.742V70.96ZM175.182 137.52H176.119V136.583H175.182V137.52ZM104.782 137.52H103.845V138.457H104.782V137.52ZM104.782 112.88V111.943H103.845V112.88H104.782ZM201.742 112.88H202.679V111.943H201.742V112.88ZM201.742 230V230.937H202.679V230H201.742ZM177.742 230H176.805V230.937H177.742V230ZM177.742 198.96H178.679V195.593L176.94 198.476L177.742 198.96ZM106.702 233.863C74.1579 233.863 47.8574 221.409 29.683 200.899C11.4984 180.377 1.39865 151.729 1.39865 119.28H-0.474903C-0.474903 152.111 9.74539 181.223 28.2808 202.141C46.8264 223.071 73.6458 235.737 106.702 235.737V233.863ZM1.39865 119.28C1.39865 80.9325 13.9639 51.5824 33.6849 31.8217C53.4113 12.0557 80.3641 1.81677 109.262 1.81677V-0.0567856C79.9196 -0.0567856 52.4724 10.3442 32.3588 30.4983C12.2399 50.6576 -0.474903 80.5075 -0.474903 119.28H1.39865ZM109.262 1.81677C158.187 1.81677 194.804 30.3731 199.852 71.0753L201.712 70.8447C196.52 28.9869 158.896 -0.0567856 109.262 -0.0567856V1.81677ZM200.782 70.0232H169.742V71.8968H200.782V70.0232ZM170.666 70.806C166.096 43.3864 141.305 24.5832 109.262 24.5832V26.4568C140.579 26.4568 164.428 44.7736 168.818 71.114L170.666 70.806ZM109.262 24.5832C86.6311 24.5832 66.8423 32.5917 52.7213 48.4981C38.6097 64.3939 30.2451 88.0781 30.2451 119.28H32.1187C32.1187 88.4019 40.394 65.2061 54.1224 49.7419C67.8415 34.2883 87.0927 26.4568 109.262 26.4568V24.5832ZM30.2451 119.28C30.2451 172.104 61.5464 211.417 107.662 211.417V209.543C62.8973 209.543 32.1187 171.416 32.1187 119.28H30.2451ZM107.662 211.417C128.316 211.417 145.458 205.525 157.437 193.789C169.421 182.05 176.119 164.583 176.119 141.68H174.245C174.245 164.217 167.663 181.15 156.126 192.451C144.586 203.755 127.968 209.543 107.662 209.543V211.417ZM176.119 141.68V137.52H174.245V141.68H176.119ZM175.182 136.583H104.782V138.457H175.182V136.583ZM105.719 137.52V112.88H103.845V137.52H105.719ZM104.782 113.817H201.742V111.943H104.782V113.817ZM200.805 112.88L200.805 230H202.679L202.679 112.88H200.805ZM201.742 229.063H177.742V230.937H201.742V229.063ZM178.679 230V220.08H176.805V230H178.679ZM178.679 220.08L178.679 198.96H176.805L176.805 220.08H178.679ZM176.94 198.476C164.972 218.318 138.099 233.863 106.702 233.863V235.737C138.664 235.737 166.192 219.922 178.544 199.444L176.94 198.476ZM330.639 233.863C271.057 233.863 225.336 187.945 225.336 118H223.463C223.463 188.855 269.902 235.737 330.639 235.737V233.863ZM225.336 118C225.336 48.0499 270.742 1.81677 330.639 1.81677V-0.0567856C269.577 -0.0567856 223.463 47.15 223.463 118H225.336ZM330.639 1.81677C360.789 1.81677 387.096 13.3956 405.872 33.6764C424.651 53.9607 435.943 83.0033 435.943 118H437.816C437.816 82.5966 426.388 53.0793 407.247 32.4036C388.102 11.7244 361.29 -0.0567856 330.639 -0.0567856V1.81677ZM435.943 118C435.943 187.945 390.222 233.863 330.639 233.863V235.737C391.377 235.737 437.816 188.855 437.816 118H435.943ZM330.639 211.417C353.621 211.417 372.772 202.505 386.161 186.317C399.535 170.147 407.096 146.796 407.096 118H405.223C405.223 146.484 397.744 169.373 384.717 185.123C371.706 200.855 353.098 209.543 330.639 209.543V211.417ZM407.096 118C407.096 89.1995 399.373 65.8491 385.919 49.6808C372.453 33.4967 353.304 24.5832 330.639 24.5832V26.4568C352.775 26.4568 371.386 35.1433 384.479 50.8792C397.586 66.6309 405.223 89.5205 405.223 118H407.096ZM330.639 24.5832C308.133 24.5832 288.986 33.4977 275.48 49.6797C261.987 65.847 254.183 89.1971 254.183 118H256.056C256.056 89.5228 263.772 66.633 276.919 50.8802C290.053 35.1423 308.665 26.4568 330.639 26.4568V24.5832ZM254.183 118C254.183 146.796 261.744 170.147 275.117 186.317C288.506 202.505 307.658 211.417 330.639 211.417V209.543C308.181 209.543 289.572 200.855 276.561 185.123C263.535 169.373 256.056 146.484 256.056 118H254.183ZM561.139 233.863C501.557 233.863 455.836 187.945 455.836 118H453.963C453.963 188.855 500.402 235.737 561.139 235.737V233.863ZM455.836 118C455.836 48.0499 501.242 1.81677 561.139 1.81677V-0.0567856C500.077 -0.0567856 453.963 47.15 453.963 118H455.836ZM561.139 1.81677C591.289 1.81677 617.596 13.3956 636.372 33.6764C655.151 53.9607 666.443 83.0033 666.443 118H668.316C668.316 82.5966 656.888 53.0793 637.747 32.4036C618.602 11.7244 591.79 -0.0567856 561.139 -0.0567856V1.81677ZM666.443 118C666.443 187.945 620.722 233.863 561.139 233.863V235.737C621.877 235.737 668.316 188.855 668.316 118H666.443ZM561.139 211.417C584.121 211.417 603.272 202.505 616.661 186.317C630.035 170.147 637.596 146.796 637.596 118H635.723C635.723 146.484 628.244 169.373 615.218 185.123C602.206 200.855 583.598 209.543 561.139 209.543V211.417ZM637.596 118C637.596 89.1995 629.873 65.8491 616.419 49.6808C602.953 33.4967 583.804 24.5832 561.139 24.5832V26.4568C583.275 26.4568 601.886 35.1433 614.979 50.8792C628.086 66.6309 635.723 89.5205 635.723 118H637.596ZM561.139 24.5832C538.633 24.5832 519.486 33.4977 505.98 49.6797C492.487 65.847 484.683 89.1971 484.683 118H486.556C486.556 89.5228 494.272 66.633 507.419 50.8802C520.553 35.1423 539.165 26.4568 561.139 26.4568V24.5832ZM484.683 118C484.683 146.796 492.244 170.147 505.617 186.317C519.006 202.505 538.158 211.417 561.139 211.417V209.543C538.681 209.543 520.072 200.855 507.061 185.123C494.035 169.373 486.556 146.484 486.556 118H484.683ZM699.159 230H698.223V230.937H699.159V230ZM699.159 5.99998V5.06321H698.223V5.99998H699.159ZM728.279 30.32V29.3832H727.343V30.32H728.279ZM728.279 205.36H727.343V206.297H728.279V205.36ZM700.096 230V5.99998H698.223V230H700.096ZM699.159 6.93676L766.359 6.93676V5.06321L699.159 5.06321V6.93676ZM766.359 6.93676C802.562 6.93676 832.386 14.9135 853.151 32.6719C873.888 50.4071 885.743 78.0325 885.743 117.68H887.616C887.616 77.6475 875.631 49.4329 854.368 31.2481C833.133 13.0865 802.797 5.06321 766.359 5.06321V6.93676ZM885.743 117.68C885.743 151.587 876.114 179.407 857.327 198.747C838.545 218.083 810.493 229.063 773.399 229.063V230.937C810.866 230.937 839.453 219.837 858.671 200.053C877.885 180.273 887.616 151.933 887.616 117.68H885.743ZM773.399 229.063H699.159V230.937H773.399V229.063ZM769.879 206.297C796.887 206.297 818.762 200.028 833.883 185.72C849.014 171.403 857.216 149.194 857.216 117.68H855.343C855.343 148.886 847.225 170.517 832.596 184.36C817.956 198.212 796.632 204.423 769.879 204.423V206.297ZM857.216 117.68C857.216 89.5476 850.546 67.4307 836.034 52.3504C821.517 37.2635 799.31 29.3832 768.599 29.3832V31.2568C799.009 31.2568 820.642 39.0565 834.684 53.6495C848.733 68.2493 855.343 89.8124 855.343 117.68H857.216ZM768.599 29.3832L728.279 29.3832V31.2568L768.599 31.2568V29.3832ZM727.343 30.32V205.36H729.216V30.32H727.343ZM728.279 206.297H769.879V204.423H728.279V206.297Z"
            fill="black" mask="url(#path-1-outside-1_2075_1991)" />
    </svg>
