<svg xmlns="http://www.w3.org/2000/svg" width="46" height="46" viewBox="0 0 46 46" fill="none">
  <path d="M44.4412 23.2826C44.4412 27.381 43.3087 31.2136 41.3326 34.485C40.2797 36.2286 38.9911 37.8162 37.5066 39.1944C36.3441 40.2772 35.0588 41.2337 33.6805 42.0407C32.4749 42.7481 31.193 43.3426 29.8545 43.8076C28.6257 44.236 27.347 44.5549 26.0285 44.7574C24.9491 44.9235 23.8465 45.0065 22.7206 45.0065C10.7245 45.0032 1 35.2788 1 23.2826C1 21.8578 1.13617 20.4662 1.39854 19.1178C1.69745 17.5834 2.15578 16.1055 2.75691 14.7073C3.43443 13.133 4.29462 11.6518 5.30759 10.2967C6.55636 8.62287 8.04425 7.13497 9.71481 5.8862C13.3416 3.16947 17.8451 1.56201 22.7206 1.56201C22.8302 1.56201 22.9431 1.56201 23.0527 1.56201C23.0926 1.56201 23.1357 1.56201 23.1756 1.56201C23.1822 1.56201 23.1922 1.56201 23.1989 1.56201C23.3184 1.56201 23.438 1.56865 23.5575 1.57198C23.697 1.5753 23.8365 1.58526 23.976 1.5919C24.0856 1.59854 24.1952 1.60519 24.3048 1.61183C24.3447 1.61183 24.3845 1.61847 24.4244 1.62179C24.534 1.62844 24.6436 1.6384 24.7499 1.64836C24.9059 1.66165 25.0587 1.67825 25.2115 1.69486C25.3311 1.70814 25.4473 1.72143 25.5635 1.73803C25.7163 1.75796 25.8691 1.78121 26.0219 1.80446C26.0219 1.80446 26.0551 1.80778 26.0717 1.8111C26.1448 1.82106 26.2178 1.83435 26.2909 1.84763C26.613 1.90077 26.9286 1.96055 27.2441 2.02698C27.3238 2.04358 27.4035 2.06019 27.4865 2.08012C27.6459 2.11665 27.8087 2.15318 27.9681 2.19304C28.0478 2.21297 28.1275 2.23289 28.2072 2.25282C28.6888 2.37903 29.1637 2.51852 29.632 2.67793C29.7051 2.70118 29.7748 2.72775 29.8479 2.751C30.0139 2.80746 30.1833 2.87056 30.3494 2.93034C30.4224 2.95691 30.4955 2.9868 30.5719 3.01337C30.6981 3.06319 30.8243 3.11301 30.9505 3.16615C31.0668 3.21264 31.183 3.26246 31.2959 3.31228C31.4288 3.36874 31.5583 3.4252 31.6878 3.48498C31.8107 3.54144 31.9303 3.5979 32.0498 3.65436C32.0565 3.65768 32.0664 3.66101 32.0764 3.66765C32.2059 3.72743 32.3355 3.79053 32.4617 3.85696C32.5613 3.90677 32.6609 3.95659 32.7572 4.00973C32.8502 4.05955 32.9432 4.10937 33.0362 4.15918C33.1624 4.22561 33.2853 4.29535 33.4115 4.3651C33.4381 4.37838 33.4613 4.39499 33.4879 4.40827C33.5477 4.44149 33.6075 4.4747 33.6673 4.51123C33.6706 4.51123 33.6739 4.51455 33.6805 4.51787C33.6938 4.52452 33.7071 4.53448 33.7204 4.54112C33.8499 4.61751 33.9761 4.6939 34.1023 4.77361C34.1654 4.81014 34.2285 4.84999 34.2883 4.88985C34.3082 4.90313 34.3282 4.91642 34.3514 4.9297C34.4477 4.98948 34.544 5.05259 34.637 5.11569C34.6636 5.13229 34.6935 5.15222 34.7201 5.16883C34.823 5.23857 34.926 5.30832 35.0289 5.37806C35.1219 5.44116 35.2149 5.50427 35.3046 5.57069C35.3511 5.6039 35.4009 5.63712 35.4474 5.67365C35.5371 5.74007 35.6268 5.8065 35.7164 5.87292C35.7995 5.93602 35.8858 5.99913 35.9688 6.06555C36.0253 6.10872 36.0818 6.1519 36.1382 6.1984C36.1615 6.215 36.1814 6.23493 36.2046 6.25154C36.2711 6.30468 36.3375 6.35781 36.4039 6.41095C36.4836 6.47406 36.56 6.53716 36.6364 6.60026C36.7692 6.71318 36.9021 6.8261 37.0349 6.94234C37.0682 6.96891 37.098 6.9988 37.1313 7.02537C37.1844 7.07187 37.2342 7.11837 37.284 7.16486C37.3571 7.23129 37.4268 7.29771 37.4999 7.36414C37.5066 7.36746 37.5099 7.3741 37.5165 7.38074C37.6294 7.4837 37.739 7.58998 37.8486 7.69625C37.8586 7.70622 37.8686 7.71618 37.8785 7.72615C37.9748 7.81914 38.0712 7.91213 38.1641 8.00845C38.1907 8.03502 38.2206 8.06491 38.2439 8.09148C38.3269 8.17451 38.4066 8.25754 38.483 8.34057C38.6291 8.49666 38.7752 8.65276 38.9147 8.80885C39.0044 8.90849 39.0941 9.00813 39.1771 9.11108C39.2037 9.14097 39.2303 9.17086 39.2535 9.20076C39.3199 9.27714 39.383 9.35353 39.4461 9.42992C39.4993 9.49302 39.5524 9.55944 39.6055 9.62587C39.6321 9.65908 39.6587 9.68897 39.6819 9.72218C39.7484 9.80521 39.8148 9.88824 39.8779 9.97127C39.9576 10.0742 40.0373 10.1805 40.117 10.2868C40.5454 10.8614 40.9473 11.4558 41.3193 12.0736C41.8274 12.9138 42.2791 13.7906 42.6677 14.6973C43.2688 16.0989 43.7305 17.5735 44.0261 19.1079C44.2884 20.4563 44.4246 21.8479 44.4246 23.2727L44.4412 23.2826Z" stroke="black" stroke-width="1.25396" stroke-miterlimit="10"/>
  <path d="M44.4403 23.2826C44.4403 27.381 43.3078 31.2136 41.3317 34.485C40.2789 36.2286 38.9903 37.8162 37.5057 39.1945C36.3433 40.2772 35.058 41.2337 33.6797 42.0407C32.4741 42.7481 31.1921 43.3426 29.8537 43.8076C28.6248 44.236 27.3462 44.5549 26.0277 44.7575C18.6579 43.6316 12.5038 38.7959 9.53461 32.22C8.30577 29.4933 7.61829 26.471 7.61829 23.2893C7.61829 22.7878 7.63489 22.2896 7.67143 21.7981C7.73121 20.8914 7.85077 20.0013 8.02015 19.1278C8.31906 17.5934 8.77738 16.1155 9.37852 14.7173C9.40509 14.6509 9.43498 14.5878 9.46487 14.5213C10.1291 13.0168 10.9594 11.6053 11.9292 10.3034C12.4705 9.58271 13.0518 8.89523 13.6761 8.24427C14.4965 7.39073 15.3866 6.60028 16.3364 5.89287C19.1262 3.80384 22.4341 2.3724 26.031 1.82109C26.031 1.82109 26.0642 1.82441 26.0808 1.82773C26.1539 1.83769 26.2269 1.85098 26.3 1.86426C26.6221 1.9174 26.9377 1.97718 27.2532 2.04361C27.3329 2.06021 27.4126 2.07682 27.4956 2.09675C27.655 2.13328 27.8178 2.16981 27.9772 2.20967C28.0569 2.22959 28.1366 2.24952 28.2163 2.26945C28.6979 2.39565 29.1728 2.53514 29.6411 2.69456C29.7142 2.71781 29.7839 2.74438 29.857 2.76763C30.0231 2.82409 30.1924 2.88719 30.3585 2.94697C30.4316 2.97354 30.5046 3.00343 30.581 3.03C30.7072 3.07982 30.8334 3.12964 30.9596 3.18278C31.0759 3.22927 31.1921 3.27909 31.305 3.32891C31.4379 3.38537 31.5674 3.44183 31.6969 3.50161C31.8198 3.55807 31.9394 3.61453 32.0589 3.67099C32.0656 3.67431 32.0755 3.67763 32.0855 3.68428C32.215 3.74406 32.3446 3.80716 32.4708 3.87358C32.5704 3.9234 32.67 3.97322 32.7664 4.02636C32.8594 4.07618 32.9523 4.12599 33.0453 4.17581C33.1715 4.24224 33.2944 4.31198 33.4206 4.38173C33.4472 4.39501 33.4704 4.41162 33.497 4.4249C33.5568 4.45811 33.6166 4.49133 33.6764 4.52786C33.6797 4.52786 33.683 4.53118 33.6896 4.5345C33.7029 4.54114 33.7162 4.55111 33.7295 4.55775C33.859 4.63414 33.9852 4.71053 34.1114 4.79023C34.1745 4.82677 34.2376 4.86662 34.2974 4.90648C34.3174 4.91976 34.3373 4.93304 34.3605 4.94633C34.4568 5.00611 34.5532 5.06921 34.6462 5.13232C34.6727 5.14892 34.7026 5.16885 34.7292 5.18546C34.8321 5.2552 34.9351 5.32495 35.0381 5.39469C35.131 5.45779 35.224 5.5209 35.3137 5.58732C35.3602 5.62053 35.41 5.65374 35.4565 5.69028C35.5462 5.7567 35.6359 5.82312 35.7255 5.88955C35.8086 5.95265 35.8949 6.01575 35.9779 6.08218C36.0344 6.12535 36.0909 6.16853 36.1473 6.21503C36.1706 6.23163 36.1905 6.25156 36.2138 6.26816C36.2802 6.3213 36.3466 6.37444 36.413 6.42758C36.4927 6.49068 36.5691 6.55379 36.6455 6.61689C36.7784 6.72981 36.9112 6.84273 37.0441 6.95897C37.0773 6.98554 37.1072 7.01543 37.1404 7.042C37.1935 7.0885 37.2433 7.135 37.2931 7.18149C37.3662 7.24792 37.436 7.31434 37.509 7.38076C37.5157 7.38409 37.519 7.39073 37.5256 7.39737C37.6385 7.50033 37.7481 7.60661 37.8577 7.71288C37.8677 7.72285 37.8777 7.73281 37.8876 7.74277C37.9839 7.83577 38.0803 7.92876 38.1733 8.02508C38.1998 8.05164 38.2297 8.08154 38.253 8.10811C38.336 8.19113 38.4157 8.27416 38.4921 8.35719C38.6382 8.51329 38.7844 8.66939 38.9238 8.82548C39.0135 8.92512 39.1032 9.02475 39.1862 9.12771C39.2128 9.1576 39.2394 9.18749 39.2626 9.21738C39.329 9.29377 39.3921 9.37016 39.4552 9.44655C39.5084 9.50965 39.5615 9.57607 39.6147 9.6425C39.6412 9.67571 39.6678 9.7056 39.691 9.73881C39.7575 9.82184 39.8239 9.90487 39.887 9.9879C39.9667 10.0909 40.0464 10.1971 40.1261 10.3034C40.5546 10.878 40.9564 11.4725 41.3284 12.0902C41.8365 12.9305 42.2882 13.8073 42.6768 14.714C43.2779 16.1155 43.7396 17.5901 44.0352 19.1245C44.2975 20.4729 44.4337 21.8645 44.4337 23.2893L44.4403 23.2826Z" stroke="black" stroke-width="1.25396" stroke-miterlimit="10"/>
  <path d="M44.4413 23.2826C44.4413 27.3809 43.3088 31.2136 41.3327 34.485C40.2798 36.2286 38.9912 37.8161 37.5067 39.1944C36.3442 40.2771 35.0589 41.2336 33.6806 42.0407C32.475 42.7481 31.1931 43.3426 29.8546 43.8076C25.7961 42.3994 22.2889 39.8188 19.7283 36.4744C17.5729 33.658 16.0916 30.2969 15.527 26.6337C15.3576 25.5443 15.2679 24.4251 15.2679 23.2859C15.2679 21.8611 15.4041 20.4695 15.6665 19.1211C15.7429 18.7259 15.8292 18.334 15.9289 17.9487C16.2112 16.8328 16.5798 15.7501 17.0282 14.7106C17.7057 13.1363 18.5659 11.6551 19.5789 10.3C19.6519 10.2037 19.7217 10.1107 19.7947 10.0144C21.0003 8.45678 22.4085 7.06852 23.9861 5.8895C25.753 4.56434 27.7291 3.50488 29.8546 2.76757C30.0207 2.82403 30.1901 2.88714 30.3561 2.94692C30.4292 2.97349 30.5023 3.00338 30.5786 3.02995C30.7048 3.07977 30.8311 3.12958 30.9573 3.18272C31.0735 3.22922 31.1897 3.27904 31.3027 3.32886C31.4355 3.38532 31.565 3.44178 31.6946 3.50156C31.8174 3.55802 31.937 3.61448 32.0566 3.67094C32.0632 3.67426 32.0732 3.67758 32.0831 3.68422C32.2127 3.744 32.3422 3.80711 32.4684 3.87353C32.568 3.92335 32.6677 3.97317 32.764 4.02631C32.857 4.07612 32.95 4.12594 33.043 4.17576C33.1692 4.24218 33.2921 4.31193 33.4183 4.38167C33.4448 4.39496 33.4681 4.41156 33.4946 4.42485C33.5544 4.45806 33.6142 4.49127 33.674 4.52781C33.6773 4.52781 33.6806 4.53113 33.6873 4.53445C33.7006 4.54109 33.7139 4.55105 33.7271 4.5577C33.8567 4.63408 33.9829 4.71047 34.1091 4.79018C34.1722 4.82671 34.2353 4.86657 34.2951 4.90642C34.315 4.91971 34.3349 4.93299 34.3582 4.94628C34.4545 5.00606 34.5508 5.06916 34.6438 5.13226C34.6704 5.14887 34.7002 5.1688 34.7268 5.1854C34.8298 5.25515 34.9327 5.32489 35.0357 5.39464C35.1287 5.45774 35.2217 5.52084 35.3113 5.58727C35.3578 5.62048 35.4077 5.65369 35.4542 5.69022C35.5438 5.75665 35.6335 5.82307 35.7232 5.8895C35.8062 5.9526 35.8926 6.0157 35.9756 6.08212C36.032 6.1253 36.0885 6.16848 36.145 6.21497C36.1682 6.23158 36.1881 6.25151 36.2114 6.26811C36.2778 6.32125 36.3442 6.37439 36.4107 6.42753C36.4904 6.49063 36.5668 6.55373 36.6431 6.61684C36.776 6.72976 36.9088 6.84268 37.0417 6.95892C37.0749 6.98549 37.1048 7.01538 37.138 7.04195C37.1911 7.08845 37.241 7.13494 37.2908 7.18144C37.3638 7.24786 37.4336 7.31429 37.5067 7.38071C37.5133 7.38403 37.5166 7.39067 37.5233 7.39732C37.6362 7.50027 37.7458 7.60655 37.8554 7.71283C37.8653 7.72279 37.8753 7.73276 37.8853 7.74272C37.9816 7.83571 38.0779 7.92871 38.1709 8.02502C38.1975 8.05159 38.2274 8.08148 38.2506 8.10805C38.3336 8.19108 38.4133 8.27411 38.4897 8.35714C38.6359 8.51324 38.782 8.66933 38.9215 8.82543C39.0112 8.92507 39.1008 9.0247 39.1839 9.12766C39.2104 9.15755 39.237 9.18744 39.2602 9.21733C39.3267 9.29372 39.3898 9.37011 39.4529 9.44649C39.506 9.5096 39.5591 9.57602 39.6123 9.64244C39.6389 9.67566 39.6654 9.70555 39.6887 9.73876C39.7551 9.82179 39.8215 9.90482 39.8846 9.98785C39.9643 10.0908 40.044 10.1971 40.1238 10.3034C40.5522 10.8779 40.954 11.4724 41.326 12.0902C41.8342 12.9304 42.2858 13.8072 42.6744 14.7139C43.2756 16.1154 43.7372 17.5901 44.0328 19.1244C44.2952 20.4729 44.4313 21.8644 44.4313 23.2892L44.4413 23.2826Z" stroke="black" stroke-width="1.25396" stroke-miterlimit="10"/>
  <path d="M44.4414 23.2826C44.4414 27.3809 43.3088 31.2136 41.3327 34.485C40.2799 36.2286 38.9913 37.8161 37.5067 39.1944C36.3443 40.2771 35.059 41.2336 33.6807 42.0407C31.1433 40.5561 28.9347 38.5667 27.1878 36.2153C25.3711 33.7676 24.0592 30.928 23.4016 27.8426C23.0861 26.3713 22.9233 24.8469 22.9233 23.2826C22.9233 21.8578 23.0595 20.4662 23.3219 19.1178C23.3285 19.0846 23.3352 19.0514 23.3418 19.0182C23.6407 17.517 24.0924 16.0756 24.6803 14.7073C25.3578 13.133 26.218 11.6518 27.2309 10.2967C27.4036 10.0675 27.5797 9.84171 27.759 9.61919C28.8915 8.22097 30.1968 6.96555 31.6381 5.88617C32.2924 5.39795 32.9733 4.94295 33.6807 4.53112C33.694 4.53776 33.7073 4.54773 33.7205 4.55437C33.8501 4.63076 33.9763 4.70714 34.1025 4.78685C34.1656 4.82339 34.2287 4.86324 34.2885 4.90309C34.3084 4.91638 34.3283 4.92966 34.3516 4.94295C34.4479 5.00273 34.5442 5.06583 34.6372 5.12894C34.6638 5.14554 34.6936 5.16547 34.7202 5.18207C34.8232 5.25182 34.9261 5.32156 35.0291 5.39131C35.1221 5.45441 35.2151 5.51751 35.3047 5.58394C35.3512 5.61715 35.4011 5.65036 35.4476 5.6869C35.5372 5.75332 35.6269 5.81974 35.7166 5.88617C35.7996 5.94927 35.886 6.01237 35.969 6.0788C36.0254 6.12197 36.0819 6.16515 36.1384 6.21164C36.1616 6.22825 36.1815 6.24818 36.2048 6.26478C36.2712 6.31792 36.3376 6.37106 36.4041 6.4242C36.4838 6.4873 36.5602 6.55041 36.6365 6.61351C36.7694 6.72643 36.9022 6.83935 37.0351 6.95559C37.0683 6.98216 37.0982 7.01205 37.1314 7.03862C37.1845 7.08512 37.2344 7.13161 37.2842 7.17811C37.3572 7.24453 37.427 7.31096 37.5001 7.37738C37.5067 7.3807 37.51 7.38735 37.5167 7.39399C37.6296 7.49695 37.7392 7.60322 37.8488 7.7095C37.8587 7.71947 37.8687 7.72943 37.8787 7.73939C37.975 7.83239 38.0713 7.92538 38.1643 8.02169C38.1909 8.04826 38.2208 8.07815 38.244 8.10472C38.327 8.18775 38.4067 8.27078 38.4831 8.35381C38.6293 8.50991 38.7754 8.66601 38.9149 8.8221C39.0046 8.92174 39.0942 9.02137 39.1773 9.12433C39.2038 9.15422 39.2304 9.18411 39.2536 9.214C39.3201 9.29039 39.3832 9.36678 39.4463 9.44316C39.4994 9.50627 39.5526 9.57269 39.6057 9.63911C39.6323 9.67233 39.6588 9.70222 39.6821 9.73543C39.7485 9.81846 39.8149 9.90149 39.878 9.98452C39.9577 10.0875 40.0374 10.1938 40.1172 10.3C40.5456 10.8746 40.9475 11.4691 41.3194 12.0868C41.8276 12.9271 42.2793 13.8039 42.6678 14.7106C43.269 16.1121 43.7306 17.5867 44.0262 19.1211C44.2886 20.4695 44.4247 21.8611 44.4247 23.2859L44.4414 23.2826Z" stroke="black" stroke-width="1.25396" stroke-miterlimit="10"/>
  <path d="M44.4414 23.2826C44.4414 27.381 43.3089 31.2136 41.3328 34.485C40.28 36.2286 38.9914 37.8161 37.5068 39.1944C35.8595 37.6634 34.4513 35.8799 33.342 33.9071C32.0468 31.6022 31.16 29.0349 30.7814 26.3082C30.6452 25.3218 30.5721 24.3122 30.5721 23.2859C30.5721 21.8611 30.7083 20.4696 30.9707 19.1212C31.0969 18.4735 31.2497 17.8358 31.4323 17.2115C31.6781 16.3546 31.9803 15.521 32.3291 14.7106C33.0066 13.1364 33.8668 11.6551 34.8797 10.3001C35.6669 9.24724 36.5436 8.27081 37.5035 7.37741C37.5101 7.38073 37.5134 7.38737 37.5201 7.39402C37.633 7.49697 37.7426 7.60325 37.8522 7.70953C37.8622 7.71949 37.8721 7.72946 37.8821 7.73942C37.9784 7.83241 38.0747 7.92541 38.1677 8.02172C38.1943 8.04829 38.2242 8.07818 38.2474 8.10475C38.3305 8.18778 38.4102 8.27081 38.4865 8.35384C38.6327 8.50994 38.7788 8.66603 38.9183 8.82213C39.008 8.92177 39.0976 9.0214 39.1807 9.12436C39.2072 9.15425 39.2338 9.18414 39.2571 9.21403C39.3235 9.29042 39.3866 9.36681 39.4497 9.44319C39.5028 9.5063 39.556 9.57272 39.6091 9.63914C39.6357 9.67236 39.6622 9.70225 39.6855 9.73546C39.7519 9.81849 39.8183 9.90152 39.8814 9.98455C39.9612 10.0875 40.0409 10.1938 40.1206 10.3001C40.549 10.8746 40.9509 11.4691 41.3228 12.0869C41.831 12.9271 42.2827 13.8039 42.6712 14.7106C43.2724 16.1121 43.734 17.5868 44.0296 19.1212C44.292 20.4696 44.4282 21.8611 44.4282 23.2859L44.4414 23.2826Z" stroke="black" stroke-width="1.25396" stroke-miterlimit="10"/>
  <path d="M44.4408 23.2826C44.4408 27.3809 43.3082 31.2136 41.3321 34.485C40.359 32.8709 39.5885 31.1206 39.0604 29.2641C38.5158 27.3643 38.2268 25.3583 38.2268 23.2826C38.2268 22.5951 38.26 21.9143 38.3198 21.2434C38.3862 20.5227 38.4892 19.8153 38.6254 19.1178C38.9243 17.5834 39.3826 16.1055 39.9837 14.7073C40.3723 13.8006 40.824 12.9205 41.3321 12.0835C41.8403 12.9238 42.2919 13.8006 42.6805 14.7073C43.2817 16.1088 43.7433 17.5834 44.0389 19.1178C44.3013 20.4662 44.4374 21.8578 44.4374 23.2826H44.4408Z" stroke="black" stroke-width="1.25396" stroke-miterlimit="10"/>
  <path d="M35.7235 5.88288C33.3887 7.62983 30.6885 8.91845 27.7593 9.6159C26.1418 10.0012 24.4547 10.2038 22.721 10.2038C21.728 10.2038 20.7515 10.1373 19.795 10.0078C17.6396 9.71886 15.5804 9.11108 13.6708 8.23429C12.2659 7.58998 10.9374 6.79953 9.71521 5.88288C13.342 3.16947 17.8455 1.56201 22.721 1.56201C22.8306 1.56201 22.9435 1.56201 23.0531 1.56201C23.093 1.56201 23.1362 1.56201 23.176 1.56201C23.1826 1.56201 23.1926 1.56201 23.1993 1.56201C23.3188 1.56201 23.4384 1.56865 23.5579 1.57198C23.6974 1.5753 23.8369 1.58526 23.9764 1.5919C24.086 1.59854 24.1956 1.60519 24.3052 1.61183C24.3451 1.61183 24.3849 1.61847 24.4248 1.62179C24.5344 1.62844 24.644 1.6384 24.7503 1.64836C24.9063 1.66165 25.0591 1.67825 25.2119 1.69486C25.3315 1.70814 25.4477 1.72143 25.5639 1.73803C25.7167 1.75796 25.8695 1.78121 26.0223 1.80446C26.0223 1.80446 26.0555 1.80778 26.0721 1.8111C26.1452 1.82106 26.2182 1.83435 26.2913 1.84763C26.6134 1.90077 26.929 1.96055 27.2445 2.02698C27.3242 2.04358 27.4039 2.06019 27.4869 2.08012C27.6463 2.11665 27.8091 2.15318 27.9685 2.19304C28.0482 2.21297 28.1279 2.23289 28.2076 2.25282C28.6892 2.37903 29.1641 2.51852 29.6324 2.67793C29.7055 2.70118 29.7752 2.72775 29.8483 2.751C30.0143 2.80746 30.1837 2.87056 30.3498 2.93034C30.4229 2.95691 30.4959 2.9868 30.5723 3.01337C30.6985 3.06319 30.8247 3.11301 30.9509 3.16615C31.0672 3.21264 31.1834 3.26246 31.2963 3.31228C31.4292 3.36874 31.5587 3.4252 31.6882 3.48498C31.8111 3.54144 31.9307 3.5979 32.0502 3.65436C32.0569 3.65768 32.0668 3.66101 32.0768 3.66765C32.2063 3.72743 32.3359 3.79053 32.4621 3.85696C32.5617 3.90677 32.6613 3.95659 32.7576 4.00973C32.8506 4.05955 32.9436 4.10937 33.0366 4.15918C33.1628 4.22561 33.2857 4.29535 33.4119 4.3651C33.4385 4.37838 33.4617 4.39499 33.4883 4.40827C33.5481 4.44149 33.6079 4.4747 33.6677 4.51123C33.671 4.51123 33.6743 4.51455 33.6809 4.51787C33.6942 4.52452 33.7075 4.53448 33.7208 4.54112C33.8503 4.61751 33.9765 4.6939 34.1027 4.77361C34.1658 4.81014 34.2289 4.84999 34.2887 4.88985C34.3086 4.90313 34.3286 4.91642 34.3518 4.9297C34.4481 4.98948 34.5445 5.05259 34.6374 5.11569C34.664 5.13229 34.6939 5.15222 34.7205 5.16883C34.8234 5.23857 34.9264 5.30832 35.0293 5.37806C35.1223 5.44116 35.2153 5.50427 35.305 5.57069C35.3515 5.6039 35.4013 5.63712 35.4478 5.67365C35.5375 5.74007 35.6272 5.8065 35.7168 5.87292L35.7235 5.88288Z" stroke="black" stroke-width="1.25396" stroke-miterlimit="10"/>
  <path d="M40.1307 10.2934C37.8922 13.2891 34.8998 15.687 31.4358 17.2082C28.9483 18.3008 26.2149 18.9385 23.3421 19.0182C23.1362 19.0248 22.9269 19.0282 22.721 19.0282C20.3497 19.0282 18.068 18.6496 15.9292 17.9455C13.5678 17.1683 11.3858 15.9992 9.4595 14.5113C7.8919 13.3024 6.49367 11.881 5.30469 10.2934C6.55346 8.61955 8.04135 7.13165 9.71191 5.88288C13.342 3.16947 17.8455 1.56201 22.721 1.56201C22.8306 1.56201 22.9435 1.56201 23.0531 1.56201C23.093 1.56201 23.1362 1.56201 23.176 1.56201C23.1827 1.56201 23.1926 1.56201 23.1993 1.56201C23.3188 1.56201 23.4384 1.56865 23.558 1.57198C23.6974 1.5753 23.8369 1.58526 23.9764 1.5919C24.086 1.59854 24.1956 1.60519 24.3052 1.61183C24.3451 1.61183 24.3849 1.61847 24.4248 1.62179C24.5344 1.62844 24.644 1.6384 24.7503 1.64836C24.9064 1.66165 25.0591 1.67825 25.2119 1.69486C25.3315 1.70814 25.4477 1.72143 25.564 1.73803C25.7167 1.75796 25.8695 1.78121 26.0223 1.80446C26.0223 1.80446 26.0555 1.80778 26.0721 1.8111C26.1452 1.82106 26.2182 1.83435 26.2913 1.84763C26.6135 1.90077 26.929 1.96055 27.2445 2.02698C27.3242 2.04358 27.4039 2.06019 27.4869 2.08012C27.6463 2.11665 27.8091 2.15318 27.9685 2.19304C28.0482 2.21297 28.1279 2.23289 28.2076 2.25282C28.6892 2.37903 29.1641 2.51852 29.6324 2.67793C29.7055 2.70118 29.7752 2.72775 29.8483 2.751C30.0144 2.80746 30.1837 2.87056 30.3498 2.93034C30.4229 2.95691 30.4959 2.9868 30.5723 3.01337C30.6985 3.06319 30.8247 3.11301 30.9509 3.16615C31.0672 3.21264 31.1834 3.26246 31.2963 3.31228C31.4292 3.36874 31.5587 3.4252 31.6882 3.48498C31.8111 3.54144 31.9307 3.5979 32.0502 3.65436C32.0569 3.65768 32.0669 3.66101 32.0768 3.66765C32.2063 3.72743 32.3359 3.79053 32.4621 3.85696C32.5617 3.90677 32.6613 3.95659 32.7577 4.00973C32.8507 4.05955 32.9436 4.10937 33.0366 4.15918C33.1628 4.22561 33.2857 4.29535 33.4119 4.3651C33.4385 4.37838 33.4618 4.39499 33.4883 4.40827C33.5481 4.44149 33.6079 4.4747 33.6677 4.51123C33.671 4.51123 33.6743 4.51455 33.681 4.51787C33.6942 4.52452 33.7075 4.53448 33.7208 4.54112C33.8503 4.61751 33.9765 4.6939 34.1027 4.77361C34.1658 4.81014 34.229 4.84999 34.2887 4.88985C34.3087 4.90313 34.3286 4.91642 34.3518 4.9297C34.4481 4.98948 34.5445 5.05259 34.6375 5.11569C34.664 5.13229 34.6939 5.15222 34.7205 5.16883C34.8234 5.23857 34.9264 5.30832 35.0294 5.37806C35.1224 5.44117 35.2153 5.50427 35.305 5.57069C35.3515 5.6039 35.4013 5.63712 35.4478 5.67365C35.5375 5.74007 35.6272 5.8065 35.7168 5.87292C35.7999 5.93602 35.8862 5.99913 35.9693 6.06555C36.0257 6.10873 36.0822 6.1519 36.1386 6.1984C36.1619 6.215 36.1818 6.23493 36.2051 6.25154C36.2715 6.30468 36.3379 6.35781 36.4043 6.41095C36.484 6.47406 36.5604 6.53716 36.6368 6.60026C36.7697 6.71318 36.9025 6.8261 37.0354 6.94234C37.0686 6.96891 37.0985 6.99881 37.1317 7.02537C37.1848 7.07187 37.2346 7.11837 37.2844 7.16486C37.3575 7.23129 37.4273 7.29771 37.5003 7.36414C37.507 7.36746 37.5103 7.3741 37.5169 7.38074C37.6299 7.4837 37.7395 7.58998 37.849 7.69626C37.859 7.70622 37.869 7.71618 37.8789 7.72615C37.9753 7.81914 38.0716 7.91213 38.1646 8.00845C38.1911 8.03502 38.221 8.06491 38.2443 8.09148C38.3273 8.17451 38.407 8.25754 38.4834 8.34057C38.6295 8.49666 38.7757 8.65276 38.9152 8.80886C39.0048 8.90849 39.0945 9.00813 39.1775 9.11108C39.2041 9.14097 39.2307 9.17087 39.2539 9.20076C39.3203 9.27714 39.3834 9.35353 39.4465 9.42992C39.4997 9.49302 39.5528 9.55945 39.606 9.62587C39.6325 9.65908 39.6591 9.68897 39.6823 9.72218C39.7488 9.80521 39.8152 9.88824 39.8783 9.97127C39.958 10.0742 40.0377 10.1805 40.1174 10.2868L40.1307 10.2934Z" stroke="black" stroke-width="1.25396" stroke-miterlimit="10"/>
  <path d="M42.6816 14.7073C41.6321 17.1517 40.1442 19.3636 38.3209 21.2434C36.2119 23.4221 33.648 25.1591 30.7818 26.3049C28.4868 27.2249 26.0026 27.7596 23.4021 27.8393C23.1763 27.8459 22.9471 27.8493 22.7213 27.8493C20.2005 27.8493 17.7793 27.4208 15.5276 26.6271C12.5584 25.5875 9.88817 23.9203 7.66961 21.7848C5.59387 19.792 3.91334 17.3875 2.75757 14.704C3.43509 13.1297 4.29528 11.6485 5.30824 10.2934C6.55701 8.61955 8.04491 7.13165 9.71547 5.88288C13.3422 3.16947 17.8457 1.56201 22.7213 1.56201C22.8309 1.56201 22.9438 1.56201 23.0534 1.56201C23.0932 1.56201 23.1364 1.56201 23.1763 1.56201C23.1829 1.56201 23.1929 1.56201 23.1995 1.56201C23.3191 1.56201 23.4386 1.56865 23.5582 1.57198C23.6977 1.5753 23.8372 1.58526 23.9767 1.5919C24.0863 1.59854 24.1959 1.60519 24.3055 1.61183C24.3453 1.61183 24.3852 1.61847 24.425 1.62179C24.5346 1.62844 24.6442 1.6384 24.7505 1.64836C24.9066 1.66165 25.0594 1.67825 25.2122 1.69486C25.3317 1.70814 25.448 1.72143 25.5642 1.73803C25.717 1.75796 25.8697 1.78121 26.0225 1.80446C26.0225 1.80446 26.0557 1.80778 26.0723 1.8111C26.1454 1.82106 26.2185 1.83435 26.2915 1.84763C26.6137 1.90077 26.9292 1.96055 27.2447 2.02698C27.3244 2.04358 27.4041 2.06019 27.4872 2.08012C27.6466 2.11665 27.8093 2.15318 27.9687 2.19304C28.0484 2.21297 28.1282 2.23289 28.2079 2.25282C28.6894 2.37903 29.1644 2.51852 29.6327 2.67793C29.7057 2.70118 29.7755 2.72775 29.8485 2.751C30.0146 2.80746 30.184 2.87056 30.35 2.93034C30.4231 2.95691 30.4962 2.9868 30.5726 3.01337C30.6988 3.06319 30.825 3.11301 30.9512 3.16615C31.0674 3.21264 31.1837 3.26246 31.2966 3.31228C31.4294 3.36874 31.559 3.4252 31.6885 3.48498C31.8114 3.54144 31.9309 3.5979 32.0505 3.65436C32.0571 3.65768 32.0671 3.66101 32.0771 3.66765C32.2066 3.72743 32.3361 3.79053 32.4623 3.85696C32.562 3.90677 32.6616 3.95659 32.7579 4.00973C32.8509 4.05955 32.9439 4.10937 33.0369 4.15918C33.1631 4.22561 33.286 4.29535 33.4122 4.3651C33.4387 4.37838 33.462 4.39499 33.4886 4.40827C33.5483 4.44149 33.6081 4.4747 33.6679 4.51123C33.6712 4.51123 33.6746 4.51455 33.6812 4.51787C33.6945 4.52452 33.7078 4.53448 33.721 4.54112C33.8506 4.61751 33.9768 4.6939 34.103 4.7736C34.1661 4.81014 34.2292 4.84999 34.289 4.88985C34.3089 4.90313 34.3288 4.91642 34.3521 4.9297C34.4484 4.98948 34.5447 5.05259 34.6377 5.11569C34.6643 5.13229 34.6942 5.15222 34.7207 5.16883C34.8237 5.23857 34.9266 5.30832 35.0296 5.37806C35.1226 5.44116 35.2156 5.50427 35.3053 5.57069C35.3518 5.6039 35.4016 5.63712 35.4481 5.67365C35.5377 5.74007 35.6274 5.8065 35.7171 5.87292C35.8001 5.93602 35.8865 5.99913 35.9695 6.06555C36.026 6.10872 36.0824 6.1519 36.1389 6.1984C36.1621 6.215 36.1821 6.23493 36.2053 6.25154C36.2717 6.30467 36.3381 6.35781 36.4046 6.41095C36.4843 6.47406 36.5607 6.53716 36.6371 6.60026C36.7699 6.71318 36.9027 6.8261 37.0356 6.94234C37.0688 6.96891 37.0987 6.9988 37.1319 7.02537C37.1851 7.07187 37.2349 7.11837 37.2847 7.16486C37.3578 7.23129 37.4275 7.29771 37.5006 7.36413C37.5072 7.36746 37.5105 7.3741 37.5172 7.38074C37.6301 7.4837 37.7397 7.58998 37.8493 7.69625C37.8593 7.70622 37.8692 7.71618 37.8792 7.72614C37.9755 7.81914 38.0718 7.91213 38.1648 8.00845C38.1914 8.03502 38.2213 8.06491 38.2445 8.09148C38.3275 8.17451 38.4072 8.25754 38.4836 8.34057C38.6298 8.49666 38.7759 8.65276 38.9154 8.80885C39.0051 8.90849 39.0947 9.00813 39.1778 9.11108C39.2043 9.14097 39.2309 9.17086 39.2542 9.20075C39.3206 9.27714 39.3837 9.35353 39.4468 9.42992C39.4999 9.49302 39.5531 9.55944 39.6062 9.62587C39.6328 9.65908 39.6593 9.68897 39.6826 9.72218C39.749 9.80521 39.8154 9.88824 39.8785 9.97127C39.9582 10.0742 40.038 10.1805 40.1177 10.2868C40.5461 10.8614 40.948 11.4558 41.3199 12.0736C41.8281 12.9138 42.2798 13.7906 42.6683 14.6973L42.6816 14.7073Z" stroke="black" stroke-width="1.25396" stroke-miterlimit="10"/>
  <path d="M44.0435 19.1178C43.2996 22.9571 41.5427 26.4344 39.0617 29.2641C37.4377 31.1173 35.5047 32.6882 33.346 33.9038C31.4529 34.9666 29.3838 35.757 27.1918 36.2153C25.7504 36.5176 24.2559 36.677 22.7248 36.677C21.7118 36.677 20.7122 36.6072 19.7324 36.4744C15.933 35.9496 12.4424 34.4418 9.53634 32.2166C5.39813 29.0482 2.43231 24.4284 1.39941 19.1178C1.69832 17.5834 2.15665 16.1055 2.75778 14.7073C3.43531 13.133 4.29549 11.6518 5.30846 10.2967C6.55723 8.62287 8.04512 7.13497 9.71568 5.8862C13.3424 3.16947 17.846 1.56201 22.7215 1.56201C22.8311 1.56201 22.944 1.56201 23.0536 1.56201C23.0934 1.56201 23.1366 1.56201 23.1765 1.56201C23.1831 1.56201 23.1931 1.56201 23.1997 1.56201C23.3193 1.56201 23.4389 1.56865 23.5584 1.57198C23.6979 1.5753 23.8374 1.58526 23.9769 1.5919C24.0865 1.59854 24.1961 1.60519 24.3057 1.61183C24.3455 1.61183 24.3854 1.61847 24.4252 1.62179C24.5348 1.62844 24.6444 1.6384 24.7507 1.64836C24.9068 1.66165 25.0596 1.67825 25.2124 1.69486C25.3319 1.70814 25.4482 1.72143 25.5644 1.73803C25.7172 1.75796 25.87 1.78121 26.0227 1.80446C26.0227 1.80446 26.056 1.80778 26.0726 1.8111C26.1456 1.82106 26.2187 1.83435 26.2918 1.84763C26.6139 1.90077 26.9294 1.96055 27.2449 2.02698C27.3246 2.04358 27.4044 2.06019 27.4874 2.08012C27.6468 2.11665 27.8095 2.15318 27.969 2.19304C28.0487 2.21297 28.1284 2.23289 28.2081 2.25282C28.6897 2.37903 29.1646 2.51852 29.6329 2.67793C29.7059 2.70118 29.7757 2.72775 29.8488 2.751C30.0148 2.80746 30.1842 2.87056 30.3503 2.93034C30.4233 2.95691 30.4964 2.9868 30.5728 3.01337C30.699 3.06319 30.8252 3.11301 30.9514 3.16615C31.0676 3.21264 31.1839 3.26246 31.2968 3.31228C31.4296 3.36874 31.5592 3.4252 31.6887 3.48498C31.8116 3.54144 31.9311 3.5979 32.0507 3.65436C32.0573 3.65768 32.0673 3.66101 32.0773 3.66765C32.2068 3.72743 32.3363 3.79053 32.4625 3.85696C32.5622 3.90677 32.6618 3.95659 32.7581 4.00973C32.8511 4.05955 32.9441 4.10937 33.0371 4.15918C33.1633 4.22561 33.2862 4.29535 33.4124 4.3651C33.439 4.37838 33.4622 4.39499 33.4888 4.40827C33.5486 4.44149 33.6083 4.4747 33.6681 4.51123C33.6714 4.51123 33.6748 4.51455 33.6814 4.51787C33.6947 4.52452 33.708 4.53448 33.7213 4.54112C33.8508 4.61751 33.977 4.6939 34.1032 4.7736C34.1663 4.81014 34.2294 4.84999 34.2892 4.88985C34.3091 4.90313 34.329 4.91642 34.3523 4.9297C34.4486 4.98948 34.5449 5.05259 34.6379 5.11569C34.6645 5.13229 34.6944 5.15222 34.7209 5.16883C34.8239 5.23857 34.9269 5.30832 35.0298 5.37806C35.1228 5.44116 35.2158 5.50427 35.3055 5.57069C35.352 5.6039 35.4018 5.63712 35.4483 5.67365C35.538 5.74007 35.6276 5.8065 35.7173 5.87292C35.8003 5.93602 35.8867 5.99913 35.9697 6.06555C36.0262 6.10872 36.0826 6.1519 36.1391 6.1984C36.1623 6.215 36.1823 6.23493 36.2055 6.25154C36.2719 6.30467 36.3384 6.35781 36.4048 6.41095C36.4845 6.47406 36.5609 6.53716 36.6373 6.60026C36.7701 6.71318 36.903 6.8261 37.0358 6.94234C37.069 6.96891 37.0989 6.9988 37.1321 7.02537C37.1853 7.07187 37.2351 7.11837 37.2849 7.16486C37.358 7.23129 37.4277 7.29771 37.5008 7.36413C37.5074 7.36746 37.5107 7.3741 37.5174 7.38074C37.6303 7.4837 37.7399 7.58998 37.8495 7.69625C37.8595 7.70622 37.8694 7.71618 37.8794 7.72614C37.9757 7.81914 38.072 7.91213 38.165 8.00845C38.1916 8.03502 38.2215 8.06491 38.2447 8.09148C38.3278 8.17451 38.4075 8.25754 38.4839 8.34057C38.63 8.49666 38.7761 8.65276 38.9156 8.80885C39.0053 8.90849 39.095 9.00813 39.178 9.11108C39.2046 9.14097 39.2311 9.17086 39.2544 9.20075C39.3208 9.27714 39.3839 9.35353 39.447 9.42992C39.5001 9.49302 39.5533 9.55944 39.6064 9.62587C39.633 9.65908 39.6596 9.68897 39.6828 9.72218C39.7492 9.80521 39.8157 9.88824 39.8788 9.97127C39.9585 10.0742 40.0382 10.1805 40.1179 10.2868C40.5463 10.8614 40.9482 11.4558 41.3202 12.0736C41.8283 12.9138 42.28 13.7906 42.6686 14.6973C43.2697 16.0989 43.7313 17.5735 44.0269 19.1079L44.0435 19.1178Z" stroke="black" stroke-width="1.25396" stroke-miterlimit="10"/>
</svg>