<svg width="688" height="407" viewBox="0 0 688 407" fill="none" xmlns="http://www.w3.org/2000/svg">
<mask id="path-1-outside-1_1868_15899" maskUnits="userSpaceOnUse" x="377.757" y="16.7783" width="240" height="390" fill="black">
<rect fill="white" x="377.757" y="16.7783" width="240" height="390"/>
<path fill-rule="evenodd" clip-rule="evenodd" d="M509.379 89.4652C505.84 90.8426 501.92 91.5897 497.737 91.5897C493.554 91.5897 489.634 90.8426 486.095 89.4652L481.53 101.195C486.573 103.158 492.045 104.176 497.737 104.176C503.429 104.176 508.901 103.158 513.944 101.195L509.379 89.4652ZM469.749 73.1197L458.019 77.6846C456.057 72.6411 455.038 67.169 455.038 61.4773C455.038 55.7857 456.057 50.3136 458.019 45.2701L469.749 49.835C468.372 53.3742 467.625 57.294 467.625 61.4773C467.625 65.6607 468.372 69.5804 469.749 73.1197ZM486.095 33.4894C489.634 32.1121 493.554 31.365 497.737 31.365C501.92 31.365 505.84 32.1121 509.379 33.4895L513.944 21.7596C508.901 19.7969 503.429 18.7783 497.737 18.7783C492.045 18.7783 486.573 19.7969 481.53 21.7596L486.095 33.4894ZM525.725 49.835L532.618 47.1523C532.831 46.5187 533.058 45.8911 533.3 45.2701L535.377 46.0785L537.455 45.2701C537.696 45.8911 537.924 46.5187 538.137 47.1523L545.03 49.835C543.652 53.3742 542.905 57.2939 542.905 61.4773C542.905 65.6607 543.652 69.5804 545.03 73.1197L538.137 75.8024C537.924 76.436 537.696 77.0635 537.455 77.6846L535.377 76.8762L533.3 77.6846C533.058 77.0635 532.831 76.436 532.618 75.8024L525.725 73.1197C527.102 69.5804 527.849 65.6607 527.849 61.4773C527.849 57.2939 527.102 53.3742 525.725 49.835ZM561.375 89.4652L556.811 101.195C561.854 103.158 567.326 104.176 573.018 104.176C578.71 104.176 584.182 103.158 589.225 101.195L584.66 89.4652C581.121 90.8426 577.201 91.5897 573.018 91.5897C568.834 91.5897 564.915 90.8426 561.375 89.4652ZM601.006 73.1197L612.735 77.6845C614.698 72.6411 615.717 67.169 615.717 61.4773C615.717 55.7857 614.698 50.3136 612.735 45.2701L601.006 49.8349C602.383 53.3742 603.13 57.2939 603.13 61.4773C603.13 65.6607 602.383 69.5805 601.006 73.1197ZM584.66 33.4894L589.225 21.7596C584.182 19.7969 578.71 18.7783 573.018 18.7783C567.326 18.7783 561.854 19.7969 556.811 21.7596L561.375 33.4895C564.915 32.1121 568.834 31.365 573.018 31.365C577.201 31.365 581.121 32.1121 584.66 33.4894ZM434.099 164.746C430.559 166.123 426.64 166.87 422.456 166.87C418.273 166.87 414.353 166.123 410.814 164.746L408.131 171.639C407.498 171.852 406.87 172.08 406.249 172.321L407.057 174.399L406.249 176.476C406.87 176.718 407.498 176.945 408.131 177.158L410.814 184.051C414.353 182.674 418.273 181.927 422.456 181.927C426.64 181.927 430.559 182.674 434.099 184.051L436.781 177.158C437.415 176.945 438.042 176.718 438.663 176.476L437.855 174.399L438.663 172.321C438.042 172.08 437.415 171.852 436.781 171.639L434.099 164.746ZM450.444 200.397L462.174 195.832C464.137 200.875 465.155 206.347 465.155 212.039C465.155 217.731 464.137 223.203 462.174 228.246L450.444 223.681C451.821 220.142 452.568 216.222 452.568 212.039C452.568 207.856 451.821 203.936 450.444 200.397ZM434.099 240.027L436.781 246.92C437.415 247.133 438.042 247.36 438.663 247.602L437.855 249.679L438.663 251.757C438.042 251.998 437.415 252.226 436.781 252.439L434.099 259.332C430.559 257.955 426.64 257.207 422.456 257.207C418.273 257.207 414.353 257.955 410.814 259.332L408.131 252.439C407.498 252.226 406.87 251.998 406.249 251.757L407.057 249.679L406.249 247.602C406.87 247.36 407.498 247.133 408.131 246.92L410.814 240.027C414.353 241.404 418.273 242.151 422.456 242.151C426.64 242.151 430.559 241.404 434.099 240.027ZM394.468 223.681L382.738 228.246C380.776 223.203 379.757 217.731 379.757 212.039C379.757 206.347 380.776 200.875 382.738 195.832L394.468 200.397C393.091 203.936 392.344 207.856 392.344 212.039C392.344 216.222 393.091 220.142 394.468 223.681ZM394.468 275.677L382.738 271.113C380.776 276.156 379.757 281.628 379.757 287.32C379.757 293.011 380.776 298.484 382.738 303.527L394.468 298.962C393.091 295.423 392.344 291.503 392.344 287.32C392.344 283.136 393.091 279.217 394.468 275.677ZM410.814 315.308L406.249 327.038C411.292 329 416.764 330.019 422.456 330.019C428.148 330.019 433.62 329 438.663 327.038L434.099 315.308C430.559 316.685 426.64 317.432 422.456 317.432C418.273 317.432 414.353 316.685 410.814 315.308ZM450.444 298.962L462.174 303.527C464.137 298.484 465.155 293.011 465.155 287.32C465.155 281.628 464.137 276.156 462.174 271.113L450.444 275.677C451.821 279.217 452.568 283.136 452.568 287.32C452.568 291.503 451.821 295.423 450.444 298.962ZM394.468 148.4L382.738 152.965C380.776 147.922 379.757 142.45 379.757 136.758C379.757 131.066 380.776 125.594 382.738 120.551L394.468 125.116C393.091 128.655 392.344 132.575 392.344 136.758C392.344 140.942 393.091 144.861 394.468 148.4ZM410.814 108.77C414.353 107.393 418.273 106.646 422.456 106.646C426.64 106.646 430.559 107.393 434.099 108.77L438.663 97.0404C433.62 95.0777 428.148 94.0591 422.456 94.0591C416.764 94.0591 411.292 95.0777 406.249 97.0404L410.814 108.77ZM450.444 125.116L462.174 120.551C464.137 125.594 465.155 131.066 465.155 136.758C465.155 142.45 464.137 147.922 462.174 152.965L450.444 148.4C451.821 144.861 452.568 140.942 452.568 136.758C452.568 132.575 451.821 128.655 450.444 125.116ZM584.66 240.027C581.121 241.404 577.201 242.151 573.018 242.151C568.834 242.151 564.915 241.404 561.375 240.027L558.693 246.92C558.059 247.133 557.431 247.36 556.811 247.602L557.619 249.679L556.811 251.757C557.431 251.998 558.059 252.226 558.693 252.439L561.375 259.332C564.915 257.955 568.834 257.207 573.018 257.207C577.201 257.207 581.121 257.954 584.66 259.332L587.343 252.439C587.976 252.226 588.604 251.998 589.225 251.757L588.416 249.679L589.225 247.602C588.604 247.36 587.976 247.133 587.343 246.92L584.66 240.027ZM601.006 275.677L612.735 271.113C614.698 276.156 615.717 281.628 615.717 287.32C615.717 293.011 614.698 298.484 612.735 303.527L601.006 298.962C602.383 295.423 603.13 291.503 603.13 287.32C603.13 283.136 602.383 279.217 601.006 275.677ZM584.66 315.308L587.343 322.201C587.976 322.414 588.604 322.641 589.225 322.883L588.416 324.96L589.225 327.038C588.604 327.279 587.976 327.507 587.343 327.719L584.66 334.613C581.121 333.235 577.201 332.488 573.018 332.488C568.834 332.488 564.915 333.235 561.375 334.613L558.693 327.719C558.059 327.507 557.431 327.279 556.811 327.038L557.619 324.96L556.811 322.883C557.431 322.641 558.059 322.414 558.693 322.201L561.375 315.308C564.915 316.685 568.834 317.432 573.018 317.432C577.201 317.432 581.121 316.685 584.66 315.308ZM545.03 298.962L533.3 303.527C531.337 298.484 530.319 293.011 530.319 287.32C530.319 281.628 531.337 276.156 533.3 271.113L545.03 275.677C543.652 279.217 542.905 283.136 542.905 287.32C542.905 291.503 543.652 295.423 545.03 298.962ZM545.03 350.958L538.137 348.276C537.924 347.642 537.696 347.014 537.455 346.393L535.377 347.202L533.3 346.393C533.058 347.014 532.831 347.642 532.618 348.276L525.725 350.958C527.102 354.498 527.849 358.417 527.849 362.601C527.849 366.784 527.102 370.704 525.725 374.243L532.618 376.926C532.831 377.559 533.058 378.187 533.3 378.808L535.377 377.999L537.455 378.808C537.696 378.187 537.924 377.559 538.137 376.926L545.03 374.243C543.652 370.704 542.905 366.784 542.905 362.601C542.905 358.417 543.652 354.498 545.03 350.958ZM561.375 390.588L556.811 402.318C561.854 404.281 567.326 405.3 573.018 405.3C578.71 405.3 584.182 404.281 589.225 402.318L584.66 390.589C581.121 391.966 577.201 392.713 573.018 392.713C568.834 392.713 564.915 391.966 561.375 390.588ZM601.006 374.243L612.735 378.808C614.698 373.764 615.717 368.292 615.717 362.601C615.717 356.909 614.698 351.437 612.735 346.393L601.006 350.958C602.383 354.497 603.13 358.417 603.13 362.601C603.13 366.784 602.383 370.704 601.006 374.243ZM509.379 390.588L513.944 402.318C508.901 404.281 503.429 405.3 497.737 405.3C492.045 405.3 486.573 404.281 481.53 402.318L486.095 390.589C489.634 391.966 493.554 392.713 497.737 392.713C501.92 392.713 505.84 391.966 509.379 390.588ZM469.749 374.243L458.019 378.808C456.057 373.764 455.038 368.292 455.038 362.601C455.038 356.909 456.057 351.437 458.019 346.393L469.749 350.958C468.372 354.497 467.625 358.417 467.625 362.601C467.625 366.784 468.372 370.704 469.749 374.243ZM486.095 334.613L481.53 322.883C486.573 320.92 492.045 319.901 497.737 319.901C503.429 319.901 508.901 320.92 513.944 322.883L509.379 334.613C505.84 333.235 501.92 332.488 497.737 332.488C493.554 332.488 489.634 333.235 486.095 334.613ZM545.03 223.681L533.3 228.246C531.337 223.203 530.319 217.731 530.319 212.039C530.319 206.347 531.337 200.875 533.3 195.832L545.03 200.397C543.652 203.936 542.905 207.856 542.905 212.039C542.905 216.222 543.652 220.142 545.03 223.681ZM561.375 184.051C564.915 182.674 568.834 181.927 573.018 181.927C577.201 181.927 581.121 182.674 584.66 184.051L589.225 172.321C584.182 170.359 578.71 169.34 573.018 169.34C567.326 169.34 561.854 170.359 556.811 172.321L561.375 184.051ZM601.006 200.397L612.735 195.832C614.698 200.875 615.717 206.347 615.717 212.039C615.717 217.731 614.698 223.203 612.735 228.246L601.006 223.681C602.383 220.142 603.13 216.222 603.13 212.039C603.13 207.856 602.383 203.936 601.006 200.397Z"/>
</mask>
<path fill-rule="evenodd" clip-rule="evenodd" d="M509.379 89.4652C505.84 90.8426 501.92 91.5897 497.737 91.5897C493.554 91.5897 489.634 90.8426 486.095 89.4652L481.53 101.195C486.573 103.158 492.045 104.176 497.737 104.176C503.429 104.176 508.901 103.158 513.944 101.195L509.379 89.4652ZM469.749 73.1197L458.019 77.6846C456.057 72.6411 455.038 67.169 455.038 61.4773C455.038 55.7857 456.057 50.3136 458.019 45.2701L469.749 49.835C468.372 53.3742 467.625 57.294 467.625 61.4773C467.625 65.6607 468.372 69.5804 469.749 73.1197ZM486.095 33.4894C489.634 32.1121 493.554 31.365 497.737 31.365C501.92 31.365 505.84 32.1121 509.379 33.4895L513.944 21.7596C508.901 19.7969 503.429 18.7783 497.737 18.7783C492.045 18.7783 486.573 19.7969 481.53 21.7596L486.095 33.4894ZM525.725 49.835L532.618 47.1523C532.831 46.5187 533.058 45.8911 533.3 45.2701L535.377 46.0785L537.455 45.2701C537.696 45.8911 537.924 46.5187 538.137 47.1523L545.03 49.835C543.652 53.3742 542.905 57.2939 542.905 61.4773C542.905 65.6607 543.652 69.5804 545.03 73.1197L538.137 75.8024C537.924 76.436 537.696 77.0635 537.455 77.6846L535.377 76.8762L533.3 77.6846C533.058 77.0635 532.831 76.436 532.618 75.8024L525.725 73.1197C527.102 69.5804 527.849 65.6607 527.849 61.4773C527.849 57.2939 527.102 53.3742 525.725 49.835ZM561.375 89.4652L556.811 101.195C561.854 103.158 567.326 104.176 573.018 104.176C578.71 104.176 584.182 103.158 589.225 101.195L584.66 89.4652C581.121 90.8426 577.201 91.5897 573.018 91.5897C568.834 91.5897 564.915 90.8426 561.375 89.4652ZM601.006 73.1197L612.735 77.6845C614.698 72.6411 615.717 67.169 615.717 61.4773C615.717 55.7857 614.698 50.3136 612.735 45.2701L601.006 49.8349C602.383 53.3742 603.13 57.2939 603.13 61.4773C603.13 65.6607 602.383 69.5805 601.006 73.1197ZM584.66 33.4894L589.225 21.7596C584.182 19.7969 578.71 18.7783 573.018 18.7783C567.326 18.7783 561.854 19.7969 556.811 21.7596L561.375 33.4895C564.915 32.1121 568.834 31.365 573.018 31.365C577.201 31.365 581.121 32.1121 584.66 33.4894ZM434.099 164.746C430.559 166.123 426.64 166.87 422.456 166.87C418.273 166.87 414.353 166.123 410.814 164.746L408.131 171.639C407.498 171.852 406.87 172.08 406.249 172.321L407.057 174.399L406.249 176.476C406.87 176.718 407.498 176.945 408.131 177.158L410.814 184.051C414.353 182.674 418.273 181.927 422.456 181.927C426.64 181.927 430.559 182.674 434.099 184.051L436.781 177.158C437.415 176.945 438.042 176.718 438.663 176.476L437.855 174.399L438.663 172.321C438.042 172.08 437.415 171.852 436.781 171.639L434.099 164.746ZM450.444 200.397L462.174 195.832C464.137 200.875 465.155 206.347 465.155 212.039C465.155 217.731 464.137 223.203 462.174 228.246L450.444 223.681C451.821 220.142 452.568 216.222 452.568 212.039C452.568 207.856 451.821 203.936 450.444 200.397ZM434.099 240.027L436.781 246.92C437.415 247.133 438.042 247.36 438.663 247.602L437.855 249.679L438.663 251.757C438.042 251.998 437.415 252.226 436.781 252.439L434.099 259.332C430.559 257.955 426.64 257.207 422.456 257.207C418.273 257.207 414.353 257.955 410.814 259.332L408.131 252.439C407.498 252.226 406.87 251.998 406.249 251.757L407.057 249.679L406.249 247.602C406.87 247.36 407.498 247.133 408.131 246.92L410.814 240.027C414.353 241.404 418.273 242.151 422.456 242.151C426.64 242.151 430.559 241.404 434.099 240.027ZM394.468 223.681L382.738 228.246C380.776 223.203 379.757 217.731 379.757 212.039C379.757 206.347 380.776 200.875 382.738 195.832L394.468 200.397C393.091 203.936 392.344 207.856 392.344 212.039C392.344 216.222 393.091 220.142 394.468 223.681ZM394.468 275.677L382.738 271.113C380.776 276.156 379.757 281.628 379.757 287.32C379.757 293.011 380.776 298.484 382.738 303.527L394.468 298.962C393.091 295.423 392.344 291.503 392.344 287.32C392.344 283.136 393.091 279.217 394.468 275.677ZM410.814 315.308L406.249 327.038C411.292 329 416.764 330.019 422.456 330.019C428.148 330.019 433.62 329 438.663 327.038L434.099 315.308C430.559 316.685 426.64 317.432 422.456 317.432C418.273 317.432 414.353 316.685 410.814 315.308ZM450.444 298.962L462.174 303.527C464.137 298.484 465.155 293.011 465.155 287.32C465.155 281.628 464.137 276.156 462.174 271.113L450.444 275.677C451.821 279.217 452.568 283.136 452.568 287.32C452.568 291.503 451.821 295.423 450.444 298.962ZM394.468 148.4L382.738 152.965C380.776 147.922 379.757 142.45 379.757 136.758C379.757 131.066 380.776 125.594 382.738 120.551L394.468 125.116C393.091 128.655 392.344 132.575 392.344 136.758C392.344 140.942 393.091 144.861 394.468 148.4ZM410.814 108.77C414.353 107.393 418.273 106.646 422.456 106.646C426.64 106.646 430.559 107.393 434.099 108.77L438.663 97.0404C433.62 95.0777 428.148 94.0591 422.456 94.0591C416.764 94.0591 411.292 95.0777 406.249 97.0404L410.814 108.77ZM450.444 125.116L462.174 120.551C464.137 125.594 465.155 131.066 465.155 136.758C465.155 142.45 464.137 147.922 462.174 152.965L450.444 148.4C451.821 144.861 452.568 140.942 452.568 136.758C452.568 132.575 451.821 128.655 450.444 125.116ZM584.66 240.027C581.121 241.404 577.201 242.151 573.018 242.151C568.834 242.151 564.915 241.404 561.375 240.027L558.693 246.92C558.059 247.133 557.431 247.36 556.811 247.602L557.619 249.679L556.811 251.757C557.431 251.998 558.059 252.226 558.693 252.439L561.375 259.332C564.915 257.955 568.834 257.207 573.018 257.207C577.201 257.207 581.121 257.954 584.66 259.332L587.343 252.439C587.976 252.226 588.604 251.998 589.225 251.757L588.416 249.679L589.225 247.602C588.604 247.36 587.976 247.133 587.343 246.92L584.66 240.027ZM601.006 275.677L612.735 271.113C614.698 276.156 615.717 281.628 615.717 287.32C615.717 293.011 614.698 298.484 612.735 303.527L601.006 298.962C602.383 295.423 603.13 291.503 603.13 287.32C603.13 283.136 602.383 279.217 601.006 275.677ZM584.66 315.308L587.343 322.201C587.976 322.414 588.604 322.641 589.225 322.883L588.416 324.96L589.225 327.038C588.604 327.279 587.976 327.507 587.343 327.719L584.66 334.613C581.121 333.235 577.201 332.488 573.018 332.488C568.834 332.488 564.915 333.235 561.375 334.613L558.693 327.719C558.059 327.507 557.431 327.279 556.811 327.038L557.619 324.96L556.811 322.883C557.431 322.641 558.059 322.414 558.693 322.201L561.375 315.308C564.915 316.685 568.834 317.432 573.018 317.432C577.201 317.432 581.121 316.685 584.66 315.308ZM545.03 298.962L533.3 303.527C531.337 298.484 530.319 293.011 530.319 287.32C530.319 281.628 531.337 276.156 533.3 271.113L545.03 275.677C543.652 279.217 542.905 283.136 542.905 287.32C542.905 291.503 543.652 295.423 545.03 298.962ZM545.03 350.958L538.137 348.276C537.924 347.642 537.696 347.014 537.455 346.393L535.377 347.202L533.3 346.393C533.058 347.014 532.831 347.642 532.618 348.276L525.725 350.958C527.102 354.498 527.849 358.417 527.849 362.601C527.849 366.784 527.102 370.704 525.725 374.243L532.618 376.926C532.831 377.559 533.058 378.187 533.3 378.808L535.377 377.999L537.455 378.808C537.696 378.187 537.924 377.559 538.137 376.926L545.03 374.243C543.652 370.704 542.905 366.784 542.905 362.601C542.905 358.417 543.652 354.498 545.03 350.958ZM561.375 390.588L556.811 402.318C561.854 404.281 567.326 405.3 573.018 405.3C578.71 405.3 584.182 404.281 589.225 402.318L584.66 390.589C581.121 391.966 577.201 392.713 573.018 392.713C568.834 392.713 564.915 391.966 561.375 390.588ZM601.006 374.243L612.735 378.808C614.698 373.764 615.717 368.292 615.717 362.601C615.717 356.909 614.698 351.437 612.735 346.393L601.006 350.958C602.383 354.497 603.13 358.417 603.13 362.601C603.13 366.784 602.383 370.704 601.006 374.243ZM509.379 390.588L513.944 402.318C508.901 404.281 503.429 405.3 497.737 405.3C492.045 405.3 486.573 404.281 481.53 402.318L486.095 390.589C489.634 391.966 493.554 392.713 497.737 392.713C501.92 392.713 505.84 391.966 509.379 390.588ZM469.749 374.243L458.019 378.808C456.057 373.764 455.038 368.292 455.038 362.601C455.038 356.909 456.057 351.437 458.019 346.393L469.749 350.958C468.372 354.497 467.625 358.417 467.625 362.601C467.625 366.784 468.372 370.704 469.749 374.243ZM486.095 334.613L481.53 322.883C486.573 320.92 492.045 319.901 497.737 319.901C503.429 319.901 508.901 320.92 513.944 322.883L509.379 334.613C505.84 333.235 501.92 332.488 497.737 332.488C493.554 332.488 489.634 333.235 486.095 334.613ZM545.03 223.681L533.3 228.246C531.337 223.203 530.319 217.731 530.319 212.039C530.319 206.347 531.337 200.875 533.3 195.832L545.03 200.397C543.652 203.936 542.905 207.856 542.905 212.039C542.905 216.222 543.652 220.142 545.03 223.681ZM561.375 184.051C564.915 182.674 568.834 181.927 573.018 181.927C577.201 181.927 581.121 182.674 584.66 184.051L589.225 172.321C584.182 170.359 578.71 169.34 573.018 169.34C567.326 169.34 561.854 170.359 556.811 172.321L561.375 184.051ZM601.006 200.397L612.735 195.832C614.698 200.875 615.717 206.347 615.717 212.039C615.717 217.731 614.698 223.203 612.735 228.246L601.006 223.681C602.383 220.142 603.13 216.222 603.13 212.039C603.13 207.856 602.383 203.936 601.006 200.397Z" fill="#007AFF"/>
<path fill-rule="evenodd" clip-rule="evenodd" d="M509.379 89.4652C505.84 90.8426 501.92 91.5897 497.737 91.5897C493.554 91.5897 489.634 90.8426 486.095 89.4652L481.53 101.195C486.573 103.158 492.045 104.176 497.737 104.176C503.429 104.176 508.901 103.158 513.944 101.195L509.379 89.4652ZM469.749 73.1197L458.019 77.6846C456.057 72.6411 455.038 67.169 455.038 61.4773C455.038 55.7857 456.057 50.3136 458.019 45.2701L469.749 49.835C468.372 53.3742 467.625 57.294 467.625 61.4773C467.625 65.6607 468.372 69.5804 469.749 73.1197ZM486.095 33.4894C489.634 32.1121 493.554 31.365 497.737 31.365C501.92 31.365 505.84 32.1121 509.379 33.4895L513.944 21.7596C508.901 19.7969 503.429 18.7783 497.737 18.7783C492.045 18.7783 486.573 19.7969 481.53 21.7596L486.095 33.4894ZM525.725 49.835L532.618 47.1523C532.831 46.5187 533.058 45.8911 533.3 45.2701L535.377 46.0785L537.455 45.2701C537.696 45.8911 537.924 46.5187 538.137 47.1523L545.03 49.835C543.652 53.3742 542.905 57.2939 542.905 61.4773C542.905 65.6607 543.652 69.5804 545.03 73.1197L538.137 75.8024C537.924 76.436 537.696 77.0635 537.455 77.6846L535.377 76.8762L533.3 77.6846C533.058 77.0635 532.831 76.436 532.618 75.8024L525.725 73.1197C527.102 69.5804 527.849 65.6607 527.849 61.4773C527.849 57.2939 527.102 53.3742 525.725 49.835ZM561.375 89.4652L556.811 101.195C561.854 103.158 567.326 104.176 573.018 104.176C578.71 104.176 584.182 103.158 589.225 101.195L584.66 89.4652C581.121 90.8426 577.201 91.5897 573.018 91.5897C568.834 91.5897 564.915 90.8426 561.375 89.4652ZM601.006 73.1197L612.735 77.6845C614.698 72.6411 615.717 67.169 615.717 61.4773C615.717 55.7857 614.698 50.3136 612.735 45.2701L601.006 49.8349C602.383 53.3742 603.13 57.2939 603.13 61.4773C603.13 65.6607 602.383 69.5805 601.006 73.1197ZM584.66 33.4894L589.225 21.7596C584.182 19.7969 578.71 18.7783 573.018 18.7783C567.326 18.7783 561.854 19.7969 556.811 21.7596L561.375 33.4895C564.915 32.1121 568.834 31.365 573.018 31.365C577.201 31.365 581.121 32.1121 584.66 33.4894ZM434.099 164.746C430.559 166.123 426.64 166.87 422.456 166.87C418.273 166.87 414.353 166.123 410.814 164.746L408.131 171.639C407.498 171.852 406.87 172.08 406.249 172.321L407.057 174.399L406.249 176.476C406.87 176.718 407.498 176.945 408.131 177.158L410.814 184.051C414.353 182.674 418.273 181.927 422.456 181.927C426.64 181.927 430.559 182.674 434.099 184.051L436.781 177.158C437.415 176.945 438.042 176.718 438.663 176.476L437.855 174.399L438.663 172.321C438.042 172.08 437.415 171.852 436.781 171.639L434.099 164.746ZM450.444 200.397L462.174 195.832C464.137 200.875 465.155 206.347 465.155 212.039C465.155 217.731 464.137 223.203 462.174 228.246L450.444 223.681C451.821 220.142 452.568 216.222 452.568 212.039C452.568 207.856 451.821 203.936 450.444 200.397ZM434.099 240.027L436.781 246.92C437.415 247.133 438.042 247.36 438.663 247.602L437.855 249.679L438.663 251.757C438.042 251.998 437.415 252.226 436.781 252.439L434.099 259.332C430.559 257.955 426.64 257.207 422.456 257.207C418.273 257.207 414.353 257.955 410.814 259.332L408.131 252.439C407.498 252.226 406.87 251.998 406.249 251.757L407.057 249.679L406.249 247.602C406.87 247.36 407.498 247.133 408.131 246.92L410.814 240.027C414.353 241.404 418.273 242.151 422.456 242.151C426.64 242.151 430.559 241.404 434.099 240.027ZM394.468 223.681L382.738 228.246C380.776 223.203 379.757 217.731 379.757 212.039C379.757 206.347 380.776 200.875 382.738 195.832L394.468 200.397C393.091 203.936 392.344 207.856 392.344 212.039C392.344 216.222 393.091 220.142 394.468 223.681ZM394.468 275.677L382.738 271.113C380.776 276.156 379.757 281.628 379.757 287.32C379.757 293.011 380.776 298.484 382.738 303.527L394.468 298.962C393.091 295.423 392.344 291.503 392.344 287.32C392.344 283.136 393.091 279.217 394.468 275.677ZM410.814 315.308L406.249 327.038C411.292 329 416.764 330.019 422.456 330.019C428.148 330.019 433.62 329 438.663 327.038L434.099 315.308C430.559 316.685 426.64 317.432 422.456 317.432C418.273 317.432 414.353 316.685 410.814 315.308ZM450.444 298.962L462.174 303.527C464.137 298.484 465.155 293.011 465.155 287.32C465.155 281.628 464.137 276.156 462.174 271.113L450.444 275.677C451.821 279.217 452.568 283.136 452.568 287.32C452.568 291.503 451.821 295.423 450.444 298.962ZM394.468 148.4L382.738 152.965C380.776 147.922 379.757 142.45 379.757 136.758C379.757 131.066 380.776 125.594 382.738 120.551L394.468 125.116C393.091 128.655 392.344 132.575 392.344 136.758C392.344 140.942 393.091 144.861 394.468 148.4ZM410.814 108.77C414.353 107.393 418.273 106.646 422.456 106.646C426.64 106.646 430.559 107.393 434.099 108.77L438.663 97.0404C433.62 95.0777 428.148 94.0591 422.456 94.0591C416.764 94.0591 411.292 95.0777 406.249 97.0404L410.814 108.77ZM450.444 125.116L462.174 120.551C464.137 125.594 465.155 131.066 465.155 136.758C465.155 142.45 464.137 147.922 462.174 152.965L450.444 148.4C451.821 144.861 452.568 140.942 452.568 136.758C452.568 132.575 451.821 128.655 450.444 125.116ZM584.66 240.027C581.121 241.404 577.201 242.151 573.018 242.151C568.834 242.151 564.915 241.404 561.375 240.027L558.693 246.92C558.059 247.133 557.431 247.36 556.811 247.602L557.619 249.679L556.811 251.757C557.431 251.998 558.059 252.226 558.693 252.439L561.375 259.332C564.915 257.955 568.834 257.207 573.018 257.207C577.201 257.207 581.121 257.954 584.66 259.332L587.343 252.439C587.976 252.226 588.604 251.998 589.225 251.757L588.416 249.679L589.225 247.602C588.604 247.36 587.976 247.133 587.343 246.92L584.66 240.027ZM601.006 275.677L612.735 271.113C614.698 276.156 615.717 281.628 615.717 287.32C615.717 293.011 614.698 298.484 612.735 303.527L601.006 298.962C602.383 295.423 603.13 291.503 603.13 287.32C603.13 283.136 602.383 279.217 601.006 275.677ZM584.66 315.308L587.343 322.201C587.976 322.414 588.604 322.641 589.225 322.883L588.416 324.96L589.225 327.038C588.604 327.279 587.976 327.507 587.343 327.719L584.66 334.613C581.121 333.235 577.201 332.488 573.018 332.488C568.834 332.488 564.915 333.235 561.375 334.613L558.693 327.719C558.059 327.507 557.431 327.279 556.811 327.038L557.619 324.96L556.811 322.883C557.431 322.641 558.059 322.414 558.693 322.201L561.375 315.308C564.915 316.685 568.834 317.432 573.018 317.432C577.201 317.432 581.121 316.685 584.66 315.308ZM545.03 298.962L533.3 303.527C531.337 298.484 530.319 293.011 530.319 287.32C530.319 281.628 531.337 276.156 533.3 271.113L545.03 275.677C543.652 279.217 542.905 283.136 542.905 287.32C542.905 291.503 543.652 295.423 545.03 298.962ZM545.03 350.958L538.137 348.276C537.924 347.642 537.696 347.014 537.455 346.393L535.377 347.202L533.3 346.393C533.058 347.014 532.831 347.642 532.618 348.276L525.725 350.958C527.102 354.498 527.849 358.417 527.849 362.601C527.849 366.784 527.102 370.704 525.725 374.243L532.618 376.926C532.831 377.559 533.058 378.187 533.3 378.808L535.377 377.999L537.455 378.808C537.696 378.187 537.924 377.559 538.137 376.926L545.03 374.243C543.652 370.704 542.905 366.784 542.905 362.601C542.905 358.417 543.652 354.498 545.03 350.958ZM561.375 390.588L556.811 402.318C561.854 404.281 567.326 405.3 573.018 405.3C578.71 405.3 584.182 404.281 589.225 402.318L584.66 390.589C581.121 391.966 577.201 392.713 573.018 392.713C568.834 392.713 564.915 391.966 561.375 390.588ZM601.006 374.243L612.735 378.808C614.698 373.764 615.717 368.292 615.717 362.601C615.717 356.909 614.698 351.437 612.735 346.393L601.006 350.958C602.383 354.497 603.13 358.417 603.13 362.601C603.13 366.784 602.383 370.704 601.006 374.243ZM509.379 390.588L513.944 402.318C508.901 404.281 503.429 405.3 497.737 405.3C492.045 405.3 486.573 404.281 481.53 402.318L486.095 390.589C489.634 391.966 493.554 392.713 497.737 392.713C501.92 392.713 505.84 391.966 509.379 390.588ZM469.749 374.243L458.019 378.808C456.057 373.764 455.038 368.292 455.038 362.601C455.038 356.909 456.057 351.437 458.019 346.393L469.749 350.958C468.372 354.497 467.625 358.417 467.625 362.601C467.625 366.784 468.372 370.704 469.749 374.243ZM486.095 334.613L481.53 322.883C486.573 320.92 492.045 319.901 497.737 319.901C503.429 319.901 508.901 320.92 513.944 322.883L509.379 334.613C505.84 333.235 501.92 332.488 497.737 332.488C493.554 332.488 489.634 333.235 486.095 334.613ZM545.03 223.681L533.3 228.246C531.337 223.203 530.319 217.731 530.319 212.039C530.319 206.347 531.337 200.875 533.3 195.832L545.03 200.397C543.652 203.936 542.905 207.856 542.905 212.039C542.905 216.222 543.652 220.142 545.03 223.681ZM561.375 184.051C564.915 182.674 568.834 181.927 573.018 181.927C577.201 181.927 581.121 182.674 584.66 184.051L589.225 172.321C584.182 170.359 578.71 169.34 573.018 169.34C567.326 169.34 561.854 170.359 556.811 172.321L561.375 184.051ZM601.006 200.397L612.735 195.832C614.698 200.875 615.717 206.347 615.717 212.039C615.717 217.731 614.698 223.203 612.735 228.246L601.006 223.681C602.383 220.142 603.13 216.222 603.13 212.039C603.13 207.856 602.383 203.936 601.006 200.397Z" stroke="black" stroke-width="2.94627" stroke-dasharray="11.79 11.79" mask="url(#path-1-outside-1_1868_15899)"/>
<mask id="path-2-outside-2_1868_15899" maskUnits="userSpaceOnUse" x="52.3586" y="16.7783" width="240" height="390" fill="black">
<rect fill="white" x="52.3586" y="16.7783" width="240" height="390"/>
<path fill-rule="evenodd" clip-rule="evenodd" d="M183.981 89.4652C180.442 90.8426 176.522 91.5897 172.339 91.5897C168.155 91.5897 164.235 90.8426 160.696 89.4652L156.131 101.195C161.175 103.158 166.647 104.176 172.339 104.176C178.03 104.176 183.502 103.158 188.546 101.195L183.981 89.4652ZM144.351 73.1197L132.621 77.6846C130.658 72.6411 129.639 67.169 129.639 61.4773C129.639 55.7857 130.658 50.3136 132.621 45.2701L144.351 49.835C142.973 53.3742 142.226 57.2939 142.226 61.4773C142.226 65.6607 142.973 69.5804 144.351 73.1197ZM160.696 33.4895C164.235 32.1121 168.155 31.365 172.339 31.365C176.522 31.365 180.442 32.1121 183.981 33.4895L188.546 21.7596C183.502 19.7969 178.03 18.7783 172.339 18.7783C166.647 18.7783 161.175 19.7969 156.131 21.7596L160.696 33.4895ZM200.326 49.835L212.056 45.2701C214.019 50.3135 215.038 55.7857 215.038 61.4773C215.038 67.169 214.019 72.6411 212.056 77.6846L200.326 73.1197C201.704 69.5804 202.451 65.6607 202.451 61.4773C202.451 57.2939 201.704 53.3742 200.326 49.835ZM108.7 164.746C105.161 166.123 101.241 166.87 97.0577 166.87C92.8743 166.87 88.9546 166.123 85.4154 164.746L82.7328 171.639C82.0991 171.852 81.4716 172.08 80.8505 172.321L81.6589 174.399L80.8505 176.476C81.4716 176.718 82.0991 176.945 82.7328 177.158L85.4154 184.051C88.9546 182.674 92.8743 181.927 97.0577 181.927C101.241 181.927 105.161 182.674 108.7 184.051L111.383 177.158C112.016 176.945 112.644 176.718 113.265 176.476L112.457 174.399L113.265 172.321C112.644 172.08 112.016 171.852 111.383 171.639L108.7 164.746ZM125.046 200.397L131.939 197.714C132.152 197.08 132.379 196.453 132.621 195.832L134.698 196.64L136.775 195.832C137.017 196.453 137.245 197.08 137.457 197.714L144.351 200.397C142.973 203.936 142.226 207.856 142.226 212.039C142.226 216.222 142.973 220.142 144.351 223.681L137.457 226.364C137.245 226.998 137.017 227.625 136.775 228.246L134.698 227.438L132.621 228.246C132.379 227.625 132.152 226.998 131.939 226.364L125.046 223.681C126.423 220.142 127.17 216.222 127.17 212.039C127.17 207.856 126.423 203.936 125.046 200.397ZM108.7 240.027L111.383 246.92C112.016 247.133 112.644 247.36 113.265 247.602L112.457 249.679L113.265 251.757C112.644 251.998 112.016 252.226 111.383 252.439L108.7 259.332C105.161 257.955 101.241 257.207 97.0577 257.207C92.8743 257.207 88.9546 257.955 85.4154 259.332L82.7328 252.439C82.0991 252.226 81.4716 251.998 80.8505 251.757L81.6589 249.679L80.8505 247.602C81.4716 247.36 82.0991 247.133 82.7328 246.92L85.4154 240.027C88.9546 241.404 92.8743 242.151 97.0577 242.151C101.241 242.151 105.161 241.404 108.7 240.027ZM69.0698 223.681L57.34 228.246C55.3773 223.203 54.3586 217.731 54.3586 212.039C54.3586 206.347 55.3773 200.875 57.34 195.832L69.0698 200.397C67.6925 203.936 66.9454 207.856 66.9454 212.039C66.9454 216.222 67.6925 220.142 69.0698 223.681ZM69.0698 275.677L57.34 271.113C55.3773 276.156 54.3586 281.628 54.3586 287.32C54.3586 293.011 55.3773 298.484 57.34 303.527L69.0698 298.962C67.6925 295.423 66.9454 291.503 66.9454 287.32C66.9454 283.136 67.6925 279.217 69.0698 275.677ZM85.4154 315.308L82.7328 322.201C82.0991 322.414 81.4716 322.641 80.8505 322.883L81.6589 324.96L80.8505 327.038C81.4716 327.279 82.0991 327.507 82.7328 327.719L85.4154 334.613C88.9546 333.235 92.8743 332.488 97.0577 332.488C101.241 332.488 105.161 333.235 108.7 334.613L111.383 327.719C112.016 327.507 112.644 327.279 113.265 327.038L112.457 324.96L113.265 322.883C112.644 322.641 112.016 322.414 111.383 322.201L108.7 315.308C105.161 316.685 101.241 317.432 97.0577 317.432C92.8743 317.432 88.9546 316.685 85.4154 315.308ZM125.046 298.962L136.775 303.527C138.738 298.484 139.757 293.011 139.757 287.32C139.757 281.628 138.738 276.156 136.775 271.113L125.046 275.677C126.423 279.217 127.17 283.136 127.17 287.32C127.17 291.503 126.423 295.423 125.046 298.962ZM125.046 350.958L136.775 346.393C138.738 351.437 139.757 356.909 139.757 362.601C139.757 368.292 138.738 373.764 136.775 378.808L125.046 374.243C126.423 370.704 127.17 366.784 127.17 362.601C127.17 358.417 126.423 354.497 125.046 350.958ZM108.7 390.589L113.265 402.318C108.222 404.281 102.749 405.3 97.0577 405.3C91.3661 405.3 85.894 404.281 80.8505 402.318L85.4154 390.589C88.9546 391.966 92.8743 392.713 97.0577 392.713C101.241 392.713 105.161 391.966 108.7 390.589ZM69.0698 374.243L57.34 378.808C55.3773 373.764 54.3586 368.292 54.3586 362.601C54.3586 356.909 55.3773 351.437 57.34 346.393L69.0698 350.958C67.6925 354.497 66.9454 358.417 66.9454 362.601C66.9454 366.784 67.6925 370.704 69.0698 374.243ZM160.696 240.027L156.131 251.757C161.175 253.719 166.647 254.738 172.339 254.738C178.03 254.738 183.502 253.719 188.546 251.757L183.981 240.027C180.442 241.404 176.522 242.151 172.339 242.151C168.155 242.151 164.235 241.404 160.696 240.027ZM200.326 223.681L207.22 226.364C207.433 226.998 207.66 227.625 207.902 228.246L209.979 227.438L212.056 228.246C212.298 227.625 212.525 226.998 212.738 226.364L219.632 223.681C218.254 220.142 217.507 216.222 217.507 212.039C217.507 207.856 218.254 203.936 219.632 200.397L212.738 197.714C212.525 197.08 212.298 196.453 212.056 195.832L209.979 196.64L207.902 195.832C207.66 196.453 207.433 197.08 207.22 197.714L200.326 200.397C201.704 203.936 202.451 207.856 202.451 212.039C202.451 216.222 201.704 220.142 200.326 223.681ZM183.981 184.051L188.546 172.321C183.502 170.359 178.03 169.34 172.339 169.34C166.647 169.34 161.175 170.359 156.131 172.321L160.696 184.051C164.235 182.674 168.155 181.927 172.339 181.927C176.522 181.927 180.442 182.674 183.981 184.051ZM235.977 184.051L233.294 177.158C232.661 176.945 232.033 176.718 231.412 176.476L232.221 174.399L231.412 172.321C232.033 172.08 232.661 171.852 233.294 171.639L235.977 164.746C239.516 166.123 243.436 166.87 247.619 166.87C251.803 166.87 255.722 166.123 259.262 164.746L261.944 171.639C262.578 171.852 263.206 172.08 263.827 172.321L263.018 174.399L263.827 176.476C263.206 176.718 262.578 176.945 261.944 177.158L259.262 184.051C255.722 182.674 251.803 181.927 247.619 181.927C243.436 181.927 239.516 182.674 235.977 184.051ZM275.607 200.397L287.337 195.832C289.3 200.875 290.318 206.347 290.318 212.039C290.318 217.731 289.3 223.203 287.337 228.246L275.607 223.681C276.985 220.142 277.732 216.222 277.732 212.039C277.732 207.856 276.985 203.936 275.607 200.397ZM259.262 240.027L261.944 246.92C262.578 247.133 263.206 247.36 263.827 247.602L263.018 249.679L263.827 251.757C263.206 251.998 262.578 252.226 261.944 252.439L259.262 259.332C255.723 257.955 251.803 257.207 247.619 257.207C243.436 257.207 239.516 257.955 235.977 259.332L233.294 252.439C232.661 252.226 232.033 251.998 231.412 251.757L232.221 249.679L231.412 247.602C232.033 247.36 232.661 247.133 233.294 246.92L235.977 240.027C239.516 241.404 243.436 242.151 247.619 242.151C251.803 242.151 255.723 241.404 259.262 240.027ZM219.632 275.677L207.902 271.113C205.939 276.156 204.92 281.628 204.92 287.32C204.92 293.011 205.939 298.484 207.902 303.527L219.632 298.962C218.254 295.423 217.507 291.503 217.507 287.32C217.507 283.136 218.254 279.217 219.632 275.677ZM235.977 315.308L233.294 322.201C232.661 322.414 232.033 322.641 231.412 322.883L232.221 324.96L231.412 327.038C232.033 327.279 232.661 327.507 233.294 327.719L235.977 334.613C239.516 333.235 243.436 332.488 247.619 332.488C251.803 332.488 255.723 333.235 259.262 334.613L261.944 327.719C262.578 327.507 263.206 327.279 263.827 327.038L263.018 324.96L263.827 322.883C263.206 322.641 262.578 322.414 261.944 322.201L259.262 315.308C255.723 316.685 251.803 317.432 247.619 317.432C243.436 317.432 239.516 316.685 235.977 315.308ZM275.607 298.962L287.337 303.527C289.3 298.484 290.318 293.011 290.318 287.32C290.318 281.628 289.3 276.156 287.337 271.113L275.607 275.677C276.985 279.217 277.732 283.136 277.732 287.32C277.732 291.503 276.985 295.423 275.607 298.962ZM275.607 350.958L287.337 346.393C289.3 351.437 290.318 356.909 290.318 362.601C290.318 368.292 289.3 373.764 287.337 378.808L275.607 374.243C276.985 370.704 277.732 366.784 277.732 362.601C277.732 358.417 276.985 354.498 275.607 350.958ZM259.262 390.589L263.827 402.318C258.783 404.281 253.311 405.3 247.619 405.3C241.928 405.3 236.456 404.281 231.412 402.318L235.977 390.589C239.516 391.966 243.436 392.713 247.619 392.713C251.803 392.713 255.723 391.966 259.262 390.589ZM219.632 374.243L207.902 378.808C205.939 373.764 204.92 368.292 204.92 362.601C204.92 356.909 205.939 351.437 207.902 346.393L219.632 350.958C218.254 354.498 217.507 358.417 217.507 362.601C217.507 366.784 218.254 370.704 219.632 374.243ZM275.607 148.4L287.337 152.965C289.3 147.922 290.318 142.45 290.318 136.758C290.318 131.066 289.3 125.594 287.337 120.551L275.607 125.116C276.985 128.655 277.732 132.575 277.732 136.758C277.732 140.942 276.985 144.861 275.607 148.4ZM259.262 108.77L263.827 97.0404C258.783 95.0777 253.311 94.0591 247.619 94.0591C241.928 94.0591 236.456 95.0777 231.412 97.0404L235.977 108.77C239.516 107.393 243.436 106.646 247.619 106.646C251.803 106.646 255.722 107.393 259.262 108.77ZM219.632 125.116L207.902 120.551C205.939 125.594 204.92 131.066 204.92 136.758C204.92 142.45 205.939 147.922 207.902 152.965L219.632 148.4C218.254 144.861 217.507 140.942 217.507 136.758C217.507 132.575 218.254 128.655 219.632 125.116ZM69.0698 148.4L57.34 152.965C55.3773 147.922 54.3586 142.45 54.3586 136.758C54.3586 131.066 55.3773 125.594 57.34 120.551L69.0698 125.116C67.6925 128.655 66.9454 132.575 66.9454 136.758C66.9454 140.942 67.6925 144.861 69.0698 148.4ZM85.4154 108.77C88.9546 107.393 92.8743 106.646 97.0577 106.646C101.241 106.646 105.161 107.393 108.7 108.77L113.265 97.0404C108.222 95.0777 102.749 94.0591 97.0577 94.0591C91.3661 94.0591 85.894 95.0777 80.8505 97.0404L85.4154 108.77ZM125.046 125.116L136.775 120.551C138.738 125.594 139.757 131.066 139.757 136.758C139.757 142.45 138.738 147.922 136.775 152.965L125.046 148.4C126.423 144.861 127.17 140.942 127.17 136.758C127.17 132.575 126.423 128.655 125.046 125.116Z"/>
</mask>
<path fill-rule="evenodd" clip-rule="evenodd" d="M183.981 89.4652C180.442 90.8426 176.522 91.5897 172.339 91.5897C168.155 91.5897 164.235 90.8426 160.696 89.4652L156.131 101.195C161.175 103.158 166.647 104.176 172.339 104.176C178.03 104.176 183.502 103.158 188.546 101.195L183.981 89.4652ZM144.351 73.1197L132.621 77.6846C130.658 72.6411 129.639 67.169 129.639 61.4773C129.639 55.7857 130.658 50.3136 132.621 45.2701L144.351 49.835C142.973 53.3742 142.226 57.2939 142.226 61.4773C142.226 65.6607 142.973 69.5804 144.351 73.1197ZM160.696 33.4895C164.235 32.1121 168.155 31.365 172.339 31.365C176.522 31.365 180.442 32.1121 183.981 33.4895L188.546 21.7596C183.502 19.7969 178.03 18.7783 172.339 18.7783C166.647 18.7783 161.175 19.7969 156.131 21.7596L160.696 33.4895ZM200.326 49.835L212.056 45.2701C214.019 50.3135 215.038 55.7857 215.038 61.4773C215.038 67.169 214.019 72.6411 212.056 77.6846L200.326 73.1197C201.704 69.5804 202.451 65.6607 202.451 61.4773C202.451 57.2939 201.704 53.3742 200.326 49.835ZM108.7 164.746C105.161 166.123 101.241 166.87 97.0577 166.87C92.8743 166.87 88.9546 166.123 85.4154 164.746L82.7328 171.639C82.0991 171.852 81.4716 172.08 80.8505 172.321L81.6589 174.399L80.8505 176.476C81.4716 176.718 82.0991 176.945 82.7328 177.158L85.4154 184.051C88.9546 182.674 92.8743 181.927 97.0577 181.927C101.241 181.927 105.161 182.674 108.7 184.051L111.383 177.158C112.016 176.945 112.644 176.718 113.265 176.476L112.457 174.399L113.265 172.321C112.644 172.08 112.016 171.852 111.383 171.639L108.7 164.746ZM125.046 200.397L131.939 197.714C132.152 197.08 132.379 196.453 132.621 195.832L134.698 196.64L136.775 195.832C137.017 196.453 137.245 197.08 137.457 197.714L144.351 200.397C142.973 203.936 142.226 207.856 142.226 212.039C142.226 216.222 142.973 220.142 144.351 223.681L137.457 226.364C137.245 226.998 137.017 227.625 136.775 228.246L134.698 227.438L132.621 228.246C132.379 227.625 132.152 226.998 131.939 226.364L125.046 223.681C126.423 220.142 127.17 216.222 127.17 212.039C127.17 207.856 126.423 203.936 125.046 200.397ZM108.7 240.027L111.383 246.92C112.016 247.133 112.644 247.36 113.265 247.602L112.457 249.679L113.265 251.757C112.644 251.998 112.016 252.226 111.383 252.439L108.7 259.332C105.161 257.955 101.241 257.207 97.0577 257.207C92.8743 257.207 88.9546 257.955 85.4154 259.332L82.7328 252.439C82.0991 252.226 81.4716 251.998 80.8505 251.757L81.6589 249.679L80.8505 247.602C81.4716 247.36 82.0991 247.133 82.7328 246.92L85.4154 240.027C88.9546 241.404 92.8743 242.151 97.0577 242.151C101.241 242.151 105.161 241.404 108.7 240.027ZM69.0698 223.681L57.34 228.246C55.3773 223.203 54.3586 217.731 54.3586 212.039C54.3586 206.347 55.3773 200.875 57.34 195.832L69.0698 200.397C67.6925 203.936 66.9454 207.856 66.9454 212.039C66.9454 216.222 67.6925 220.142 69.0698 223.681ZM69.0698 275.677L57.34 271.113C55.3773 276.156 54.3586 281.628 54.3586 287.32C54.3586 293.011 55.3773 298.484 57.34 303.527L69.0698 298.962C67.6925 295.423 66.9454 291.503 66.9454 287.32C66.9454 283.136 67.6925 279.217 69.0698 275.677ZM85.4154 315.308L82.7328 322.201C82.0991 322.414 81.4716 322.641 80.8505 322.883L81.6589 324.96L80.8505 327.038C81.4716 327.279 82.0991 327.507 82.7328 327.719L85.4154 334.613C88.9546 333.235 92.8743 332.488 97.0577 332.488C101.241 332.488 105.161 333.235 108.7 334.613L111.383 327.719C112.016 327.507 112.644 327.279 113.265 327.038L112.457 324.96L113.265 322.883C112.644 322.641 112.016 322.414 111.383 322.201L108.7 315.308C105.161 316.685 101.241 317.432 97.0577 317.432C92.8743 317.432 88.9546 316.685 85.4154 315.308ZM125.046 298.962L136.775 303.527C138.738 298.484 139.757 293.011 139.757 287.32C139.757 281.628 138.738 276.156 136.775 271.113L125.046 275.677C126.423 279.217 127.17 283.136 127.17 287.32C127.17 291.503 126.423 295.423 125.046 298.962ZM125.046 350.958L136.775 346.393C138.738 351.437 139.757 356.909 139.757 362.601C139.757 368.292 138.738 373.764 136.775 378.808L125.046 374.243C126.423 370.704 127.17 366.784 127.17 362.601C127.17 358.417 126.423 354.497 125.046 350.958ZM108.7 390.589L113.265 402.318C108.222 404.281 102.749 405.3 97.0577 405.3C91.3661 405.3 85.894 404.281 80.8505 402.318L85.4154 390.589C88.9546 391.966 92.8743 392.713 97.0577 392.713C101.241 392.713 105.161 391.966 108.7 390.589ZM69.0698 374.243L57.34 378.808C55.3773 373.764 54.3586 368.292 54.3586 362.601C54.3586 356.909 55.3773 351.437 57.34 346.393L69.0698 350.958C67.6925 354.497 66.9454 358.417 66.9454 362.601C66.9454 366.784 67.6925 370.704 69.0698 374.243ZM160.696 240.027L156.131 251.757C161.175 253.719 166.647 254.738 172.339 254.738C178.03 254.738 183.502 253.719 188.546 251.757L183.981 240.027C180.442 241.404 176.522 242.151 172.339 242.151C168.155 242.151 164.235 241.404 160.696 240.027ZM200.326 223.681L207.22 226.364C207.433 226.998 207.66 227.625 207.902 228.246L209.979 227.438L212.056 228.246C212.298 227.625 212.525 226.998 212.738 226.364L219.632 223.681C218.254 220.142 217.507 216.222 217.507 212.039C217.507 207.856 218.254 203.936 219.632 200.397L212.738 197.714C212.525 197.08 212.298 196.453 212.056 195.832L209.979 196.64L207.902 195.832C207.66 196.453 207.433 197.08 207.22 197.714L200.326 200.397C201.704 203.936 202.451 207.856 202.451 212.039C202.451 216.222 201.704 220.142 200.326 223.681ZM183.981 184.051L188.546 172.321C183.502 170.359 178.03 169.34 172.339 169.34C166.647 169.34 161.175 170.359 156.131 172.321L160.696 184.051C164.235 182.674 168.155 181.927 172.339 181.927C176.522 181.927 180.442 182.674 183.981 184.051ZM235.977 184.051L233.294 177.158C232.661 176.945 232.033 176.718 231.412 176.476L232.221 174.399L231.412 172.321C232.033 172.08 232.661 171.852 233.294 171.639L235.977 164.746C239.516 166.123 243.436 166.87 247.619 166.87C251.803 166.87 255.722 166.123 259.262 164.746L261.944 171.639C262.578 171.852 263.206 172.08 263.827 172.321L263.018 174.399L263.827 176.476C263.206 176.718 262.578 176.945 261.944 177.158L259.262 184.051C255.722 182.674 251.803 181.927 247.619 181.927C243.436 181.927 239.516 182.674 235.977 184.051ZM275.607 200.397L287.337 195.832C289.3 200.875 290.318 206.347 290.318 212.039C290.318 217.731 289.3 223.203 287.337 228.246L275.607 223.681C276.985 220.142 277.732 216.222 277.732 212.039C277.732 207.856 276.985 203.936 275.607 200.397ZM259.262 240.027L261.944 246.92C262.578 247.133 263.206 247.36 263.827 247.602L263.018 249.679L263.827 251.757C263.206 251.998 262.578 252.226 261.944 252.439L259.262 259.332C255.723 257.955 251.803 257.207 247.619 257.207C243.436 257.207 239.516 257.955 235.977 259.332L233.294 252.439C232.661 252.226 232.033 251.998 231.412 251.757L232.221 249.679L231.412 247.602C232.033 247.36 232.661 247.133 233.294 246.92L235.977 240.027C239.516 241.404 243.436 242.151 247.619 242.151C251.803 242.151 255.723 241.404 259.262 240.027ZM219.632 275.677L207.902 271.113C205.939 276.156 204.92 281.628 204.92 287.32C204.92 293.011 205.939 298.484 207.902 303.527L219.632 298.962C218.254 295.423 217.507 291.503 217.507 287.32C217.507 283.136 218.254 279.217 219.632 275.677ZM235.977 315.308L233.294 322.201C232.661 322.414 232.033 322.641 231.412 322.883L232.221 324.96L231.412 327.038C232.033 327.279 232.661 327.507 233.294 327.719L235.977 334.613C239.516 333.235 243.436 332.488 247.619 332.488C251.803 332.488 255.723 333.235 259.262 334.613L261.944 327.719C262.578 327.507 263.206 327.279 263.827 327.038L263.018 324.96L263.827 322.883C263.206 322.641 262.578 322.414 261.944 322.201L259.262 315.308C255.723 316.685 251.803 317.432 247.619 317.432C243.436 317.432 239.516 316.685 235.977 315.308ZM275.607 298.962L287.337 303.527C289.3 298.484 290.318 293.011 290.318 287.32C290.318 281.628 289.3 276.156 287.337 271.113L275.607 275.677C276.985 279.217 277.732 283.136 277.732 287.32C277.732 291.503 276.985 295.423 275.607 298.962ZM275.607 350.958L287.337 346.393C289.3 351.437 290.318 356.909 290.318 362.601C290.318 368.292 289.3 373.764 287.337 378.808L275.607 374.243C276.985 370.704 277.732 366.784 277.732 362.601C277.732 358.417 276.985 354.498 275.607 350.958ZM259.262 390.589L263.827 402.318C258.783 404.281 253.311 405.3 247.619 405.3C241.928 405.3 236.456 404.281 231.412 402.318L235.977 390.589C239.516 391.966 243.436 392.713 247.619 392.713C251.803 392.713 255.723 391.966 259.262 390.589ZM219.632 374.243L207.902 378.808C205.939 373.764 204.92 368.292 204.92 362.601C204.92 356.909 205.939 351.437 207.902 346.393L219.632 350.958C218.254 354.498 217.507 358.417 217.507 362.601C217.507 366.784 218.254 370.704 219.632 374.243ZM275.607 148.4L287.337 152.965C289.3 147.922 290.318 142.45 290.318 136.758C290.318 131.066 289.3 125.594 287.337 120.551L275.607 125.116C276.985 128.655 277.732 132.575 277.732 136.758C277.732 140.942 276.985 144.861 275.607 148.4ZM259.262 108.77L263.827 97.0404C258.783 95.0777 253.311 94.0591 247.619 94.0591C241.928 94.0591 236.456 95.0777 231.412 97.0404L235.977 108.77C239.516 107.393 243.436 106.646 247.619 106.646C251.803 106.646 255.722 107.393 259.262 108.77ZM219.632 125.116L207.902 120.551C205.939 125.594 204.92 131.066 204.92 136.758C204.92 142.45 205.939 147.922 207.902 152.965L219.632 148.4C218.254 144.861 217.507 140.942 217.507 136.758C217.507 132.575 218.254 128.655 219.632 125.116ZM69.0698 148.4L57.34 152.965C55.3773 147.922 54.3586 142.45 54.3586 136.758C54.3586 131.066 55.3773 125.594 57.34 120.551L69.0698 125.116C67.6925 128.655 66.9454 132.575 66.9454 136.758C66.9454 140.942 67.6925 144.861 69.0698 148.4ZM85.4154 108.77C88.9546 107.393 92.8743 106.646 97.0577 106.646C101.241 106.646 105.161 107.393 108.7 108.77L113.265 97.0404C108.222 95.0777 102.749 94.0591 97.0577 94.0591C91.3661 94.0591 85.894 95.0777 80.8505 97.0404L85.4154 108.77ZM125.046 125.116L136.775 120.551C138.738 125.594 139.757 131.066 139.757 136.758C139.757 142.45 138.738 147.922 136.775 152.965L125.046 148.4C126.423 144.861 127.17 140.942 127.17 136.758C127.17 132.575 126.423 128.655 125.046 125.116Z" fill="#007AFF"/>
<path fill-rule="evenodd" clip-rule="evenodd" d="M183.981 89.4652C180.442 90.8426 176.522 91.5897 172.339 91.5897C168.155 91.5897 164.235 90.8426 160.696 89.4652L156.131 101.195C161.175 103.158 166.647 104.176 172.339 104.176C178.03 104.176 183.502 103.158 188.546 101.195L183.981 89.4652ZM144.351 73.1197L132.621 77.6846C130.658 72.6411 129.639 67.169 129.639 61.4773C129.639 55.7857 130.658 50.3136 132.621 45.2701L144.351 49.835C142.973 53.3742 142.226 57.2939 142.226 61.4773C142.226 65.6607 142.973 69.5804 144.351 73.1197ZM160.696 33.4895C164.235 32.1121 168.155 31.365 172.339 31.365C176.522 31.365 180.442 32.1121 183.981 33.4895L188.546 21.7596C183.502 19.7969 178.03 18.7783 172.339 18.7783C166.647 18.7783 161.175 19.7969 156.131 21.7596L160.696 33.4895ZM200.326 49.835L212.056 45.2701C214.019 50.3135 215.038 55.7857 215.038 61.4773C215.038 67.169 214.019 72.6411 212.056 77.6846L200.326 73.1197C201.704 69.5804 202.451 65.6607 202.451 61.4773C202.451 57.2939 201.704 53.3742 200.326 49.835ZM108.7 164.746C105.161 166.123 101.241 166.87 97.0577 166.87C92.8743 166.87 88.9546 166.123 85.4154 164.746L82.7328 171.639C82.0991 171.852 81.4716 172.08 80.8505 172.321L81.6589 174.399L80.8505 176.476C81.4716 176.718 82.0991 176.945 82.7328 177.158L85.4154 184.051C88.9546 182.674 92.8743 181.927 97.0577 181.927C101.241 181.927 105.161 182.674 108.7 184.051L111.383 177.158C112.016 176.945 112.644 176.718 113.265 176.476L112.457 174.399L113.265 172.321C112.644 172.08 112.016 171.852 111.383 171.639L108.7 164.746ZM125.046 200.397L131.939 197.714C132.152 197.08 132.379 196.453 132.621 195.832L134.698 196.64L136.775 195.832C137.017 196.453 137.245 197.08 137.457 197.714L144.351 200.397C142.973 203.936 142.226 207.856 142.226 212.039C142.226 216.222 142.973 220.142 144.351 223.681L137.457 226.364C137.245 226.998 137.017 227.625 136.775 228.246L134.698 227.438L132.621 228.246C132.379 227.625 132.152 226.998 131.939 226.364L125.046 223.681C126.423 220.142 127.17 216.222 127.17 212.039C127.17 207.856 126.423 203.936 125.046 200.397ZM108.7 240.027L111.383 246.92C112.016 247.133 112.644 247.36 113.265 247.602L112.457 249.679L113.265 251.757C112.644 251.998 112.016 252.226 111.383 252.439L108.7 259.332C105.161 257.955 101.241 257.207 97.0577 257.207C92.8743 257.207 88.9546 257.955 85.4154 259.332L82.7328 252.439C82.0991 252.226 81.4716 251.998 80.8505 251.757L81.6589 249.679L80.8505 247.602C81.4716 247.36 82.0991 247.133 82.7328 246.92L85.4154 240.027C88.9546 241.404 92.8743 242.151 97.0577 242.151C101.241 242.151 105.161 241.404 108.7 240.027ZM69.0698 223.681L57.34 228.246C55.3773 223.203 54.3586 217.731 54.3586 212.039C54.3586 206.347 55.3773 200.875 57.34 195.832L69.0698 200.397C67.6925 203.936 66.9454 207.856 66.9454 212.039C66.9454 216.222 67.6925 220.142 69.0698 223.681ZM69.0698 275.677L57.34 271.113C55.3773 276.156 54.3586 281.628 54.3586 287.32C54.3586 293.011 55.3773 298.484 57.34 303.527L69.0698 298.962C67.6925 295.423 66.9454 291.503 66.9454 287.32C66.9454 283.136 67.6925 279.217 69.0698 275.677ZM85.4154 315.308L82.7328 322.201C82.0991 322.414 81.4716 322.641 80.8505 322.883L81.6589 324.96L80.8505 327.038C81.4716 327.279 82.0991 327.507 82.7328 327.719L85.4154 334.613C88.9546 333.235 92.8743 332.488 97.0577 332.488C101.241 332.488 105.161 333.235 108.7 334.613L111.383 327.719C112.016 327.507 112.644 327.279 113.265 327.038L112.457 324.96L113.265 322.883C112.644 322.641 112.016 322.414 111.383 322.201L108.7 315.308C105.161 316.685 101.241 317.432 97.0577 317.432C92.8743 317.432 88.9546 316.685 85.4154 315.308ZM125.046 298.962L136.775 303.527C138.738 298.484 139.757 293.011 139.757 287.32C139.757 281.628 138.738 276.156 136.775 271.113L125.046 275.677C126.423 279.217 127.17 283.136 127.17 287.32C127.17 291.503 126.423 295.423 125.046 298.962ZM125.046 350.958L136.775 346.393C138.738 351.437 139.757 356.909 139.757 362.601C139.757 368.292 138.738 373.764 136.775 378.808L125.046 374.243C126.423 370.704 127.17 366.784 127.17 362.601C127.17 358.417 126.423 354.497 125.046 350.958ZM108.7 390.589L113.265 402.318C108.222 404.281 102.749 405.3 97.0577 405.3C91.3661 405.3 85.894 404.281 80.8505 402.318L85.4154 390.589C88.9546 391.966 92.8743 392.713 97.0577 392.713C101.241 392.713 105.161 391.966 108.7 390.589ZM69.0698 374.243L57.34 378.808C55.3773 373.764 54.3586 368.292 54.3586 362.601C54.3586 356.909 55.3773 351.437 57.34 346.393L69.0698 350.958C67.6925 354.497 66.9454 358.417 66.9454 362.601C66.9454 366.784 67.6925 370.704 69.0698 374.243ZM160.696 240.027L156.131 251.757C161.175 253.719 166.647 254.738 172.339 254.738C178.03 254.738 183.502 253.719 188.546 251.757L183.981 240.027C180.442 241.404 176.522 242.151 172.339 242.151C168.155 242.151 164.235 241.404 160.696 240.027ZM200.326 223.681L207.22 226.364C207.433 226.998 207.66 227.625 207.902 228.246L209.979 227.438L212.056 228.246C212.298 227.625 212.525 226.998 212.738 226.364L219.632 223.681C218.254 220.142 217.507 216.222 217.507 212.039C217.507 207.856 218.254 203.936 219.632 200.397L212.738 197.714C212.525 197.08 212.298 196.453 212.056 195.832L209.979 196.64L207.902 195.832C207.66 196.453 207.433 197.08 207.22 197.714L200.326 200.397C201.704 203.936 202.451 207.856 202.451 212.039C202.451 216.222 201.704 220.142 200.326 223.681ZM183.981 184.051L188.546 172.321C183.502 170.359 178.03 169.34 172.339 169.34C166.647 169.34 161.175 170.359 156.131 172.321L160.696 184.051C164.235 182.674 168.155 181.927 172.339 181.927C176.522 181.927 180.442 182.674 183.981 184.051ZM235.977 184.051L233.294 177.158C232.661 176.945 232.033 176.718 231.412 176.476L232.221 174.399L231.412 172.321C232.033 172.08 232.661 171.852 233.294 171.639L235.977 164.746C239.516 166.123 243.436 166.87 247.619 166.87C251.803 166.87 255.722 166.123 259.262 164.746L261.944 171.639C262.578 171.852 263.206 172.08 263.827 172.321L263.018 174.399L263.827 176.476C263.206 176.718 262.578 176.945 261.944 177.158L259.262 184.051C255.722 182.674 251.803 181.927 247.619 181.927C243.436 181.927 239.516 182.674 235.977 184.051ZM275.607 200.397L287.337 195.832C289.3 200.875 290.318 206.347 290.318 212.039C290.318 217.731 289.3 223.203 287.337 228.246L275.607 223.681C276.985 220.142 277.732 216.222 277.732 212.039C277.732 207.856 276.985 203.936 275.607 200.397ZM259.262 240.027L261.944 246.92C262.578 247.133 263.206 247.36 263.827 247.602L263.018 249.679L263.827 251.757C263.206 251.998 262.578 252.226 261.944 252.439L259.262 259.332C255.723 257.955 251.803 257.207 247.619 257.207C243.436 257.207 239.516 257.955 235.977 259.332L233.294 252.439C232.661 252.226 232.033 251.998 231.412 251.757L232.221 249.679L231.412 247.602C232.033 247.36 232.661 247.133 233.294 246.92L235.977 240.027C239.516 241.404 243.436 242.151 247.619 242.151C251.803 242.151 255.723 241.404 259.262 240.027ZM219.632 275.677L207.902 271.113C205.939 276.156 204.92 281.628 204.92 287.32C204.92 293.011 205.939 298.484 207.902 303.527L219.632 298.962C218.254 295.423 217.507 291.503 217.507 287.32C217.507 283.136 218.254 279.217 219.632 275.677ZM235.977 315.308L233.294 322.201C232.661 322.414 232.033 322.641 231.412 322.883L232.221 324.96L231.412 327.038C232.033 327.279 232.661 327.507 233.294 327.719L235.977 334.613C239.516 333.235 243.436 332.488 247.619 332.488C251.803 332.488 255.723 333.235 259.262 334.613L261.944 327.719C262.578 327.507 263.206 327.279 263.827 327.038L263.018 324.96L263.827 322.883C263.206 322.641 262.578 322.414 261.944 322.201L259.262 315.308C255.723 316.685 251.803 317.432 247.619 317.432C243.436 317.432 239.516 316.685 235.977 315.308ZM275.607 298.962L287.337 303.527C289.3 298.484 290.318 293.011 290.318 287.32C290.318 281.628 289.3 276.156 287.337 271.113L275.607 275.677C276.985 279.217 277.732 283.136 277.732 287.32C277.732 291.503 276.985 295.423 275.607 298.962ZM275.607 350.958L287.337 346.393C289.3 351.437 290.318 356.909 290.318 362.601C290.318 368.292 289.3 373.764 287.337 378.808L275.607 374.243C276.985 370.704 277.732 366.784 277.732 362.601C277.732 358.417 276.985 354.498 275.607 350.958ZM259.262 390.589L263.827 402.318C258.783 404.281 253.311 405.3 247.619 405.3C241.928 405.3 236.456 404.281 231.412 402.318L235.977 390.589C239.516 391.966 243.436 392.713 247.619 392.713C251.803 392.713 255.723 391.966 259.262 390.589ZM219.632 374.243L207.902 378.808C205.939 373.764 204.92 368.292 204.92 362.601C204.92 356.909 205.939 351.437 207.902 346.393L219.632 350.958C218.254 354.498 217.507 358.417 217.507 362.601C217.507 366.784 218.254 370.704 219.632 374.243ZM275.607 148.4L287.337 152.965C289.3 147.922 290.318 142.45 290.318 136.758C290.318 131.066 289.3 125.594 287.337 120.551L275.607 125.116C276.985 128.655 277.732 132.575 277.732 136.758C277.732 140.942 276.985 144.861 275.607 148.4ZM259.262 108.77L263.827 97.0404C258.783 95.0777 253.311 94.0591 247.619 94.0591C241.928 94.0591 236.456 95.0777 231.412 97.0404L235.977 108.77C239.516 107.393 243.436 106.646 247.619 106.646C251.803 106.646 255.722 107.393 259.262 108.77ZM219.632 125.116L207.902 120.551C205.939 125.594 204.92 131.066 204.92 136.758C204.92 142.45 205.939 147.922 207.902 152.965L219.632 148.4C218.254 144.861 217.507 140.942 217.507 136.758C217.507 132.575 218.254 128.655 219.632 125.116ZM69.0698 148.4L57.34 152.965C55.3773 147.922 54.3586 142.45 54.3586 136.758C54.3586 131.066 55.3773 125.594 57.34 120.551L69.0698 125.116C67.6925 128.655 66.9454 132.575 66.9454 136.758C66.9454 140.942 67.6925 144.861 69.0698 148.4ZM85.4154 108.77C88.9546 107.393 92.8743 106.646 97.0577 106.646C101.241 106.646 105.161 107.393 108.7 108.77L113.265 97.0404C108.222 95.0777 102.749 94.0591 97.0577 94.0591C91.3661 94.0591 85.894 95.0777 80.8505 97.0404L85.4154 108.77ZM125.046 125.116L136.775 120.551C138.738 125.594 139.757 131.066 139.757 136.758C139.757 142.45 138.738 147.922 136.775 152.965L125.046 148.4C126.423 144.861 127.17 140.942 127.17 136.758C127.17 132.575 126.423 128.655 125.046 125.116Z" stroke="black" stroke-width="2.94627" stroke-dasharray="11.79 11.79" mask="url(#path-2-outside-2_1868_15899)"/>
<path d="M1.81148 389.967L1.40743 390.978H2.49536H50.8509H51.3568L51.5384 390.505L91.6531 286.207H248.804L288.919 390.505L289.101 390.978H289.606H340.48H341.57L341.164 389.967L199.623 37.374L199.438 36.9118H198.94H143.532H143.034L142.848 37.3748L1.81148 389.967ZM170.229 81.542L179.614 106.412L179.616 106.417L233.629 246.453H106.828L160.842 106.417L160.844 106.412L170.229 81.542Z" stroke="black" stroke-width="1.47313"/>
<path d="M645.994 141.638H646.827L646.725 140.811C638.609 75.3791 579.783 29.8542 501.934 29.8542C455.923 29.8542 412.913 46.1623 381.406 77.7334C349.894 109.309 329.938 156.098 329.938 216.961C329.938 268.489 345.978 314.131 375.016 346.901C404.062 379.681 446.074 399.535 497.905 399.535C546.843 399.535 589.083 375.873 608.99 344.957V391.243V391.979H609.727H647.505H648.241V391.243V206.887V206.15H647.505H494.882H494.146V206.887V245.672V246.409H494.882H604.961V252.22C604.961 287.839 594.554 314.704 576.219 332.665C557.881 350.629 531.516 359.78 499.416 359.78C428.421 359.78 379.767 299.298 379.767 216.961C379.767 168.229 392.828 131.525 414.589 107.013C436.342 82.5096 466.857 70.1125 501.934 70.1125C551.516 70.1125 589.427 99.1361 596.408 141.023L596.51 141.638H597.134H645.994Z" stroke="black" stroke-width="1.47313"/>
<rect x="94.166" y="1.34027" width="10.876" height="10.876" fill="white" stroke="black"/>
<rect x="233.428" y="1.34027" width="10.876" height="10.876" fill="white" stroke="black"/>
<rect x="368.383" y="387.422" width="10.876" height="10.876" fill="white" stroke="black"/>
<rect x="368.383" y="1.34027" width="10.876" height="10.876" fill="white" stroke="black"/>
<rect x="676.5" y="387.422" width="10.876" height="10.876" fill="white" stroke="black"/>
<rect x="676.5" y="328.809" width="10.876" height="10.876" fill="white" stroke="black"/>
<line x1="105.146" y1="6.27826" x2="232.928" y2="6.27826" stroke="black"/>
<line x1="372.992" y1="12.7162" x2="372.992" y2="386.922" stroke="black"/>
<rect x="14.9442" y="276.688" width="10.876" height="10.876" fill="white" stroke="black"/>
<rect x="14.9442" y="246.946" width="10.876" height="10.876" fill="white" stroke="black"/>
<line x1="19.7551" y1="258.322" x2="19.7551" y2="276.188" stroke="black"/>
<line x1="681.419" y1="340.185" x2="681.419" y2="386.922" stroke="black"/>
</svg>
