<svg width="210" height="210" viewBox="0 0 210 210" fill="none" xmlns="http://www.w3.org/2000/svg">
<circle cx="105.005" cy="104.783" r="104.289" fill="url(#paint0_radial_2424_242)"/>
<path d="M83.9958 67.0487C76.7047 67.0487 72.1878 61.4648 72.1878 54.2092C72.1878 45.6377 77.8073 41.0497 84.2804 41.0497C89.7576 41.0497 93.8833 44.2506 94.4523 48.8387H91.0024C90.5045 45.8511 87.8014 43.7883 84.2804 43.7883C79.3011 43.7883 75.6022 47.3093 75.6022 54.2092C75.6022 60.0421 79.0521 64.3456 84.1025 64.3456C88.655 64.3456 91.607 61.7493 91.607 56.6989V56.2365H83.7824V53.4979H94.559V66.5152H91.8916V65.4126V63.0653C90.54 65.3059 87.5169 67.0487 83.9958 67.0487ZM99.9404 66.5152V41.6187H116.123V44.3218H103.177V52.4665H115.554V55.2051H103.177V63.7766H116.55V66.5152H99.9404ZM127.34 66.5152V44.3218H118.733V41.6187H139.148V44.3218H130.576V66.5152H127.34ZM89.3629 97.5152L99.3215 72.6187H103.234L113.228 97.5152H109.636L106.79 90.1174H95.6226L92.7773 97.5152H89.3629ZM96.654 87.4143H105.759L101.918 77.4557L101.206 75.5707L100.495 77.4557L96.654 87.4143ZM64.3566 128.515V103.619H80.5749V106.322H67.5932V114.466H79.9703V117.205H67.5932V128.515H64.3566ZM85.0574 128.515V103.619H95.6206C100.387 103.619 103.41 105.966 103.41 110.163C103.41 113.293 101.062 115.533 98.8216 116.209C101.169 116.6 102.876 118.628 102.876 121.9V128.515H99.6396V122.789C99.6396 118.841 98.1103 117.632 94.4114 117.632H88.2939V128.515H85.0574ZM94.8382 114.893C98.1814 114.893 100.102 113.364 100.102 110.554C100.102 107.744 98.1814 106.322 94.8382 106.322H88.2939V114.893H94.8382ZM108.71 128.515V103.619H124.893V106.322H111.947V114.466H124.324V117.205H111.947V125.777H125.32V128.515H108.71ZM130.384 128.515V103.619H146.566V106.322H133.62V114.466H145.997V117.205H133.62V125.777H146.993V128.515H130.384ZM39.2274 159.515V134.619H48.9371C53.2762 134.619 57.473 136.219 57.473 141.696C57.473 147.138 53.454 148.739 48.9371 148.739H42.464V159.515H39.2274ZM48.9015 146.036C52.7071 146.036 54.1653 144.328 54.1653 141.696C54.1653 139.029 52.7071 137.322 48.9015 137.322H42.464V146.036H48.9015ZM71.9088 160.049C65.2223 160.049 60.1008 154.892 60.1008 147.067C60.1008 139.242 65.1868 134.05 71.9088 134.05C78.6664 134.05 83.7169 139.242 83.7169 147.067C83.7169 154.892 78.5953 160.049 71.9088 160.049ZM71.9088 157.346C76.9592 157.346 80.3025 153.433 80.3025 147.067C80.3025 140.701 76.8881 136.788 71.9088 136.788C66.9651 136.788 63.5151 140.701 63.5151 147.067C63.5151 153.433 66.8584 157.346 71.9088 157.346ZM96.7986 160.049C90.7523 160.049 86.8045 156.777 86.7333 151.513H90.041C90.2544 155.105 92.8863 157.346 96.8342 157.346C100.924 157.346 103.165 155.532 103.165 152.829C103.165 150.446 101.173 149.379 98.2213 148.703L94.5224 147.849C90.7168 146.96 87.5869 144.791 87.5869 140.985C87.5869 136.966 91.4281 134.05 96.6919 134.05C102.062 134.05 105.655 136.966 105.939 141.59H102.632C102.418 138.638 100.106 136.788 96.6208 136.788C93.3842 136.788 91.0013 138.424 91.0013 140.701C91.0013 142.835 92.424 144.115 95.3404 144.791L99.7506 145.787C103.699 146.711 106.579 148.845 106.579 152.615C106.579 156.705 102.916 160.049 96.7986 160.049ZM116.503 159.515V137.322H107.896V134.619H128.311V137.322H119.74V159.515H116.503ZM131.86 159.515V134.619H148.043V137.322H135.096V145.466H147.474V148.205H135.096V156.777H148.469V159.515H131.86ZM153.533 159.515V134.619H164.096C168.862 134.619 171.885 136.966 171.885 141.163C171.885 144.293 169.538 146.533 167.297 147.209C169.645 147.6 171.352 149.628 171.352 152.9V159.515H168.115V153.789C168.115 149.841 166.586 148.632 162.887 148.632H156.77V159.515H153.533ZM163.314 145.893C166.657 145.893 168.578 144.364 168.578 141.554C168.578 138.744 166.657 137.322 163.314 137.322H156.77V145.893H163.314Z" fill="#CE6ECA"/>
<defs>
<radialGradient id="paint0_radial_2424_242" cx="0" cy="0" r="1" gradientUnits="userSpaceOnUse" gradientTransform="translate(105.005 104.783) rotate(90) scale(139.607 144.882)">
<stop offset="0.165" stop-color="#D4FD7D"/>
<stop offset="1" stop-color="#15D076"/>
</radialGradient>
</defs>
</svg>
